<?xml version="1.0" encoding="utf-8"?>
<!-- Generator: Adobe Illustrator 23.0.2, SVG Export Plug-In . SVG Version: 6.00 Build 0)  -->
<svg version="1.1" id="圖層_1" xmlns="http://www.w3.org/2000/svg" xmlns:xlink="http://www.w3.org/1999/xlink" x="0px" y="0px"
	 viewBox="0 0 489 479" style="enable-background:new 0 0 489 479;" xml:space="preserve">
<style type="text/css">
	.st0{fill:#FFF200;}
	.st1{fill:#B4D35E;}
	.st2{fill:#158A6F;}
	.st3{fill:#74BA2B;}
	.st4{fill:#236634;}
	.st5{fill:url(#路径_35_1_);}
	.st6{fill:url(#椭圆_2_1_);}
	.st7{fill:#FFFFFF;}
	.st8{fill:#244D96;}
	.st9{fill:#163A66;}
	.st10{fill:#FAF9F9;}
	.st11{fill:#F2C196;}
	.st12{fill:#7D97CD;}
	.st13{fill:#E59A1D;}
	.st14{fill:#221714;}
	.st15{fill:#271C19;}
	.st16{fill:#EBB148;}
	.st17{fill:url(#路径_47_1_);}
	.st18{fill:#414C58;}
	.st19{fill:#654E95;}
	.st20{fill:#EA9A36;}
	.st21{fill:#383331;}
	.st22{fill:#C5E6F3;}
	.st23{fill:#4F7DBE;}
</style>
<g id="组_47_2_" transform="translate(408.956 243.35)">
	<path id="路径_27_2_" class="st0" d="M-84.5-183.5l-73.4,73.4l73.4,73.4l-73.4,73.4l73.4,73.4L62.2-36.7L-84.5-183.5z"/>
	<g id="组_45_2_" transform="translate(0 61.97)">
		<g id="组_32_2_" transform="translate(16.282 13.55)">
			<g id="组_27_2_" transform="translate(69.669)">
				<g id="组_26_2_">
					<path id="路径_28_2_" class="st1" d="M-355.8-28.7c0,0,30.4-55.2,17.9-92.7c-15.3-46-36.5-62-36.5-62
						S-434.8-113.2-355.8-28.7z"/>
					<path id="路径_29_2_" class="st2" d="M-361.8-156.8l-1.1,1l-11.3,10.6c-2-26.2-0.2-38.3-0.2-38.3
						c-2.3,12.3-3.3,24.7-3.1,37.2l-7.1-8.7l7.2,13.6c0.2,5.9,0.5,11.9,1,17.8l-9.3-14.8l9.8,19.6c0.5,4.8,1.1,9.6,1.7,14.3
						l-14.7-19.6l15.7,26.7c1,6.5,2.1,12.7,3.2,18.6l-13.8-13.8l15.6,22.7c1.3,6,2.5,11.5,3.7,16.2l-13.7-17.6l15,26
						c2.1,6.7,5,13.8,5,13.8l2.4,2.7l2.3-4.5c-2-4.6-3.6-9.4-4.8-14.2l8.2-22.4l-9.6,14.9c-1.2-5.2-2.3-10.3-3.3-15.2l13.8-24.7
						l-15.3,17.8c-1.4-6.9-2.6-13.4-3.6-19.6l13.6-22.5l-14.6,16.6c-0.9-5.4-1.6-10.5-2.3-15.3l12.5-24.2l-13.3,17.5
						c-0.8-6.2-1.3-11.9-1.8-17.1L-361.8-156.8z"/>
				</g>
			</g>
			<g id="组_29_2_" transform="translate(0 81.398)">
				<g id="组_28_2_">
					<path id="路径_30_2_" class="st1" d="M-282.3-112.8c0,0-53.6,4.6-78.5-18.2c-30.5-27.9-35.7-50-35.7-50
						S-320.8-203.6-282.3-112.8z"/>
					<path id="路径_31_2_" class="st2" d="M-380.1-161.8l1.2-0.5l12.2-5.2c-19.7-10.6-29.8-13.5-29.8-13.5
						c10.4,2.5,20.4,6,30.1,10.5l-4.3-8.5l8.1,10.3c4.6,2.2,9.1,4.5,13.5,7l-8.3-12.4l11.9,14.4c3.6,2.1,7.1,4.2,10.6,6.3
						l-10.2-18.2l15.4,21.5c4.7,3,9.2,6,13.4,9l-6-15.5l12.3,20c4.2,3.1,8.1,5.9,11.4,8.5l-9-16.8l15.1,20.7c4.5,4,9,8.7,9,8.7
						l1.2,2.8l-4.3,0.2c-2.9-3.1-6.1-6-9.4-8.7l-20.3-1.4l14.9-2.3c-3.7-2.8-7.2-5.4-10.7-7.9l-24.1,2.2l19.2-5.7
						c-4.9-3.5-9.6-6.7-14-9.6l-22.2,2.8l18-5.6c-3.9-2.5-7.6-4.9-11.2-7.1l-23.2,1.3l18.2-4.3c-4.6-2.8-8.9-5.2-12.8-7.3
						L-380.1-161.8z"/>
				</g>
			</g>
			<g id="组_31_2_" transform="translate(49.016 54.352)">
				<g id="组_30_2_">
					<path id="路径_32_2_" class="st3" d="M-333.1-84.8c0,0-43.8-17.6-54.3-45.3c-12.9-34-8.2-53.3-8.2-53.3
						S-327.3-171.2-333.1-84.8z"/>
					<path id="路径_33_2_" class="st2" d="M-390.3-162l1.1,0.1l11.6,0.8c-11.2-16.1-18-22.4-18-22.4c7.1,6,13.7,12.8,19.4,20.2
						l0-8.4l2.3,11.3c2.7,3.5,5.3,7.2,7.8,10.8l-1.6-13l3.6,16c2,3,4,6.1,5.8,9.1l-0.8-18.3l3.5,22.9c2.5,4.2,4.8,8.4,6.9,12.3
						l1.5-14.6l1.7,20.6c2.1,4.1,4,7.9,5.5,11.2l-0.4-16.7l3.6,22.2c2,4.9,3.6,10.4,3.6,10.4l-0.2,2.7l-3.5-1.5
						c-1-3.6-2.4-7.1-4-10.5L-356-106l12.6,4.1c-1.8-3.6-3.5-7.1-5.3-10.4l-19.7-7.8l17.3,3.1c-2.5-4.7-4.9-9-7.2-13.1l-18.5-6.6
						l16.3,2.7c-2-3.5-4-6.9-5.9-10l-18.7-8.2l16,3.8c-2.5-4-4.9-7.6-7.1-10.8L-390.3-162z"/>
				</g>
			</g>
		</g>
		<g id="组_36_2_" transform="translate(0 237.78)">
			<g id="组_35_2_">
				<g id="组_33_2_" transform="translate(0 14.766)">
					<path id="路径_34_2_" class="st4" d="M-8.6-183.5v6.5c0,0.3-0.1,0.6-0.3,0.8v-6.5C-8.7-182.9-8.7-183.2-8.6-183.5"/>
					
						<linearGradient id="路径_35_1_" gradientUnits="userSpaceOnUse" x1="-1003.0395" y1="229.0306" x2="-1001.9945" y2="229.0306" gradientTransform="matrix(387.8683 0 0 -21.286 388644.9375 4702.2896)">
						<stop  offset="0" style="stop-color:#449D51"/>
						<stop  offset="0.434" style="stop-color:#58B35F"/>
						<stop  offset="1" style="stop-color:#80C276"/>
					</linearGradient>
					<path id="路径_35_2_" class="st5" d="M-8.6-183.5c0,0.3-0.1,0.6-0.3,0.8c0,0.1-0.1,0.1-0.1,0.2c0,0,0,0-0.1,0.1
						c0,0.1-0.1,0.1-0.2,0.2l-0.1,0.1c-0.1,0.1-0.2,0.1-0.2,0.2l0,0c-0.1,0.1-0.2,0.1-0.3,0.2c0,0-0.1,0.1-0.1,0.1s-0.1,0.1-0.2,0.1
						s-0.1,0.1-0.1,0.1s-0.1,0.1-0.2,0.1s-0.1,0.1-0.2,0.1s-0.1,0.1-0.2,0.1s-0.1,0.1-0.2,0.1l-0.2,0.1l-0.2,0.1
						c-0.1,0-0.2,0.1-0.2,0.1l-0.2,0.1l-0.3,0.1l-0.2,0.1l-0.3,0.1l-0.2,0.1c-0.1,0-0.2,0.1-0.3,0.1l-0.2,0.1l-0.2,0.1l-0.3,0.1
						l-0.2,0.1l-0.3,0.1l-0.2,0.1l-0.4,0.1l-0.2,0.1l-0.5,0.1l-0.1,0c-0.2,0.1-0.4,0.1-0.6,0.2l-0.2,0l-0.5,0.1l-0.2,0.1L-18-179
						l-0.3,0.1l-0.4,0.1l-0.3,0.1c-0.2,0-0.3,0.1-0.5,0.1l-0.3,0.1c-0.2,0-0.4,0.1-0.6,0.1l-0.2,0c-0.3,0.1-0.5,0.1-0.8,0.2l-0.1,0
						l-0.7,0.1l-0.3,0.1l-0.5,0.1l-0.3,0.1l-0.5,0.1l-0.3,0.1l-0.6,0.1l-0.3,0.1l-0.6,0.1l-0.3,0c-0.3,0.1-0.6,0.1-0.9,0.2l-0.1,0
						l-0.8,0.1l-0.3,0.1l-0.6,0.1l-0.4,0.1l-0.6,0.1l-0.4,0.1l-0.6,0.1l-0.4,0.1l-0.7,0.1l-0.3,0l-1.1,0.1h0c-0.4,0-0.7,0.1-1.1,0.1
						l-0.4,0c-0.2,0-0.5,0.1-0.7,0.1l-0.4,0.1l-0.7,0.1l-0.5,0.1l-0.7,0.1l-0.5,0.1l-0.8,0.1l-0.4,0l-1,0.1l-0.2,0
						c-0.4,0-0.8,0.1-1.2,0.1l-0.4,0l-0.9,0.1l-0.5,0l-0.8,0.1l-0.5,0.1l-0.8,0.1l-0.5,0.1l-0.8,0.1l-0.5,0l-1,0.1l-0.3,0l-1.3,0.1
						l-0.3,0l-1,0.1l-0.5,0l-0.9,0.1l-0.5,0l-0.9,0.1l-0.5,0l-0.9,0.1l-0.5,0l-1.1,0.1l-0.4,0c-0.5,0-1,0.1-1.5,0.1l-0.3,0l-1.2,0.1
						l-0.5,0l-1,0.1l-0.6,0l-0.9,0.1l-0.6,0l-1,0.1l-0.6,0l-1.1,0.1l-0.5,0l-1.6,0.1l-0.2,0l-1.4,0.1l-0.5,0l-1.1,0.1l-0.6,0l-1,0.1
						l-0.7,0l-1,0.1l-0.6,0l-1.1,0.1l-0.6,0l-1.5,0.1l-0.1,0l-1.7,0.1l-0.6,0l-1.2,0.1l-0.6,0l-1.1,0.1l-0.7,0l-1.1,0.1l-0.7,0
						l-1.2,0.1l-0.6,0l-1.5,0.1l-0.3,0l-1.8,0.1l-0.6,0l-1.2,0.1l-0.7,0l-1.2,0.1l-0.7,0.1l-1.1,0.1l-0.7,0l-1.2,0.1l-0.7,0
						l-1.4,0.1l-0.5,0l-1.9,0.1l-0.4,0l-1.5,0.1l-0.7,0l-1.2,0.1l-0.8,0l-1.2,0l-0.8,0l-1.2,0l-0.7,0l-1.4,0.1l-0.6,0l-2,0.1l-0.4,0
						l-1.6,0.1l-0.7,0l-1.3,0l-0.8,0l-1.2,0l-0.8,0l-1.3,0l-0.8,0l-1.3,0l-0.7,0l-2,0.1h0l-2,0.1l-0.7,0l-1.4,0l-0.8,0l-1.3,0
						l-0.8,0l-1.3,0l-0.8,0l-1.4,0l-0.7,0l-1.9,0l-0.2,0l-2.1,0.1l-0.7,0l-1.5,0l-0.8,0l-1.3,0l-0.9,0l-1.3,0l-0.8,0l-1.4,0l-0.8,0
						l-1.7,0l-0.5,0l-2.2,0l-0.6,0l-1.6,0l-0.8,0l-1.4,0l-0.9,0c-0.5,0-0.9,0-1.4,0l-0.8,0l-1.5,0l-0.8,0l-1.7,0l-0.5,0l-2.3,0
						l-0.5,0l-1.8,0l-0.8,0l-1.4,0l-0.9,0l-1.4,0l-0.9,0l-1.4,0l-0.9,0l-1.6,0h-0.7l-2.3,0h-0.3c-0.7,0-1.3,0-2,0h-0.8l-1.6,0h-0.9
						h-1.4h-0.9c-0.5,0-1,0-1.5,0h-0.9h-1.6h-3.1c-107.1,0-193.9-6.6-193.9-14.8v6.5c0,8.2,86.8,14.8,193.9,14.8h3.1h1.6h0.9h1.5
						h0.9h1.4h0.9l1.6,0h0.8l2,0h0.3c0.8,0,1.5,0,2.3,0h0.7l1.6,0l0.9,0l1.4,0l0.9,0l1.4,0l0.9,0l1.4,0l0.8,0l1.8,0h0.5l2.3,0l0.5,0
						l1.7,0l0.8,0l1.5,0l0.8,0l1.4,0l0.9,0l1.4,0l0.8,0l1.6,0l0.6,0c0.7,0,1.5,0,2.2,0l0.5,0l1.7,0l0.8,0l1.4,0l0.8,0l1.3,0l0.9,0
						l1.3,0l0.8,0l1.5,0l0.7,0l2.1-0.1l0.2,0l1.9,0l0.7,0l1.4,0l0.8,0l1.3,0l0.8,0l1.3,0l0.8,0l1.4,0l0.7,0l2-0.1h0l2-0.1l0.7,0
						l1.3,0l0.8,0l1.3,0l0.8,0l1.2,0l0.8,0l1.3,0l0.7,0l1.6-0.1l0.4,0l2-0.1l0.6,0l1.4-0.1l0.7,0l1.2-0.1l0.8,0l1.2,0l0.8,0l1.2-0.1
						l0.7,0l1.5-0.1l0.4,0l1.9-0.1l0.5,0l1.4-0.1l0.7,0l1.2-0.1l0.7,0l1.1-0.1l0.7,0l1.2-0.1l0.7,0l1.2-0.1l0.6,0l1.8-0.1l0.3,0
						l1.5-0.1l0.6,0l1.2-0.1l0.7,0l1.1-0.1l0.7,0l1.1-0.1l0.6,0l1.2-0.1l0.6,0l1.7-0.1l0.1,0l1.5-0.1l0.6,0l1.1-0.1l0.6,0l1-0.1
						l0.7,0l1-0.1l0.6,0l1.1-0.1l0.5,0c0.5,0,0.9-0.1,1.4-0.1l0.2,0l1.6-0.1l0.5,0l1.1-0.1l0.6,0l1-0.1l0.6,0l0.9-0.1l0.6,0l1-0.1
						l0.5,0l1.2-0.1l0.3,0l1.5-0.1l0.4,0l1.1-0.1l0.5,0l0.9-0.1l0.5,0l0.9-0.1l0.5,0l0.9-0.1l0.5,0c0.3,0,0.7-0.1,1-0.1l0.3,0
						l1.3-0.1l0.3,0l1-0.1l0.5,0l0.8-0.1l0.5-0.1l0.8-0.1l0.5-0.1l0.8-0.1l0.5,0l0.9-0.1l0.4,0l1.2-0.1l0.2,0l1-0.1l0.4,0l0.8-0.1
						l0.5-0.1l0.7-0.1l0.5-0.1l0.7-0.1l0.4-0.1l0.7-0.1l0.4,0l1.1-0.1h0l1.1-0.1l0.3,0c0.2,0,0.5-0.1,0.7-0.1l0.4-0.1l0.6-0.1
						l0.4-0.1l0.6-0.1l0.4-0.1l0.6-0.1l0.3-0.1c0.3,0,0.6-0.1,0.8-0.1l0.1,0c0.3-0.1,0.6-0.1,0.9-0.2l0.3,0l0.6-0.1l0.3-0.1l0.6-0.1
						l0.3-0.1c0.2,0,0.4-0.1,0.5-0.1l0.3-0.1l0.5-0.1l0.3-0.1c0.2,0,0.4-0.1,0.7-0.1l0.1,0c0.3-0.1,0.5-0.1,0.8-0.2l0.2,0l0.6-0.1
						l0.3-0.1l0.5-0.1l0.3-0.1l0.4-0.1l0.3-0.1c0.1,0,0.3-0.1,0.4-0.1l0.2-0.1l0.5-0.1c0.1,0,0.1,0,0.2,0c0.2-0.1,0.4-0.1,0.6-0.2
						l0.1,0l0.5-0.1l0.2-0.1l0.4-0.1l0.2-0.1c0.1,0,0.2-0.1,0.3-0.1l0.2-0.1l0.3-0.1l0.2-0.1l0.1,0l0.2-0.1c0.1,0,0.2-0.1,0.3-0.1
						l0.2-0.1l0.3-0.1l0.2-0.1l0.3-0.1l0.2-0.1l0.2-0.1l0.2-0.1l0.2-0.1l0.2-0.1l0.2-0.1c0.1,0,0.1-0.1,0.2-0.1s0.1-0.1,0.2-0.1
						l0.1-0.1c0.1,0,0.1-0.1,0.2-0.1l0.1-0.1l0,0c0.1-0.1,0.2-0.1,0.3-0.2l0,0c0.1-0.1,0.2-0.1,0.2-0.2c0,0,0,0,0.1-0.1
						c0.1-0.1,0.1-0.1,0.2-0.2c0,0,0,0,0.1-0.1c0-0.1,0.1-0.1,0.1-0.2c0,0,0,0,0,0l0,0c0.2-0.2,0.3-0.5,0.3-0.8L-8.6-183.5z"/>
				</g>
				<g id="组_34_2_" transform="translate(0)">
					
						<linearGradient id="椭圆_2_1_" gradientUnits="userSpaceOnUse" x1="-1001.9945" y1="242.1126" x2="-1003.1285" y2="242.1406" gradientTransform="matrix(387.854 0 0 -29.532 388630.5625 6981.7559)">
						<stop  offset="0" style="stop-color:#449D51"/>
						<stop  offset="0.434" style="stop-color:#58B35F"/>
						<stop  offset="1" style="stop-color:#80C276"/>
					</linearGradient>
					<ellipse id="椭圆_2_2_" class="st6" cx="-202.6" cy="-168.7" rx="193.9" ry="14.8"/>
				</g>
			</g>
		</g>
		<g id="组_38_2_" transform="translate(75.065 97.946)">
			<g id="组_37_2_">
				<rect id="矩形_29_2_" x="-378.7" y="-171.4" class="st7" width="188.4" height="115.9"/>
				<path id="路径_36_2_" class="st8" d="M-195.7-183.5h-177.7c-8.9,0-16.1,7.2-16.1,16.1V-40c0,1.9,1.6,3.5,3.5,3.5h203
					c1.9,0,3.5-1.6,3.5-3.5v-127.4C-179.6-176.3-186.8-183.5-195.7-183.5z M-377.9-59.6v-107.7c0-2,1.6-3.6,3.6-3.6h179.5
					c2,0,3.6,1.6,3.6,3.6v107.7c0,2-1.6,3.6-3.6,3.6h-179.5C-376.3-56-377.9-57.6-377.9-59.6L-377.9-59.6z"/>
				<path id="路径_37_2_" class="st9" d="M-176-43.5h-217c-1.9,0-3.5,1.6-3.5,3.5l0,0c0,7.7,6.3,14,14,14h195.9
					c7.7,0,14-6.3,14-14l0,0C-172.6-41.9-174.1-43.5-176-43.5z"/>
				<path id="路径_38_2_" class="st10" d="M-298.5-36.5h28c3.9,0,7-3.1,7-7h-42C-305.5-39.6-302.4-36.5-298.5-36.5z"/>
			</g>
		</g>
		<g id="组_39_2_" transform="translate(193.716 25.641)">
			<path id="路径_39_2_" class="st11" d="M-382.9-145.7l-1.6,7.5c-0.5,2.3,0.3,4.7,2.1,6.3l5.9,5l3.8-3.1l-4-6.2l2.4-5.7
				L-382.9-145.7z"/>
			<path id="路径_40_2_" class="st11" d="M-348.7-142.4l7.7-3.3l1.9,7.8c0.6,2.3-0.2,4.7-1.9,6.3l-6,5.4v-10.1L-348.7-142.4z"/>
			<path id="路径_41_2_" class="st12" d="M-366.1-158.3l4.2,6l3.3-6l7.4,0.7c2.7,0.3,5,1.8,6.2,4.2l4,7.7l-7.7,3.3l1.8,4.4v11.8
				l-15.7,7.3l-9.9-5.6l-4.2-11.7l2.4-5.7l-8.6-3.8l5.1-8.1c1.2-2,3.3-3.3,5.6-3.6L-366.1-158.3z"/>
			<path id="路径_42_2_" class="st13" d="M-378.7-124.6V-138h34v13.5l-17.9,5.6L-378.7-124.6z"/>
			<path id="路径_43_2_" class="st14" d="M-345.8-109.5c0,0-34-3.8-45.9-9.9s0.9-12.1,11.9-8.6s34.4,12.5,34.4,12.5L-345.8-109.5z
				"/>
			<path id="路径_44_2_" class="st15" d="M-377.2-109.6l-0.8-5.4c0,0,39-17.8,49.6-12.3S-346-111.5-377.2-109.6z"/>
			<path id="路径_45_2_" class="st16" d="M-377.9-115l0.8,5.4c0,0-14,1.8-15.1,1.2s-4.7-3-2.4-5.3S-381.1-116.1-377.9-115z"/>
			<path id="路径_46_2_" class="st16" d="M-345.4-114.4l-0.8,5.2c0,0,14,1.8,15.1,1.2s4.7-3,2.4-5.3S-342.2-115.5-345.4-114.4z"/>
			
				<linearGradient id="路径_47_1_" gradientUnits="userSpaceOnUse" x1="-1224.9594" y1="459.7966" x2="-1225.1573" y2="461.5236" gradientTransform="matrix(7.504 0 0 -12.249 8830.416 5481.5542)">
				<stop  offset="0" style="stop-color:#DFC8B7"/>
				<stop  offset="0.253" style="stop-color:#D6B79E"/>
				<stop  offset="0.784" style="stop-color:#C18A62"/>
				<stop  offset="1" style="stop-color:#B87A49"/>
			</linearGradient>
			<path id="路径_47_2_" class="st17" d="M-366.1-158.3l4.2,7.2l3.3-7.2v-5.1h-7.5V-158.3z"/>
			<path id="路径_48_2_" class="st11" d="M-364-160.5c0,0-5.2-3.3-5.8-7.3s-0.6-7.4,0.8-7.7s10.4-2.4,11-2.1s2.4,5.4,2.5,7.3
				c0.2,3.8-3.8,9.5-5,10.1S-364-160.5-364-160.5z"/>
			<path id="路径_49_2_" class="st18" d="M-369.7-167.4c-1.2-1.8-2-3.9-2.4-6c-0.8-5,1.7-7.5,2.9-8.1c6.8-3.3,8.1,0.1,14-2.1
				c0.8,2,1.2,4.1,1,6.2c-0.2,2.5-0.7,4.9-1.6,7.2c0,0,0-5.2-3.5-5.4c-1.6-0.1-7.3,1.4-8.6,0C-367.9-175.4-370.6-175.1-369.7-167.4z
				"/>
		</g>
		<g id="组_40_2_" transform="translate(324.132 172.469)">
			<path id="路径_50_2_" class="st19" d="M-394.9-127.5l6.4,24.6h19.5l5.9-24.6L-394.9-127.5z"/>
			<path id="路径_51_2_" class="st20" d="M-363.7-157.4c0-2.6-1.3-5-3.4-6.4c2.3-2.9,1.9-7.2-1.1-9.5c-1.2-1-2.7-1.5-4.2-1.5
				c-0.1,0-0.2,0-0.3,0c1.1-3.6-0.9-7.3-4.5-8.4c-3.6-1.1-7.3,0.9-8.4,4.5c-0.4,1.3-0.4,2.6,0,3.9c-0.1,0-0.2,0-0.3,0
				c-3.7,0-6.7,3-6.7,6.7c0,1.5,0.5,3,1.5,4.2c-3.5,2.4-4.5,7.2-2.1,10.7c0.6,0.8,1.3,1.5,2.1,2.1c-2.3,2.9-1.9,7.2,1.1,9.5
				c1.2,1,2.7,1.5,4.2,1.5h13.5c3.7,0,6.7-3,6.7-6.7c0-1.5-0.5-3-1.5-4.2C-365-152.5-363.7-154.9-363.7-157.4z"/>
			<path id="路径_52_2_" class="st21" d="M-371.7-162c-0.4-0.4-1-0.4-1.4,0l-5.1,5.1v-14.1c0-0.5-0.4-1-1-1c-0.5,0-1,0.4-1,1l0,0
				v6.8l-4.4-4.4c-0.4-0.4-1-0.4-1.4,0c-0.4,0.4-0.4,1,0,1.3l5.7,5.7v13.2l-4.1-4.1c-0.4-0.4-1-0.4-1.4,0c-0.4,0.4-0.4,1,0,1.3
				l5.5,5.5v17.9c0,0.5,0.4,1,1,1c0.5,0,1-0.4,1-1v-26.7c0.1,0,0.1-0.1,0.2-0.1l6.3-6.3C-371.3-161-371.3-161.6-371.7-162
				L-371.7-162z"/>
			<path id="路径_53_2_" class="st21" d="M-362.8-126.6h-32.8c-0.5,0-1-0.4-1-1c0-0.5,0.4-1,1-1h32.8c0.5,0,1,0.4,1,1
				C-361.8-127-362.2-126.6-362.8-126.6z"/>
		</g>
		<g id="组_42_2_" transform="translate(180.192)">
			<path id="路径_54_2_" class="st22" d="M-373.5-162.9c4.3-5.7,3.2-13.7-2.4-18c-5.7-4.3-13.7-3.2-18,2.4
				c-4.3,5.7-3.2,13.7,2.4,18c4.3,3.2,10.1,3.5,14.6,0.7l6,3.4L-373.5-162.9z"/>
			<g id="组_41_2_" transform="translate(3.696 11.385)">
				<path id="路径_55_2_" class="st7" d="M-392.2-181.3c0,1.2-1,2.1-2.1,2.1s-2.1-1-2.1-2.1c0-1.2,1-2.1,2.1-2.1l0,0
					C-393.2-183.5-392.2-182.5-392.2-181.3z"/>
				<path id="路径_56_2_" class="st7" d="M-385.2-181.3c0,1.2-1,2.1-2.1,2.1s-2.1-1-2.1-2.1c0-1.2,1-2.1,2.1-2.1l0,0
					C-386.2-183.5-385.2-182.5-385.2-181.3z"/>
				<path id="路径_57_2_" class="st7" d="M-378.2-181.3c0,1.2-1,2.1-2.1,2.1s-2.1-1-2.1-2.1c0-1.2,1-2.1,2.1-2.1
					C-379.2-183.5-378.2-182.5-378.2-181.3C-378.2-181.3-378.2-181.3-378.2-181.3z"/>
			</g>
		</g>
	</g>
	<g id="组_46_2_" transform="translate(146.29 185.605)">
		<circle id="椭圆_3_2_" class="st22" cx="-355.4" cy="-168.7" r="14.8"/>
		<path id="路径_59_2_" class="st23" d="M-349.7-172.1c0,3.1-2.6,5.7-5.7,5.7s-5.7-2.6-5.7-5.7c0-3.1,2.6-5.7,5.7-5.7
			S-349.7-175.2-349.7-172.1L-349.7-172.1z M-346.8-148.2v-10c0-3.8-3.1-6.9-6.9-6.9c0,0,0,0,0,0h-3.5c-3.8,0-6.9,3.1-6.9,6.9
			c0,0,0,0,0,0v10c0,1,0.9,1.9,1.9,1.9c0,0,0,0,0,0h13.4C-347.6-146.3-346.8-147.2-346.8-148.2
			C-346.8-148.2-346.8-148.2-346.8-148.2L-346.8-148.2z"/>
		<path id="路径_60_2_" class="st22" d="M-320.1-137.2h-70.6c-3.2,0-5.8-2.6-5.8-5.8c0,0,0,0,0,0l0,0c0-3.2,2.6-5.8,5.8-5.8
			c0,0,0,0,0,0h70.6c3.2,0,5.8,2.6,5.8,5.8c0,0,0,0,0,0l0,0C-314.2-139.8-316.8-137.2-320.1-137.2
			C-320.1-137.2-320.1-137.2-320.1-137.2z"/>
		<path id="路径_61_2_" class="st23" d="M-322.5-141.5h-65.7c-0.8,0-1.5-0.7-1.5-1.5c0,0,0,0,0,0l0,0c0-0.8,0.7-1.5,1.5-1.5h65.7
			c0.8,0,1.5,0.7,1.5,1.5l0,0C-321-142.2-321.7-141.5-322.5-141.5C-322.5-141.5-322.5-141.5-322.5-141.5z"/>
		<path id="路径_62_2_" class="st22" d="M-320-116.2h-70.6c-3.2,0-5.8-2.6-5.8-5.8l0,0c0-3.2,2.6-5.8,5.8-5.8h0h70.6
			c3.2,0,5.8,2.6,5.8,5.8l0,0C-314.2-118.8-316.8-116.2-320-116.2z"/>
		<path id="路径_63_2_" class="st23" d="M-388.8-120.4L-388.8-120.4c-0.8,0-1.5-0.7-1.5-1.5l0,0c0-0.8,0.7-1.5,1.5-1.5l0,0
			c0.8,0,1.5,0.7,1.5,1.5c0,0,0,0,0,0l0,0C-387.3-121.1-388-120.4-388.8-120.4C-388.8-120.4-388.8-120.4-388.8-120.4z M-382.7-121.9
			L-382.7-121.9c0-0.8-0.7-1.5-1.5-1.5c0,0,0,0,0,0l0,0c-0.8,0-1.5,0.7-1.5,1.5l0,0c0,0.8,0.7,1.5,1.5,1.5l0,0
			C-383.4-120.4-382.7-121.1-382.7-121.9C-382.7-121.9-382.7-121.9-382.7-121.9z M-378.2-121.9L-378.2-121.9c0-0.8-0.7-1.5-1.5-1.5
			c0,0,0,0,0,0l0,0c-0.8,0-1.5,0.7-1.5,1.5c0,0,0,0,0,0l0,0c0,0.8,0.7,1.5,1.5,1.5l0,0C-378.9-120.4-378.2-121.1-378.2-121.9z
			 M-373.7-121.9L-373.7-121.9c0-0.8-0.7-1.5-1.5-1.5l0,0c-0.8,0-1.5,0.7-1.5,1.5l0,0l0,0c0,0.8,0.7,1.5,1.5,1.5l0,0
			C-374.4-120.4-373.7-121.1-373.7-121.9C-373.7-121.9-373.7-121.9-373.7-121.9L-373.7-121.9z M-369.1-121.9L-369.1-121.9
			c0-0.8-0.7-1.5-1.5-1.5c0,0,0,0,0,0l0,0c-0.8,0-1.5,0.7-1.5,1.5l0,0c0,0.8,0.7,1.5,1.5,1.5l0,0
			C-369.8-120.4-369.1-121.1-369.1-121.9L-369.1-121.9z M-364.6-121.9L-364.6-121.9c0-0.8-0.7-1.5-1.5-1.5c0,0,0,0,0,0l0,0
			c-0.8,0-1.5,0.7-1.5,1.5l0,0c0,0.8,0.7,1.5,1.5,1.5l0,0C-365.3-120.4-364.6-121.1-364.6-121.9L-364.6-121.9z M-360.1-121.9
			L-360.1-121.9c0-0.8-0.7-1.5-1.5-1.5c0,0,0,0,0,0l0,0c-0.8,0-1.5,0.7-1.5,1.5c0,0,0,0,0,0l0,0c0,0.8,0.7,1.5,1.5,1.5l0,0
			C-360.8-120.4-360.1-121.1-360.1-121.9C-360.1-121.9-360.1-121.9-360.1-121.9L-360.1-121.9z"/>
		<path id="路径_64_2_" class="st23" d="M-345.3-94.2h-20.1c-3.2,0-5.8-2.6-5.8-5.8c0,0,0,0,0,0l0,0c0-3.2,2.6-5.8,5.8-5.8h0h20.1
			c3.2,0,5.8,2.6,5.8,5.8l0,0l0,0C-339.5-96.8-342.1-94.2-345.3-94.2C-345.3-94.2-345.3-94.2-345.3-94.2z"/>
	</g>
</g>
</svg>
