<svg xmlns="http://www.w3.org/2000/svg" xmlns:xlink="http://www.w3.org/1999/xlink" width="605" height="721" viewBox="0 0 605 721">
  <defs>
    <clipPath id="clip-path">
      <rect id="Rectangle_156" data-name="Rectangle 156" width="453" height="562" transform="translate(1059 6519)" fill="#fff" stroke="#707070" stroke-width="1"/>
    </clipPath>
    <clipPath id="clip-path-2">
      <rect id="Rectangle_168" data-name="Rectangle 168" width="337" height="418" transform="translate(1059 6519.6)" fill="#fff" stroke="#707070" stroke-width="1"/>
    </clipPath>
    <clipPath id="clip-path-3">
      <rect id="Rectangle_194" data-name="Rectangle 194" width="238" height="244" transform="translate(1059 6519.6)" fill="#fff" stroke="#707070" stroke-width="1"/>
    </clipPath>
  </defs>
  <g id="Group_154" data-name="Group 154" transform="translate(-1199 -6303)">
    <g id="Mask_Group_5" data-name="Mask Group 5" transform="translate(140 -216)" clip-path="url(#clip-path)">
      <g id="undraw_typing_re_d4sq" transform="translate(1059 6565.099)">
        <path id="Path_656" data-name="Path 656" d="M177.4,74.434H378.256c14.179.019,25.67,13.926,25.686,31.086V238.505c-.016,17.161-11.506,31.067-25.686,31.086H177.4c-14.179-.019-25.67-13.926-25.686-31.086V105.52c.016-17.16,11.507-31.067,25.686-31.086Z" transform="translate(-151.718 -74.434)" fill="#f2f2f2"/>
        <path id="Path_657" data-name="Path 657" d="M181.952,86.376H382.8c10.1.014,18.28,9.917,18.291,22.137V241.5c-.011,12.22-8.194,22.124-18.291,22.137H181.952c-10.1-.014-18.28-9.917-18.291-22.137V108.514c.011-12.22,8.194-22.123,18.291-22.137Z" transform="translate(-156.267 -77.428)" fill="#fff"/>
        <path id="Path_658" data-name="Path 658" d="M193.561,380.507a3.926,3.926,0,0,1-1.765-.432A5.515,5.515,0,0,1,189,375V329.03l50.642-2.062-42.9,51.917a4.133,4.133,0,0,1-3.179,1.622Z" transform="translate(-165.915 -137.736)" fill="#f2f2f2"/>
        <rect id="Rectangle_159" data-name="Rectangle 159" width="172.928" height="26.502" rx="13.251" transform="translate(39.403 42.027)" fill="#f2f2f2"/>
        <rect id="Rectangle_160" data-name="Rectangle 160" width="172.928" height="26.502" rx="13.251" transform="translate(39.648 84.328)" fill="#f2f2f2"/>
        <rect id="Rectangle_161" data-name="Rectangle 161" width="172.928" height="26.502" rx="13.251" transform="translate(39.892 126.629)" fill="#f2f2f2"/>
        <path id="Path_659" data-name="Path 659" d="M566.107,164.947H365.255c-14.179.019-25.67,13.926-25.686,31.086V329.019c.016,17.161,11.506,31.067,25.686,31.086H566.107c14.179-.019,25.67-13.926,25.686-31.086V196.033c-.016-17.16-11.507-31.067-25.686-31.086Z" transform="translate(-223.261 -97.123)" fill="#e6e6e6"/>
        <path id="Path_660" data-name="Path 660" d="M570.655,176.89H369.8c-10.1.014-18.28,9.917-18.291,22.137V332.012c.011,12.22,8.194,22.124,18.291,22.137H570.655c10.1-.014,18.28-9.917,18.291-22.137V199.027c-.011-12.22-8.194-22.123-18.291-22.137Z" transform="translate(-227.81 -100.116)" fill="#fff"/>
        <path id="Path_661" data-name="Path 661" d="M654.389,469.4l-42.9-51.917,50.641,2.062v45.972a5.515,5.515,0,0,1-2.8,5.072,3.926,3.926,0,0,1-1.765.432,4.133,4.133,0,0,1-3.179-1.622Z" transform="translate(-326.822 -160.425)" fill="#e6e6e6"/>
        <ellipse id="Ellipse_14" data-name="Ellipse 14" cx="13.877" cy="16.795" rx="13.877" ry="16.795" transform="translate(184.243 148.609)" fill="#6c63ff"/>
        <ellipse id="Ellipse_15" data-name="Ellipse 15" cx="13.877" cy="16.795" rx="13.877" ry="16.795" transform="translate(228.543 148.609)" fill="#6c63ff"/>
        <ellipse id="Ellipse_16" data-name="Ellipse 16" cx="13.877" cy="16.795" rx="13.877" ry="16.795" transform="translate(272.842 148.609)" fill="#6c63ff"/>
      </g>
      <g id="undraw_typing_re_d4sq-2" data-name="undraw_typing_re_d4sq" transform="translate(1059 6565.099)">
        <path id="Path_656-2" data-name="Path 656" d="M177.4,74.434H378.256c14.179.019,25.67,13.926,25.686,31.086V238.505c-.016,17.161-11.506,31.067-25.686,31.086H177.4c-14.179-.019-25.67-13.926-25.686-31.086V105.52c.016-17.16,11.507-31.067,25.686-31.086Z" transform="translate(-151.718 -74.434)" fill="#f280df"/>
        <path id="Path_657-2" data-name="Path 657" d="M181.952,86.376H382.8c10.1.014,18.28,9.917,18.291,22.137V241.5c-.011,12.22-8.194,22.124-18.291,22.137H181.952c-10.1-.014-18.28-9.917-18.291-22.137V108.514c.011-12.22,8.194-22.123,18.291-22.137Z" transform="translate(-156.267 -77.428)" fill="#fff"/>
        <path id="Path_658-2" data-name="Path 658" d="M193.561,380.507a3.926,3.926,0,0,1-1.765-.432A5.515,5.515,0,0,1,189,375V329.03l50.642-2.062-42.9,51.917a4.133,4.133,0,0,1-3.179,1.622Z" transform="translate(-165.915 -137.736)" fill="#f280df"/>
        <rect id="Rectangle_159-2" data-name="Rectangle 159" width="172.928" height="26.502" rx="13.251" transform="translate(39.403 42.027)" fill="#f2f2f2"/>
        <rect id="Rectangle_160-2" data-name="Rectangle 160" width="172.928" height="26.502" rx="13.251" transform="translate(39.648 84.328)" fill="#f2f2f2"/>
        <rect id="Rectangle_161-2" data-name="Rectangle 161" width="172.928" height="26.502" rx="13.251" transform="translate(39.892 126.629)" fill="#f2f2f2"/>
        <path id="Path_659-2" data-name="Path 659" d="M566.107,164.947H365.255c-14.179.019-25.67,13.926-25.686,31.086V329.019c.016,17.161,11.506,31.067,25.686,31.086H566.107c14.179-.019,25.67-13.926,25.686-31.086V196.033c-.016-17.16-11.507-31.067-25.686-31.086Z" transform="translate(-223.261 -97.123)" fill="#b3e9f3"/>
        <path id="Path_660-2" data-name="Path 660" d="M570.655,176.89H369.8c-10.1.014-18.28,9.917-18.291,22.137V332.012c.011,12.22,8.194,22.124,18.291,22.137H570.655c10.1-.014,18.28-9.917,18.291-22.137V199.027c-.011-12.22-8.194-22.123-18.291-22.137Z" transform="translate(-227.81 -100.116)" fill="#fff"/>
        <path id="Path_661-2" data-name="Path 661" d="M654.389,469.4l-42.9-51.917,50.641,2.062v45.972a5.515,5.515,0,0,1-2.8,5.072,3.926,3.926,0,0,1-1.765.432,4.133,4.133,0,0,1-3.179-1.622Z" transform="translate(-326.822 -160.425)" fill="#b3e9f3"/>
        <path id="Path_663" data-name="Path 663" d="M13.877,0c7.664,0,13.877,7.519,13.877,16.795S21.541,33.589,13.877,33.589,0,26.07,0,16.795,6.213,0,13.877,0Z" transform="translate(184.243 148.609)" fill="#0064ff"/>
        <path id="Path_662" data-name="Path 662" d="M13.877,0c7.664,0,13.877,7.519,13.877,16.795S21.541,33.589,13.877,33.589,0,26.07,0,16.795,6.213,0,13.877,0Z" transform="translate(228.543 148.609)" fill="#0064ff"/>
        <ellipse id="Ellipse_16-2" data-name="Ellipse 16" cx="13.877" cy="16.795" rx="13.877" ry="16.795" transform="translate(272.842 148.609)" fill="#0064ff"/>
      </g>
    </g>
    <g id="Mask_Group_6" data-name="Mask Group 6" transform="translate(190 86.4)" clip-path="url(#clip-path-2)">
      <g id="undraw_typing_re_d4sq-3" data-name="undraw_typing_re_d4sq" transform="translate(1059 6553.457)">
        <path id="Path_664" data-name="Path 664" d="M170.841,74.434H320.37c10.556.014,19.111,10.369,19.122,23.147V196.6c-.012,12.778-8.566,23.133-19.122,23.147H170.841c-10.556-.014-19.111-10.369-19.122-23.147V97.581C151.73,84.8,160.285,74.448,170.841,74.434Z" transform="translate(-151.718 -74.434)" fill="#f2f2f2"/>
        <path id="Path_665" data-name="Path 665" d="M177.279,86.376h149.53c7.517.01,13.609,7.384,13.617,16.484v99.022c-.008,9.1-6.1,16.473-13.618,16.484H177.279c-7.517-.01-13.609-7.384-13.617-16.484V102.86c.008-9.1,6.1-16.473,13.617-16.484Z" transform="translate(-158.156 -79.713)" fill="#fff"/>
        <path id="Path_666" data-name="Path 666" d="M192.394,366.834a2.922,2.922,0,0,1-1.314-.322,4.107,4.107,0,0,1-2.085-3.777V328.5l37.7-1.535-31.936,38.657a3.077,3.077,0,0,1-2.367,1.208Z" transform="translate(-171.812 -186.065)" fill="#f2f2f2"/>
        <rect id="Rectangle_162" data-name="Rectangle 162" width="128.741" height="19.733" rx="9.867" transform="translate(29.335 31.294)" fill="#f2f2f2"/>
        <rect id="Rectangle_163" data-name="Rectangle 163" width="128.741" height="19.733" rx="9.867" transform="translate(29.517 62.791)" fill="#f2f2f2"/>
        <rect id="Rectangle_164" data-name="Rectangle 164" width="128.741" height="19.733" rx="9.867" transform="translate(29.699 94.288)" fill="#f2f2f2"/>
        <path id="Path_667" data-name="Path 667" d="M508.222,164.947H358.692c-10.556.014-19.111,10.369-19.122,23.147v99.022c.012,12.778,8.566,23.133,19.122,23.147h149.53c10.556-.014,19.111-10.369,19.122-23.147V188.094c-.012-12.778-8.566-23.133-19.122-23.147Z" transform="translate(-252.981 -114.445)" fill="#e6e6e6"/>
        <path id="Path_668" data-name="Path 668" d="M514.659,176.89H365.13c-7.517.01-13.609,7.384-13.617,16.484V292.4c.008,9.1,6.1,16.473,13.617,16.484h149.53c7.517-.01,13.609-7.384,13.617-16.484V193.373C528.268,184.274,522.177,176.9,514.659,176.89Z" transform="translate(-259.418 -119.724)" fill="#fff"/>
        <path id="Path_669" data-name="Path 669" d="M643.427,456.139l-31.936-38.658,37.7,1.535v34.231a4.106,4.106,0,0,1-2.085,3.777,2.922,2.922,0,0,1-1.314.322A3.077,3.077,0,0,1,643.427,456.139Z" transform="translate(-399.562 -226.075)" fill="#e6e6e6"/>
        <ellipse id="Ellipse_17" data-name="Ellipse 17" cx="10.331" cy="12.505" rx="10.331" ry="12.505" transform="translate(137.165 110.655)" fill="#6c63ff"/>
        <ellipse id="Ellipse_18" data-name="Ellipse 18" cx="10.331" cy="12.505" rx="10.331" ry="12.505" transform="translate(170.145 110.655)" fill="#6c63ff"/>
        <ellipse id="Ellipse_19" data-name="Ellipse 19" cx="10.331" cy="12.505" rx="10.331" ry="12.505" transform="translate(203.125 110.655)" fill="#6c63ff"/>
      </g>
      <g id="undraw_typing_re_d4sq-4" data-name="undraw_typing_re_d4sq" transform="translate(1059 6553.457)">
        <path id="Path_670" data-name="Path 670" d="M170.841,74.434H320.37c10.556.014,19.111,10.369,19.122,23.147V196.6c-.012,12.778-8.566,23.133-19.122,23.147H170.841c-10.556-.014-19.111-10.369-19.122-23.147V97.581C151.73,84.8,160.285,74.448,170.841,74.434Z" transform="translate(-151.718 -74.434)" fill="#a066f2"/>
        <path id="Path_671" data-name="Path 671" d="M177.279,86.376h149.53c7.517.01,13.609,7.384,13.617,16.484v99.022c-.008,9.1-6.1,16.473-13.618,16.484H177.279c-7.517-.01-13.609-7.384-13.617-16.484V102.86c.008-9.1,6.1-16.473,13.617-16.484Z" transform="translate(-158.156 -79.713)" fill="#fff"/>
        <path id="Path_672" data-name="Path 672" d="M192.394,366.834a2.922,2.922,0,0,1-1.314-.322,4.107,4.107,0,0,1-2.085-3.777V328.5l37.7-1.535-31.936,38.657a3.077,3.077,0,0,1-2.367,1.208Z" transform="translate(-171.812 -186.065)" fill="#a066f2"/>
        <rect id="Rectangle_165" data-name="Rectangle 165" width="128.741" height="19.733" rx="9.867" transform="translate(29.335 31.294)" fill="#050e40"/>
        <rect id="Rectangle_166" data-name="Rectangle 166" width="128.741" height="19.733" rx="9.867" transform="translate(29.517 62.791)" fill="#050e40"/>
        <rect id="Rectangle_167" data-name="Rectangle 167" width="128.741" height="19.733" rx="9.867" transform="translate(29.699 94.288)" fill="#050e40"/>
        <path id="Path_673" data-name="Path 673" d="M508.222,164.947H358.692c-10.556.014-19.111,10.369-19.122,23.147v99.022c.012,12.778,8.566,23.133,19.122,23.147h149.53c10.556-.014,19.111-10.369,19.122-23.147V188.094c-.012-12.778-8.566-23.133-19.122-23.147Z" transform="translate(-252.981 -114.445)" fill="#f2d98d"/>
        <path id="Path_674" data-name="Path 674" d="M514.659,176.89H365.13c-7.517.01-13.609,7.384-13.617,16.484V292.4c.008,9.1,6.1,16.473,13.617,16.484h149.53c7.517-.01,13.609-7.384,13.617-16.484V193.373C528.268,184.274,522.177,176.9,514.659,176.89Z" transform="translate(-259.418 -119.724)" fill="#fff"/>
        <path id="Path_675" data-name="Path 675" d="M643.427,456.139l-31.936-38.658,37.7,1.535v34.231a4.106,4.106,0,0,1-2.085,3.777,2.922,2.922,0,0,1-1.314.322A3.077,3.077,0,0,1,643.427,456.139Z" transform="translate(-399.562 -226.075)" fill="#f2d98d"/>
        <path id="Path_676" data-name="Path 676" d="M10.331,0c5.706,0,10.331,5.6,10.331,12.505S16.037,25.011,10.331,25.011,0,19.412,0,12.505,4.625,0,10.331,0Z" transform="translate(137.165 110.655)" fill="#b3e9f3"/>
        <path id="Path_677" data-name="Path 677" d="M10.331,0c5.706,0,10.331,5.6,10.331,12.505S16.037,25.011,10.331,25.011,0,19.412,0,12.505,4.625,0,10.331,0Z" transform="translate(170.145 110.655)" fill="#b3e9f3"/>
        <ellipse id="Ellipse_20" data-name="Ellipse 20" cx="10.331" cy="12.505" rx="10.331" ry="12.505" transform="translate(203.125 110.655)" fill="#b3e9f3"/>
      </g>
    </g>
    <g id="Mask_Group_21" data-name="Mask Group 21" transform="translate(507 74.4)" clip-path="url(#clip-path-3)">
      <g id="undraw_typing_re_d4sq-5" data-name="undraw_typing_re_d4sq" transform="translate(1059 6539.363)">
        <path id="Path_880" data-name="Path 880" d="M165.223,74.434h105.6a13.524,13.524,0,0,1,13.5,13.512v57.8a13.523,13.523,0,0,1-13.5,13.512h-105.6a13.523,13.523,0,0,1-13.5-13.512v-57.8A13.524,13.524,0,0,1,165.223,74.434Z" transform="translate(-151.718 -74.434)" fill="#f2f2f2"/>
        <path id="Path_881" data-name="Path 881" d="M173.278,86.376h105.6A9.63,9.63,0,0,1,288.5,96v57.8a9.63,9.63,0,0,1-9.617,9.622h-105.6a9.63,9.63,0,0,1-9.617-9.622V96a9.63,9.63,0,0,1,9.617-9.622Z" transform="translate(-159.773 -82.487)" fill="#fff"/>
        <path id="Path_882" data-name="Path 882" d="M191.4,350.239a2.42,2.42,0,0,1-.928-.188,2.349,2.349,0,0,1-1.472-2.2V327.865l26.626-.9-22.554,22.566a2.352,2.352,0,0,1-1.672.705Z" transform="translate(-176.86 -244.718)" fill="#f2f2f2"/>
        <rect id="Rectangle_188" data-name="Rectangle 188" width="90.921" height="11.519" rx="5.759" transform="translate(20.717 18.267)" fill="#f2f2f2"/>
        <rect id="Rectangle_189" data-name="Rectangle 189" width="90.921" height="11.519" rx="5.759" transform="translate(20.846 36.653)" fill="#f2f2f2"/>
        <rect id="Rectangle_190" data-name="Rectangle 190" width="90.921" height="11.519" rx="5.759" transform="translate(20.974 55.039)" fill="#f2f2f2"/>
        <path id="Path_883" data-name="Path 883" d="M458.677,164.947h-105.6a13.523,13.523,0,0,0-13.5,13.512v57.8a13.523,13.523,0,0,0,13.5,13.512h105.6a13.523,13.523,0,0,0,13.5-13.512v-57.8a13.524,13.524,0,0,0-13.5-13.512Z" transform="translate(-278.418 -135.467)" fill="#e6e6e6"/>
        <path id="Path_884" data-name="Path 884" d="M466.732,176.89h-105.6a9.63,9.63,0,0,0-9.617,9.622v57.8a9.63,9.63,0,0,0,9.617,9.622h105.6a9.63,9.63,0,0,0,9.617-9.622v-57.8A9.63,9.63,0,0,0,466.732,176.89Z" transform="translate(-286.473 -143.52)" fill="#fff"/>
        <path id="Path_885" data-name="Path 885" d="M634.046,440.047l-22.554-22.566,26.626.9V438.36a2.349,2.349,0,0,1-1.472,2.2,2.42,2.42,0,0,1-.928.188A2.351,2.351,0,0,1,634.046,440.047Z" transform="translate(-461.82 -305.752)" fill="#e6e6e6"/>
        <ellipse id="Ellipse_23" data-name="Ellipse 23" cx="7.296" cy="7.3" rx="7.296" ry="7.3" transform="translate(96.87 64.593)" fill="#6c63ff"/>
        <ellipse id="Ellipse_24" data-name="Ellipse 24" cx="7.296" cy="7.3" rx="7.296" ry="7.3" transform="translate(120.162 64.593)" fill="#6c63ff"/>
        <ellipse id="Ellipse_25" data-name="Ellipse 25" cx="7.296" cy="7.3" rx="7.296" ry="7.3" transform="translate(143.453 64.593)" fill="#6c63ff"/>
      </g>
      <g id="undraw_typing_re_d4sq-6" data-name="undraw_typing_re_d4sq" transform="translate(1059 6539.363)">
        <path id="Path_886" data-name="Path 886" d="M165.223,74.434h105.6a13.524,13.524,0,0,1,13.5,13.512v57.8a13.523,13.523,0,0,1-13.5,13.512h-105.6a13.523,13.523,0,0,1-13.5-13.512v-57.8A13.524,13.524,0,0,1,165.223,74.434Z" transform="translate(-151.718 -74.434)" fill="#f2f2f2"/>
        <path id="Path_887" data-name="Path 887" d="M173.278,86.376h105.6A9.63,9.63,0,0,1,288.5,96v57.8a9.63,9.63,0,0,1-9.617,9.622h-105.6a9.63,9.63,0,0,1-9.617-9.622V96a9.63,9.63,0,0,1,9.617-9.622Z" transform="translate(-159.773 -82.487)" fill="#fff"/>
        <path id="Path_888" data-name="Path 888" d="M191.4,350.239a2.42,2.42,0,0,1-.928-.188,2.349,2.349,0,0,1-1.472-2.2V327.865l26.626-.9-22.554,22.566a2.352,2.352,0,0,1-1.672.705Z" transform="translate(-176.86 -244.718)" fill="#f2f2f2"/>
        <rect id="Rectangle_191" data-name="Rectangle 191" width="90.921" height="11.519" rx="5.759" transform="translate(20.717 18.267)" fill="#b3e9f3"/>
        <rect id="Rectangle_192" data-name="Rectangle 192" width="90.921" height="11.519" rx="5.759" transform="translate(20.846 36.653)" fill="#b3e9f3"/>
        <rect id="Rectangle_193" data-name="Rectangle 193" width="90.921" height="11.519" rx="5.759" transform="translate(20.974 55.039)" fill="#b3e9f3"/>
        <path id="Path_889" data-name="Path 889" d="M458.677,164.947h-105.6a13.523,13.523,0,0,0-13.5,13.512v57.8a13.523,13.523,0,0,0,13.5,13.512h105.6a13.523,13.523,0,0,0,13.5-13.512v-57.8a13.524,13.524,0,0,0-13.5-13.512Z" transform="translate(-278.418 -135.467)" fill="#3dd9c9"/>
        <path id="Path_890" data-name="Path 890" d="M466.732,176.89h-105.6a9.63,9.63,0,0,0-9.617,9.622v57.8a9.63,9.63,0,0,0,9.617,9.622h105.6a9.63,9.63,0,0,0,9.617-9.622v-57.8A9.63,9.63,0,0,0,466.732,176.89Z" transform="translate(-286.473 -143.52)" fill="#fff"/>
        <path id="Path_891" data-name="Path 891" d="M634.046,440.047l-22.554-22.566,26.626.9V438.36a2.349,2.349,0,0,1-1.472,2.2,2.42,2.42,0,0,1-.928.188A2.351,2.351,0,0,1,634.046,440.047Z" transform="translate(-461.82 -305.752)" fill="#3dd9c9"/>
        <path id="Path_892" data-name="Path 892" d="M7.3,0A7.3,7.3,0,1,1,0,7.3,7.3,7.3,0,0,1,7.3,0Z" transform="translate(96.87 64.593)" fill="#f2f2f2"/>
        <path id="Path_893" data-name="Path 893" d="M7.3,0A7.3,7.3,0,1,1,0,7.3,7.3,7.3,0,0,1,7.3,0Z" transform="translate(120.162 64.593)" fill="#f2f2f2"/>
        <ellipse id="Ellipse_26" data-name="Ellipse 26" cx="7.296" cy="7.3" rx="7.296" ry="7.3" transform="translate(143.453 64.593)" fill="#f2f2f2"/>
      </g>
    </g>
  </g>
</svg>
