<svg xmlns="http://www.w3.org/2000/svg" width="40" height="40" viewBox="0 0 40 40">
  <g id="surface47316494" transform="translate(-7 -7)">
    <path id="Path_4" data-name="Path 4" d="M18.666,7A11.683,11.683,0,0,0,7,18.669V35.334A11.683,11.683,0,0,0,18.669,47H35.334A11.683,11.683,0,0,0,47,35.331V18.666A11.683,11.683,0,0,0,35.331,7ZM39,13.4A1.6,1.6,0,1,1,37.4,15,1.6,1.6,0,0,1,39,13.4ZM27,16.6A10.4,10.4,0,1,1,16.6,27,10.408,10.408,0,0,1,27,16.6Zm0,3.2A7.2,7.2,0,1,0,34.2,27,7.2,7.2,0,0,0,27,19.8Zm0,0" fill="#a066f2"/>
  </g>
</svg>
