<svg xmlns="http://www.w3.org/2000/svg" xmlns:xlink="http://www.w3.org/1999/xlink" width="350" height="206" viewBox="0 0 350 206">
  <defs>
    <clipPath id="clip-path">
      <rect id="Rectangle_231" data-name="Rectangle 231" width="350" height="206" transform="translate(374 3081)" fill="#fff"/>
    </clipPath>
  </defs>
  <g id="Mask_Group_39" data-name="Mask Group 39" transform="translate(-374 -3081)" clip-path="url(#clip-path)">
    <g id="_92_start_up" data-name="#92_start_up" transform="translate(359.516 3041.851)">
      <path id="Path_943" data-name="Path 943" d="M91.819,94.462H287.244a14.622,14.622,0,0,1,14.622,14.622V228.433H77.2V109.085A14.622,14.622,0,0,1,91.819,94.462Z" fill="#fff"/>
      <path id="Path_944" data-name="Path 944" d="M301.867,228.907H77.2a.474.474,0,0,1-.474-.474V109.085a15.163,15.163,0,0,1,15.1-15.1H287.244a15.163,15.163,0,0,1,15.058,15.1V228.433A.474.474,0,0,1,301.867,228.907Zm-224.159-.948H301.355V109.085a14.158,14.158,0,0,0-14.149-14.149H91.819a14.158,14.158,0,0,0-14.111,14.149Z" fill="#231f20"/>
      <rect id="Rectangle_226" data-name="Rectangle 226" width="196.592" height="121.973" transform="translate(91.24 106.469)" fill="#fff"/>
      <path id="Path_945" data-name="Path 945" d="M287.822,228.907H91.24a.474.474,0,0,1-.474-.474V106.469A.474.474,0,0,1,91.24,106H287.822a.474.474,0,0,1,.474.474V228.433a.474.474,0,0,1-.474.474Zm-196.108-.948H287.349V106.943H91.714Z" fill="#231f20"/>
      <path id="Path_946" data-name="Path 946" d="M64.014,228.433H315.049v.625a15.617,15.617,0,0,1-15.589,15.617H79.6a15.617,15.617,0,0,1-15.617-15.617v-.625Z" fill="#fff"/>
      <path id="Path_947" data-name="Path 947" d="M299.46,245.149H79.6a16.11,16.11,0,0,1-16.11-16.11v-.625a.483.483,0,0,1,.474-.474H315a.483.483,0,0,1,.474.474v.625a16.11,16.11,0,0,1-16.016,16.11ZM64.488,228.907v.152a15.163,15.163,0,0,0,15.163,15.163H299.46a15.163,15.163,0,0,0,15.163-15.163v-.152Z" fill="#231f20"/>
      <rect id="Rectangle_227" data-name="Rectangle 227" width="49.297" height="4.274" transform="translate(164.883 228.433)" fill="#231f20"/>
      <path id="Path_948" data-name="Path 948" d="M214.171,233.181H164.892a.474.474,0,0,1-.474-.474v-4.274a.474.474,0,0,1,.474-.474h49.278a.474.474,0,0,1,.474.474v4.274A.474.474,0,0,1,214.171,233.181Zm-48.823-.948h48.331v-3.326H165.347Z" fill="#231f20"/>
      <path id="Path_949" data-name="Path 949" d="M286.941,120.874H92.122a.474.474,0,0,1-.474-.474.483.483,0,0,1,.474-.474H286.941a.483.483,0,0,1,.474.474A.474.474,0,0,1,286.941,120.874Z" fill="#d1d3d4"/>
      <circle id="Ellipse_37" data-name="Ellipse 37" cx="3.184" cy="3.184" r="3.184" transform="translate(97.561 110.487)" fill="#a066f2"/>
      <circle id="Ellipse_38" data-name="Ellipse 38" cx="3.184" cy="3.184" r="3.184" transform="translate(107.436 110.487)" fill="#d1d3d4"/>
      <circle id="Ellipse_39" data-name="Ellipse 39" cx="3.184" cy="3.184" r="3.184" transform="translate(117.311 110.487)" fill="#d1d3d4"/>
      <path id="Path_950" data-name="Path 950" d="M281.227,180.87h-54.1a.483.483,0,0,1-.474-.474V141.95a.474.474,0,0,1,.474-.474h54.1a.474.474,0,0,1,.474.474V180.4a.474.474,0,0,1-.474.474Zm-53.628-.948h53.154v-37.5H227.6Z" fill="#d1d3d4"/>
      <rect id="Rectangle_228" data-name="Rectangle 228" width="20.119" height="64.564" transform="translate(179.467 148.109)" fill="#fff"/>
      <path id="Path_951" data-name="Path 951" d="M199.6,213.147H179.467a.474.474,0,0,1-.474-.474V148.109a.483.483,0,0,1,.474-.474H199.6a.483.483,0,0,1,.474.474v64.564a.474.474,0,0,1-.474.474Zm-19.654-.948h19.181V148.583H179.941Z" fill="#231f20"/>
      <path id="Path_952" data-name="Path 952" d="M102.717,228.433s4.407-24.506,20.953-31.273,25.539,7.088,25.539,7.088S153.53,181.5,179.79,181.5s32.372,17.92,32.372,17.92,5.392-10.832,17.266-10.083,13.665,15.617,13.665,15.617,10.547-5.3,21.948,0,16.186,23.455,16.186,23.455Z" fill="#fff"/>
      <path id="Path_953" data-name="Path 953" d="M281.227,228.907H102.717a.493.493,0,0,1-.37-.161.483.483,0,0,1-.095-.389,62.47,62.47,0,0,1,4.3-13.239c2.928-6.435,8.245-14.85,16.935-18.385,14.291-5.8,23.17,3.535,25.5,6.454,1.232-4.435,7.629-22.166,30.8-22.166,22.857,0,30.733,13.646,32.438,17.333,1.6-2.578,7.174-10.13,17.228-9.477,10.7.673,13.485,12.528,14.006,15.409,2.4-1,11.817-4.369,21.8.256,11.476,5.326,16.252,23.019,16.442,23.767a.474.474,0,0,1-.076.408A.483.483,0,0,1,281.227,228.907Zm-177.932-.948H280.6c-.948-3.156-5.847-17.949-15.76-22.554-11.069-5.136-21.427-.057-21.531,0a.474.474,0,0,1-.436,0,.493.493,0,0,1-.246-.36c0-.142-1.9-14.49-13.267-15.163S212.6,199.6,212.55,199.709a.455.455,0,0,1-.455.256.464.464,0,0,1-.417-.322c-.066-.171-6.34-17.6-31.927-17.6-13.371,0-20.848,6.093-24.762,11.2a29.757,29.757,0,0,0-5.354,11.192.474.474,0,0,1-.37.379.493.493,0,0,1-.493-.208c-.36-.55-8.984-13.409-24.961-6.918-8.4,3.412-13.57,11.6-16.423,17.873a63.152,63.152,0,0,0-4.094,12.4Z" fill="#231f20"/>
      <path id="Path_954" data-name="Path 954" d="M200.183,158.372H178.349l-2.625-10.5h27.084Z" fill="#fff"/>
      <path id="Path_955" data-name="Path 955" d="M200.183,158.837h-21.8a.474.474,0,0,1-.464-.351l-2.606-10.5a.455.455,0,0,1,.085-.407.464.464,0,0,1,.37-.18H202.8a.464.464,0,0,1,.37.18.493.493,0,0,1,.095.407l-2.625,10.5A.474.474,0,0,1,200.183,158.837Zm-21.464-.948h21.095l2.388-9.543H176.331Z" fill="#231f20"/>
      <path id="Path_956" data-name="Path 956" d="M164.788,115.121S153.34,122.276,149.36,134.2s5.108,34.978,5.108,34.978L175.317,146.6Z" fill="#fff"/>
      <path id="Path_957" data-name="Path 957" d="M154.468,169.631h-.085a.455.455,0,0,1-.351-.284c-.379-.948-9.079-23.35-5.1-35.3s15.5-19.256,15.617-19.332a.493.493,0,0,1,.417,0,.5.5,0,0,1,.284.3l10.491,31.472a.474.474,0,0,1-.095.474L154.8,169.536A.493.493,0,0,1,154.468,169.631Zm10.083-53.789c-2.246,1.545-11.372,8.292-14.717,18.489-3.487,10.424,3.336,29.974,4.8,33.945l20.119-21.8Z" fill="#231f20"/>
      <path id="Path_958" data-name="Path 958" d="M214.275,115.121s11.448,7.155,15.428,19.076-5.108,34.978-5.108,34.978L203.746,146.6Z" fill="#fff"/>
      <path id="Path_959" data-name="Path 959" d="M224.595,169.631a.464.464,0,0,1-.351-.152L203.4,146.906a.474.474,0,0,1-.095-.474l10.491-31.472a.5.5,0,0,1,.284-.3.493.493,0,0,1,.417,0c.114.076,11.637,7.382,15.617,19.332s-4.738,34.353-5.1,35.3a.455.455,0,0,1-.351.284ZM204.305,146.47l20.119,21.8c1.469-3.971,8.292-23.483,4.8-33.945-3.393-10.2-12.471-16.944-14.717-18.489Z" fill="#231f20"/>
      <path id="Path_960" data-name="Path 960" d="M207.973,151.853c5.686-13.627,9.278-33.367,9.278-55.324,0-33.291-18.366-50.624-25.34-56.007a4.321,4.321,0,0,0-5.288,0c-6.975,5.383-25.34,22.744-25.34,56.007,0,21.957,3.582,41.7,9.278,55.324,0,0,5.686,2.843,18.707,2.843S207.973,151.853,207.973,151.853Z" fill="#f280df"/>
      <path id="Path_961" data-name="Path 961" d="M186.622,40.522a64.886,64.886,0,0,0-19.465,25.814h44.218a64.886,64.886,0,0,0-19.465-25.8,4.321,4.321,0,0,0-5.288-.019Z" fill="#fff"/>
      <path id="Path_962" data-name="Path 962" d="M211.375,66.791H167.157a.474.474,0,0,1-.436-.654,64.991,64.991,0,0,1,19.607-25.985l.294.37-.294-.37a4.8,4.8,0,0,1,5.875,0,64.99,64.99,0,0,1,19.607,25.985.474.474,0,0,1-.436.654Zm-43.5-.948h42.777A64.033,64.033,0,0,0,191.626,40.9a3.857,3.857,0,0,0-4.738,0h0a63.948,63.948,0,0,0-19.01,24.942Z" fill="#231f20"/>
      <circle id="Ellipse_40" data-name="Ellipse 40" cx="17.067" cy="17.067" r="17.067" transform="translate(173.298 73.993)" fill="#fff"/>
      <path id="Path_963" data-name="Path 963" d="M190.365,108.6A17.541,17.541,0,1,1,207.9,91.064,17.541,17.541,0,0,1,190.365,108.6Zm0-34.116a16.592,16.592,0,1,0,0-.009Z" fill="#231f20"/>
      <circle id="Ellipse_41" data-name="Ellipse 41" cx="10.528" cy="10.528" r="10.528" transform="translate(179.837 80.532)" fill="#231f20"/>
      <path id="Path_964" data-name="Path 964" d="M190.365,102.063a11,11,0,1,1,11-11A11,11,0,0,1,190.365,102.063Zm0-21.057A10.055,10.055,0,1,0,200.42,91.06,10.055,10.055,0,0,0,190.365,81.006Z" fill="#231f20"/>
      <path id="Path_965" data-name="Path 965" d="M198.714,90.558a.474.474,0,0,1-.464-.4c-1.08-7.382-7.581-7.051-7.856-7.032a.475.475,0,1,1-.066-.948,8.529,8.529,0,0,1,8.851,7.847.474.474,0,0,1-.4.54Z" fill="#fff"/>
      <path id="Path_966" data-name="Path 966" d="M186.688,84.142a.483.483,0,0,1-.37-.18.464.464,0,0,1,.085-.663,4.482,4.482,0,0,1,1.952-.815.473.473,0,1,1,.123.938,3.45,3.45,0,0,0-1.5.625.493.493,0,0,1-.294.095Z" fill="#fff"/>
      <path id="Path_967" data-name="Path 967" d="M205.907,147.275h-.152a.474.474,0,0,1-.294-.6,245.845,245.845,0,0,0,7.136-28.562.455.455,0,0,1,.55-.37.474.474,0,0,1,.379.55,242.605,242.605,0,0,1-7.174,28.676A.464.464,0,0,1,205.907,147.275Z" fill="#fff"/>
      <path id="Path_968" data-name="Path 968" d="M191.967,173.8a.483.483,0,0,1-.474-.474V159.794a.474.474,0,1,1,.948,0v13.533A.474.474,0,0,1,191.967,173.8Z" fill="#231f20"/>
      <path id="Path_969" data-name="Path 969" d="M184.679,180.87a.474.474,0,0,1-.474-.474V166.257a.474.474,0,1,1,.948,0V180.4A.474.474,0,0,1,184.679,180.87Z" fill="#231f20"/>
      <path id="Path_970" data-name="Path 970" d="M141.2,215.715h-.095a.474.474,0,0,1-.37-.559c.057-.294,1.459-7.183,7.5-10.358,4.407-2.322,10.083-2,16.868.948a.474.474,0,0,1,.246.625.464.464,0,0,1-.625.237c-6.5-2.843-11.9-3.146-16.044-.948-5.629,2.947-7,9.628-7.013,9.695A.474.474,0,0,1,141.2,215.715Z" fill="#231f20"/>
      <path id="Path_971" data-name="Path 971" d="M222.084,207.234a.464.464,0,0,1-.351-.152c-10.225-11.306-17.844-6.833-18.167-6.634a.483.483,0,0,1-.654-.161.464.464,0,0,1,.161-.644c.085-.057,8.576-5.117,19.361,6.8a.464.464,0,0,1,0,.663.474.474,0,0,1-.351.123Z" fill="#231f20"/>
      <path id="Path_972" data-name="Path 972" d="M133.023,142.423H102.7a.474.474,0,1,1,0-.948h30.325a.474.474,0,0,1,0,.948Z" fill="#d1d3d4"/>
      <path id="Path_973" data-name="Path 973" d="M133.023,153.738H102.7a.474.474,0,1,1,0-.948h30.325a.483.483,0,0,1,.474.474A.474.474,0,0,1,133.023,153.738Z" fill="#d1d3d4"/>
      <path id="Path_974" data-name="Path 974" d="M133.023,165.063H102.7a.474.474,0,1,1,0-.948h30.325a.474.474,0,0,1,.474.474A.483.483,0,0,1,133.023,165.063Z" fill="#d1d3d4"/>
      <path id="Path_975" data-name="Path 975" d="M133.023,176.378H102.7a.474.474,0,1,1,0-.948h30.325a.474.474,0,0,1,.474.474A.483.483,0,0,1,133.023,176.378Z" fill="#d1d3d4"/>
      <path id="Path_976" data-name="Path 976" d="M146.347,57.618a1.611,1.611,0,0,1-.559-.095,1.734,1.734,0,0,1-1.194-1.611l-.057-3.611a.777.777,0,0,0-.3-.616l-2.843-2.208a1.725,1.725,0,0,1-.588-1.9,1.706,1.706,0,0,1,1.62-1.185l3.62-.066a.768.768,0,0,0,.606-.3l2.218-2.843a1.734,1.734,0,0,1,3.108,1.033l.057,3.62a.768.768,0,0,0,.3.606l2.843,2.218a1.7,1.7,0,0,1,.588,1.9,1.715,1.715,0,0,1-1.621,1.194l-3.62.057a.768.768,0,0,0-.607.3l-2.208,2.843A1.734,1.734,0,0,1,146.347,57.618ZM150.2,43.4a.73.73,0,0,0-.607.3l-2.217,2.843a1.677,1.677,0,0,1-1.346.673l-3.611.066a.758.758,0,0,0-.739.54.777.777,0,0,0,.265.872l2.843,2.208a1.677,1.677,0,0,1,.673,1.346l.057,3.62a.8.8,0,0,0,1.421.464l2.208-2.843a1.734,1.734,0,0,1,1.346-.673l3.611-.057a.787.787,0,0,0,.474-1.412l-2.843-2.218a1.715,1.715,0,0,1-.673-1.346l-.057-3.611a.777.777,0,0,0-.805-.777Z" fill="#d1d3d4"/>
      <path id="Path_977" data-name="Path 977" d="M249.5,64.734a1.99,1.99,0,0,1-1.829-1.185l-1.829-4.009a1.09,1.09,0,0,0-.711-.6l-4.283-1.071a2.019,2.019,0,0,1-.351-3.791l4-1.829a1.052,1.052,0,0,0,.588-.711l1.071-4.283a2.019,2.019,0,0,1,3.791-.351l1.838,4.018a1.071,1.071,0,0,0,.711.6l4.321,1.071a2.009,2.009,0,0,1,.341,3.791l-4.018,1.838a1.033,1.033,0,0,0-.588.711l-1.071,4.283a1.99,1.99,0,0,1-1.772,1.516Zm-1.365-18.053h-.1a1.061,1.061,0,0,0-.948.806l-1.071,4.283a2.019,2.019,0,0,1-1.118,1.346l-4,1.848a1.061,1.061,0,0,0-.625,1.071,1.042,1.042,0,0,0,.806.948l4.283,1.071a2.019,2.019,0,0,1,1.346,1.118l1.829,4.018a1.071,1.071,0,0,0,2.009-.19l1.071-4.274a2.019,2.019,0,0,1,1.118-1.346l4.018-1.838a1.07,1.07,0,0,0-.19-2.009l-4.283-1.08a1.962,1.962,0,0,1-1.336-1.109L249.1,47.326h0a1.023,1.023,0,0,0-.967-.644Z" fill="#d1d3d4"/>
      <path id="Path_978" data-name="Path 978" d="M231.228,81.792a1.526,1.526,0,0,1-1.4-.948L228.556,78a.635.635,0,0,0-.4-.332l-2.985-.749a1.545,1.545,0,0,1-.265-2.9l2.8-1.279a.607.607,0,0,0,.332-.4l.749-2.976a1.545,1.545,0,0,1,2.9-.265h0l1.279,2.843a.607.607,0,0,0,.4.332l2.976.739a1.545,1.545,0,0,1,1.166,1.365,1.526,1.526,0,0,1-.9,1.545l-2.843,1.27a.635.635,0,0,0-.332.4l-.739,2.985a1.526,1.526,0,0,1-1.365,1.156Zm-.948-12.547h-.057a.588.588,0,0,0-.531.445l-.739,2.985a1.507,1.507,0,0,1-.862,1.023l-2.786,1.279a.588.588,0,0,0,.1,1.118l2.976.749a1.545,1.545,0,0,1,.948.862l1.27,2.786a.578.578,0,0,0,.6.351.6.6,0,0,0,.531-.455l.739-2.976a1.545,1.545,0,0,1,.862-1.033l2.786-1.27a.6.6,0,0,0-.1-1.128l-2.89-.739a1.507,1.507,0,0,1-1.023-.862L230.821,69.6a.569.569,0,0,0-.54-.351Z" fill="#d1d3d4"/>
      <path id="Path_979" data-name="Path 979" d="M196.165,179.041a.474.474,0,0,1-.474-.474v-5.885a.483.483,0,0,1,.474-.474.474.474,0,0,1,.474.474v5.885A.474.474,0,0,1,196.165,179.041Z" fill="#231f20"/>
      <path id="Path_980" data-name="Path 980" d="M109.71,78.314c.284-.834.559-1.668.853-2.5.152-.436.322-.853.5-1.279a1.241,1.241,0,0,1,1.317-.815c.682.076,1.346.218,2.019.332a7.155,7.155,0,0,0,1.09.142,1.185,1.185,0,0,0,.749-.246c.777-.73,1.516-1.507,2.246-2.284a1.147,1.147,0,0,0,.227-1.071c-.171-.815-.37-1.62-.531-2.435a3.383,3.383,0,0,1-.095-.948.862.862,0,0,1,.322-.616,14.774,14.774,0,0,1,4.028-1.9,1.014,1.014,0,0,1,1.156.417c.512.711,1.052,1.4,1.545,2.123a1.649,1.649,0,0,0,1.592.8c.891-.066,1.791-.076,2.682-.123a.948.948,0,0,0,.806-.483c.322-.474.625-.948.948-1.431s.531-.815.815-1.213a1.014,1.014,0,0,1,1.232-.426c1.241.426,2.473.862,3.7,1.336a1.061,1.061,0,0,1,.663,1.194c-.066.682-.218,1.365-.332,2.047-.047.313-.095.644-.123.948a1.3,1.3,0,0,0,.417,1.128c.644.616,1.308,1.222,1.9,1.9a1.44,1.44,0,0,0,1.45.408c.881-.19,1.763-.408,2.644-.6a1.175,1.175,0,0,1,1.478.7c.5,1.061.948,2.123,1.459,3.194a1.251,1.251,0,0,1-.455,1.763c-.455.36-.948.673-1.412,1.023a8.907,8.907,0,0,0-.948.777,1.175,1.175,0,0,0-.417.948c0,.948,0,1.9.085,2.777a1.421,1.421,0,0,0,.739,1.222c.5.3,1.023.6,1.526.948.3.19.616.389.948.606A1.09,1.09,0,0,1,146.934,88c-.407,1.118-.824,2.227-1.251,3.336a2.254,2.254,0,0,1-.275.483.948.948,0,0,1-1.033.483l-2.407-.4h-.18a1.7,1.7,0,0,0-1.838.644c-.455.531-.948,1.014-1.459,1.526a1.744,1.744,0,0,0-.445,1.744c.2.777.389,1.554.55,2.341a1.156,1.156,0,0,1-.758,1.564c-1.09.521-2.189,1.014-3.3,1.488a1.109,1.109,0,0,1-1.469-.389c-.426-.54-.824-1.109-1.222-1.677-.862-1.2-1.08-1.317-2.568-1.241l-1.734.1a1.592,1.592,0,0,0-1.365.787c-.351.588-.692,1.185-1.061,1.753a5.619,5.619,0,0,1-.663.824.806.806,0,0,1-.948.237l-3.516-1.308a2.085,2.085,0,0,1-.445-.256A.948.948,0,0,1,119.054,99c.123-.787.265-1.583.389-2.379a6.17,6.17,0,0,0,.066-.72,1.26,1.26,0,0,0-.4-1.08c-.635-.578-1.27-1.175-1.9-1.763a1.384,1.384,0,0,0-1.384-.341l-2.35.54H113.4c-1.023.19-1.355.057-1.8-.881s-.948-2.123-1.384-3.194a1.052,1.052,0,0,1,.426-1.459c.625-.474,1.26-.948,1.9-1.365a1.9,1.9,0,0,0,.948-1.848c-.057-.834-.076-1.668-.114-2.5a1.071,1.071,0,0,0-.493-.872c-.692-.436-1.393-.872-2.085-1.327a2.2,2.2,0,0,1-1.09-1.137Zm26.534,4.653a7.9,7.9,0,0,0-7.97-7.922,8.036,8.036,0,0,0-7.8,7.932,7.913,7.913,0,0,0,7.847,7.875,7.818,7.818,0,0,0,7.9-7.885Z" fill="#fff"/>
      <path id="Path_981" data-name="Path 981" d="M123.8,102.063a1.336,1.336,0,0,1-.464-.085l-.872-.322-2.634-.948a2.579,2.579,0,0,1-.483-.265,1.488,1.488,0,0,1-.758-1.545l.171-1.09c.076-.426.142-.862.208-1.289a5.544,5.544,0,0,0,.066-.682.806.806,0,0,0-.246-.7l-1.7-1.573-.208-.2a.948.948,0,0,0-.948-.227c-.55.142-1.1.265-1.649.389l-.711.161h-.1a1.753,1.753,0,0,1-2.312-1.156c-.436-.948-.862-1.9-1.393-3.213a1.516,1.516,0,0,1,.578-2.019c.73-.559,1.346-.948,1.9-1.384a1.4,1.4,0,0,0,.72-1.412c0-.521-.057-1.042-.076-1.554V82a.569.569,0,0,0-.275-.493l-.853-.54-1.232-.8a2.71,2.71,0,0,1-1.289-1.384.417.417,0,0,1,0-.152v-.3a.739.739,0,0,1,0-.152l.246-.711c.2-.606.407-1.2.616-1.8.152-.436.332-.872.512-1.3a1.677,1.677,0,0,1,1.81-1.1,7.642,7.642,0,0,1,1.355.208,5.692,5.692,0,0,1,.682.114l.275.057a3.525,3.525,0,0,0,.73.085.768.768,0,0,0,.426-.114c.824-.777,1.592-1.583,2.227-2.265a.654.654,0,0,0,.114-.644c-.076-.36-.152-.72-.237-1.08s-.208-.948-.294-1.365a3.791,3.791,0,0,1-.1-1.109,1.384,1.384,0,0,1,.54-.948,15.229,15.229,0,0,1,4.16-1.9,1.488,1.488,0,0,1,1.658.6l.559.739c.341.464.682.948,1,1.393a1.175,1.175,0,0,0,1.166.6c.578,0,1.166-.066,1.744-.095h.948a.512.512,0,0,0,.436-.275l.559-.853.5-.777c.227-.341.455-.692.692-1.023a1.5,1.5,0,0,1,1.772-.6c1.5.512,2.644.948,3.715,1.336A1.545,1.545,0,0,1,138,67.047a8.251,8.251,0,0,1-.208,1.384c-.047.227-.085.455-.123.682s-.095.625-.123.948a.853.853,0,0,0,.265.749l.455.426c.5.474,1.014.948,1.5,1.45a.948.948,0,0,0,1.014.275l1.3-.294,1.346-.3a1.649,1.649,0,0,1,2.009.948c.512,1.061,1,2.123,1.469,3.2a1.715,1.715,0,0,1-.6,2.322,10.564,10.564,0,0,1-.853.625l-.569.407c-.322.237-.644.493-.948.758a.644.644,0,0,0-.256.54v.6c0,.72,0,1.45.066,2.17a.948.948,0,0,0,.512.853l.644.379.881.521a9.26,9.26,0,0,1,.948.644,1.564,1.564,0,0,1,.569,1.9c-.407,1.118-.824,2.236-1.251,3.345a2.341,2.341,0,0,1-.294.531,1.478,1.478,0,0,1-1.535.73l-2.407-.4h-.218a1.251,1.251,0,0,0-1.365.493c-.322.389-.682.739-1.033,1.1l-.445.445a1.26,1.26,0,0,0-.322,1.3c.2.787.389,1.583.55,2.369a1.611,1.611,0,0,1-1.014,2.085c-1,.483-2.085.948-3.326,1.5a1.564,1.564,0,0,1-2.019-.531c-.36-.445-.692-.948-1.023-1.384l-.218-.313c-.768-1.08-.834-1.109-2.151-1.042l-1.744.095a1.137,1.137,0,0,0-.948.569l-.351.588c-.237.4-.474.787-.72,1.175a5.156,5.156,0,0,1-.73.9,1.327,1.327,0,0,1-.929.284Zm-7.581-9.95a1.82,1.82,0,0,1,1.279.521l.208.2c.559.521,1.118,1.052,1.687,1.564a1.734,1.734,0,0,1,.55,1.45,6.957,6.957,0,0,1-.076.777c-.066.436-.142.872-.208,1.308L119.481,99a.521.521,0,0,0,.284.569,2.085,2.085,0,0,0,.36.208l2.625.948.881.332a.37.37,0,0,0,.417-.123,5.894,5.894,0,0,0,.607-.758c.246-.379.474-.758.7-1.147l.351-.588a2.056,2.056,0,0,1,1.744-1.023l1.734-.1c1.658-.085,2.019.095,2.976,1.44l.227.313c.322.455.644.948.948,1.346a.644.644,0,0,0,.948.246c1.222-.521,2.293-1,3.288-1.478.559-.275.625-.407.493-1.042s-.351-1.554-.54-2.322a2.189,2.189,0,0,1,.559-2.189l.455-.455a10.913,10.913,0,0,0,.948-1.052,2.217,2.217,0,0,1,2.312-.8h.152l2.407.407a.521.521,0,0,0,.569-.284,3.29,3.29,0,0,0,.227-.379c.417-1.109.834-2.227,1.241-3.336a.616.616,0,0,0-.256-.787,7.8,7.8,0,0,0-.872-.588l-.862-.512-.654-.389a1.9,1.9,0,0,1-.948-1.611c0-.73-.047-1.469-.066-2.2v-.588a1.6,1.6,0,0,1,.578-1.289c.322-.284.663-.55,1-.805l.673-.313c.275-.19.54-.379.806-.588.5-.4.569-.625.313-1.2-.464-1.071-.948-2.123-1.45-3.175a.711.711,0,0,0-.948-.445l-1.327.3-1.317.294a1.9,1.9,0,0,1-1.9-.54c-.483-.493-.948-.948-1.478-1.421l-.455-.426a1.9,1.9,0,0,1-.559-1.516,5.951,5.951,0,0,1,.133-1c.057-.332.085-.474.123-.711.085-.436.161-.872.208-1.308a.635.635,0,0,0-.37-.711c-1.061-.4-2.189-.815-3.677-1.327a.569.569,0,0,0-.7.256c-.227.322-.445.663-.673.948l-.493.768-.569.872a1.459,1.459,0,0,1-1.185.692h-.948a11.557,11.557,0,0,0-1.715.085,2.1,2.1,0,0,1-2.019-1c-.313-.464-.644-.948-.948-1.355l-.654-.749a.521.521,0,0,0-.644-.237,13.949,13.949,0,0,0-3.9,1.782.625.625,0,0,0-.095.265,2.749,2.749,0,0,0,.085.824c.085.445.19.948.294,1.346s.161.73.237,1.09a1.592,1.592,0,0,1-.351,1.488c-.644.692-1.421,1.507-2.265,2.3a1.687,1.687,0,0,1-1.061.379,4.521,4.521,0,0,1-.948-.1l-.265-.047-.692-.123c-.436-.076-.862-.152-1.3-.2a.739.739,0,0,0-.834.521c-.171.417-.341.834-.493,1.251l-.616,1.791-.208.777a2.018,2.018,0,0,0,.862.824l1.241.787.853.54a1.5,1.5,0,0,1,.7,1.251,6.225,6.225,0,0,0,.047.948,10.35,10.35,0,0,0,.076,1.526,2.35,2.35,0,0,1-1.156,2.274c-.569.379-1.175.8-1.9,1.336-.407.313-.455.464-.265.948.521,1.3.948,2.274,1.365,3.165.341.73.445.777,1.289.625l.777-.18,1.63-.379a2.218,2.218,0,0,1,.6-.047Zm12.064-.787h0a8.33,8.33,0,0,1-5.847-14.215,8.586,8.586,0,0,1,5.8-2.5,8.349,8.349,0,0,1,8.444,8.377,7.941,7.941,0,0,1-2.246,5.762,8.339,8.339,0,0,1-6.112,2.578Zm-.095-15.807a7.505,7.505,0,0,0-5.07,2.189A7.382,7.382,0,0,0,128.3,90.34h0a7.382,7.382,0,0,0,5.44-2.322,6.975,6.975,0,0,0,1.99-5.06h0a7.411,7.411,0,0,0-7.505-7.449Z" fill="#d1d3d4"/>
      <path id="Path_982" data-name="Path 982" d="M261.648,116.41c-1.156-.389-2.3-.824-3.468-1.156a3.336,3.336,0,0,1-2.7-3.791A19.985,19.985,0,0,0,254,102.935a16.2,16.2,0,0,1,.341-12.32c3.573-8.169,11.95-10.945,20.261-7.221,12.244,5.477,11.438,19.778,1.763,26.648-2.606,1.9-5.117,3.677-6.889,6.416a3.194,3.194,0,0,1-4.189,1.2C264.093,117.2,262.861,116.818,261.648,116.41Z" fill="#fff"/>
      <path id="Path_983" data-name="Path 983" d="M266.86,118.457a4.937,4.937,0,0,1-1.734-.341c-.815-.3-1.639-.578-2.473-.843l-1.156-.389-1.061-.36c-.787-.275-1.592-.559-2.388-.787a3.791,3.791,0,0,1-3.042-4.3,19.777,19.777,0,0,0-1.45-8.358,16.764,16.764,0,0,1,.351-12.68,14.765,14.765,0,0,1,8.216-8.112,16.47,16.47,0,0,1,12.68.692c5.392,2.407,8.785,6.823,9.306,12.111a17.056,17.056,0,0,1-7.468,15.352c-2.464,1.753-5.013,3.563-6.766,6.283a3.478,3.478,0,0,1-3.014,1.734Zm.55-36.182A13.428,13.428,0,0,0,254.778,90.8a15.617,15.617,0,0,0-.332,11.969,20.593,20.593,0,0,1,1.507,8.766,2.843,2.843,0,0,0,2.35,3.307c.824.227,1.649.521,2.445.8l1.052.37h0l1.147.379c.843.275,1.687.55,2.511.862a2.739,2.739,0,0,0,3.62-1.023,26.038,26.038,0,0,1,7.013-6.548,16.11,16.11,0,0,0,7.079-14.48c-.5-5.013-3.611-9.041-8.756-11.372a17.219,17.219,0,0,0-7-1.583Z" fill="#d1d3d4"/>
      <rect id="Rectangle_229" data-name="Rectangle 229" width="13.1" height="3.724" rx="1.605" transform="matrix(0.948, 0.319, -0.319, 0.948, 255.775, 114.968)" fill="#fff"/>
      <path id="Path_984" data-name="Path 984" d="M265.619,122.068a2.246,2.246,0,0,1-.654-.1h0l-9.353-3.146a2.085,2.085,0,0,1-1.308-2.625l.161-.483a2.075,2.075,0,0,1,1.042-1.2,2.047,2.047,0,0,1,1.583-.1l9.353,3.137a2.075,2.075,0,0,1,1.2,1.042,2.047,2.047,0,0,1,.1,1.583l-.161.493a2.085,2.085,0,0,1-1.971,1.412Zm-.351-1a1.128,1.128,0,0,0,1.422-.711l.161-.483a1.137,1.137,0,0,0-.057-.862,1.109,1.109,0,0,0-.654-.569l-9.325-3.137a1.128,1.128,0,0,0-1.431.7l-.161.493a1.118,1.118,0,0,0,.711,1.421Z" fill="#d1d3d4"/>
      <rect id="Rectangle_230" data-name="Rectangle 230" width="13.068" height="3.715" rx="1.602" transform="matrix(0.948, 0.318, -0.318, 0.948, 254.258, 117.854)" fill="#fff"/>
      <path id="Path_985" data-name="Path 985" d="M264.4,125.584a2.246,2.246,0,0,1-.654-.1h0l-9.353-3.146a2.085,2.085,0,0,1-1.308-2.625l.171-.483a2,2,0,0,1,1.042-1.194,2.085,2.085,0,0,1,1.583-.114l9.353,3.146a2.066,2.066,0,0,1,1.3,2.625l-.161.483a2.085,2.085,0,0,1-1.971,1.412Zm-.351-1a1.128,1.128,0,0,0,1.421-.711l.161-.483a1.115,1.115,0,0,0-.7-1.421l-9.353-3.146a1.11,1.11,0,0,0-1.421.711l-.171.483a1.137,1.137,0,0,0,.057.862,1.156,1.156,0,0,0,.654.559Z" fill="#d1d3d4"/>
      <path id="Path_986" data-name="Path 986" d="M264.055,125.091c-.445,1.327-2.957,1.677-5.61.787s-4.435-2.691-3.99-4.018Z" fill="#fff"/>
      <path id="Path_987" data-name="Path 987" d="M261.26,126.825a9.477,9.477,0,0,1-2.966-.521,8.738,8.738,0,0,1-3.336-1.952,2.663,2.663,0,0,1-.948-2.663.483.483,0,0,1,.606-.294l9.6,3.222a.5.5,0,0,1,.275.246.474.474,0,0,1,0,.36,2.663,2.663,0,0,1-2.36,1.545,6.813,6.813,0,0,1-.872.057Zm-6.34-4.34a2.577,2.577,0,0,0,.739,1.194,7.733,7.733,0,0,0,2.976,1.725c2.151.73,4.009.54,4.738-.076Z" fill="#d1d3d4"/>
      <path id="Path_988" data-name="Path 988" d="M265.2,116.012h-.076a.474.474,0,0,1-.389-.55,39.677,39.677,0,0,1,2.568-8.861,11.931,11.931,0,0,1-3.705-.948,47.716,47.716,0,0,1-2.938,8.121l-.152.332a.474.474,0,0,1-.853-.389l.152-.341a45.488,45.488,0,0,0,2.928-8.159,11.457,11.457,0,0,1-4.1-3.6,6.236,6.236,0,0,1-1.232-3.108,3.554,3.554,0,0,1,1.355-3.175,3.165,3.165,0,0,1,2.672-.36,3.118,3.118,0,0,1,2.018,1.687,13.267,13.267,0,0,1,.588,5.913,19.483,19.483,0,0,1-.275,2.094,11.211,11.211,0,0,0,3.923.948.841.841,0,0,1,.076-.161l.123-.275c1.033-2.2,2.322-4.937,4.587-6.2a3.345,3.345,0,0,1,2.739-.389,1.715,1.715,0,0,1,.948,1.317,5.023,5.023,0,0,1-1.459,4.34,7.989,7.989,0,0,1-4,2.066,10.736,10.736,0,0,1-2.4.256h0a38.418,38.418,0,0,0-2.644,8.984A.483.483,0,0,1,265.2,116.012Zm9.211-16.584a3.241,3.241,0,0,0-1.45.436c-2,1.118-3.213,3.7-4.189,5.771h0a10,10,0,0,0,1.753-.237,6.975,6.975,0,0,0,3.535-1.8,4.075,4.075,0,0,0,1.2-3.5c-.095-.493-.332-.606-.408-.644a1.033,1.033,0,0,0-.445-.028Zm-13.987-3.639a1.981,1.981,0,0,0-1.137.332,2.644,2.644,0,0,0-.948,2.331,5.506,5.506,0,0,0,1.071,2.634,10.652,10.652,0,0,0,3.516,3.175c.095-.569.171-1.147.208-1.725a12.405,12.405,0,0,0-.512-5.468,2.2,2.2,0,0,0-1.45-1.175,2.843,2.843,0,0,0-.749-.1Z" fill="#d1d3d4"/>
      <path id="Path_989" data-name="Path 989" d="M102.717,55.7a.474.474,0,0,1-.474-.474V52.206a.474.474,0,0,1,.474-.474.483.483,0,0,1,.474.474v3.023A.474.474,0,0,1,102.717,55.7Z" fill="#d1d3d4"/>
      <path id="Path_990" data-name="Path 990" d="M102.717,62.024a.474.474,0,0,1-.474-.474V58.527a.474.474,0,1,1,.948,0V61.6a.483.483,0,0,1-.474.426Z" fill="#d1d3d4"/>
      <path id="Path_991" data-name="Path 991" d="M107.389,57.352h-3.032a.474.474,0,1,1,0-.948h3.032a.474.474,0,1,1,0,.948Z" fill="#d1d3d4"/>
      <path id="Path_992" data-name="Path 992" d="M101.068,57.352H98.045a.474.474,0,1,1,0-.948h3.023a.474.474,0,1,1,0,.948Z" fill="#d1d3d4"/>
      <path id="Path_993" data-name="Path 993" d="M92.122,79.366a.483.483,0,0,1-.474-.474V75.869a.474.474,0,1,1,.948,0v3.023A.474.474,0,0,1,92.122,79.366Z" fill="#d1d3d4"/>
      <path id="Path_994" data-name="Path 994" d="M92.122,85.678a.474.474,0,0,1-.474-.474V82.181a.474.474,0,1,1,.948,0V85.2A.474.474,0,0,1,92.122,85.678Z" fill="#d1d3d4"/>
      <path id="Path_995" data-name="Path 995" d="M96.794,81.006H93.818a.474.474,0,1,1,0-.948h3.023a.475.475,0,1,1-.047.948Z" fill="#d1d3d4"/>
      <path id="Path_996" data-name="Path 996" d="M90.482,81.006H87.459a.474.474,0,1,1,0-.948h3.023a.483.483,0,0,1,.474.474A.474.474,0,0,1,90.482,81.006Z" fill="#d1d3d4"/>
      <path id="Path_997" data-name="Path 997" d="M277.266,68.686a.474.474,0,0,1-.474-.474V65.189a.474.474,0,0,1,.948,0v3.042a.474.474,0,0,1-.474.455Z" fill="#d1d3d4"/>
      <path id="Path_998" data-name="Path 998" d="M277.266,75a.474.474,0,0,1-.474-.474V71.5a.474.474,0,1,1,.948,0v3.023A.474.474,0,0,1,277.266,75Z" fill="#d1d3d4"/>
      <path id="Path_999" data-name="Path 999" d="M281.938,70.326h-3.023a.474.474,0,1,1,0-.948h3.023a.483.483,0,0,1,.474.474A.474.474,0,0,1,281.938,70.326Z" fill="#d1d3d4"/>
      <path id="Path_1000" data-name="Path 1000" d="M275.617,70.326h-3.023a.474.474,0,0,1-.474-.474.483.483,0,0,1,.474-.474h3.023a.474.474,0,0,1,0,.948Z" fill="#d1d3d4"/>
    </g>
  </g>
</svg>
