<svg xmlns="http://www.w3.org/2000/svg" xmlns:xlink="http://www.w3.org/1999/xlink" width="150" height="150" viewBox="0 0 150 150">
  <defs>
    <clipPath id="clip-path">
      <rect id="Rectangle_179" data-name="Rectangle 179" width="150" height="150" transform="translate(1480 2025)" fill="#0064ff" stroke="#707070" stroke-width="1"/>
    </clipPath>
  </defs>
  <g id="Mask_Group_12" data-name="Mask Group 12" transform="translate(-1480 -2025)" clip-path="url(#clip-path)">
    <g id="web-development-svgrepo-com" transform="translate(1480 2025)">
      <g id="Group_30" data-name="Group 30">
        <g id="Group_29" data-name="Group 29">
          <path id="Path_857" data-name="Path 857" d="M101.051,125.866a6.658,6.658,0,0,1-1.993-1.875,6.776,6.776,0,0,1-.633-1.116H10.1V35.819H129.988V92.663a6.684,6.684,0,0,1,5.608,4.214,6.654,6.654,0,0,1,4.494-.686V14.131a8.428,8.428,0,0,0-8.418-8.419H8.419A8.428,8.428,0,0,0,0,14.131V124.559a8.428,8.428,0,0,0,8.419,8.419h91.865a6.665,6.665,0,0,1,.767-7.111ZM120.743,19.849a3.109,3.109,0,0,1,3.108-3.109h3.108a3.108,3.108,0,0,1,3.108,3.109v3.523a3.108,3.108,0,0,1-3.108,3.108h-3.108a3.108,3.108,0,0,1-3.108-3.108Zm-14.454,0a3.109,3.109,0,0,1,3.108-3.109h3.109a3.108,3.108,0,0,1,3.108,3.109v3.523a3.108,3.108,0,0,1-3.108,3.108H109.4a3.108,3.108,0,0,1-3.108-3.108Zm-14.455,0a3.109,3.109,0,0,1,3.108-3.109h3.108a3.109,3.109,0,0,1,3.109,3.109v3.523a3.108,3.108,0,0,1-3.109,3.108H94.943a3.109,3.109,0,0,1-3.108-3.108Z" fill="#0064ff" stroke="#707070" stroke-width="0.357"/>
          <path id="Path_858" data-name="Path 858" d="M149.98,119.938l-.934-5.3a1.312,1.312,0,0,0-1.52-1.064l-4.711.83a17.67,17.67,0,0,0-2.145-3.708l3.077-3.668a1.31,1.31,0,0,0-.162-1.848l-4.12-3.458a1.313,1.313,0,0,0-1.849.162l-3.074,3.665a17.61,17.61,0,0,0-4.026-1.466V99.3A1.313,1.313,0,0,0,129.2,97.99h-5.379a1.313,1.313,0,0,0-1.312,1.312v4.784a17.593,17.593,0,0,0-4.026,1.466l-3.075-3.665a1.312,1.312,0,0,0-1.849-.162l-4.12,3.457a1.312,1.312,0,0,0-.162,1.849l3.077,3.667a17.733,17.733,0,0,0-2.145,3.708l-4.711-.83a1.313,1.313,0,0,0-1.52,1.064l-.934,5.3a1.311,1.311,0,0,0,1.063,1.52l4.714.831a17.67,17.67,0,0,0,.74,4.219l-4.144,2.391a1.311,1.311,0,0,0-.48,1.792l2.689,4.658a1.312,1.312,0,0,0,1.792.48l4.147-2.394a17.676,17.676,0,0,0,3.279,2.754l-1.637,4.5a1.312,1.312,0,0,0,.784,1.681l5.054,1.839a1.31,1.31,0,0,0,1.682-.784l1.637-4.5a17.839,17.839,0,0,0,4.282,0l1.637,4.5a1.311,1.311,0,0,0,1.233.864,1.3,1.3,0,0,0,.449-.08l5.054-1.839a1.312,1.312,0,0,0,.783-1.681l-1.637-4.5a17.774,17.774,0,0,0,3.279-2.754l4.147,2.394a1.315,1.315,0,0,0,.656.176,1.338,1.338,0,0,0,.34-.045,1.312,1.312,0,0,0,.8-.611l2.689-4.659a1.311,1.311,0,0,0-.48-1.792l-4.143-2.391a17.675,17.675,0,0,0,.74-4.219l4.714-.831a1.309,1.309,0,0,0,.847-.54A1.286,1.286,0,0,0,149.98,119.938Zm-23.465,8.418a7.216,7.216,0,1,1,7.216-7.216A7.216,7.216,0,0,1,126.515,128.356Z" fill="#0064ff" stroke="#707070" stroke-width="0.357"/>
          <g id="Group_28" data-name="Group 28">
            <path id="Path_859" data-name="Path 859" d="M58.829,84.076A4.394,4.394,0,0,0,56.295,80.1L42.2,73.556,56.3,67.007a4.4,4.4,0,0,0,2.534-3.971v-.114a4.372,4.372,0,0,0-4.383-4.376,4.4,4.4,0,0,0-1.843.4L30.071,69.428A4.395,4.395,0,0,0,27.538,73.4v.313a4.4,4.4,0,0,0,2.534,3.971L52.605,88.163A4.38,4.38,0,0,0,58.83,84.19v-.115Z" fill="#0064ff" stroke="#707070" stroke-width="0.357"/>
            <path id="Path_860" data-name="Path 860" d="M81.061,47.869a4.394,4.394,0,0,0-3.537-1.8h-.112a4.367,4.367,0,0,0-4.172,3.042l-14.845,46a4.381,4.381,0,0,0,4.173,5.712h.113a4.364,4.364,0,0,0,4.169-3.042L81.693,51.788A4.39,4.39,0,0,0,81.061,47.869Z" fill="#0064ff" stroke="#707070" stroke-width="0.357"/>
            <path id="Path_861" data-name="Path 861" d="M110.019,69.428,87.487,58.95a4.38,4.38,0,0,0-6.225,3.971v.114A4.4,4.4,0,0,0,83.8,67.009l14.093,6.548L83.8,80.1a4.394,4.394,0,0,0-2.535,3.972v.115a4.382,4.382,0,0,0,6.227,3.971l22.533-10.479a4.4,4.4,0,0,0,2.532-3.97V73.4A4.4,4.4,0,0,0,110.019,69.428Z" fill="#0064ff" stroke="#707070" stroke-width="0.357"/>
          </g>
        </g>
      </g>
    </g>
  </g>
</svg>
