<svg xmlns="http://www.w3.org/2000/svg" xmlns:xlink="http://www.w3.org/1999/xlink" width="150" height="150" viewBox="0 0 150 150">
  <defs>
    <clipPath id="clip-path">
      <rect id="Rectangle_174" data-name="Rectangle 174" width="150" height="150" transform="translate(1076 1234)" fill="#fff"/>
    </clipPath>
  </defs>
  <g id="Mask_Group_8" data-name="Mask Group 8" transform="translate(-1076 -1234)" clip-path="url(#clip-path)">
    <g id="certificateIcon" transform="translate(1076 1240.989)">
      <g id="Group_22" data-name="Group 22" transform="translate(0)">
        <path id="Path_770" data-name="Path 770" d="M.071,64.038V56.511c1.554-2.774,2.151-5.952,3.812-8.71,3.462-5.742,6.753-11.581,10.129-17.376.935-1.608,2.688-1.78,4.172-.4a19.033,19.033,0,0,1,1.575,1.828c.532.629,1.091,1.258,2.016,1.07,1.1-.226,1.242-1.183,1.366-2.07.231-1.6.409-3.124,1.941-4.21.941-.661,2.452-1.263,2.075-2.8C26.775,22.269,25.1,22.726,24,22.29c-.409-.161-.9-.1-1.317-.242a2.51,2.51,0,0,1-1.489-4c1.253-2.167,2.484-4.349,3.817-6.462A23.256,23.256,0,0,1,40.383.833c.726-.156,1.677.156,2.145-.769H43.6c.484.774,1.263.527,1.941.532Q66.455.613,87.367.6c.677,0,1.457.253,1.935-.532h1.075c.344.914,1.215.6,1.849.737A23.311,23.311,0,0,1,107.9,11.995c6.763,11.57,13.441,23.194,20.151,34.79.134.21.263.414.4.624l.038.075.366.495c.065.177.129.355.194.538.129.177.258.355.392.532.048.177.1.355.151.532.129.183.258.36.387.543l.145.532c.129.183.258.36.387.543.038.183.081.366.118.548-.274,1.532-1.505.995-2.366,1-6,.038-12.005.011-18.011,0-5.14-9.817-10.8-19.339-16.333-28.93-2.392-4.151-6.048-6.081-10.876-6.054-10.919.07-21.839.108-32.753-.022a13.241,13.241,0,0,0-11.075,4.9c-2.618-.387-3.28,1.876-4.253,3.4-5.774,9.027-10.7,18.548-16.134,27.774-4.446,7.548-4.2,14.86.134,22.3,4.72,8.091,9.478,16.172,13.968,24.392,4.511,8.269,11.226,11.973,20.634,11.446,6.161-.344,12.36-.226,18.532-.022,7.565.247,14.624,2.032,19.909,8.048a2.972,2.972,0,0,1-2.054.43c-15.323.038-30.645.231-45.962.032-8.532-.113-15.2-4.285-19.3-11.677C16.442,93.887,6.334,80.016.071,64.038Z" transform="translate(-0.071 -0.059)" fill="#fed73e"/>
        <path id="Path_771" data-name="Path 771" d="M98.028.058c-.479.785-1.263.532-1.935.532Q75.181.606,54.27.59c-.677,0-1.457.242-1.941-.532Z" transform="translate(-8.781 -0.058)" fill="#f7dcae"/>
        <path id="Path_772" data-name="Path 772" d="M136.012,162.716a2.764,2.764,0,0,1-.038.473H105.867a1.269,1.269,0,0,1-.048-.452Q120.915,162.73,136.012,162.716Z" transform="translate(-17.695 -27.168)" fill="#f7dcae"/>
        <path id="Path_773" data-name="Path 773" d="M179.941,81.348q-.266,0-.532.016c-.038-.532-.081-1.065-.118-1.6q.016-4.306.032-8.618-.008-2.9-.011-5.806c.21-.043.419-.086.629-.124Q179.941,73.284,179.941,81.348Z" transform="translate(-29.941 -10.918)" fill="#f7dcae"/>
        <path id="Path_774" data-name="Path 774" d="M43.13,26.18a13.248,13.248,0,0,1,11.075-4.9c10.914.129,21.833.091,32.753.022,4.828-.032,8.484,1.9,10.876,6.054,5.532,9.591,11.194,19.118,16.333,28.93q-5.637-.032-11.269-.059c-.016-.269.059-.6-.065-.8-4.021-6.108-6.828-12.989-11.392-18.7C89.8,34.67,87.447,32.4,84.06,33.2l-1.054-.145c-.231-1.129-1.134-.957-1.914-.957-7.435-.005-14.882-.215-22.3.075-4.817.188-9.043,2.172-11.6,6.581-3.9,6.72-7.758,13.462-11.489,20.274a14.7,14.7,0,0,0,.027,14.4c3.29,6.339,6.8,12.57,10.446,18.715a15.816,15.816,0,0,0,14.645,8.237c4.032-.054,8.075-.231,12.091.043,5.839.4,6.581,1.677,7.387,6.247-9.226.027-18.452.091-27.677.075a11.059,11.059,0,0,1-9.876-5.731c-1.167-1.909-2.258-3.866-3.333-5.823C34.254,85.772,28.48,76.7,23.759,67.046a12.648,12.648,0,0,1,1.6-9.5Q34.273,41.877,43.13,26.18Z" transform="translate(-3.963 -3.594)" fill="#fefdfb"/>
        <path id="Path_775" data-name="Path 775" d="M42.346,27.153Q33.467,42.838,24.571,58.518a12.648,12.648,0,0,0-1.6,9.5c-1.156.2-.941,1.108-.973,1.887-.156,3.366,1.269,6.274,2.833,9.075,4.312,7.7,8.876,15.258,13.038,23.032,4.1,7.651,9.9,11.64,18.9,11.269a138.733,138.733,0,0,1,21.129.344A45.466,45.466,0,0,1,95.539,119c1.64.919,2.349,3.011,4.414,3.312a1.66,1.66,0,0,1-1.108,1.629l-3.72.548c-5.285-6.022-12.339-7.8-19.909-8.048-6.172-.2-12.371-.317-18.532.022-9.409.521-16.118-3.183-20.634-11.446-4.489-8.22-9.242-16.3-13.968-24.392-4.339-7.435-4.581-14.747-.134-22.3C27.383,49.1,32.313,39.583,38.082,30.556,39.066,29.029,39.727,26.765,42.346,27.153Z" transform="translate(-3.179 -4.567)" fill="#fdce38"/>
        <path id="Path_776" data-name="Path 776" d="M110.3,63.018q5.637.032,11.269.059c6.005.005,12.005.038,18.011,0,.855-.005,2.091.532,2.366-1a3.146,3.146,0,0,0,2.833,1.086c4.3-.059,8.6-.032,12.892-.048,1.194-.005,2.392-.065,2.753,1.473-.763-.145-1.527-.285-2.285-.43a54.311,54.311,0,0,1-6.618-.048c-2.8-.344-3.839.989-4.075,3.452-.059.613-.048,1.237-.07,1.849-.317.376-.629.753-.946,1.129-2.124.355-3.032,3.129-5.516,2.763,0-.978.011-1.957,0-2.935-.07-6.237-.07-6.237-6.183-6.22-.8,0-1.6.016-2.4.027H126.42q-6.718.008-13.435.011c-7.306-.005-14.608.032-21.914-.048-1.726-.022-2.344.505-2.312,2.274.091,5.7.032,11.4.032,17.1-.091.726.253,1.559-.511,2.124-.016-1.242-.027-2.484-.043-3.731q0-4.573.005-9.14c.005-2.022-.134-4.054.048-6.054.2-2.2-.747-2.839-2.72-2.543-6.6-.032-6.6-.032-10.3,4.925l-1.124,1.559c-2.2-.527-3.962,1.425-6.129,1.086-.07-1.452-.134-2.9-.2-4.355.177-3.651.817-4.269,4.505-4.274q10.137-.016,20.274-.027h15.575Z" transform="translate(-11.361 -10.395)" fill="#fbe48a"/>
        <path id="Path_777" data-name="Path 777" d="M156.161,60.774c.129.183.258.36.387.543C156.419,61.134,156.29,60.952,156.161,60.774Z" transform="translate(-26.086 -10.177)" fill="#fbe48a"/>
        <path id="Path_778" data-name="Path 778" d="M155.516,59.477c.129.183.258.36.387.543C155.774,59.843,155.645,59.66,155.516,59.477Z" transform="translate(-25.978 -9.961)" fill="#fbe48a"/>
        <path id="Path_779" data-name="Path 779" d="M154.864,58.2c.29.059.452.22.392.532C155.128,58.555,154.994,58.377,154.864,58.2Z" transform="translate(-25.87 -9.748)" fill="#fbe48a"/>
        <path id="Path_780" data-name="Path 780" d="M154.2,56.968l.366.495C154.442,57.3,154.318,57.129,154.2,56.968Z" transform="translate(-25.759 -9.543)" fill="#fbe48a"/>
        <path id="Path_781" data-name="Path 781" d="M153.677,56.129c.134.21.263.414.4.624C153.941,56.543,153.806,56.333,153.677,56.129Z" transform="translate(-25.672 -9.403)" fill="#fbe48a"/>
        <path id="Path_782" data-name="Path 782" d="M113.044,133.194a1.655,1.655,0,0,0,1.108-1.629c.731-.812.3-1.844.484-2.758.382-1.839-.059-3.011-2.3-3.613a15.567,15.567,0,0,1-8.4-4.914,3.311,3.311,0,0,1,2.43.925c1.957,1.371,3.306,1.414,5.048-.871,1.677-2.194,3.113-5.075,5.86-6.081,4.032-1.473,6.64-4.371,9.043-7.629,1.591-2.151,3.371-4.134,5.14-6.145,3.522-4.005,7.237-7.839,10.392-12.194,1.392-1.925,1.833-4.758,4.554-5.64.011.355.022.71.038,1.07-.011.769-.016,1.538-.027,2.3q.008,8.065.011,16.124c-.935,11.247-6.833,18.855-17.247,22.828-2.613,1-3.645,2.124-2.806,4.78a6.689,6.689,0,0,1,.145,1.323c.005.79-.629,1.215-1,1.8-1.823,2.871-4,5.548-4.919,8.919a1.319,1.319,0,0,1-1.419.505c-5.07-1.075-10.21-.2-15.3-.565.9-1.677,2.887-1.8,4.2-2.925C110.006,137.151,112.168,135.758,113.044,133.194Z" transform="translate(-17.372 -13.823)" fill="#fdba45"/>
        <path id="Path_783" data-name="Path 783" d="M103.877,153.542c5.091.36,10.231-.511,15.3.565a1.334,1.334,0,0,0,1.419-.505q8.056.016,16.118.027c.156.167.317.333.473.495.038,1.591.081,3.183.118,4.774a2.108,2.108,0,0,1-1.618,2.285q-15.1.016-30.2.027a1.889,1.889,0,0,1-1.57-1.753c-.011-1.962-.016-3.93-.027-5.9Z" transform="translate(-17.372 -25.639)" fill="#f4b13e"/>
        <path id="Path_784" data-name="Path 784" d="M103.806,153.568c.011,1.968.016,3.93.027,5.9A9.53,9.53,0,0,1,103.806,153.568Z" transform="translate(-17.284 -25.643)" fill="#fdba45"/>
        <path id="Path_785" data-name="Path 785" d="M175.635,64.574c.763.145,1.522.285,2.285.43a.727.727,0,0,1,.306.231c.005,1.935.005,3.871.011,5.806-1.242.14-1.183,1.387-1.785,2.07-1.237,1.4-1.253,3.747-3.446,4.387.075-1.919-.7-4.038.387-5.715A15.753,15.753,0,0,0,175.635,64.574Z" transform="translate(-28.86 -10.811)" fill="#fdda5f"/>
        <path id="Path_786" data-name="Path 786" d="M175.337,82.677c.038.532.081,1.065.118,1.6-1.79,9.812-8.591,17.495-19.844,17.661-.016-2.124-.027-4.247-.043-6.371a12.161,12.161,0,0,0,7.011-2.2c.946-.145,1.86-.333,2.2-1.414l.075-.1c.145-.145.29-.29.441-.435l.1-.1c.145-.151.29-.3.441-.446l.086-.1c.134-.188.274-.371.409-.559l1.495-1.672a5.143,5.143,0,0,0,3.371-1.9C172.557,85.3,173.955,83.995,175.337,82.677Z" transform="translate(-25.987 -13.828)" fill="#fed73e"/>
        <path id="Path_787" data-name="Path 787" d="M140.652,156.767c-.038-1.591-.081-3.183-.118-4.774-.156-.167-.317-.333-.473-.495q-8.056-.016-16.118-.027c.919-3.366,3.1-6.048,4.919-8.914.371-.586,1.005-1.005,1-1.8a19.52,19.52,0,0,0,9.64,9.543c1.7.78,1.435,2.038,1.409,3.323C140.883,154.67,141.162,155.756,140.652,156.767Z" transform="translate(-20.716 -23.509)" fill="#fdce38"/>
        <path id="Path_788" data-name="Path 788" d="M155.46,96.232c.016,2.124.027,4.247.043,6.371-.188.07-.376.14-.57.21q-.008-8.065-.011-16.129c1.011,2.032.215,4.22.538,6.317Z" transform="translate(-25.88 -14.496)" fill="#d98933"/>
        <path id="Path_789" data-name="Path 789" d="M177.788,80.954c-1.382,1.317-2.78,2.624-4.14,3.962a5.143,5.143,0,0,1-3.371,1.9c.446-1.882,1.731-3.468,1.941-5.441.57-.8.194-1.731.366-2.586,2.194-.634,2.21-2.989,3.446-4.387.6-.683.548-1.93,1.785-2.07Q177.807,76.642,177.788,80.954Z" transform="translate(-28.439 -12.104)" fill="#fed255"/>
        <path id="Path_790" data-name="Path 790" d="M103.457,58.628H87.882c-.995-1.887-1.887-3.839-3.011-5.651A7.916,7.916,0,0,0,77.532,48.9c-3.21.086-6.43.038-9.64.016a6.969,6.969,0,0,0-6.349,3.312C59.36,55.8,57.355,59.483,55.435,63.2c-.892,1.737-1.43,3.78-.516,5.629,1.29,2.624,2.909,5.086,4.392,7.618.586,1.387,1.177,2.769,1.763,4.156-.984.613-.538,1.392-.2,2.108,2.247,4.769,4.575,9.5,8.909,12.785.855.651,1.527,1.2,1.371,2.339-6.522.032-13.215.737-18.285-4.78-.543-.892-1.091-1.785-1.634-2.677a1.514,1.514,0,0,0-1.011-1.64q-1.911-3.484-3.823-6.962a1.512,1.512,0,0,0-1.016-1.64A4.369,4.369,0,0,0,44.263,78a1.542,1.542,0,0,0-1.011-1.629c-1.866-3.591-3.763-7.172-3.634-11.4a18.4,18.4,0,0,1,1.591-4.532c3.484-6.14,7.032-12.242,10.409-18.441,2.532-4.64,6.36-6.694,11.554-6.645,7.511.065,15.022.027,22.532.032l1.054.145c2.677,1.258,5.263,2.64,6.785,5.355Q98.511,49.759,103.457,58.628Z" transform="translate(-6.661 -5.94)" fill="#feb63b"/>
        <path id="Path_791" data-name="Path 791" d="M90.4,119.2a15.567,15.567,0,0,0,8.4,4.914c2.242.6,2.677,1.774,2.3,3.613-.188.919.247,1.952-.484,2.758-2.065-.3-2.774-2.392-4.414-3.312a45.557,45.557,0,0,0-17.64-5.376,140.13,140.13,0,0,0-21.129-.344c-9.005.371-14.806-3.618-18.9-11.269C34.366,102.408,29.8,94.848,25.5,87.149c-1.57-2.8-2.989-5.71-2.833-9.075.038-.78-.183-1.688.973-1.887,4.72,9.656,10.489,18.731,15.651,28.14,1.075,1.962,2.167,3.919,3.333,5.823a11.059,11.059,0,0,0,9.876,5.731c9.226.016,18.452-.043,27.677-.075.183.065.366.124.548.188,1.355,2.479,5.306,3.919,8.64,3.156C89.7,119.176,90.049,119.187,90.4,119.2Z" transform="translate(-3.834 -12.746)" fill="#fbc231"/>
        <path id="Path_792" data-name="Path 792" d="M82.919,109.007c-.183-.065-.366-.124-.548-.188-.806-4.57-1.554-5.849-7.387-6.247-4.011-.274-8.059-.1-12.091-.043a15.826,15.826,0,0,1-14.645-8.237C44.6,88.152,41.086,81.916,37.8,75.577a14.7,14.7,0,0,1-.027-14.4c3.731-6.812,7.591-13.554,11.489-20.274,2.559-4.409,6.785-6.392,11.6-6.581,7.425-.29,14.866-.081,22.3-.075.785,0,1.683-.177,1.914.957-7.511-.005-15.022.032-22.532-.032-5.194-.043-9.027,2.005-11.554,6.645-3.376,6.2-6.93,12.3-10.409,18.441A18.381,18.381,0,0,0,39,64.792a10.346,10.346,0,0,0,.484,9.409c3.468,6.532,7.027,13.021,10.8,19.382,2.22,3.742,5.656,6.651,10.065,6.667,7.935.027,15.849.9,23.785.538a57.863,57.863,0,0,0,4.565,8.043C86.774,108.883,84.844,108.942,82.919,109.007Z" transform="translate(-6.043 -5.743)" fill="#fcf5e9"/>
        <path id="Path_793" data-name="Path 793" d="M112.886,58.634q-4.952-8.871-9.914-17.731c-1.522-2.715-4.108-4.1-6.785-5.355,3.387-.8,5.737,1.473,7.382,3.527,4.565,5.715,7.371,12.6,11.392,18.7.129.194.048.527.065.8C114.316,58.591,113.6,58.613,112.886,58.634Z" transform="translate(-16.09 -5.946)" fill="#fcf5e9"/>
        <path id="Path_794" data-name="Path 794" d="M103.419,117.258l-1.054-.032c-.425-.957-1.683-1.4-1.624-2.656,3.151,1.113,4.7-1.462,6.4-3.108,1.435-1.387,2.925-3.215,1.726-5.661-.28-.57.237-1.183.328-1.774.376-2.457,2.672-3.371,3.93-5.108.952.613,2.091,1.032,3,.333,2.495-1.93,4.839-1.516,7.425-.177,2.161,1.118,4.048-.14,3.414-2.446-.9-3.28.183-5.435,2.565-7.435,1.3-1.086.7-2.258-.425-3.1a11.76,11.76,0,0,0-2.129-1.016,7.494,7.494,0,0,0,1.4-1.22c4.129-5.941,7.973-12.032,9.441-19.28.8-.011,1.6-.021,2.4-.027,6.113-.022,6.118-.022,6.183,6.22.011.979,0,1.957,0,2.935-1.091,1.892-.226,3.952-.511,5.909-2.72.882-3.161,3.715-4.554,5.64-3.156,4.355-6.871,8.188-10.392,12.194-1.763,2.011-3.548,3.989-5.14,6.145-2.4,3.253-5.011,6.151-9.043,7.629-2.747,1.005-4.188,3.887-5.86,6.081-1.742,2.285-3.091,2.242-5.048.871A3.383,3.383,0,0,0,103.419,117.258Z" transform="translate(-16.849 -10.806)" fill="#febf4e"/>
        <path id="Path_795" data-name="Path 795" d="M92.36,86.057c.763-.565.419-1.4.511-2.124a31.261,31.261,0,0,1,3.478.021c3.9.43,7.419-.167,10.134-3.323,1.1-1.274,2.215-2.527,3.387-3.731a30.3,30.3,0,0,0,7.2-12.29q6.718-.008,13.435-.011c-.726,4.661-3.005,8.64-5.726,12.349-1.14,1.554-1.581,3.876-3.973,4.312-2.28-2.258-3.4-2.177-4.651.742a5.21,5.21,0,0,1-4.763,3.538c-2.952.253-3.478,1.29-2.371,4.269a2.228,2.228,0,0,1-1.57,1.328c-4.151,1.188-8.344,2.382-12.7,1.7-1.565-.247-1.844.145-1.9,1.505-.054,1.188.489,2.495-.495,3.559Q92.355,91.974,92.36,86.057Z" transform="translate(-15.452 -10.815)" fill="#fdda5f"/>
        <path id="Path_796" data-name="Path 796" d="M117.165,64.6a30.3,30.3,0,0,1-7.2,12.29c-1.172,1.2-2.29,2.457-3.387,3.731-2.715,3.156-6.237,3.753-10.134,3.323a32.615,32.615,0,0,0-3.478-.021c0-5.7.059-11.4-.032-17.1-.027-1.769.586-2.3,2.312-2.274C102.558,64.628,109.864,64.59,117.165,64.6Z" transform="translate(-15.547 -10.805)" fill="#fedf69"/>
        <path id="Path_797" data-name="Path 797" d="M62.279,79.161c-1.478-2.532-3.1-4.995-4.392-7.618-.909-1.849-.376-3.892.516-5.629,1.914-3.72,3.919-7.409,6.108-10.973a6.974,6.974,0,0,1,6.349-3.312c3.215.022,6.43.07,9.64-.016a7.921,7.921,0,0,1,7.339,4.075c1.124,1.812,2.016,3.763,3.011,5.651q-10.137.008-20.274.027c-3.688.005-4.328.624-4.505,4.274-2.538.758-2.177,3.075-2.683,4.946C62.628,73.392,63.333,76.392,62.279,79.161Z" transform="translate(-9.628 -8.65)" fill="#fefdfb"/>
        <path id="Path_798" data-name="Path 798" d="M88.815,89.6q-.008,5.919-.016,11.839c-.005.355-.011.71-.016,1.07-7.8-.1-13.731-3.441-17.7-10.2,2.446.258,4.624-1.14,7.027-1.134l-.016-.011c-.022,1.694,1.29,2.226,2.522,2.624,1.065.344,1.608-.392,1.731-1.425a5.98,5.98,0,0,0,.608-2.726c2.048-1.086,3.113-3.688,5.812-3.769C88.788,87.113,88.8,88.36,88.815,89.6Z" transform="translate(-11.906 -14.36)" fill="#fed73e"/>
        <path id="Path_799" data-name="Path 799" d="M83.608,87.06A6.121,6.121,0,0,1,83,89.786a6.306,6.306,0,0,1-4.253-1.2s.016.011.011.011c-1.075-2.344-3.091-4.215-3.495-6.9-.1-1.258-.2-2.511-.3-3.769.8-1.925.2-3.93.36-5.892l1.124-1.559c2.36.14,4.882-.726,6.957,1.14q.1,3.419.188,6.833C83.6,81.323,83.608,84.189,83.608,87.06Z" transform="translate(-12.554 -11.78)" fill="#fcf5e9"/>
        <path id="Path_800" data-name="Path 800" d="M126.5,81.255c2.392-.435,2.833-2.763,3.973-4.312,2.72-3.7,5-7.688,5.726-12.349H142.1c-1.473,7.247-5.312,13.339-9.441,19.28a7.608,7.608,0,0,1-1.392,1.215C128.421,85.378,127.147,83.706,126.5,81.255Z" transform="translate(-21.142 -10.814)" fill="#fed255"/>
        <path id="Path_801" data-name="Path 801" d="M171.057,80.063c-.043-2.3-.108-4.6-.134-6.9-.038-3.188-.505-3.715-3.7-3.715-1.317,0-2.629.231-3.946.36.022-.618.011-1.237.07-1.855.237-2.462,1.274-3.8,4.075-3.452a54.321,54.321,0,0,0,6.618.048,15.818,15.818,0,0,1-2.242,7.21c-1.086,1.677-.306,3.8-.387,5.715C171.256,78.332,171.627,79.262,171.057,80.063Z" transform="translate(-27.272 -10.789)" fill="#fedf69"/>
        <path id="Path_802" data-name="Path 802" d="M63.252,81.966c1.054-2.769.349-5.769,1.108-8.581.505-1.866.145-4.188,2.683-4.946q.1,2.177.2,4.355a25.878,25.878,0,0,0,.048,5.876,5.934,5.934,0,0,0,.253,3.21c-.36,2.511.952,4.629,1.624,6.9-1.984.048-2.758-1.79-4.156-2.656Q64.139,84.049,63.252,81.966Z" transform="translate(-10.601 -11.455)" fill="#fcf5e9"/>
        <path id="Path_803" data-name="Path 803" d="M85.291,77.47q-.1-3.419-.188-6.833c1.317-1.909,3.349-3.43,3.339-6.07,1.973-.3,2.925.344,2.72,2.543-.183,2.005-.043,4.038-.048,6.054-1.237.016-1.742,1.1-2.554,1.742C87.48,75.777,86.861,77.228,85.291,77.47Z" transform="translate(-14.243 -10.798)" fill="#fdda5f"/>
        <path id="Path_804" data-name="Path 804" d="M85.329,79.2c1.57-.242,2.194-1.694,3.274-2.559C89.41,76,89.92,74.919,91.157,74.9q0,4.573-.005,9.14c-2.7.081-3.763,2.683-5.812,3.769Q85.332,83.505,85.329,79.2Z" transform="translate(-14.281 -12.532)" fill="#fed255"/>
        <path id="Path_805" data-name="Path 805" d="M160.931,72.232a.79.79,0,0,1-.021.473q-.081,3.839-.156,7.677c-2.118-.134-3.613,2.027-5.812,1.591-.011-.355-.022-.71-.038-1.07.285-1.962-.581-4.021.511-5.909C157.9,75.361,158.808,72.587,160.931,72.232Z" transform="translate(-25.867 -12.087)" fill="#fedf69"/>
        <path id="Path_806" data-name="Path 806" d="M68.071,79.305a25.878,25.878,0,0,1-.054-5.876c2.167.339,3.93-1.613,6.129-1.086-.156,1.962.441,3.968-.36,5.892C71.8,78.176,70.1,79.633,68.071,79.305Z" transform="translate(-11.372 -12.09)" fill="#fedf69"/>
        <path id="Path_807" data-name="Path 807" d="M87.051,64.58c.005,2.64-2.021,4.156-3.339,6.07-2.075-1.871-4.6-1-6.957-1.14C80.448,64.547,80.448,64.547,87.051,64.58Z" transform="translate(-12.852 -10.811)" fill="#fedf69"/>
        <path id="Path_808" data-name="Path 808" d="M154.949,83.6c2.2.441,3.694-1.726,5.817-1.591q.024,4.564.048,9.129c-1.914-.274-3.489,1.108-5.355,1.075-.317-2.091.473-4.28-.538-6.317C154.933,85.134,154.944,84.365,154.949,83.6Z" transform="translate(-25.88 -13.715)" fill="#fdda5f"/>
        <path id="Path_809" data-name="Path 809" d="M143.284,153.645c.156.167.317.333.473.495C143.6,153.978,143.44,153.812,143.284,153.645Z" transform="translate(-23.94 -25.656)" fill="#fdba45"/>
        <path id="Path_810" data-name="Path 810" d="M155.568,94.036c1.866.032,3.441-1.349,5.355-1.075.317.2.634.4.952.608a.828.828,0,0,0,.065.07c.215.478.425.957.64,1.435a12.2,12.2,0,0,1-7.011,2.2C155.568,96.192,155.568,95.116,155.568,94.036Z" transform="translate(-25.987 -15.536)" fill="#fed255"/>
        <path id="Path_811" data-name="Path 811" d="M163.853,95.216c-.215-.478-.425-.957-.64-1.435.946.005,1.9.011,2.849.021C165.713,94.883,164.8,95.071,163.853,95.216Z" transform="translate(-27.261 -15.678)" fill="#fbe48a"/>
        <path id="Path_812" data-name="Path 812" d="M168,92.275c-.065-.333.1-.5.409-.559C168.271,91.9,168.132,92.092,168,92.275Z" transform="translate(-28.056 -15.334)" fill="#fbe48a"/>
        <path id="Path_813" data-name="Path 813" d="M167.366,92.948c-.054-.344.1-.489.441-.446C167.656,92.652,167.511,92.8,167.366,92.948Z" transform="translate(-27.952 -15.464)" fill="#fbe48a"/>
        <path id="Path_814" data-name="Path 814" d="M166.721,93.6c-.048-.339.1-.489.441-.441C167.011,93.3,166.866,93.45,166.721,93.6Z" transform="translate(-27.844 -15.573)" fill="#fbe48a"/>
        <path id="Path_815" data-name="Path 815" d="M86.2,104c.005-.355.011-.71.016-1.07.984-1.065.441-2.371.495-3.559.059-1.366.339-1.753,1.9-1.505,4.36.683,8.554-.511,12.7-1.7a2.251,2.251,0,0,0,1.57-1.328,5.171,5.171,0,0,1,2.672,5.726,20.016,20.016,0,0,0,.038,3.4c-1.258,1.737-3.559,2.651-3.93,5.108-.091.586-.608,1.2-.328,1.774,1.2,2.446-.29,4.274-1.726,5.661-1.7,1.64-3.253,4.22-6.4,3.108l-1.231-.683a57.862,57.862,0,0,1-4.565-8.043c-.059-1.538-1.113-1.548-2.258-1.522-6.935.145-13.86-.177-20.785-.495-4.28-.194-8-2.581-8.833-5.9,5.07,5.516,11.763,4.812,18.285,4.78,3.817.3,7.672-.43,11.473.478,1.263.3,1.543-.608,1.414-1.629C86.589,105.737,86.369,104.871,86.2,104Z" transform="translate(-9.315 -15.855)" fill="#fed255"/>
        <path id="Path_816" data-name="Path 816" d="M87.716,103.139c.172.871.4,1.731.505,2.613.129,1.021-.151,1.93-1.414,1.629-3.8-.909-7.656-.177-11.473-.478.151-1.145-.516-1.694-1.376-2.339-4.333-3.29-6.667-8.016-8.909-12.785-.339-.715-.785-1.495.2-2.108,1.4.866,2.172,2.7,4.156,2.656l.608.624C73.979,99.7,79.914,103.042,87.716,103.139Z" transform="translate(-10.834 -14.994)" fill="#f4b13e"/>
        <path id="Path_817" data-name="Path 817" d="M52.7,98.99c.833,3.312,4.554,5.7,8.833,5.9,6.925.317,13.849.64,20.785.495,1.14-.027,2.2-.016,2.258,1.522-7.935.366-15.849-.511-23.785-.538-4.409-.016-7.849-2.925-10.065-6.667-3.774-6.36-7.333-12.849-10.8-19.382a10.347,10.347,0,0,1-.484-9.409c-.129,4.226,1.769,7.806,3.634,11.4-.059.79-.005,1.505,1.011,1.629a4.369,4.369,0,0,1,1.124,2.14c-.048.785.016,1.5,1.016,1.64q1.911,3.484,3.823,6.962c-.043.785.016,1.5,1.016,1.64C51.6,97.205,52.152,98.1,52.7,98.99Z" transform="translate(-6.48 -11.867)" fill="#f7dcae"/>
        <path id="Path_818" data-name="Path 818" d="M44.988,86.216c-1.016-.118-1.07-.839-1.011-1.629A1.539,1.539,0,0,1,44.988,86.216Z" transform="translate(-7.386 -14.146)" fill="#fed255"/>
        <path id="Path_819" data-name="Path 819" d="M47.556,90.743c-1-.134-1.059-.855-1.016-1.64A1.516,1.516,0,0,1,47.556,90.743Z" transform="translate(-7.814 -14.899)" fill="#fed255"/>
        <path id="Path_820" data-name="Path 820" d="M53.363,101.066c-1-.134-1.059-.855-1.016-1.64A1.516,1.516,0,0,1,53.363,101.066Z" transform="translate(-8.782 -16.619)" fill="#fed255"/>
        <path id="Path_821" data-name="Path 821" d="M98.1,123.755l1.231.683c-.059,1.253,1.2,1.7,1.624,2.656-3.328.769-7.28-.677-8.64-3.156Q95.211,123.841,98.1,123.755Z" transform="translate(-15.445 -20.674)" fill="#f4b13e"/>
        <path id="Path_822" data-name="Path 822" d="M114.958,101.948a20.017,20.017,0,0,1-.038-3.4,5.167,5.167,0,0,0-2.672-5.726c-1.1-2.978-.581-4.016,2.371-4.269a5.21,5.21,0,0,0,4.763-3.538c1.253-2.919,2.366-3,4.651-.742.651,2.452,1.925,4.124,4.774,3.833a11.76,11.76,0,0,1,2.129,1.016c1.129.839,1.726,2.011.425,3.1-2.387,2-3.468,4.151-2.565,7.435.634,2.306-1.253,3.57-3.414,2.446-2.581-1.339-4.93-1.753-7.425.177C117.049,102.98,115.91,102.561,114.958,101.948Z" transform="translate(-18.678 -13.83)" fill="#d98933"/>
        <path id="Path_823" data-name="Path 823" d="M70.632,91.981l-.608-.624c-.672-2.269-1.984-4.387-1.624-6.9,1.968.339,3.812-.71,5.763-.516.4,2.688,2.419,4.554,3.495,6.9C75.255,90.841,73.078,92.239,70.632,91.981Z" transform="translate(-11.449 -14.035)" fill="#fed255"/>
        <path id="Path_824" data-name="Path 824" d="M79.5,92.219a6.29,6.29,0,0,0,4.253,1.2c-.118,1.032-.667,1.769-1.731,1.425C80.794,94.445,79.487,93.918,79.5,92.219Z" transform="translate(-13.31 -15.418)" fill="#fed255"/>
        <path id="Path_825" data-name="Path 825" d="M74.1,83.2c-1.952-.2-3.8.855-5.763.516a5.934,5.934,0,0,1-.253-3.21c2.038.323,3.737-1.129,5.72-1.07Q73.945,81.317,74.1,83.2Z" transform="translate(-11.381 -13.288)" fill="#fdda5f"/>
        <path id="Path_826" data-name="Path 826" d="M162.935,90.214c-.317-.2-.634-.4-.952-.608q-.024-4.565-.048-9.129.081-3.839.156-7.677c.887,4.2.194,8.462.414,12.688C162.586,87.069,162.312,88.682,162.935,90.214Z" transform="translate(-27.048 -12.182)" fill="#fbe48a"/>
      </g>
    </g>
  </g>
</svg>
