<svg xmlns="http://www.w3.org/2000/svg" xmlns:xlink="http://www.w3.org/1999/xlink" width="600" height="600" viewBox="0 0 600 600">
  <defs>
    <clipPath id="clip-path">
      <rect id="Rectangle_201" data-name="Rectangle 201" width="600" height="600" transform="translate(262.533 442.733)" fill="#fff"/>
    </clipPath>
    <linearGradient id="linear-gradient" x1="-114.515" y1="50.666" x2="-114.541" y2="50.807" gradientUnits="objectBoundingBox">
      <stop offset="0" stop-color="#dfc8b7"/>
      <stop offset="0.253" stop-color="#d6b79e"/>
      <stop offset="0.784" stop-color="#c18a62"/>
      <stop offset="1" stop-color="#b87a49"/>
    </linearGradient>
  </defs>
  <g id="Mask_Group_23" data-name="Mask Group 23" transform="translate(-262.533 -442.733)" clip-path="url(#clip-path)">
    <g id="组_47_2_" transform="translate(263.012 516.084)">
      <path id="路径_27_2_" d="M-79.9-204.289l-95.893,99.572L-79.9-5.145l-95.893,99.572L-79.9,194,111.761-5.145Z" transform="translate(487.899 204.289)" fill="#f2d98d"/>
      <g id="组_45_2_" transform="translate(0 84.029)">
        <g id="组_32_2_" transform="translate(21.663 18.419)">
          <g id="组_27_2_" transform="translate(91.046)">
            <g id="组_26_2_">
              <path id="路径_28_2_" d="M-388.251,5.683S-348.535-69.2-364.866-120.07c-19.989-62.4-47.685-84.107-47.685-84.107S-491.46-108.947-388.251,5.683Z" transform="translate(441.396 204.313)" fill="#b3e9f3"/>
              <path id="路径_29_2_" d="M-397.554-168.068l-1.437,1.357-14.763,14.38c-2.613-35.542-.261-51.956-.261-51.956a261.3,261.3,0,0,0-4.05,50.464l-9.276-11.8,9.406,18.449c.261,8,.653,16.143,1.306,24.147l-12.15-20.077,12.8,26.589c.653,6.512,1.437,13.023,2.221,19.4l-19.2-26.589,20.511,36.22c1.306,8.818,2.744,17.228,4.181,25.232L-426.3-80.977l20.381,30.794c1.7,8.139,3.266,15.6,4.834,21.976l-17.9-23.876,19.6,35.271c2.744,9.089,6.532,18.721,6.532,18.721l3.135,3.663,3-6.1A127.127,127.127,0,0,1-392.981-19.8l10.713-30.387L-394.81-29.97c-1.568-7.054-3-13.973-4.311-20.62L-381.092-84.1-401.081-59.95c-1.829-9.36-3.4-18.178-4.7-26.589l17.768-30.523-19.074,22.519c-1.176-7.325-2.09-14.244-3-20.755l16.331-32.829-17.376,23.74c-1.045-8.411-1.7-16.143-2.352-23.2Z" transform="translate(442.86 204.289)" fill="#050e40"/>
            </g>
          </g>
          <g id="组_29_2_" transform="translate(0 110.427)">
            <g id="组_28_2_">
              <path id="路径_30_2_" d="M-292.223-108.38s-70.026,6.24-102.556-24.689c-39.847-37.848-46.64-67.828-46.64-67.828S-342.521-231.557-292.223-108.38Z" transform="translate(441.419 204.285)" fill="#b3e9f3"/>
              <path id="路径_31_2_" d="M-419.994-175.459l1.568-.678,15.939-7.054c-25.737-14.38-38.932-18.314-38.932-18.314A204.241,204.241,0,0,1-402.1-187.262l-5.618-11.531,10.582,13.973c6.01,2.984,11.889,6.1,17.637,9.5l-10.843-16.821,15.547,19.535c4.7,2.849,9.276,5.7,13.848,8.546l-13.326-24.689,20.119,29.166c6.14,4.07,12.019,8.139,17.506,12.209l-7.839-21.027,16.069,27.131c5.487,4.205,10.582,8,14.894,11.531l-11.758-22.79,19.727,28.081c5.879,5.426,11.758,11.8,11.758,11.8l1.568,3.8-5.618.271a128.5,128.5,0,0,0-12.281-11.8l-26.521-1.9,19.466-3.12c-4.834-3.8-9.406-7.325-13.979-10.717l-31.485,2.984,25.084-7.732c-6.4-4.748-12.542-9.089-18.29-13.023l-29,3.8,23.516-7.6c-5.1-3.391-9.929-6.647-14.632-9.632l-30.31,1.764,23.777-5.833c-6.01-3.8-11.627-7.054-16.723-9.9Z" transform="translate(441.419 204.892)" fill="#050e40"/>
            </g>
          </g>
          <g id="组_31_2_" transform="translate(64.122 73.732)">
            <g id="组_30_2_">
              <path id="路径_32_2_" d="M-358.6-70.42s-57.222-23.876-70.94-61.452c-16.853-46.123-10.713-72.3-10.713-72.3S-351.026-187.627-358.6-70.42Z" transform="translate(441.347 204.313)" fill="#b3e9f3"/>
              <path id="路径_33_2_" d="M-433.493-175.123l1.437.136L-416.9-173.9c-14.632-21.841-23.516-30.387-23.516-30.387a176.924,176.924,0,0,1,25.345,27.4v-11.4l3,15.329c3.527,4.748,6.924,9.767,10.19,14.651l-2.09-17.635,4.7,21.705c2.613,4.07,5.226,8.275,7.577,12.345l-1.045-24.825,4.573,31.065c3.266,5.7,6.271,11.4,9.014,16.686l1.96-19.806,2.221,27.945c2.744,5.562,5.226,10.717,7.185,15.194l-.523-22.655,4.7,30.116c2.613,6.647,4.7,14.108,4.7,14.108l-.261,3.663-4.573-2.035a92.669,92.669,0,0,0-5.226-14.244l-19.727-12.48,16.461,5.562c-2.352-4.884-4.573-9.632-6.924-14.108l-25.737-10.581,22.6,4.205c-3.266-6.376-6.4-12.209-9.406-17.771l-24.169-8.953,21.3,3.663c-2.613-4.748-5.226-9.36-7.708-13.566L-426.7-161.828l20.9,5.155c-3.266-5.426-6.4-10.31-9.276-14.651Z" transform="translate(441.508 204.289)" fill="#050e40"/>
            </g>
          </g>
        </g>
        <g id="组_36_2_" transform="translate(0 322.602)">
          <g id="组_35_2_">
            <g id="组_33_2_" transform="translate(0 17.861)">
              <path id="路径_34_2_" d="M-9.516-204.289v8.818a1.575,1.575,0,0,1-.392,1.085V-203.2c.261-.271.261-.678.392-1.085" transform="translate(516.68 206.459)" fill="#236634"/>
              <path id="路径_35_2_" d="M65.41-203.9a1.575,1.575,0,0,1-.392,1.085c0,.136-.131.136-.131.271l-.131.136c0,.136-.131.136-.261.271l-.131.136c-.131.136-.261.136-.261.271h0c-.131.136-.261.136-.392.271l-.131.136a.451.451,0,0,1-.261.136.131.131,0,0,0-.131.136.451.451,0,0,1-.261.136c-.131,0-.131.136-.261.136s-.131.136-.261.136-.131.136-.261.136l-.261.136-.261.136a.451.451,0,0,0-.261.136l-.261.136-.392.136-.261.136-.392.136-.261.136c-.131,0-.261.136-.392.136l-.261.136-.261.136-.392.136-.261.136-.392.136-.261.136-.523.136-.261.136-.653.136H56c-.261.136-.523.136-.784.271h-.261l-.653.136-.261.136-.915-.272-.392.136-.523.136-.392.136c-.261,0-.392.136-.653.136l-.392.136c-.261,0-.523.136-.784.136h-.261c-.392.136-.653.136-1.045.271h-.131l-.915.136-.392.136-.653.136-.392.136-.653.136-.392.136-.784.136-.392.136-.784.136h-.392c-.392.136-.784.136-1.176.271H41.5l-1.045.136-.392.136-.784.136-.523.136-.784.136-.523.136-.784.136-.523.136-.915.136h-.392l-1.437.136h0c-.523,0-.915.136-1.437.136h-.523c-.261,0-.653.136-.915.136l-.523.136-.915.136-.653.136-.915.136-.653.136-1.045.136H25.3L24-192.64h-.261c-.523,0-1.045.136-1.568.136h-.523l-1.176.136h-.653l-1.045.136-.653.136-1.045.136-.653.136-1.045.136H14.72l-1.306.136h-.392l-1.7.136h-.392l-1.306.136H8.971l-1.176.136H7.142l-1.176.136H5.313l-1.176.136H3.484l-1.437.136H1.525c-.653,0-1.306.136-1.96.136H-.827l-1.568.136h-.653l-1.306.136h-.784l-1.176.136H-7.1l-1.306.136h-.784l-1.437.136h-.653l-2.09.136h-.261l-1.829.136h-.653l-1.437.136h-.784l-1.306.136h-.915l-1.306.136h-.784l-1.437.136h-.784l-1.96.136h-.131l-2.221.136h-.784l-1.568.136h-.784l-1.437.136h-.915l-1.437.136h-.915l-1.568.136h-.784l-1.96.136h-.392l-2.352.136h-.784l-1.568.136h-.915l-1.568.136-.915.136-1.437.136h-.915l-1.568.136h-.915l-1.829.136h-.653l-2.482.136h-.523l-1.96.136h-.915l-1.568.136h-6.14l-1.829.136h-.784l-2.613.136h-.523l-2.09.136H-90.188l-2.613.136h0l-2.613.136h-14.763l-2.744.136h-75.513c-139.921,0-253.32-8.953-253.32-20.077v8.818c0,11.124,113.4,20.077,253.32,20.077h75.513l2.744-.136h14.763l2.613-.136h0l2.613-.136h11.627l2.09-.136h.523l2.613-.136h.784l1.829-.136h.915l1.568-.136h3.658l1.568-.136h.915l1.96-.136h.523l2.482-.136h.653l1.829-.136h.915l1.568-.136h.915l1.437-.136h.915l1.568-.136h.915l1.568-.136h.784l2.352-.136h.392l1.96-.136h.784l1.568-.136h.915l1.437-.136h.915l1.437-.136h.784l1.568-.136h.784l2.221-.136h.131l1.96-.136h.784l1.437-.136h.784l1.306-.136h.915l1.306-.136h.784l1.437-.136h.653c.653,0,1.176-.136,1.829-.136h.261l2.09-.136h.653l1.437-.136H-8.4l1.306-.136h.784l1.176-.136h.784l1.306-.136h.653l1.568-.136h.392l1.96-.136h.523l1.437-.136h.653l1.176-.136h.653l1.176-.136H7.8l1.176-.136h.653c.392,0,.915-.136,1.306-.136h.392l1.7-.136h.392l1.306-.136h.653l1.045-.136.653-.136,1.045-.136.653-.136,1.045-.136h.653l1.176-.136h.523l1.568-.136H24l1.306-.136h.523l1.045-.136.653-.136.915-.136.653-.136.915-.136.523-.136.915-.136h.523l1.437-.136h0l1.437-.136h.392c.261,0,.653-.136.915-.136l.523-.136.784-.136.523-.136.784-.136.523-.136.784-.136.392-.136c.392,0,.784-.136,1.045-.136h.131c.392-.136.784-.136,1.176-.271H43.2l.784-.136.392-.136.784-.136.392-.136a5.475,5.475,0,0,0,.653-.136l.392-.136.653-.136.392-.136c.261,0,.523-.136.915-.136h.131c.392-.136.653-.136,1.045-.271h.261l.784-.136.392-.136.653-.136.392-.136.523-.136.392-.136c.131,0,.392-.136.523-.136l.261-.136.653-.136h.261c.261-.136.523-.136.784-.271h.131l.653-.136.261-.136.523-.136.261-.136c.131,0,.261-.136.392-.136l.261-.136.392-.136.261-.136h.131l.261-.136c.131,0,.261-.136.392-.136l.261-.136.392-.136.261-.136.392-.136.261-.136.261-.136.261-.136.261-.136.261-.136.261-.136c.131,0,.131-.136.261-.136s.131-.136.261-.136l.131-.136c.131,0,.131-.136.261-.136l.131-.136h0c.131-.136.261-.136.392-.271h0c.131-.136.261-.136.261-.271l.131-.136L64.5-194l.131-.136c0-.136.131-.136.131-.271h0a1.575,1.575,0,0,0,.392-1.085Z" transform="translate(441.753 206.069)" fill="#050e40"/>
            </g>
            <g id="组_34_2_" transform="translate(0.392)">
              <ellipse id="椭圆_2_2_" cx="253.32" cy="20.077" rx="253.32" ry="20.077" fill="#41abc5"/>
            </g>
          </g>
        </g>
        <g id="组_38_2_" transform="translate(98.46 132.908)">
          <g id="组_37_2_">
            <rect id="矩形_29_2_" width="246.135" height="157.226" transform="translate(23.255 16.414)" fill="#fff" stroke="#050e40" stroke-width="1.113"/>
            <path id="路径_36_2_" d="M-180.437-204.289H-412.593c-11.627,0-21.034,9.767-21.034,21.841V-9.622a4.72,4.72,0,0,0,4.573,4.748h265.209a4.72,4.72,0,0,0,4.573-4.748V-182.448C-159.4-194.521-168.809-204.289-180.437-204.289ZM-418.472-36.21v-146.1a4.776,4.776,0,0,1,4.7-4.884h234.508a4.776,4.776,0,0,1,4.7,4.884v146.1a4.776,4.776,0,0,1-4.7,4.884H-413.768a4.776,4.776,0,0,1-4.7-4.884Z" transform="translate(442.771 204.289)" fill="#0064ff" stroke="#050e40" stroke-width="1.113"/>
            <path id="路径_37_2_" d="M-153.347-48.428h-283.5a4.72,4.72,0,0,0-4.573,4.748h0c0,10.446,8.231,18.992,18.29,18.992H-167.2c10.06,0,18.29-8.546,18.29-18.992h0A4.612,4.612,0,0,0-153.347-48.428Z" transform="translate(441.419 238.347)" fill="#0064ff" stroke="#050e40" stroke-width="1.113"/>
            <path id="路径_38_2_" d="M-330.965-38.932h36.581a9.268,9.268,0,0,0,9.145-9.5H-340.11A9.268,9.268,0,0,0-330.965-38.932Z" transform="translate(458.997 238.347)" fill="#faf9f9" stroke="#050e40" stroke-width="1.113"/>
          </g>
        </g>
        <g id="组_39_2_" transform="translate(253.512 34.686)">
          <path id="路径_39_2_" d="M-425.941-162.206l-2.09,10.174a9.113,9.113,0,0,0,2.744,8.546l7.708,6.783,4.965-4.205-5.226-8.411,3.135-7.732Z" transform="translate(443.669 213.62)" fill="#f2c196"/>
          <path id="路径_40_2_" d="M-388.2-157.73l10.06-4.477,2.482,10.581a8.971,8.971,0,0,1-2.482,8.546l-7.839,7.325v-13.7Z" transform="translate(450.612 213.62)" fill="#f2c196"/>
          <path id="路径_41_2_" d="M-404.33-176.234l5.487,8.139,4.311-8.139,9.668.95a10.1,10.1,0,0,1,8.1,5.7l5.226,10.446-10.06,4.477,2.352,5.969v16.007l-20.511,9.9-12.934-7.6-5.487-15.872,3.135-7.732-11.235-5.155,6.663-10.988a10.005,10.005,0,0,1,7.316-4.884Z" transform="translate(444.006 210.555)" fill="#f280df"/>
          <path id="路径_42_2_" d="M-421.6-135.456v-18.178h44.419v18.314l-23.385,7.6Z" transform="translate(444.817 215.493)" fill="#0064ff"/>
          <path id="路径_43_2_" d="M-375.188-117.153s-44.419-5.155-59.966-13.43,1.176-16.414,15.547-11.666,44.942,16.957,44.942,16.957Z" transform="translate(441.385 217.674)" fill="#050e40"/>
          <path id="路径_44_2_" d="M-419.778-117.454l-1.045-7.325s50.952-24.147,64.8-16.686S-379.017-120.031-419.778-117.454Z" transform="translate(444.953 217.84)" fill="#050e40"/>
          <path id="路径_45_2_" d="M-417.341-127.863l1.045,7.325s-18.29,2.442-19.727,1.628-6.14-4.07-3.135-7.19S-421.522-129.355-417.341-127.863Z" transform="translate(441.601 220.923)" fill="#ebb148"/>
          <path id="路径_46_2_" d="M-384.376-127.177l-1.045,7.054s18.29,2.442,19.727,1.628,6.14-4.07,3.135-7.19S-380.2-128.669-384.376-127.177Z" transform="translate(451.095 221.051)" fill="#ebb148"/>
          <path id="路径_47_2_" d="M-407.575-174.993l5.487,9.767,4.311-9.767v-6.918h-9.8Z" transform="translate(447.251 209.314)" fill="url(#linear-gradient)"/>
          <path id="路径_48_2_" d="M-404.044-174.516s-6.794-4.477-7.577-9.9-.784-10.039,1.045-10.446,13.587-3.256,14.371-2.849,3.135,7.325,3.266,9.9c.261,5.155-4.965,12.887-6.532,13.7S-404.044-174.516-404.044-174.516Z" transform="translate(446.463 205.853)" fill="#f2c196"/>
          <path id="路径_49_2_" d="M-411.09-182.424a22.822,22.822,0,0,1-3.135-8.139c-1.045-6.783,2.221-10.174,3.789-10.988,8.884-4.477,10.582.136,18.29-2.849a18.655,18.655,0,0,1,1.306,8.411,35.147,35.147,0,0,1-2.09,9.767s0-7.054-4.573-7.325c-2.09-.136-9.537,1.9-11.235,0C-408.738-193.276-412.266-192.869-411.09-182.424Z" transform="translate(446.062 204.4)" fill="#414c58"/>
        </g>
        <g id="组_40_2_" transform="translate(423.723 234.001)">
          <path id="路径_50_2_" d="M-439.638-141.944l8.361,33.372H-405.8l7.708-33.372Z" transform="translate(441.859 217.914)" fill="#a066f2"/>
          <path id="路径_51_2_" d="M-398.952-168.882a10.552,10.552,0,0,0-4.442-8.682,9.347,9.347,0,0,0-1.437-12.887,8.37,8.37,0,0,0-5.487-2.035h-.392a9.13,9.13,0,0,0-5.879-11.4,8.683,8.683,0,0,0-10.974,6.1,9.123,9.123,0,0,0,0,5.291h-.392a8.926,8.926,0,0,0-8.753,9.089,9.1,9.1,0,0,0,1.96,5.7,10.737,10.737,0,0,0-2.744,14.515,13.923,13.923,0,0,0,2.744,2.849,9.347,9.347,0,0,0,1.437,12.887,8.37,8.37,0,0,0,5.487,2.035h17.637a8.926,8.926,0,0,0,8.753-9.089,9.1,9.1,0,0,0-1.96-5.7A10.933,10.933,0,0,0-398.952-168.882Z" transform="translate(441.934 204.291)" fill="#3dd9c9"/>
          <path id="路径_52_2_" d="M-410.99-177.92a1.231,1.231,0,0,0-1.829,0L-419.482-171v-19.128a1.336,1.336,0,0,0-1.306-1.357,1.334,1.334,0,0,0-1.306,1.357h0v9.225l-5.748-5.969a1.231,1.231,0,0,0-1.829,0,1.186,1.186,0,0,0,0,1.764l7.447,7.732v17.907l-5.356-5.562a1.231,1.231,0,0,0-1.829,0,1.186,1.186,0,0,0,0,1.764l7.185,7.461v24.283a1.336,1.336,0,0,0,1.306,1.357,1.334,1.334,0,0,0,1.306-1.357v-36.22c.131,0,.131-.136.261-.136l8.231-8.546c.653-.136.653-.95.131-1.492Z" transform="translate(443.52 207.089)" fill="#383331"/>
          <path id="路径_53_2_" d="M-397.373-140.456h-42.852a1.334,1.334,0,0,1-1.306-1.357,1.336,1.336,0,0,1,1.306-1.357h42.852a1.334,1.334,0,0,1,1.306,1.357A1.259,1.259,0,0,1-397.373-140.456Z" transform="translate(441.531 217.647)" fill="#383331"/>
        </g>
        <g id="组_42_2_" transform="translate(235.767)">
          <path id="路径_54_2_" d="M-411.366-176.337a17.907,17.907,0,0,0-3.135-24.418,16.4,16.4,0,0,0-23.516,3.256,17.907,17.907,0,0,0,3.135,24.418,16.458,16.458,0,0,0,19.074.95l7.839,4.612Z" transform="translate(441.45 204.32)" fill="#c5e6f3"/>
          <g id="组_41_2_" transform="translate(4.996 15.609)">
            <path id="路径_55_2_" d="M-435.821-201.327a2.813,2.813,0,0,1-2.744,2.849,2.906,2.906,0,0,1-2.744-2.849,2.813,2.813,0,0,1,2.744-2.849h0A2.728,2.728,0,0,1-435.821-201.327Z" transform="translate(441.308 204.185)" fill="#fff"/>
            <path id="路径_56_2_" d="M-428.028-201.327a2.813,2.813,0,0,1-2.744,2.849,2.906,2.906,0,0,1-2.744-2.849,2.813,2.813,0,0,1,2.744-2.849h0A2.728,2.728,0,0,1-428.028-201.327Z" transform="translate(442.66 204.185)" fill="#fff"/>
            <path id="路径_57_2_" d="M-420.235-201.327a2.813,2.813,0,0,1-2.744,2.849,2.906,2.906,0,0,1-2.744-2.849,2.813,2.813,0,0,1,2.744-2.849,2.728,2.728,0,0,1,2.744,2.849Z" transform="translate(444.012 204.185)" fill="#fff"/>
          </g>
        </g>
      </g>
      <g id="组_46_2_" transform="translate(191.512 251.785)">
        <ellipse id="椭圆_3_2_" cx="19.335" cy="20.077" rx="19.335" ry="20.077" transform="translate(34.36)" fill="#c5e6f3"/>
        <path id="路径_59_2_" d="M-386.536-190.211a7.677,7.677,0,0,1-7.447,7.732,7.677,7.677,0,0,1-7.447-7.732,7.677,7.677,0,0,1,7.447-7.732,7.677,7.677,0,0,1,7.447,7.732Zm3.789,32.422v-13.566a9.211,9.211,0,0,0-9.014-9.36h-4.573a9.211,9.211,0,0,0-9.015,9.36h0v13.566a2.62,2.62,0,0,0,2.482,2.577h17.506a2.558,2.558,0,0,0,2.613-2.577Z" transform="translate(447.678 205.675)" fill="#4f7dbe"/>
        <path id="路径_60_2_" d="M-341.607-149.921h-92.235a7.732,7.732,0,0,1-7.577-7.868h0a7.732,7.732,0,0,1,7.577-7.868h92.235a7.732,7.732,0,0,1,7.577,7.868h0a7.569,7.569,0,0,1-7.577,7.868Z" transform="translate(441.419 212.73)" fill="#c5e6f3"/>
        <path id="路径_61_2_" d="M-346.056-156.8h-85.834a2.049,2.049,0,0,1-1.96-2.035h0a2.049,2.049,0,0,1,1.96-2.035h85.834a2.049,2.049,0,0,1,1.96,2.035h0a2.049,2.049,0,0,1-1.96,2.035Z" transform="translate(442.733 213.776)" fill="#4f7dbe"/>
        <path id="路径_62_2_" d="M-341.5-126.542h-92.235a7.732,7.732,0,0,1-7.577-7.868h0a7.732,7.732,0,0,1,7.577-7.868H-341.5a7.732,7.732,0,0,1,7.577,7.868h0A7.732,7.732,0,0,1-341.5-126.542Z" transform="translate(441.439 217.839)" fill="#c5e6f3"/>
        <path id="路径_63_2_" d="M-432.557-133.31h0a2.049,2.049,0,0,1-1.96-2.035h0a2.049,2.049,0,0,1,1.96-2.035h0a2.049,2.049,0,0,1,1.96,2.035h0a2.049,2.049,0,0,1-1.96,2.035Zm7.969-2.035h0a2.049,2.049,0,0,0-1.96-2.035h0a2.049,2.049,0,0,0-1.96,2.035h0a2.049,2.049,0,0,0,1.96,2.035h0a2.049,2.049,0,0,0,1.96-2.035Zm5.879,0h0a2.049,2.049,0,0,0-1.96-2.035h0a2.049,2.049,0,0,0-1.96,2.035h0a2.049,2.049,0,0,0,1.96,2.035h0A2.049,2.049,0,0,0-418.709-135.345Zm5.879,0h0a2.049,2.049,0,0,0-1.96-2.035h0a2.049,2.049,0,0,0-1.96,2.035h0a2.049,2.049,0,0,0,1.96,2.035h0a2.049,2.049,0,0,0,1.96-2.035Zm6.01,0h0a2.049,2.049,0,0,0-1.96-2.035h0a2.049,2.049,0,0,0-1.96,2.035h0a2.049,2.049,0,0,0,1.96,2.035h0a2.049,2.049,0,0,0,1.96-2.035Zm5.879,0h0a2.049,2.049,0,0,0-1.96-2.035h0a2.049,2.049,0,0,0-1.96,2.035h0a2.049,2.049,0,0,0,1.96,2.035h0a2.049,2.049,0,0,0,1.96-2.035Zm5.879,0h0a2.049,2.049,0,0,0-1.96-2.035h0a2.049,2.049,0,0,0-1.96,2.035h0a2.049,2.049,0,0,0,1.96,2.035h0a2.049,2.049,0,0,0,1.96-2.035Z" transform="translate(442.617 218.91)" fill="#4f7dbe"/>
        <path id="路径_64_2_" d="M-379.416-102.05h-26.26a7.732,7.732,0,0,1-7.577-7.868h0a7.732,7.732,0,0,1,7.577-7.868h26.26a7.732,7.732,0,0,1,7.577,7.868h0a7.732,7.732,0,0,1-7.577,7.868Z" transform="translate(446.306 223.191)" fill="#4f7dbe"/>
      </g>
    </g>
  </g>
</svg>
