<svg xmlns="http://www.w3.org/2000/svg" xmlns:xlink="http://www.w3.org/1999/xlink" width="566" height="535" viewBox="0 0 566 535">
  <defs>
    <clipPath id="clip-path">
      <rect id="Rectangle_135" data-name="Rectangle 135" width="566" height="535" transform="translate(1099 1189.8)" fill="#fff" stroke="#707070" stroke-width="1"/>
    </clipPath>
  </defs>
  <g id="Mask_Group_1" data-name="Mask Group 1" transform="translate(-1099 -1189.8)" clip-path="url(#clip-path)">
    <g id="hero" transform="translate(1099 1196.642)">
      <path id="Path_337" data-name="Path 337" d="M414.1,758.137c-2.316,2.336,1.481,5.587,4.727,6.718a200.3,200.3,0,0,0,66.322,11.317l-3.859,6.05a224.2,224.2,0,0,0,108.7.522l-5.483-7.834,31.839-1.451c5.056-.218,22.8,1.7,26.151-2.437,9.657-11.911-29.649-12.375-33.871-12.535q-62.9-2.424-125.887-1.871-17.172.145-34.344.507C442.98,757.3,417.474,754.83,414.1,758.137Z" transform="translate(-264.318 -267.658)" fill="#0064ff" opacity="0.42"/>
      <path id="Path_338" data-name="Path 338" d="M632.622,593.717q-1.276,23.215-3.041,46.515a122.719,122.719,0,0,1-3.308,23.33,64.62,64.62,0,0,1-5.231,13.217c-.96,1.813-2.332,3.787-4.49,3.99-2.726.261-4.616-2.423-5.592-4.787-4.868-11.608-4.868-24.317-5.184-36.737q-.268-9.633-.835-19.282c-.457-7.762-1.37-16.162-7.073-21.907-1.733-1.741-3.844-3.163-5.545-4.947-6.948-7.255-4.868-19.485,2.615-26.319,5.814-5.3,22.686-12.288,30.83-7.907C635.442,564.076,633.079,585.346,632.622,593.717Z" transform="translate(-303.843 -210.587)" fill="#606161"/>
      <path id="Path_339" data-name="Path 339" d="M567.913,567.036a18.569,18.569,0,0,1,3.262,11.925c-.394,12.608-8.523,23.765-12.6,35.823-6.113,18.208-2.71,37.722-2.1,56.83a16.507,16.507,0,0,1-1.04,7.777,6.624,6.624,0,0,1-2.61,3.042,7.506,7.506,0,0,1-4.022,1.137,9.015,9.015,0,0,1-5.278-2.9c-10.019-9.865-9.689-24.911-11.342-38.317C530.325,627.42,525.3,613,521.015,598.5c-1.938-6.543-3.749-13.246-3.292-20.007s3.544-13.71,9.61-17.541C538.344,554.021,560.053,556.662,567.913,567.036Z" transform="translate(-287.908 -210.471)" fill="#606161"/>
      <path id="Path_340" data-name="Path 340" d="M239.85,294.423H411.974c10.563,0,19.125-7.885,19.125-17.613V98.411c0-9.728-8.562-17.613-19.125-17.613H239.85c-10.563,0-19.125,7.886-19.125,17.613v178.4C220.725,286.538,229.288,294.423,239.85,294.423Z" transform="translate(-220.725 -73.804)" fill="#0064ff" opacity="0.52"/>
      <path id="Path_341" data-name="Path 341" d="M239.85,294.423H411.974c10.563,0,19.125-7.885,19.125-17.613V98.411c0-9.728-8.562-17.613-19.125-17.613H239.85c-10.563,0-19.125,7.886-19.125,17.613v178.4C220.725,286.538,229.288,294.423,239.85,294.423Z" transform="translate(-220.725 -73.804)" fill="#b3e9f3"/>
      <path id="Path_342" data-name="Path 342" d="M667.787,269.466H865.149c10.058,0,18.212-7.509,18.212-16.771V154.2c0-9.263-8.154-16.772-18.212-16.772H667.787c-10.058,0-18.212,7.509-18.212,16.772v98.5C649.576,261.957,657.729,269.466,667.787,269.466Z" transform="translate(-317.758 -90.052)" fill="#0064ff" opacity="0.52"/>
      <path id="Path_343" data-name="Path 343" d="M667.787,269.466H865.149c10.058,0,18.212-7.509,18.212-16.771V154.2c0-9.263-8.154-16.772-18.212-16.772H667.787c-10.058,0-18.212,7.509-18.212,16.772v98.5C649.576,261.957,657.729,269.466,667.787,269.466Z" transform="translate(-317.758 -90.052)" fill="#f280df"/>
      <path id="Path_344" data-name="Path 344" d="M591.768,153.95h124c6.318,0,11.438-4.716,11.438-10.533V81.524c0-5.817-5.12-10.533-11.437-10.533h-124c-6.316,0-11.437,4.716-11.437,10.533v61.894C580.331,149.234,585.452,153.95,591.768,153.95Z" transform="translate(-302.09 -70.99)" fill="#0064ff" opacity="0.52"/>
      <path id="Path_345" data-name="Path 345" d="M591.768,153.95h124c6.318,0,11.438-4.716,11.438-10.533V81.524c0-5.817-5.12-10.533-11.437-10.533h-124c-6.316,0-11.437,4.716-11.437,10.533v61.894C580.331,149.234,585.452,153.95,591.768,153.95Z" transform="translate(-302.09 -70.99)" fill="#f2f2f2"/>
      <path id="Path_346" data-name="Path 346" d="M339.976,535.276H695.52v-15.7H339.976Z" transform="translate(-247.707 -199.705)" fill="#0064ff" opacity="0.52"/>
      <path id="Path_347" data-name="Path 347" d="M423.877,416.8H656.448c10.928,0,19.787-8.159,19.787-18.223V249.994c0-10.064-8.859-18.223-19.787-18.223H423.877c-10.928,0-19.787,8.159-19.787,18.223V398.578C404.09,408.642,412.949,416.8,423.877,416.8Z" transform="translate(-262.214 -117.124)" fill="#0064ff"/>
      <path id="Path_348" data-name="Path 348" d="M423.877,416.8H656.448c10.928,0,19.787-8.159,19.787-18.223V249.994c0-10.064-8.859-18.223-19.787-18.223H423.877c-10.928,0-19.787,8.159-19.787,18.223V398.578C404.09,408.642,412.949,416.8,423.877,416.8Z" transform="translate(-262.214 -117.124)" fill="#0064ff"/>
      <path id="Path_349" data-name="Path 349" d="M501.607,272.4H447.336v3.671h54.271Z" transform="translate(-271.999 -128.782)" fill="#fff"/>
      <path id="Path_350" data-name="Path 350" d="M480.466,282.353h-33.13v3.439h33.13Z" transform="translate(-271.999 -131.637)" fill="#fff"/>
      <path id="Path_351" data-name="Path 351" d="M611.662,282.353H507.42v3.468H611.662Z" transform="translate(-285.593 -131.637)" fill="#fff"/>
      <path id="Path_352" data-name="Path 352" d="M713.415,282.353H654.749v3.468h58.666Z" transform="translate(-318.928 -131.637)" fill="#fff"/>
      <path id="Path_353" data-name="Path 353" d="M515.155,292.343H469.612v3.628h45.544Z" transform="translate(-277.039 -134.504)" fill="#fff"/>
      <path id="Path_354" data-name="Path 354" d="M542.776,302.273H488.505v3.671h54.271Z" transform="translate(-281.314 -137.353)" fill="#fff"/>
      <path id="Path_355" data-name="Path 355" d="M608.725,302.273h-45.5v4.077h45.5Z" transform="translate(-298.221 -137.353)" fill="#fff"/>
      <path id="Path_356" data-name="Path 356" d="M530.309,312.223H488.4v3.439h41.9Z" transform="translate(-281.291 -140.208)" fill="#fff"/>
      <path id="Path_357" data-name="Path 357" d="M634.242,312.223H547.755v3.816h86.487Z" transform="translate(-294.72 -140.208)" fill="#fff"/>
      <path id="Path_358" data-name="Path 358" d="M501.607,325.692H447.336v3.671h54.271Z" transform="translate(-271.999 -144.073)" fill="#fff"/>
      <path id="Path_359" data-name="Path 359" d="M480.466,335.641h-33.13v3.439h33.13Z" transform="translate(-271.999 -146.928)" fill="#fff"/>
      <path id="Path_360" data-name="Path 360" d="M611.662,335.641H507.42v3.468H611.662Z" transform="translate(-285.593 -146.928)" fill="#fff"/>
      <path id="Path_361" data-name="Path 361" d="M713.415,335.641H654.749v3.468h58.666Z" transform="translate(-318.928 -146.928)" fill="#fff"/>
      <path id="Path_362" data-name="Path 362" d="M515.155,345.591H469.612v3.628h45.544Z" transform="translate(-277.039 -149.783)" fill="#fff"/>
      <path id="Path_363" data-name="Path 363" d="M542.776,355.561H488.505v3.671h54.271Z" transform="translate(-281.314 -152.643)" fill="#fff"/>
      <path id="Path_364" data-name="Path 364" d="M608.725,355.561h-45.5v4.078h45.5Z" transform="translate(-298.221 -152.643)" fill="#fff"/>
      <path id="Path_365" data-name="Path 365" d="M530.309,365.511H488.4v3.439h41.9Z" transform="translate(-281.291 -155.498)" fill="#fff"/>
      <path id="Path_366" data-name="Path 366" d="M634.242,365.511H547.755v3.816h86.487Z" transform="translate(-294.72 -155.498)" fill="#fff"/>
      <path id="Path_367" data-name="Path 367" d="M501.607,378.96H447.336v3.671h54.271Z" transform="translate(-271.999 -159.357)" fill="#fff"/>
      <path id="Path_368" data-name="Path 368" d="M480.466,388.91h-33.13v3.439h33.13Z" transform="translate(-271.999 -162.212)" fill="#fff"/>
      <path id="Path_369" data-name="Path 369" d="M611.662,388.91H507.42v3.468H611.662Z" transform="translate(-285.593 -162.212)" fill="#fff"/>
      <path id="Path_370" data-name="Path 370" d="M713.415,388.91H654.749v3.468h58.666Z" transform="translate(-318.928 -162.212)" fill="#fff"/>
      <path id="Path_371" data-name="Path 371" d="M515.155,398.859H469.612v3.627h45.544Z" transform="translate(-277.039 -165.067)" fill="#fff"/>
      <path id="Path_372" data-name="Path 372" d="M542.776,408.809H488.505v3.671h54.271Z" transform="translate(-281.314 -167.922)" fill="#fff"/>
      <path id="Path_373" data-name="Path 373" d="M608.725,408.809h-45.5v4.077h45.5Z" transform="translate(-298.221 -167.922)" fill="#fff"/>
      <path id="Path_374" data-name="Path 374" d="M530.309,418.779H488.4v3.439h41.9Z" transform="translate(-281.291 -170.783)" fill="#fff"/>
      <path id="Path_375" data-name="Path 375" d="M634.242,418.779H547.755v3.816h86.487Z" transform="translate(-294.72 -170.783)" fill="#fff"/>
      <g id="Group_17" data-name="Group 17" transform="translate(296.878 11.346)" opacity="0.52">
        <path id="Path_376" data-name="Path 376" d="M631.42,86.9h-27V88.73h27Z" transform="translate(-604.418 -86.901)" fill="#0064ff" opacity="0.52"/>
        <path id="Path_377" data-name="Path 377" d="M620.9,91.866H604.418v1.712H620.9Z" transform="translate(-604.418 -88.326)" fill="#0064ff" opacity="0.52"/>
        <path id="Path_378" data-name="Path 378" d="M686.168,91.866h-51.86v1.727h51.86Z" transform="translate(-611.181 -88.326)" fill="#0064ff" opacity="0.52"/>
        <path id="Path_379" data-name="Path 379" d="M736.777,91.866H707.584v1.727h29.193Z" transform="translate(-627.76 -88.326)" fill="#0064ff" opacity="0.52"/>
        <path id="Path_380" data-name="Path 380" d="M638.148,96.81H615.5v1.8h22.653Z" transform="translate(-606.924 -89.745)" fill="#0064ff" opacity="0.52"/>
        <path id="Path_381" data-name="Path 381" d="M651.9,101.775h-27V103.6h27Z" transform="translate(-609.052 -91.169)" fill="#0064ff" opacity="0.52"/>
        <path id="Path_382" data-name="Path 382" d="M684.681,101.775H662.059v2.031h22.622Z" transform="translate(-617.46 -91.169)" fill="#0064ff" opacity="0.52"/>
        <path id="Path_383" data-name="Path 383" d="M645.682,106.719H624.841v1.712h20.841Z" transform="translate(-609.039 -92.588)" fill="#0064ff" opacity="0.52"/>
        <path id="Path_384" data-name="Path 384" d="M697.406,106.719H654.383v1.9h43.023Z" transform="translate(-615.723 -92.588)" fill="#0064ff" opacity="0.52"/>
        <path id="Path_385" data-name="Path 385" d="M631.42,113.413h-27v1.828h27Z" transform="translate(-604.418 -94.509)" fill="#0064ff" opacity="0.52"/>
        <path id="Path_386" data-name="Path 386" d="M620.9,118.358H604.418v1.712H620.9Z" transform="translate(-604.418 -95.927)" fill="#0064ff" opacity="0.52"/>
        <path id="Path_387" data-name="Path 387" d="M686.168,118.358h-51.86v1.726h51.86Z" transform="translate(-611.181 -95.927)" fill="#0064ff" opacity="0.52"/>
        <path id="Path_388" data-name="Path 388" d="M736.777,118.358H707.584v1.726h29.193Z" transform="translate(-627.76 -95.927)" fill="#0064ff" opacity="0.52"/>
        <path id="Path_389" data-name="Path 389" d="M638.148,123.3H615.5v1.8h22.653Z" transform="translate(-606.924 -97.346)" fill="#0064ff" opacity="0.52"/>
        <path id="Path_390" data-name="Path 390" d="M651.9,128.267h-27v1.828h27Z" transform="translate(-609.052 -98.77)" fill="#0064ff" opacity="0.52"/>
        <path id="Path_391" data-name="Path 391" d="M684.681,128.267H662.059V130.3h22.622Z" transform="translate(-617.46 -98.77)" fill="#0064ff" opacity="0.52"/>
        <path id="Path_392" data-name="Path 392" d="M645.682,133.211H624.841v1.712h20.841Z" transform="translate(-609.039 -100.189)" fill="#0064ff" opacity="0.52"/>
        <path id="Path_393" data-name="Path 393" d="M697.406,133.211H654.383v1.9h43.023Z" transform="translate(-615.723 -100.189)" fill="#0064ff" opacity="0.52"/>
        <path id="Path_394" data-name="Path 394" d="M631.42,139.9h-27v1.828h27Z" transform="translate(-604.418 -102.11)" fill="#0064ff" opacity="0.52"/>
        <path id="Path_395" data-name="Path 395" d="M620.9,144.87H604.418v1.712H620.9Z" transform="translate(-604.418 -103.534)" fill="#0064ff" opacity="0.52"/>
        <path id="Path_396" data-name="Path 396" d="M686.168,144.87h-51.86V146.6h51.86Z" transform="translate(-611.181 -103.534)" fill="#0064ff" opacity="0.52"/>
        <path id="Path_397" data-name="Path 397" d="M736.777,144.87H707.584V146.6h29.193Z" transform="translate(-627.76 -103.534)" fill="#0064ff" opacity="0.52"/>
        <path id="Path_398" data-name="Path 398" d="M638.148,149.814H615.5v1.8h22.653Z" transform="translate(-606.924 -104.953)" fill="#0064ff" opacity="0.52"/>
        <path id="Path_399" data-name="Path 399" d="M651.9,154.758h-27v1.828h27Z" transform="translate(-609.052 -106.372)" fill="#0064ff" opacity="0.52"/>
        <path id="Path_400" data-name="Path 400" d="M684.681,154.758H662.059v2.031h22.622Z" transform="translate(-617.46 -106.372)" fill="#0064ff" opacity="0.52"/>
        <path id="Path_401" data-name="Path 401" d="M645.682,159.723H624.841v1.711h20.841Z" transform="translate(-609.039 -107.797)" fill="#0064ff" opacity="0.52"/>
        <path id="Path_402" data-name="Path 402" d="M697.406,159.723H654.383v1.9h43.023Z" transform="translate(-615.723 -107.797)" fill="#0064ff" opacity="0.52"/>
      </g>
      <path id="Path_403" data-name="Path 403" d="M657.091,498.471c1.118,2.9,2.174,5.949,1.481,8.937a8.345,8.345,0,0,1-1.34,2.9c-3.15,4.5-10.617,5.194-15.754,2.5s-8.033-7.863-9.452-13.057a12.99,12.99,0,0,1-.552-5.369c.458-3.148,2.726-5.8,5.089-8.124,3.151-3.018,8.932-6.965,13.17-3.337C653.546,486.167,655.405,494.133,657.091,498.471Z" transform="translate(-313.645 -188.769)" fill="#fff"/>
      <path id="Path_404" data-name="Path 404" d="M497.8,498.066a6.97,6.97,0,0,0-.93,3.9,6.536,6.536,0,0,0,1.1,2.438,20.086,20.086,0,0,0,5.215,5.7,11.463,11.463,0,0,0,7.577,2.162c4.033-.406,7.231-3.351,9.375-6.53a16.9,16.9,0,0,0,3.355-10.243,12.283,12.283,0,0,0-1.709-5.487,13.469,13.469,0,0,0-4.088-4.292c-3.04-2.031-9.373-3.873-12.807-1.552S499.516,494.322,497.8,498.066Z" transform="translate(-283.203 -189.234)" fill="#fff"/>
      <path id="Path_405" data-name="Path 405" d="M616.106,354.59a4.149,4.149,0,0,1,1.722-.086,4,4,0,0,1,1.587.623,3.884,3.884,0,0,1,1.087,2.481,16.41,16.41,0,0,1,.236,5.615,7.548,7.548,0,0,1-2.788,4.8,12.545,12.545,0,0,1-3.97,1.77,4.847,4.847,0,0,1-3.4.115,3.736,3.736,0,0,1-1.18-1.165,3.408,3.408,0,0,1-.522-1.519C607.63,361.612,609.536,355.693,616.106,354.59Z" transform="translate(-308.468 -152.325)" fill="#fff"/>
      <path id="Path_406" data-name="Path 406" d="M542.959,351.875a4.25,4.25,0,0,0-1.906,0,3.865,3.865,0,0,0-1.662,1.356,3.43,3.43,0,0,0-.607,1.967,14.274,14.274,0,0,0,.284,4.078,10.834,10.834,0,0,0,2.867,6.079,5.49,5.49,0,0,0,3.073,1.567,5.758,5.758,0,0,0,3.465-.522C555.168,362.134,548.867,353.065,542.959,351.875Z" transform="translate(-292.681 -151.554)" fill="#fff"/>
      <path id="Path_407" data-name="Path 407" d="M591.5,401.761a11.911,11.911,0,0,1,.252,4c-.583,3.715-4.6,6.311-8.633,6.775s-8.066-.783-11.83-2.161a9.668,9.668,0,0,1-3.151-1.655,6.3,6.3,0,0,1-1.812-3.206,21.5,21.5,0,0,1-.41-6.355l.253-7.486a8.357,8.357,0,0,1,.913-4.252c1.575-2.481,5.183-2.9,8.318-3.089,4.111-.16,10.3,0,13.012,3.452S590.805,397.742,591.5,401.761Z" transform="translate(-298.811 -160.888)" fill="#fff"/>
      <path id="Path_408" data-name="Path 408" d="M597.967,315.29a20.55,20.55,0,0,1,1.26,9.865,170.7,170.7,0,0,1-2.615,22.968c-1.04,5.7-2.679,11.824-7.578,15.422a31.015,31.015,0,0,0-3.955,2.9c-.851.842-1.448,1.887-2.236,2.8-3.986,4.6-12.021,4.6-17.5,1.538s-9-8.314-12.21-13.421c-3.544-5.629-7.057-11.52-7.688-18.005-.519-5.136.788-10.547-1.339-15.321-1.576-3.51-4.837-6.325-5.561-10.054a15.677,15.677,0,0,1,.976-7.428c1.276-4.222,3.229-9.1,7.877-10.243,3.387-.842,6.885.754,10.4.855,4.474.145,9.028-2.161,13.281-.855,5.466,1.682,7.877,7.486,13.327,9.372S595.431,309.951,597.967,315.29Z" transform="translate(-292.614 -135.528)" fill="#606161"/>
      <path id="Path_409" data-name="Path 409" d="M606.63,423.036c-15.974-12.2-39.023-11.9-59.58-9.315-8.491,1.058-17.141,2.466-24.608,6.354-12.509,6.53-19.912,19.151-23.8,31.919-2.063,6.775-3.15,14.508.977,20.457,4.332,6.152,12.965,8.27,20.874,9.083a7.422,7.422,0,0,1,3.434.914A5.466,5.466,0,0,1,525.845,486c2.206,10.592-2.268,22.488,3.639,31.788,5.719,8.982,18.495,11.346,29.759,12.144,14.573,1.029,30.373.653,42.2-7.255a16.45,16.45,0,0,0,4.9-4.628c1.954-3.076,2.064-6.818,2.111-10.373.127-7.748-2.945-23.33,1.151-30.164,3.434-5.688,13.217-5.717,16.651-12.216C632.766,452.938,616.413,430.493,606.63,423.036Z" transform="translate(-283.192 -168.917)" fill="#fff"/>
      <path id="Path_410" data-name="Path 410" d="M554.9,552.713l.111,16.5a2.975,2.975,0,0,1-.378,1.843,3.236,3.236,0,0,1-2.111,1.058c-4.852,1.045-9.925.45-14.9.464s-10.351.827-13.927,4.034c5.436,3.7,12.446,4.715,19.172,5.44q14.935,1.639,29.932,2.177a84.147,84.147,0,0,0,19.393-.928,37.436,37.436,0,0,0,15.376-6.6c-4.4-4.353-11.674-4.265-18.1-4.265a179.065,179.065,0,0,1-18.714-.987,5.527,5.527,0,0,1-2.047-.364,5.164,5.164,0,0,1-1.718-1.086,4.29,4.29,0,0,1-.6-2.829,52.951,52.951,0,0,1,1.5-10.882,6.622,6.622,0,0,1,1.5-3.235,8.729,8.729,0,0,1,5.01-1.829,116.746,116.746,0,0,0,21.346-5.368,25.021,25.021,0,0,0,7.8-3.961c6.207-5.194,5.938-14.145,4.505-21.763a84.426,84.426,0,0,1-37.526,9.838c-9.026.232-28.608-3.337-34.957,4.672-3.151,4.048.2,7.791,3.686,10.591C540.75,546.417,554.9,552.553,554.9,552.713Z" transform="translate(-289.274 -199.863)" fill="#fff"/>
      <path id="Path_411" data-name="Path 411" d="M587.123,460.694H549.63c-14.609,0-26.451,10.906-26.451,24.359v10.287c0,13.453,11.842,24.359,26.451,24.359h37.493c14.608,0,26.45-10.906,26.45-24.359V485.054C613.573,471.6,601.731,460.694,587.123,460.694Z" transform="translate(-289.159 -182.809)" fill="#0064ff"/>
      <path id="Path_412" data-name="Path 412" d="M587.123,460.694H549.63c-14.609,0-26.451,10.906-26.451,24.359v10.287c0,13.453,11.842,24.359,26.451,24.359h37.493c14.608,0,26.45-10.906,26.45-24.359V485.054C613.573,471.6,601.731,460.694,587.123,460.694Z" transform="translate(-289.159 -182.809)" fill="#fff" stroke="#050e40" stroke-width="1.557"/>
      <path id="Path_413" data-name="Path 413" d="M587.123,468.3H549.63c-14.609,0-26.451,10.906-26.451,24.36V502.95c0,13.453,11.842,24.36,26.451,24.36h37.493c14.608,0,26.45-10.907,26.45-24.36V492.664C613.573,479.209,601.731,468.3,587.123,468.3Z" transform="translate(-289.159 -184.993)" fill="#050e40"/>
      <path id="Path_414" data-name="Path 414" d="M589.662,506.749a36.8,36.8,0,0,1-8.476,2.321c-7.877,1.335-17.077,1.045-22.748-4.222a9.375,9.375,0,0,1-2.127-2.785c-1.575-3.526.489-7.778,3.875-10.012s7.689-2.828,11.832-3.017c5.073-.232,14.714-1.031,19.141,2.118C596.452,494.923,595.632,504.166,589.662,506.749Z" transform="translate(-296.534 -190.866)" fill="#050e40" stroke="#050e40" stroke-width="1.557"/>
      <path id="Path_415" data-name="Path 415" d="M577.837,595.07h.016a5.932,5.932,0,0,0,6.16-5.673V506.958a5.931,5.931,0,0,0-6.16-5.672h-.016a5.931,5.931,0,0,0-6.16,5.672V589.4A5.931,5.931,0,0,0,577.837,595.07Z" transform="translate(-300.132 -194.457)" fill="#050e40" stroke="#050e40" stroke-width="1.557"/>
      <path id="Path_416" data-name="Path 416" d="M623.94,723.747c3.151,2.394,3.939,6.543,5.325,10.156,1.922,4.933,5.483,9.416,5.955,14.639a6.528,6.528,0,0,1-3.709,7.136,8.422,8.422,0,0,1-3.932.931,15.9,15.9,0,0,1-7.766-2.177,26.179,26.179,0,0,1-9.83-9.3,15.124,15.124,0,0,1-2.238-6.122C607.1,732.467,614.473,716.784,623.94,723.747Z" transform="translate(-308.284 -257.787)" fill="#0064ff"/>
      <path id="Path_417" data-name="Path 417" d="M630.128,755.28a2.442,2.442,0,0,1,0,2.481,2.511,2.511,0,0,1-1.37.682,9.459,9.459,0,0,1-6.3-1.059,25.355,25.355,0,0,1-5.073-3.758,35.065,35.065,0,0,1-6.16-6.413,10.885,10.885,0,0,1-2-8.2c1.67-7.863,9.2-.812,11.972,2.09A41.432,41.432,0,0,1,630.128,755.28Z" transform="translate(-308.596 -261.637)" fill="#606161"/>
      <path id="Path_418" data-name="Path 418" d="M545.658,723.963c-3.15,2.394-3.938,6.543-5.325,10.155-1.922,4.934-5.481,9.431-5.955,14.639a6.513,6.513,0,0,0,3.713,7.143,8.419,8.419,0,0,0,3.928.925,15.746,15.746,0,0,0,7.767-2.177,26.066,26.066,0,0,0,9.83-9.3,15.045,15.045,0,0,0,2.236-6.123C562.483,732.683,555.111,716.941,545.658,723.963Z" transform="translate(-291.678 -257.843)" fill="#0064ff"/>
      <path id="Path_419" data-name="Path 419" d="M540.246,756.069a2.479,2.479,0,0,0,0,2.481,2.557,2.557,0,0,0,1.386.682,9.646,9.646,0,0,0,6.3-1.058,25.98,25.98,0,0,0,5.057-3.758,34.78,34.78,0,0,0,6.175-6.427,10.889,10.889,0,0,0,2-8.183c-1.686-7.878-9.2-.827-11.988,2.089A41.593,41.593,0,0,0,540.246,756.069Z" transform="translate(-292.945 -261.861)" fill="#606161"/>
      <path id="Path_420" data-name="Path 420" d="M585.23,665.12a17.843,17.843,0,0,1-8.146,1.45,38.69,38.69,0,0,1-9.263-.624,6.729,6.729,0,0,1-2.8-1.2,5.922,5.922,0,0,1-1.576-2.06c-2.568-5.224-5.466-16.047-1.481-20.443,4.554-5.049,22.623-5.934,28.357-.639C595.879,646.563,591.846,661.537,585.23,665.12Z" transform="translate(-297.489 -233.69)" fill="#0064ff"/>
      <path id="Path_421" data-name="Path 421" d="M585.23,665.12a17.843,17.843,0,0,1-8.146,1.45,38.69,38.69,0,0,1-9.263-.624,6.729,6.729,0,0,1-2.8-1.2,5.922,5.922,0,0,1-1.576-2.06c-2.568-5.224-5.466-16.047-1.481-20.443,4.554-5.049,22.623-5.934,28.357-.639C595.879,646.563,591.846,661.537,585.23,665.12Z" transform="translate(-297.489 -233.69)" fill="#050e40" stroke="#050e40" stroke-width="1.557"/>
      <path id="Path_422" data-name="Path 422" d="M576.4,725.2h8.223V676.33H576.4Z" transform="translate(-301.201 -244.683)" fill="#050e40" stroke="#050e40" stroke-width="1.557"/>
      <path id="Path_423" data-name="Path 423" d="M598.483,748.1c1.828,1.378,3.608,3.1,5.955,3.366,1.7.174,3.4-.493,5.137-.493a10.035,10.035,0,0,1,6.065,2.51,9.5,9.5,0,0,1,3.34,4.353c1.276,4-2.6,8.385-7.121,8.792A11.61,11.61,0,0,1,601,760.449a13.31,13.31,0,0,0-1.67-2.9,9.1,9.1,0,0,0-2.252-1.625,69.379,69.379,0,0,0-21.788-7.937c-1.339-.246-2.977-.362-3.828.61a3.252,3.252,0,0,0-.646,1.887,61.29,61.29,0,0,0-.425,8.705,3.068,3.068,0,0,0,.331,1.625,6.089,6.089,0,0,0,1.481,1.349,5.475,5.475,0,0,1,1.63,3.248,5.3,5.3,0,0,1-.811,3.5,11.153,11.153,0,0,1-6.16,4.353c-3.024,1.031-6.837,1.2-9.09-.928a5.787,5.787,0,0,1-1.535-2.922,5.521,5.521,0,0,1,.354-3.23,9.548,9.548,0,0,1,4.726-4.729,4.084,4.084,0,0,0,1.859-1.306,3.131,3.131,0,0,0,.283-1.741l-.221-6.471a2.9,2.9,0,0,0-.182-1.461,3.124,3.124,0,0,0-.889-1.223,3.389,3.389,0,0,0-2.048-.275,64.7,64.7,0,0,0-31.98,11.04c1.7,1.219,1.4,3.86-.127,5.253A8.775,8.775,0,0,1,522,766.979a12.82,12.82,0,0,1-6.727-1.813,6.643,6.643,0,0,1-2.367-2.406,5.991,5.991,0,0,1-.783-3.165,6.211,6.211,0,0,1,1.37-3.066,6.988,6.988,0,0,1,2.835-2.041,13.612,13.612,0,0,1,7.137-.712,15.733,15.733,0,0,0,3.766.276,11.943,11.943,0,0,0,3.969-1.524,93.493,93.493,0,0,1,35.493-10.156C577.153,741.516,590.024,741.719,598.483,748.1Z" transform="translate(-286.657 -263.528)" fill="#050e40" stroke="#050e40" stroke-width="1.557"/>
      <path id="Path_424" data-name="Path 424" d="M747.951,439.734h99.516c9.588,0,17.36-7.159,17.36-15.989v-59.7c0-8.83-7.772-15.989-17.36-15.989H747.951c-9.588,0-17.361,7.158-17.361,15.989v59.7C730.59,432.575,738.364,439.734,747.951,439.734Z" transform="translate(-336.088 -150.489)" fill="#b3e9f3"/>
      <path id="Path_425" data-name="Path 425" d="M244.9,466.284H365.625c9.283,0,16.809-6.932,16.809-15.481V429.621c0-8.55-7.526-15.481-16.809-15.481H244.9c-9.283,0-16.809,6.932-16.809,15.481V450.8C228.095,459.353,235.621,466.284,244.9,466.284Z" transform="translate(-222.393 -169.451)" fill="#f2d98d"/>
      <path id="Path_426" data-name="Path 426" d="M263.156,157.313l39.274-18.629v5.4l-33.082,15.191v.174l33.082,15.262v5.4l-39.274-18.629Z" transform="translate(-230.326 -90.414)" fill="#0064ff"/>
      <path id="Path_427" data-name="Path 427" d="M320.939,178.482l23.63-56.584h5.75l-23.63,56.584Z" transform="translate(-243.4 -85.597)" fill="#0064ff"/>
      <path id="Path_428" data-name="Path 428" d="M405.142,161.753l-39.289,18.556v-5.527l33.334-15.263v-.247l-33.334-15.263v-5.325l39.289,18.557Z" transform="translate(-253.562 -90.414)" fill="#0064ff"/>
      <path id="Path_429" data-name="Path 429" d="M512.367,635.781h91.955c10.918,0,19.77-8.152,19.77-18.208v-1.146c0-10.056-8.852-18.208-19.77-18.208H512.367c-10.918,0-19.77,8.152-19.77,18.208v1.146C492.6,627.629,501.449,635.781,512.367,635.781Z" transform="translate(-282.24 -222.27)" fill="#0064ff"/>
      <path id="Path_430" data-name="Path 430" d="M512.367,635.781h91.955c10.918,0,19.77-8.152,19.77-18.208v-1.146c0-10.056-8.852-18.208-19.77-18.208H512.367c-10.918,0-19.77,8.152-19.77,18.208v1.146C492.6,627.629,501.449,635.781,512.367,635.781Z" transform="translate(-282.24 -222.27)" fill="#050e40" stroke="#050e40" stroke-width="1.557"/>
      <g id="Group_18" data-name="Group 18" transform="translate(409.405 221.286)" opacity="0.52">
        <path id="Path_431" data-name="Path 431" d="M785.77,381.321H749.851v2.423H785.77Z" transform="translate(-749.851 -381.321)" fill="#0064ff" opacity="0.52"/>
        <path id="Path_432" data-name="Path 432" d="M771.78,387.893H749.851v2.278H771.78Z" transform="translate(-749.851 -383.207)" fill="#0064ff" opacity="0.52"/>
        <path id="Path_433" data-name="Path 433" d="M858.6,387.893H789.614v2.292H858.6Z" transform="translate(-758.848 -383.207)" fill="#0064ff" opacity="0.52"/>
        <path id="Path_434" data-name="Path 434" d="M794.746,394.505H764.593v2.409h30.153Z" transform="translate(-753.187 -385.104)" fill="#0064ff" opacity="0.52"/>
        <path id="Path_435" data-name="Path 435" d="M813.012,401.077H777.094V403.5h35.919Z" transform="translate(-756.015 -386.99)" fill="#0064ff" opacity="0.52"/>
        <path id="Path_436" data-name="Path 436" d="M856.633,401.077H826.528v2.7h30.106Z" transform="translate(-767.2 -386.99)" fill="#0064ff" opacity="0.52"/>
        <path id="Path_437" data-name="Path 437" d="M804.754,407.669H777.011v2.279h27.743Z" transform="translate(-755.997 -388.881)" fill="#0064ff" opacity="0.52"/>
        <path id="Path_438" data-name="Path 438" d="M873.542,407.669H816.308v2.525h57.233Z" transform="translate(-764.888 -388.881)" fill="#0064ff" opacity="0.52"/>
        <path id="Path_439" data-name="Path 439" d="M785.77,416.582H749.851V419H785.77Z" transform="translate(-749.851 -391.438)" fill="#0064ff" opacity="0.52"/>
        <path id="Path_440" data-name="Path 440" d="M771.78,423.154H749.851v2.278H771.78Z" transform="translate(-749.851 -393.324)" fill="#0064ff" opacity="0.52"/>
        <path id="Path_441" data-name="Path 441" d="M858.6,423.154H789.614v2.292H858.6Z" transform="translate(-758.848 -393.324)" fill="#0064ff" opacity="0.52"/>
        <path id="Path_442" data-name="Path 442" d="M794.746,429.746H764.593v2.409h30.153Z" transform="translate(-753.187 -395.216)" fill="#0064ff" opacity="0.52"/>
        <path id="Path_443" data-name="Path 443" d="M813.012,436.338H777.094v2.423h35.919Z" transform="translate(-756.015 -397.107)" fill="#0064ff" opacity="0.52"/>
        <path id="Path_444" data-name="Path 444" d="M856.633,436.338H826.528v2.7h30.106Z" transform="translate(-767.2 -397.107)" fill="#0064ff" opacity="0.52"/>
        <path id="Path_445" data-name="Path 445" d="M804.754,442.932H777.011v2.278h27.743Z" transform="translate(-755.997 -398.999)" fill="#0064ff" opacity="0.52"/>
        <path id="Path_446" data-name="Path 446" d="M873.542,442.932H816.308v2.524h57.233Z" transform="translate(-764.888 -398.999)" fill="#0064ff" opacity="0.52"/>
      </g>
      <g id="Group_19" data-name="Group 19" transform="translate(29.521 256.18)" opacity="0.52">
        <path id="Path_447" data-name="Path 447" d="M294.8,430.255H258.88v2.423H294.8Z" transform="translate(-258.88 -430.255)" fill="#0064ff" opacity="0.52"/>
        <path id="Path_448" data-name="Path 448" d="M280.809,436.847H258.88v2.278h21.929Z" transform="translate(-258.88 -432.146)" fill="#0064ff" opacity="0.52"/>
        <path id="Path_449" data-name="Path 449" d="M367.629,436.847H298.644v2.292h68.985Z" transform="translate(-267.877 -432.146)" fill="#0064ff" opacity="0.52"/>
        <path id="Path_450" data-name="Path 450" d="M303.774,443.439H273.621v2.409h30.153Z" transform="translate(-262.215 -434.038)" fill="#0064ff" opacity="0.52"/>
        <path id="Path_451" data-name="Path 451" d="M322.041,450.031H286.123v2.423h35.917Z" transform="translate(-265.044 -435.93)" fill="#0064ff" opacity="0.52"/>
        <path id="Path_452" data-name="Path 452" d="M365.684,450.031H335.578v2.7h30.106Z" transform="translate(-276.233 -435.93)" fill="#0064ff" opacity="0.52"/>
        <path id="Path_453" data-name="Path 453" d="M313.8,456.6H286.061v2.279H313.8Z" transform="translate(-265.03 -437.815)" fill="#0064ff" opacity="0.52"/>
        <path id="Path_454" data-name="Path 454" d="M382.57,456.6H325.337v2.525H382.57Z" transform="translate(-273.916 -437.815)" fill="#0064ff" opacity="0.52"/>
        <path id="Path_455" data-name="Path 455" d="M294.8,465.516H258.88v2.423H294.8Z" transform="translate(-258.88 -440.372)" fill="#0064ff" opacity="0.52"/>
        <path id="Path_456" data-name="Path 456" d="M280.809,472.108H258.88v2.278h21.929Z" transform="translate(-258.88 -442.264)" fill="#0064ff" opacity="0.52"/>
        <path id="Path_457" data-name="Path 457" d="M367.629,472.108H298.644V474.4h68.985Z" transform="translate(-267.877 -442.264)" fill="#0064ff" opacity="0.52"/>
      </g>
      <path id="Path_458" data-name="Path 458" d="M346.978,636.174c-5.214-9.489-11.594-19.34-10.366-29.917.741-6.4,4.254-12.2,7.689-17.816l15.469-25.259c4.726,5.658,12.509,9.1,15.628,15.625,5.009,10.49-4.727,22.1-4.207,33.544.347,8.806,6.695,16.83,6.3,25.636-.253,6.4-11.248,27.363-20.149,26.566C352.634,664.132,349.94,641.542,346.978,636.174Z" transform="translate(-246.911 -212.217)" fill="#0064ff"/>
      <path id="Path_459" data-name="Path 459" d="M346.978,636.174c-5.214-9.489-11.594-19.34-10.366-29.917.741-6.4,4.254-12.2,7.689-17.816l15.469-25.259c4.726,5.658,12.509,9.1,15.628,15.625,5.009,10.49-4.727,22.1-4.207,33.544.347,8.806,6.695,16.83,6.3,25.636-.253,6.4-11.248,27.363-20.149,26.566C352.634,664.132,349.94,641.542,346.978,636.174Z" transform="translate(-246.911 -212.217)" fill="#fff" stroke="#41abc5" stroke-width="1.557"/>
      <path id="Path_460" data-name="Path 460" d="M407.64,659.864c3.514,0,7.877.653,8.885,3.772.819,2.727-1.78,5.237-4.254,6.92-8.617,5.8-19.408,10.257-23.63,19.3-7.01,15-26.86,5.382-16.589-7.6,4.254-5.369,7.877-12.579,13.17-17.062C391.3,660.009,399.811,659.777,407.64,659.864Z" transform="translate(-254.311 -239.955)" fill="#0064ff"/>
      <path id="Path_461" data-name="Path 461" d="M407.64,659.864c3.514,0,7.877.653,8.885,3.772.819,2.727-1.78,5.237-4.254,6.92-8.617,5.8-19.408,10.257-23.63,19.3-7.01,15-26.86,5.382-16.589-7.6,4.254-5.369,7.877-12.579,13.17-17.062C391.3,660.009,399.811,659.777,407.64,659.864Z" transform="translate(-254.311 -239.955)" fill="#fff" stroke="#41abc5" stroke-width="1.557"/>
      <path id="Path_462" data-name="Path 462" d="M345.291,665.963c-3.955-4.15-9.83-6.2-15.439-8.111-2.662-.9-6.08-1.639-7.877.334a4.266,4.266,0,0,0,0,5.267,17.393,17.393,0,0,0,4.458,3.844,26.643,26.643,0,0,1,8.271,8.836c2,3.758,2.536,8.038,4.316,11.9s5.5,7.5,10.036,7.327A9.471,9.471,0,0,0,353.9,693.5a8.323,8.323,0,0,0,2.909-4.02c1.764-5.006-.583-7.255-3.5-10.795C350.079,674.755,348.9,669.721,345.291,665.963Z" transform="translate(-243.428 -239.118)" fill="#0064ff"/>
      <path id="Path_463" data-name="Path 463" d="M345.291,665.963c-3.955-4.15-9.83-6.2-15.439-8.111-2.662-.9-6.08-1.639-7.877.334a4.266,4.266,0,0,0,0,5.267,17.393,17.393,0,0,0,4.458,3.844,26.643,26.643,0,0,1,8.271,8.836c2,3.758,2.536,8.038,4.316,11.9s5.5,7.5,10.036,7.327A9.471,9.471,0,0,0,353.9,693.5a8.323,8.323,0,0,0,2.909-4.02c1.764-5.006-.583-7.255-3.5-10.795C350.079,674.755,348.9,669.721,345.291,665.963Z" transform="translate(-243.428 -239.118)" fill="#fff" stroke="#41abc5" stroke-width="1.557"/>
      <path id="Path_464" data-name="Path 464" d="M384.5,702.109l-5.309,45.746h-5.624c-4.333-2.263-8.712-4.483-13.092-6.746l-12.76-6.587-4.521-32.412Z" transform="translate(-248.435 -252.079)" fill="#0064ff"/>
      <path id="Path_465" data-name="Path 465" d="M384.5,702.109l-5.309,45.746h-5.624c-4.333-2.263-8.712-4.483-13.092-6.746l-12.76-6.587-4.521-32.412Z" transform="translate(-248.435 -252.079)" fill="#fff" stroke="#41abc5" stroke-width="1.557"/>
    </g>
  </g>
</svg>
