<svg xmlns="http://www.w3.org/2000/svg" xmlns:xlink="http://www.w3.org/1999/xlink" width="350" height="206" viewBox="0 0 350 206">
  <defs>
    <clipPath id="clip-path">
      <rect id="Rectangle_247" data-name="Rectangle 247" width="350" height="206" transform="translate(1214 3081)" fill="#fff"/>
    </clipPath>
    <linearGradient id="linear-gradient" x1="-24.752" y1="3.243" x2="-23.427" y2="2.114" gradientUnits="objectBoundingBox">
      <stop offset="0" stop-color="#5a9fd4"/>
      <stop offset="1" stop-color="#306998"/>
    </linearGradient>
    <linearGradient id="linear-gradient-2" x1="-23.216" y1="1.078" x2="-23.689" y2="1.736" gradientUnits="objectBoundingBox">
      <stop offset="0" stop-color="#ffd43b"/>
      <stop offset="1" stop-color="#ffe873"/>
    </linearGradient>
    <radialGradient id="radial-gradient" cx="0.5" cy="0.489" r="0.5" gradientTransform="matrix(0, -1, -0.853, 0, -32.299, -29.657)" gradientUnits="objectBoundingBox">
      <stop offset="0" stop-color="#b8b8b8" stop-opacity="0.498"/>
      <stop offset="1" stop-color="#7f7f7f" stop-opacity="0"/>
    </radialGradient>
  </defs>
  <g id="Mask_Group_41" data-name="Mask Group 41" transform="translate(-1214 -3081)" clip-path="url(#clip-path)">
    <g id="python-3" transform="translate(1209.878 3130.804)">
      <path id="Path_1118" data-name="Path 1118" d="M136.089,45.651q0-16.1-9.183-16.547a17.241,17.241,0,0,0-7.128,1.171,10.451,10.451,0,0,0-3.743,1.976V57.874q5.874,3.687,10.426,3.42Q136.084,60.656,136.089,45.651Zm7.551.445q0,8.18-3.852,13.58a14.2,14.2,0,0,1-11.92,6.287,21.147,21.147,0,0,1-11.834-3.593V85.658l-6.567-2.343V31.626a14.7,14.7,0,0,1,4.146-3.42A28.453,28.453,0,0,1,127.861,24.7l.093.093a13.072,13.072,0,0,1,11.812,6.287q3.87,5.853,3.874,15.017ZM183.776,61.38q0,10.972-2.2,15.2t-8.414,6.74a32.231,32.231,0,0,1-10.878,2.163L161.2,81.34a52.183,52.183,0,0,0,8.364-1.617q4.775-1.617,6.567-4.943,1.444-2.7,1.437-10.339v-1.71a33.731,33.731,0,0,1-14.118,3.054,12.977,12.977,0,0,1-8.544-3.054,10.389,10.389,0,0,1-4.138-8.449V26.949l6.567-2.249V52.211A8.36,8.36,0,0,0,160.18,59a10.749,10.749,0,0,0,7.365,2.292,18.416,18.416,0,0,0,9.663-3.507v-32.1h6.567V61.38ZM209.412,65.6q-1.079.091-2.163.093-5.572,0-8.679-2.658a9.183,9.183,0,0,1-3.1-7.35V29.822h-4.5V25.691h4.5V14.719l6.56-2.335V25.691h7.379v4.131h-7.379V55.509q0,3.7,1.982,5.232a10.033,10.033,0,0,0,5.4,1.444V65.6Zm39.763-.539h-6.567V39.716a11.979,11.979,0,0,0-1.8-6.653,6.562,6.562,0,0,0-5.784-3.148q-4.516,0-11.295,4.763V65.066h-6.567V4.474L223.725,2.4V30a22.88,22.88,0,0,1,13.76-4.584,10.967,10.967,0,0,1,8.45,3.507,12.347,12.347,0,0,1,3.241,8.723V65.066h0Zm34.9-20.449a20.171,20.171,0,0,0-2.343-10.224,9.805,9.805,0,0,0-8.629-5.195q-10.8.625-10.793,15.463a25.434,25.434,0,0,0,2.256,11.36q2.888,5.81,8.666,5.72,10.842-.087,10.842-17.123Zm7.192.043q0,8.806-4.5,14.658-4.948,6.554-13.666,6.56a15.853,15.853,0,0,1-13.494-6.56q-4.409-5.852-4.405-14.658a20.923,20.923,0,0,1,4.764-13.939A16.413,16.413,0,0,1,273.194,24.7a16.689,16.689,0,0,1,13.314,6.021,20.923,20.923,0,0,1,4.764,13.939Zm37.649,20.406h-6.567V38.28A8.959,8.959,0,0,0,319.7,31.4a9.634,9.634,0,0,0-7.063-2.379,15.783,15.783,0,0,0-8.9,3.054V65.066h-6.567V31.26A32.361,32.361,0,0,1,307.6,25.871a31.839,31.839,0,0,1,7.918-1.171,20.535,20.535,0,0,1,4.4.453,12.67,12.67,0,0,1,6.294,3.327,8.8,8.8,0,0,1,2.7,6.474V65.066Z" fill="#646464"/>
      <path id="Path_1119" data-name="Path 1119" d="M44.605,4.716a56.365,56.365,0,0,0-9.444.806C26.8,7,25.278,10.093,25.278,15.8V23.33H45.043v2.511H17.86c-5.744,0-10.774,3.453-12.347,10.021-1.815,7.529-1.9,12.226,0,20.087C6.918,61.8,10.274,65.97,16.018,65.97h6.8V56.94A12.56,12.56,0,0,1,35.161,44.662H54.9a9.958,9.958,0,0,0,9.882-10.044V15.8c0-5.356-4.519-9.38-9.882-10.274a61.655,61.655,0,0,0-10.3-.806ZM33.916,10.774a3.767,3.767,0,1,1-3.709,3.778,3.75,3.75,0,0,1,3.709-3.778Z" fill="url(#linear-gradient)"/>
      <path id="Path_1120" data-name="Path 1120" d="M67.25,25.84v8.777A12.677,12.677,0,0,1,54.9,47.148H35.161a10.082,10.082,0,0,0-9.882,10.044v18.82c0,5.357,4.657,8.507,9.882,10.044a33.063,33.063,0,0,0,19.742,0c4.976-1.44,9.882-4.34,9.882-10.044V68.48H45.043V65.969H74.667c5.745,0,7.885-4.007,9.882-10.021,2.064-6.191,1.976-12.145,0-20.087-1.42-5.718-4.131-10.021-9.882-10.021ZM56.146,73.5a3.767,3.767,0,1,1-3.709,3.755A3.73,3.73,0,0,1,56.146,73.5Z" fill="url(#linear-gradient-2)"/>
      <path id="Path_1121" data-name="Path 1121" d="M341.71,19.836h1.151V12.615h2.727v-.861h-6.606v.861h2.727v7.221m4.9,0h.983v-6.6l2.135,6.595h1.095l2.225-6.572v6.573h1.073V11.755H352.7l-2.432,6.924L348.2,11.755H346.61v8.081" fill="#646464"/>
      <path id="Path_1122" data-name="Path 1122" d="M71.754,98.851c0,2.837-11.859,5.136-26.487,5.136s-26.487-2.3-26.487-5.136,11.859-5.136,26.487-5.136S71.754,96.014,71.754,98.851Z" opacity="0.444" fill="url(#radial-gradient)"/>
    </g>
  </g>
</svg>
