<svg xmlns="http://www.w3.org/2000/svg" xmlns:xlink="http://www.w3.org/1999/xlink" width="150" height="150" viewBox="0 0 150 150">
  <defs>
    <clipPath id="clip-path">
      <rect id="Rectangle_180" data-name="Rectangle 180" width="150" height="150" transform="translate(1067 1996)" fill="#fff"/>
    </clipPath>
  </defs>
  <g id="Mask_Group_13" data-name="Mask Group 13" transform="translate(-1067 -1996)" clip-path="url(#clip-path)">
    <path id="smart-work-artificial-intelligence-ai-svgrepo-com" d="M69.762,61.25a12.818,12.818,0,1,1-6.845-16.786A12.8,12.8,0,0,1,69.762,61.25Zm57.56,30.774a4.649,4.649,0,0,1-4.643,4.643h-7.56v15.952a22.457,22.457,0,0,1-22.44,22.44H83.75V151.19H23.036V102.917A56.94,56.94,0,0,1,58.155,1.19c25.833,0,49.643,19.4,54.583,40.714,1.131,4.762,2.381,17.143,2.381,17.143l11.845,31.19a4.349,4.349,0,0,1,.357,1.786ZM82.262,52.262l7.262-4.524L86.488,40.3,78.1,42.2a24.924,24.924,0,0,0-5.833-5.893l1.964-8.333-7.44-3.1L62.2,32.143a26.1,26.1,0,0,0-8.333-.06L49.4,24.7l-7.5,3.036,1.9,8.333A24.924,24.924,0,0,0,37.917,41.9L29.583,39.94l-3.155,7.44,7.262,4.583a26.1,26.1,0,0,0-.06,8.333l-7.262,4.583,3.036,7.44,8.333-1.9a24.924,24.924,0,0,0,5.833,5.893l-1.964,8.333,7.44,3.1,4.583-7.262a26.1,26.1,0,0,0,8.333.06L66.488,87.8l7.44-3.036-1.9-8.393a24.924,24.924,0,0,0,5.893-5.833L86.25,72.5l3.1-7.44-7.262-4.583A20.09,20.09,0,0,0,82.262,52.262Z" transform="translate(1077.691 1994.81)" fill="#a066f2"/>
  </g>
</svg>
