<svg xmlns="http://www.w3.org/2000/svg" xmlns:xlink="http://www.w3.org/1999/xlink" width="350" height="206" viewBox="0 0 350 206">
  <defs>
    <clipPath id="clip-path">
      <rect id="Rectangle_245" data-name="Rectangle 245" width="350" height="206" transform="translate(794 3081)" fill="#fff"/>
    </clipPath>
  </defs>
  <g id="Mask_Group_40" data-name="Mask Group 40" transform="translate(-794 -3081)" clip-path="url(#clip-path)">
    <g id="_181_code_javascript_flatline" data-name="#181_code_javascript_flatline" transform="translate(805.974 3081)">
      <path id="Path_1001" data-name="Path 1001" d="M260.422,126.844s.45-7.131-3.023-8.815-16.9-4.829-16.9,2.057,8.576,13.356,10.088,14.262,8.641,22,8.641,22l15.8-17.78Z" transform="translate(-49.979 -56.877)" fill="#fff"/>
      <path id="Path_1002" data-name="Path 1002" d="M259.235,156.893h-.107a.524.524,0,0,1-.407-.352c-3.355-9.956-7.44-20.956-8.416-21.723-1.683-.991-10.335-7.589-10.335-14.71a4.066,4.066,0,0,1,1.994-3.688c4.052-2.516,12.972-.171,15.673,1.151,3.388,1.642,3.388,7.653,3.334,9.05l14.408,11.533a.553.553,0,0,1,.193.373.531.531,0,0,1-.129.394L259.632,156.69A.515.515,0,0,1,259.235,156.893Zm-12.275-40.5a8.618,8.618,0,0,0-4.428.938,3.023,3.023,0,0,0-1.49,2.782c0,6.534,8.3,12.9,9.831,13.857s6.6,15.626,8.576,21.414l14.826-16.692-14.183-11.416a.521.521,0,0,1-.2-.448c0-.075.386-6.8-2.712-8.3a28.01,28.01,0,0,0-10.217-2.142Z" transform="translate(-49.983 -56.877)" fill="#231f20"/>
      <rect id="Rectangle_233" data-name="Rectangle 233" width="58.512" height="9.657" transform="translate(71.345 155.848) rotate(180)" fill="#fff"/>
      <path id="Path_1003" data-name="Path 1003" d="M122.332,213.258H63.82a.534.534,0,0,1-.536-.533v-9.593a.534.534,0,0,1,.536-.533h58.512a.534.534,0,0,1,.536.533v9.593A.534.534,0,0,1,122.332,213.258Zm-57.976-1.066h57.494v-8.527H64.356Z" transform="translate(-50.998 -56.877)" fill="#d1d3d4"/>
      <rect id="Rectangle_234" data-name="Rectangle 234" width="33.662" height="9.657" transform="translate(71.334 155.848) rotate(180)" fill="#d1d3d4"/>
      <path id="Path_1004" data-name="Path 1004" d="M122.19,213.258H88.528a.534.534,0,0,1-.536-.533v-9.593a.534.534,0,0,1,.536-.533H122.19a.534.534,0,0,1,.536.533v9.593A.535.535,0,0,1,122.19,213.258Zm-33.126-1.066h32.644v-8.527H89.064Z" transform="translate(-50.856 -56.877)" fill="#d1d3d4"/>
      <rect id="Rectangle_235" data-name="Rectangle 235" width="58.512" height="9.657" transform="translate(64.022 145.829) rotate(180)" fill="#fff"/>
      <path id="Path_1005" data-name="Path 1005" d="M115.073,203.239H56.561a.534.534,0,0,1-.536-.533v-9.657a.534.534,0,0,1,.536-.533h58.512a.534.534,0,0,1,.536.533v9.657a.545.545,0,0,1-.536.533ZM57.1,202.173h57.44v-8.591H57.1Z" transform="translate(-51.04 -56.877)" fill="#d1d3d4"/>
      <rect id="Rectangle_236" data-name="Rectangle 236" width="33.662" height="9.657" transform="translate(64.033 145.829) rotate(180)" fill="#d1d3d4"/>
      <path id="Path_1006" data-name="Path 1006" d="M114.931,203.239H81.258a.545.545,0,0,1-.536-.533v-9.657a.534.534,0,0,1,.536-.533h33.673a.534.534,0,0,1,.536.533v9.657a.545.545,0,0,1-.536.533Zm-33.137-1.066h32.6v-8.591h-32.6Z" transform="translate(-50.898 -56.877)" fill="#d1d3d4"/>
      <rect id="Rectangle_237" data-name="Rectangle 237" width="58.512" height="9.657" transform="translate(71.345 135.809) rotate(180)" fill="#fff"/>
      <path id="Path_1007" data-name="Path 1007" d="M122.332,193.208H63.82a.534.534,0,0,1-.536-.533v-9.657a.545.545,0,0,1,.536-.533h58.512a.534.534,0,0,1,.536.533v9.657A.534.534,0,0,1,122.332,193.208Zm-57.976-1.066h57.494v-8.591H64.356Z" transform="translate(-50.998 -56.877)" fill="#d1d3d4"/>
      <rect id="Rectangle_238" data-name="Rectangle 238" width="33.662" height="9.657" transform="translate(71.334 135.809) rotate(180)" fill="#d1d3d4"/>
      <path id="Path_1008" data-name="Path 1008" d="M122.19,193.208H88.528a.534.534,0,0,1-.536-.533v-9.657a.534.534,0,0,1,.536-.533H122.19a.534.534,0,0,1,.536.533v9.657A.535.535,0,0,1,122.19,193.208Zm-33.126-1.066h32.644v-8.591H89.064Z" transform="translate(-50.856 -56.877)" fill="#d1d3d4"/>
      <rect id="Rectangle_239" data-name="Rectangle 239" width="80.682" height="37.808" transform="translate(212.34 205.467) rotate(180)" fill="#231f20"/>
      <path id="Path_1009" data-name="Path 1009" d="M262.68,262.877h-80.7a.535.535,0,0,1-.536-.533v-37.8a.535.535,0,0,1,.536-.533h80.7a.534.534,0,0,1,.536.533v37.8A.534.534,0,0,1,262.68,262.877Zm-80.146-1.066h79.61V225.079H182.513Z" transform="translate(-50.319 -56.877)" fill="#231f20"/>
      <rect id="Rectangle_240" data-name="Rectangle 240" width="237.694" height="11.693" rx="3.709" transform="translate(238.24 167.669) rotate(180)" fill="#fff"/>
      <path id="Path_1010" data-name="Path 1010" d="M285.578,225.079H55.356a4.276,4.276,0,0,1-4.288-4.264v-4.264a4.276,4.276,0,0,1,4.288-4.264H285.578a4.276,4.276,0,0,1,4.288,4.264v4.264A4.276,4.276,0,0,1,285.578,225.079ZM55.356,213.354a3.207,3.207,0,0,0-3.216,3.2v4.264a3.207,3.207,0,0,0,3.216,3.2H285.578a3.207,3.207,0,0,0,3.216-3.2v-4.264a3.207,3.207,0,0,0-3.216-3.2Z" transform="translate(-51.068 -56.877)" fill="#231f20"/>
      <rect id="Rectangle_241" data-name="Rectangle 241" width="138.744" height="11.693" rx="2.601" transform="translate(139.301 167.669) rotate(180)" fill="#fff"/>
      <path id="Path_1011" data-name="Path 1011" d="M187.754,225.079H54.241a3.143,3.143,0,0,1-3.152-3.134v-6.491a3.143,3.143,0,0,1,3.152-3.134H187.754a3.143,3.143,0,0,1,3.152,3.134v6.491A3.143,3.143,0,0,1,187.754,225.079ZM54.241,213.354a2.074,2.074,0,0,0-2.08,2.068v6.491a2.074,2.074,0,0,0,2.08,2.068H187.754a2.074,2.074,0,0,0,2.08-2.068v-6.491a2.074,2.074,0,0,0-2.08-2.068Z" transform="translate(-51.068 -56.877)" fill="#231f20"/>
      <path id="Path_1012" data-name="Path 1012" d="M168.6,163.928s-3.216,33.1,3.945,37.584c6.679,4.157,14.087,2.942,18.225,2.942a7.14,7.14,0,0,1,7.054,4.679l1.072,3.592H147.44a31.3,31.3,0,0,1-9.53-9.8c-3.452-6.044-1.308-37.456-1.308-37.456Z" transform="translate(-50.58 -56.877)" fill="#fff"/>
      <path id="Path_1013" data-name="Path 1013" d="M198.869,213.258H147.411a.516.516,0,0,1-.247-.075,31.483,31.483,0,0,1-9.713-10c-3.495-6.108-1.479-36.454-1.383-37.744a.545.545,0,0,1,.5-.5l31.979-1.546a.516.516,0,0,1,.418.171.489.489,0,0,1,.139.416c0,.085-.8,8.357-.718,17.055.118,11.373,1.64,18.291,4.428,20.029,5.425,3.368,11.289,3.112,15.577,2.931.858,0,1.64-.075,2.337-.075a7.7,7.7,0,0,1,7.558,5.052l1.072,3.6a.52.52,0,0,1-.075.469.548.548,0,0,1-.418.213Zm-51.276-1.066H198.14l-.879-2.91a6.637,6.637,0,0,0-6.539-4.264c-.686,0-1.458,0-2.294.075-4.181.181-10.485.458-16.188-3.1-6.936-4.317-4.685-32.766-4.288-37.467l-30.886,1.492c-.247,3.944-1.833,31.242,1.276,36.678A30.715,30.715,0,0,0,147.593,212.192Z" transform="translate(-50.583 -56.877)" fill="#231f20"/>
      <path id="Path_1014" data-name="Path 1014" d="M139.054,195.415c0,8.165,2.466,10.659,5.757,10.659h12.865a4.341,4.341,0,0,1,4.074,2.824l1.426,3.87H143.332c-5.092,0-8.705-7.675-8.877-15.84s0-31.413,0-31.413h4.438S139.054,187.239,139.054,195.415Z" transform="translate(-50.589 -56.877)" fill="#231f20"/>
      <path id="Path_1015" data-name="Path 1015" d="M163.254,213.258H143.335c-5.682,0-9.252-8.314-9.413-16.362s0-31.189,0-31.423a.545.545,0,0,1,.536-.533H138.9a.535.535,0,0,1,.536.533c0,.213.161,21.862.161,29.942,0,10.084,3.934,10.084,5.221,10.084h12.865a4.9,4.9,0,0,1,4.578,3.2l1.426,3.869a.562.562,0,0,1-.064.49A.526.526,0,0,1,163.254,213.258Zm-28.227-47.252c0,3.518-.15,23.45,0,30.912.172,8.442,3.913,15.317,8.34,15.317h19.115l-1.158-3.144a3.826,3.826,0,0,0-3.57-2.484H144.889c-4.288,0-6.293-3.645-6.293-11.15s-.129-26.019-.15-29.409Z" transform="translate(-50.592 -56.877)" fill="#231f20"/>
      <path id="Path_1016" data-name="Path 1016" d="M208.761,73.794l7.783,88.471a6.987,6.987,0,0,1-1.682,5.52,7.071,7.071,0,0,1-5.275,2.4h-106.1a8.694,8.694,0,0,1-8.351-7.92L87.352,73.794a6.976,6.976,0,0,1,1.683-5.517,7.061,7.061,0,0,1,5.275-2.392H200.442a8.672,8.672,0,0,1,8.319,7.909Z" transform="translate(-50.86 -56.877)" fill="#231f20"/>
      <path id="Path_1017" data-name="Path 1017" d="M209.622,170.728H103.49a9.239,9.239,0,0,1-8.887-8.41L86.819,73.847a7.859,7.859,0,0,1,1.994-6.118,7.363,7.363,0,0,1,5.5-2.377H200.445a9.229,9.229,0,0,1,8.887,8.4l7.783,88.471a7.9,7.9,0,0,1-1.994,6.118A7.417,7.417,0,0,1,209.622,170.728ZM94.3,66.417a6.289,6.289,0,0,0-4.749,2.025,6.86,6.86,0,0,0-1.726,5.33l7.794,88.471a8.137,8.137,0,0,0,7.815,7.461H209.568a6.331,6.331,0,0,0,4.706-2.036,6.861,6.861,0,0,0,1.726-5.33l-7.794-88.471h0a8.127,8.127,0,0,0-7.815-7.461Z" transform="translate(-50.863 -56.877)" fill="#231f20"/>
      <path id="Path_1018" data-name="Path 1018" d="M209.082,73.442l7.44,84.474a6.679,6.679,0,0,1-1.616,5.27,6.76,6.76,0,0,1-5.042,2.287H108.556a8.3,8.3,0,0,1-7.976-7.557L93.14,73.442a6.668,6.668,0,0,1,1.612-5.274A6.749,6.749,0,0,1,99.8,65.884H201.106A8.288,8.288,0,0,1,209.082,73.442Z" transform="translate(-50.827 -56.877)" fill="#fff"/>
      <path id="Path_1019" data-name="Path 1019" d="M209.867,166.006H108.559a8.833,8.833,0,0,1-8.512-8.037L92.618,73.484a7.54,7.54,0,0,1,1.908-5.863,7.105,7.105,0,0,1,5.274-2.27H201.109a8.833,8.833,0,0,1,8.48,8.037l7.5,84.485a7.54,7.54,0,0,1-1.908,5.863,7.116,7.116,0,0,1-5.317,2.27ZM99.8,66.417a6,6,0,0,0-4.481,1.929,6.489,6.489,0,0,0-1.64,5.042l7.44,84.485a7.742,7.742,0,0,0,7.44,7.067H209.867a6,6,0,0,0,4.481-1.929,6.542,6.542,0,0,0,1.672-5.042l-7.5-84.485h0a7.742,7.742,0,0,0-7.44-7.067Z" transform="translate(-50.83 -56.877)" fill="#231f20"/>
      <path id="Path_1020" data-name="Path 1020" d="M215.232,143.728l1.254,14.187a6.679,6.679,0,0,1-1.616,5.27,6.76,6.76,0,0,1-5.042,2.287H108.521a8.3,8.3,0,0,1-7.976-7.557L99.29,143.728Z" transform="translate(-50.791 -56.877)" fill="#fff"/>
      <path id="Path_1021" data-name="Path 1021" d="M209.832,166.006H108.524a8.833,8.833,0,0,1-8.512-8.037l-1.244-14.187a.478.478,0,0,1,.139-.405.494.494,0,0,1,.386-.181H215.235a.535.535,0,0,1,.536.49l1.286,14.187a7.54,7.54,0,0,1-1.908,5.863,7.116,7.116,0,0,1-5.317,2.27ZM99.883,144.261l1.2,13.612a7.742,7.742,0,0,0,7.44,7.067H209.832a6,6,0,0,0,4.481-1.929,6.542,6.542,0,0,0,1.672-5.042l-1.211-13.708Z" transform="translate(-50.794 -56.877)" fill="#231f20"/>
      <path id="Path_1022" data-name="Path 1022" d="M4.591.012A4.868,4.868,0,0,1,9.2,5.075a4.807,4.807,0,0,1-4.578,5.039,4.868,4.868,0,0,1-4.6-5.063A4.807,4.807,0,0,1,4.591.012Z" transform="matrix(0.831, -0.557, 0.557, 0.831, 100.786, 96.093)" fill="#fff"/>
      <path id="Path_1023" data-name="Path 1023" d="M158.343,160.037a5.914,5.914,0,0,1-5.693-5.33,5.055,5.055,0,0,1,1.286-3.955,4.751,4.751,0,0,1,3.548-1.535,5.924,5.924,0,0,1,5.66,5.34h0a5.055,5.055,0,0,1-1.286,3.955,4.772,4.772,0,0,1-3.516,1.524Zm-.858-9.806a3.7,3.7,0,0,0-2.755,1.194,4.047,4.047,0,0,0-1.072,3.134,4.823,4.823,0,0,0,4.631,4.413,3.687,3.687,0,0,0,2.755-1.183,4.057,4.057,0,0,0,1.018-3.134h0A4.833,4.833,0,0,0,157.485,150.231Z" transform="translate(-50.485 -56.877)" fill="#231f20"/>
      <rect id="Rectangle_242" data-name="Rectangle 242" width="77.97" height="4.253" transform="translate(191.746 155.976) rotate(180)" fill="#fff"/>
      <path id="Path_1024" data-name="Path 1024" d="M242.167,213.386H164.155a.535.535,0,0,1-.536-.533V208.59a.535.535,0,0,1,.536-.533h77.97a.535.535,0,0,1,.536.533v4.264A.534.534,0,0,1,242.167,213.386Zm-77.434-1.066h76.9v-3.2h-76.9Z" transform="translate(-50.421 -56.877)" fill="#231f20"/>
      <path id="Path_1025" data-name="Path 1025" d="M252.828,229.173s-36.01,9.039-36.01,33.225h95.187s15.137-14.528,11.4-36.849C285.054,226.806,252.828,229.173,252.828,229.173Z" transform="translate(-50.116 -56.877)" fill="#fff"/>
      <path id="Path_1026" data-name="Path 1026" d="M312.019,262.877H216.832a.535.535,0,0,1-.536-.533c0-24.324,36.053-33.64,36.45-33.736h.086c.322,0,32.665-2.334,70.594-3.635a.514.514,0,0,1,.547.448c3.741,22.384-11.407,37.169-11.557,37.307a.559.559,0,0,1-.4.149Zm-94.651-1.066h94.426c1.544-1.578,14.344-15.434,11.171-35.772-37.018,1.29-68.611,3.507-70.037,3.613-1.415.373-35.045,9.433-35.56,32.159Z" transform="translate(-50.119 -56.877)" fill="#231f20"/>
      <path id="Path_1027" data-name="Path 1027" d="M299.665,106.592s8.512-6.172,10.924-10.009,7.8-30.656-4.781-28.609c-12.371-17.556-37.79-10.116-41.627.725-3.377,9.519,8.941,11.725,13.208,13.036s8.855,21.521,14.687,24.857S299.665,106.592,299.665,106.592Z" transform="translate(-49.847 -56.877)" fill="#fff"/>
      <path id="Path_1028" data-name="Path 1028" d="M296.634,108.574a10.063,10.063,0,0,1-4.824-1.556c-3.216-1.833-5.875-8.112-8.469-14.177-2.144-4.957-4.288-10.084-6.111-10.659-.45-.139-.986-.288-1.587-.448-3.613-1-9.648-2.686-11.792-6.769a7.91,7.91,0,0,1-.172-6.5c1.951-5.511,9.209-10.158,17.635-11.309,10.077-1.364,19.072,2.345,24.743,10.19a6,6,0,0,1,6.2,2.686c4.535,6.769.665,23.8-1.211,26.787-2.337,3.72-10.013,9.391-10.967,10.094a3.752,3.752,0,0,1-2.08,1.46A4.72,4.72,0,0,1,296.634,108.574Zm-11.267-50.62a28.7,28.7,0,0,0-3.9.267c-8.051,1.066-14.955,5.457-16.777,10.606a6.914,6.914,0,0,0,.118,5.66c1.919,3.667,7.687,5.33,11.128,6.225l1.619.469c2.283.714,4.363,5.6,6.775,11.245s5.124,12.013,8.019,13.665c2.144,1.215,3.967,1.663,5.36,1.279a2.466,2.466,0,0,0,1.533-1.066.533.533,0,0,1,.161-.181c.086-.064,8.448-6.15,10.785-9.86,1.737-2.782,5.446-19.314,1.222-25.582a5.031,5.031,0,0,0-5.467-2.132.537.537,0,0,1-.525-.224,23.861,23.861,0,0,0-20.047-10.371Z" transform="translate(-49.85 -56.877)" fill="#231f20"/>
      <path id="Path_1029" data-name="Path 1029" d="M272.969,88.62s-6.143,8.154-5.071,9.977,5.006.885,5.006.885" transform="translate(-49.823 -56.877)" fill="#fff"/>
      <path id="Path_1030" data-name="Path 1030" d="M270.763,100.271a3.676,3.676,0,0,1-3.323-1.4c-1.147-1.983,3.624-8.591,5.114-10.574a.535.535,0,0,1,.858.64c-2.852,3.784-5.585,8.453-5.039,9.391.708,1.215,3.431.874,4.417.64a.547.547,0,0,1,.654.394.533.533,0,0,1-.4.64,10.4,10.4,0,0,1-2.283.266Z" transform="translate(-49.826 -56.877)" fill="#231f20"/>
      <path id="Path_1031" data-name="Path 1031" d="M274.815,77.471c-3.763,2.707-3.087,8.932-3.291,12.94q-.418,8.463-.461,16.927c0,3.581,9.273,4.2,10.978,3.2l-2.283,14.027,19.983-6.246-.118-11.725s-6.325-.32-9.541-7.813-1.758-23.312-1.758-23.312S278.482,74.838,274.815,77.471Z" transform="translate(-49.804 -56.877)" fill="#fff"/>
      <path id="Path_1032" data-name="Path 1032" d="M279.761,125.118a.536.536,0,0,1-.525-.618l2.144-13.164a15.678,15.678,0,0,1-9.005-1.322,3.1,3.1,0,0,1-1.855-2.675c0-5.628.193-11.331.472-16.959,0-.672,0-1.4.054-2.132.054-3.9.107-8.751,3.452-11.16h0c3.784-2.729,13.454-2.132,13.862-2.132a.58.58,0,0,1,.375.192.51.51,0,0,1,.118.394c0,.16-1.394,15.733,1.726,23.013,3.034,7.067,8.834,7.461,9.08,7.461a.545.545,0,0,1,.5.533l.118,11.725a.533.533,0,0,1-.375.512l-19.972,6.321Zm2.283-15.093a.56.56,0,0,1,.311.1.532.532,0,0,1,.225.522l-2.144,13.175,18.772-5.937-.107-10.851c-1.619-.245-6.7-1.524-9.509-8.08-2.916-6.822-2.08-20.061-1.844-22.971-2.09-.085-9.648-.224-12.618,1.929s-2.97,6.651-3.012,10.318c0,.778,0,1.524-.054,2.206-.279,5.607-.44,11.3-.472,16.905q0,.991,1.319,1.759c2.573,1.482,7.772,1.631,8.866,1a.635.635,0,0,1,.268-.075Z" transform="translate(-49.807 -56.877)" fill="#231f20"/>
      <path id="Path_1033" data-name="Path 1033" d="M271.436,103.138a29.325,29.325,0,0,0,6.807-1.439" transform="translate(-49.802 -56.877)" fill="#fff"/>
      <path id="Path_1034" data-name="Path 1034" d="M271.439,103.671a.535.535,0,0,1-.536-.49.52.52,0,0,1,.13-.39.527.527,0,0,1,.373-.175,30.092,30.092,0,0,0,6.7-1.418.562.562,0,1,1,.354,1.066,30.049,30.049,0,0,1-6.979,1.46Z" transform="translate(-49.805 -56.877)" fill="#231f20"/>
      <path id="Path_1035" data-name="Path 1035" d="M283.534,92.863a7.656,7.656,0,0,1,1.812-3.773,10.681,10.681,0,0,1,2.208-2.441,3.747,3.747,0,0,1,3.109-.757,3.445,3.445,0,0,1,2.144,1.887,6.363,6.363,0,0,1,.547,2.835,12.078,12.078,0,0,1-6.239,10.393l.332-.32" transform="translate(-49.732 -56.877)" fill="#fff"/>
      <path id="Path_1036" data-name="Path 1036" d="M287.086,101.539a.533.533,0,0,1-.365-.917l.311-.3.075.064a11.6,11.6,0,0,0,5.682-9.774A5.982,5.982,0,0,0,292.3,88a2.91,2.91,0,0,0-1.769-1.588,3.23,3.23,0,0,0-2.659.661,10.618,10.618,0,0,0-2.144,2.324,7.348,7.348,0,0,0-1.7,3.5.556.556,0,0,1-.579.5.537.537,0,0,1-.367-.186.531.531,0,0,1-.126-.39,8.091,8.091,0,0,1,1.919-4.05,11.235,11.235,0,0,1,2.316-2.548,4.242,4.242,0,0,1,3.57-.842,3.938,3.938,0,0,1,2.455,2.132,6.947,6.947,0,0,1,.6,3.07,12.7,12.7,0,0,1-6.518,10.862A.537.537,0,0,1,287.086,101.539Z" transform="translate(-49.736 -56.877)" fill="#231f20"/>
      <path id="Path_1037" data-name="Path 1037" d="M2.015,0C3.127,0,4.03.358,4.03.8s-.9.793-2.014.792S0,1.231,0,.793.9,0,2.015,0Z" transform="translate(224.04 29.361) rotate(-83.56)" fill="#231f20"/>
      <path id="Path_1038" data-name="Path 1038" d="M303.466,121.973l-1.3-6.321H277.093l-3.216,9.082a49.653,49.653,0,0,0,29.588-2.761Z" transform="translate(-49.788 -56.877)" fill="#fff"/>
      <path id="Path_1039" data-name="Path 1039" d="M283.915,126.333a42.612,42.612,0,0,1-10.227-1.066.589.589,0,0,1-.332-.266.541.541,0,0,1,0-.426l3.216-9.071a.536.536,0,0,1,.5-.362H302.15a.535.535,0,0,1,.525.426l1.3,6.321a.532.532,0,0,1-.322.6,52.126,52.126,0,0,1-19.736,3.848Zm-9.38-1.993a50.247,50.247,0,0,0,28.356-2.7l-1.158-5.458h-24.26Z" transform="translate(-49.791 -56.877)" fill="#231f20"/>
      <path id="Path_1040" data-name="Path 1040" d="M323.218,225.5s9.5-77.268-1.78-93.065-38.958-18.344-51.769-8.154S250.491,233.99,250.491,233.99,285.021,238.212,323.218,225.5Z" transform="translate(-49.922 -56.877)" fill="#0064ff"/>
      <path id="Path_1041" data-name="Path 1041" d="M174.021,188.156c1.072-3.017,11.557-5.958,14.88-5.958,2.144,0,8.019,2.558,11.792,4.328h0l36.364,3.784,19.651-33.95,17.71,20.071s-13.283,32.169-19.3,34.3-58.126-12.322-58.126-12.322l-12.05-3.347c-4.588,1.418-8.705-3.144-8.705-3.613s-1.9,4.871-3.323,4.722S172.917,191.173,174.021,188.156Z" transform="translate(-50.371 -56.877)" fill="#fff"/>
      <path id="Path_1042" data-name="Path 1042" d="M253.3,211.457c-11.128,0-54.492-11.981-56.465-12.525l-11.889-3.272a8.226,8.226,0,0,1-6.968-1.62,11.169,11.169,0,0,1-1.683-1.514c-1.072,2.228-2.144,4.338-3.441,4.21a1.073,1.073,0,0,1-.8-.512c-.858-1.375.557-5.756,1.469-8.25h0c1.276-3.464,12.178-6.3,15.384-6.3,2.2,0,7.687,2.345,11.943,4.328l35.924,3.731,19.468-33.651a.526.526,0,0,1,.418-.256.505.505,0,0,1,.45.171l17.71,20.071a.52.52,0,0,1,.1.554c-.547,1.322-13.443,32.415-19.64,34.6a6.565,6.565,0,0,1-1.973.234Zm-68.354-16.884h.139l12.028,3.3c17.967,4.978,53.163,13.953,57.8,12.322s15.094-24.58,18.879-33.694l-17-19.25-19.3,33.3a.548.548,0,0,1-.525.266l-36.364-3.795a.453.453,0,0,1-.172,0c-5.886-2.75-10-4.264-11.567-4.264-3.473,0-13.443,3.049-14.376,5.6-1.651,4.488-1.9,7.046-1.544,7.355.193,0,.8-.3,2.38-3.72.407-.874.525-1.13.986-1.066a.577.577,0,0,1,.418.448c.332.672,4.009,4.445,8.019,3.2ZM176.779,191.492ZM176.779,191.364Z" transform="translate(-50.374 -56.877)" fill="#231f20"/>
      <path id="Path_1043" data-name="Path 1043" d="M269.7,124.275l-25.086,41.2L274,182.986l19.543-39.258S276.682,125,269.7,124.275Z" transform="translate(-49.956 -56.877)" fill="#0064ff"/>
      <path id="Path_1044" data-name="Path 1044" d="M256.885,236.741h15.009L289.711,156.8A27.035,27.035,0,0,1,316.126,135.7H348.48a27.12,27.12,0,0,1,20.967,9.894,26.788,26.788,0,0,1,5.545,22.4l-19.361,94.344-89.312-.608H236.687v-4.914a20.14,20.14,0,0,1,20.2-20.082Z" transform="translate(-50.001 -56.877)" fill="#231f20"/>
      <path id="Path_1045" data-name="Path 1045" d="M355.634,262.877h0l-89.3-.608H236.69a.535.535,0,0,1-.536-.533v-4.914a20.7,20.7,0,0,1,20.733-20.615h14.569l17.71-79.518a27.4,27.4,0,0,1,26.94-21.51h32.354a27.667,27.667,0,0,1,21.376,10.092,27.331,27.331,0,0,1,5.661,22.845l-19.361,94.355A.535.535,0,0,1,355.634,262.877Zm-118.4-1.673h29.085l88.872.608,19.3-93.929a26.259,26.259,0,0,0-5.436-21.961,26.582,26.582,0,0,0-20.55-9.7H316.118A26.339,26.339,0,0,0,290.239,156.9l-17.807,79.944a.546.546,0,0,1-.525.416H256.9a19.627,19.627,0,0,0-19.661,19.549Z" transform="translate(-50.004 -56.877)" fill="#231f20"/>
      <rect id="Rectangle_243" data-name="Rectangle 243" width="124.143" height="37.808" transform="translate(131.529 205.467) rotate(180)" fill="#fff"/>
      <path id="Path_1046" data-name="Path 1046" d="M182.558,262.877H58.426a.534.534,0,0,1-.536-.533v-37.8a.534.534,0,0,1,.536-.533H182.558a.535.535,0,0,1,.536.533v37.8A.535.535,0,0,1,182.558,262.877Zm-123.6-1.066h123.06V225.079H58.962Z" transform="translate(-51.029 -56.877)" fill="#231f20"/>
      <rect id="Rectangle_244" data-name="Rectangle 244" width="9.595" height="37.808" transform="translate(141.135 205.467) rotate(180)" fill="#fff"/>
      <path id="Path_1047" data-name="Path 1047" d="M191.444,262.877H181.8a.534.534,0,0,1-.536-.533v-37.8a.534.534,0,0,1,.536-.533h9.648a.534.534,0,0,1,.536.533v37.8A.534.534,0,0,1,191.444,262.877Zm-9.059-1.066h8.576V225.079h-8.576Z" transform="translate(-50.32 -56.877)" fill="#231f20"/>
      <line id="Line_11" data-name="Line 11" x1="26.362" transform="translate(37.672 136.171)" fill="#231f20"/>
      <path id="Path_1048" data-name="Path 1048" d="M114.889,193.581H88.528a.533.533,0,1,1,0-1.066h26.362a.533.533,0,1,1,0,1.066Z" transform="translate(-50.856 -56.877)" fill="#231f20"/>
      <line id="Line_12" data-name="Line 12" x1="33.673" transform="translate(30.36 145.829)" fill="#231f20"/>
      <path id="Path_1049" data-name="Path 1049" d="M114.931,203.239H81.258a.545.545,0,0,1-.536-.533.534.534,0,0,1,.536-.533h33.673a.534.534,0,0,1,.536.533.545.545,0,0,1-.536.533Z" transform="translate(-50.898 -56.877)" fill="#231f20"/>
      <path id="Path_1050" data-name="Path 1050" d="M273.838,176.943a.463.463,0,0,1-.236-.064.532.532,0,0,1-.247-.714c5.757-11.619,14.869-30.688,14.773-32.351a.52.52,0,0,1,.058-.4.525.525,0,0,1,.328-.239.547.547,0,0,1,.654.405c.493,1.876-11.246,25.774-14.848,33.043A.558.558,0,0,1,273.838,176.943Z" transform="translate(-49.791 -56.877)" fill="#231f20"/>
      <path id="Path_1051" data-name="Path 1051" d="M288.409,254.637H288.3a.525.525,0,0,1-.344-.226.52.52,0,0,1-.074-.4c.139-.682,14.237-69,21.441-104.46a.522.522,0,0,1,.22-.344.528.528,0,0,1,.4-.082.544.544,0,0,1,.429.629c-7.161,35.527-21.259,103.842-21.441,104.524A.536.536,0,0,1,288.409,254.637Z" transform="translate(-49.707 -56.877)" fill="#fff"/>
      <path id="Path_1052" data-name="Path 1052" d="M108.876,87.405a.534.534,0,0,1-.536-.533.545.545,0,0,1,.536-.533h10.935a.534.534,0,0,1,.536.533.521.521,0,0,1-.15.376.527.527,0,0,1-.375.157Z" transform="translate(-50.739 -56.877)" fill="#d1d3d4"/>
      <path id="Path_1053" data-name="Path 1053" d="M121.315,87.405a.533.533,0,1,1,0-1.066h32.472a.533.533,0,1,1,0,1.066Z" transform="translate(-50.668 -56.877)" fill="#0064ff"/>
      <path id="Path_1054" data-name="Path 1054" d="M106.339,91.605a.533.533,0,1,1,0-1.066h10.946a.545.545,0,0,1,.536.533.534.534,0,0,1-.536.533H106.35Z" transform="translate(-50.754 -56.877)" fill="#d1d3d4"/>
      <path id="Path_1055" data-name="Path 1055" d="M119.439,91.584a.533.533,0,1,1,0-1.066h17.614a.535.535,0,0,1,.536.522.545.545,0,0,1-.536.544H119.439Z" transform="translate(-50.678 -56.877)" fill="#0064ff"/>
      <path id="Path_1056" data-name="Path 1056" d="M143.636,91.53a.533.533,0,1,1,0-1.066h17.614a.533.533,0,1,1,0,1.066Z" transform="translate(-50.539 -56.877)" fill="#0064ff"/>
      <path id="Path_1057" data-name="Path 1057" d="M106.691,95.773a.533.533,0,1,1,0-1.066h10.935a.533.533,0,1,1,0,1.066Z" transform="translate(-50.752 -56.877)" fill="#d1d3d4"/>
      <path id="Path_1058" data-name="Path 1058" d="M122.008,95.741a.533.533,0,1,1,0-1.066h15.373a.545.545,0,0,1,.536.533.534.534,0,0,1-.536.533H122Z" transform="translate(-50.664 -56.877)" fill="#0064ff"/>
      <path id="Path_1059" data-name="Path 1059" d="M139.873,95.709a.545.545,0,0,1-.536-.533.534.534,0,0,1,.536-.533h6.293a.533.533,0,1,1,0,1.066h-6.282Z" transform="translate(-50.561 -56.877)" fill="#d1d3d4"/>
      <path id="Path_1060" data-name="Path 1060" d="M107.043,99.93a.527.527,0,0,1-.378-.149.521.521,0,0,1-.158-.373.545.545,0,0,1,.536-.544h10.935a.533.533,0,1,1,0,1.066Z" transform="translate(-50.75 -56.877)" fill="#d1d3d4"/>
      <path id="Path_1061" data-name="Path 1061" d="M120.8,99.909a.533.533,0,1,1,0-1.066h22.513a.533.533,0,1,1,0,1.066Z" transform="translate(-50.67 -56.877)" fill="#0064ff"/>
      <path id="Path_1062" data-name="Path 1062" d="M145.767,99.855a.533.533,0,1,1,0-1.066H156.7a.533.533,0,1,1,0,1.066Z" transform="translate(-50.527 -56.877)" fill="#0064ff"/>
      <path id="Path_1063" data-name="Path 1063" d="M104.836,104.108a.545.545,0,0,1-.536-.533.534.534,0,0,1,.536-.533h5.8a.545.545,0,0,1,.536.533.534.534,0,0,1-.536.533h-5.81Z" transform="translate(-50.762 -56.877)" fill="#d1d3d4"/>
      <path id="Path_1064" data-name="Path 1064" d="M115.378,104.087a.545.545,0,0,1-.536-.533.534.534,0,0,1,.536-.533l25.343-.053h0a.533.533,0,1,1,0,1.066l-25.343.053Z" transform="translate(-50.702 -56.877)" fill="#0064ff"/>
      <path id="Path_1065" data-name="Path 1065" d="M105.188,108.265a.533.533,0,1,1,0-1.066h10.935a.533.533,0,1,1,0,1.066Z" transform="translate(-50.76 -56.877)" fill="#d1d3d4"/>
      <path id="Path_1066" data-name="Path 1066" d="M107.149,112.422a.533.533,0,1,1,0-1.066h21.816a.533.533,0,1,1,0,1.066Z" transform="translate(-50.749 -56.877)" fill="#d1d3d4"/>
      <path id="Path_1067" data-name="Path 1067" d="M132.443,112.38a.533.533,0,1,1,0-1.066h15.169a.545.545,0,0,1,.536.533.534.534,0,0,1-.536.533H132.443Z" transform="translate(-50.604 -56.877)" fill="#0064ff"/>
      <path id="Path_1068" data-name="Path 1068" d="M149.69,112.337a.533.533,0,1,1,0-1.066h18.782a.533.533,0,1,1,0,1.066H149.7Z" transform="translate(-50.504 -56.877)" fill="#0064ff"/>
      <path id="Path_1069" data-name="Path 1069" d="M108.439,116.59a.533.533,0,1,1,0-1.066l31.808-.064h0a.533.533,0,1,1,0,1.066l-31.808.064Z" transform="translate(-50.742 -56.877)" fill="#d1d3d4"/>
      <path id="Path_1070" data-name="Path 1070" d="M142.218,116.516a.533.533,0,1,1,0-1.066H156.53a.533.533,0,1,1,0,1.066Z" transform="translate(-50.547 -56.877)" fill="#0064ff"/>
      <path id="Path_1071" data-name="Path 1071" d="M158.825,116.484a.533.533,0,1,1,0-1.066l42.549-.085h0a.533.533,0,1,1,0,1.066Z" transform="translate(-50.452 -56.877)" fill="#0064ff"/>
      <path id="Path_1072" data-name="Path 1072" d="M108.663,120.747a.533.533,0,1,1,0-1.066h15.009a.533.533,0,1,1,0,1.066Z" transform="translate(-50.74 -56.877)" fill="#d1d3d4"/>
      <path id="Path_1073" data-name="Path 1073" d="M126.592,120.715a.533.533,0,1,1,0-1.066h11.074a.533.533,0,1,1,0,1.066H126.581Z" transform="translate(-50.637 -56.877)" fill="#0064ff"/>
      <path id="Path_1074" data-name="Path 1074" d="M140.576,120.683a.533.533,0,1,1,0-1.066h11.074a.533.533,0,1,1,0,1.066Z" transform="translate(-50.557 -56.877)" fill="#0064ff"/>
      <path id="Path_1075" data-name="Path 1075" d="M109.015,124.915a.533.533,0,1,1,0-1.066H135.6a.534.534,0,0,1,.536.533.545.545,0,0,1-.536.533H109Z" transform="translate(-50.738 -56.877)" fill="#d1d3d4"/>
      <path id="Path_1076" data-name="Path 1076" d="M138.711,124.851a.533.533,0,1,1,0-1.066h13.3a.533.533,0,1,1,0,1.066H138.722Z" transform="translate(-50.568 -56.877)" fill="#0064ff"/>
      <path id="Path_1077" data-name="Path 1077" d="M155.19,124.819a.533.533,0,1,1,0-1.066h20.251a.533.533,0,1,1,0,1.066Z" transform="translate(-50.473 -56.877)" fill="#d1d3d4"/>
      <path id="Path_1078" data-name="Path 1078" d="M177.447,124.776a.533.533,0,1,1,0-1.066H197.7a.516.516,0,0,1,.386.149.51.51,0,0,1,.15.384.534.534,0,0,1-.536.533Z" transform="translate(-50.345 -56.877)" fill="#0064ff"/>
      <path id="Path_1079" data-name="Path 1079" d="M116.05,129.061a.533.533,0,1,1,0-1.066h15.866a.533.533,0,1,1,0,1.066Z" transform="translate(-50.698 -56.877)" fill="#d1d3d4"/>
      <path id="Path_1080" data-name="Path 1080" d="M134.788,129.029a.534.534,0,0,1-.536-.533.521.521,0,0,1,.15-.376.527.527,0,0,1,.375-.157h15.866a.533.533,0,1,1,0,1.066H134.778Z" transform="translate(-50.59 -56.877)" fill="#0064ff"/>
      <path id="Path_1081" data-name="Path 1081" d="M153.645,128.976a.533.533,0,1,1,0-1.066h15.866a.533.533,0,1,1,0,1.066Z" transform="translate(-50.482 -56.877)" fill="#0064ff"/>
      <path id="Path_1082" data-name="Path 1082" d="M173.215,129.413a.533.533,0,1,1,0-1.066h15.866a.533.533,0,1,1,0,1.066Z" transform="translate(-50.369 -56.877)" fill="#0064ff"/>
      <path id="Path_1083" data-name="Path 1083" d="M118.746,133.24a.533.533,0,1,1,0-1.066h10.935a.533.533,0,1,1,0,1.066Z" transform="translate(-50.682 -56.877)" fill="#d1d3d4"/>
      <path id="Path_1084" data-name="Path 1084" d="M132.177,133.24a.534.534,0,0,1-.536-.533.521.521,0,0,1,.15-.376.527.527,0,0,1,.375-.157h10.946a.534.534,0,0,1,.536.533.545.545,0,0,1-.536.533Z" transform="translate(-50.605 -56.877)" fill="#0064ff"/>
      <path id="Path_1085" data-name="Path 1085" d="M168.324,133.538h0l-22.62-.373a.533.533,0,1,1,0-1.066h0l22.62.373a.534.534,0,0,1,.525.544A.524.524,0,0,1,168.324,133.538Z" transform="translate(-50.527 -56.877)" fill="#d1d3d4"/>
      <path id="Path_1086" data-name="Path 1086" d="M157.994,87.341a.533.533,0,1,1,0-1.066h14.783a.533.533,0,1,1,0,1.066Z" transform="translate(-50.457 -56.877)" fill="#d1d3d4"/>
      <path id="Path_1087" data-name="Path 1087" d="M182.3,87.331a36.14,36.14,0,0,1-3.9-.053.543.543,0,0,1-.365-.661.526.526,0,0,1,.611-.373h16.745a.533.533,0,1,1,0,1.066C188.729,87.32,184.719,87.331,182.3,87.331Z" transform="translate(-50.339 -56.877)" fill="#0064ff"/>
      <path id="Path_1088" data-name="Path 1088" d="M143.486,104.023a.533.533,0,1,1,0-1.066H154.55a.533.533,0,1,1,0,1.066H143.486Z" transform="translate(-50.54 -56.877)" fill="#0064ff"/>
      <path id="Path_1089" data-name="Path 1089" d="M121.518,108.233a.534.534,0,0,1-.536-.533.545.545,0,0,1,.536-.533h8.137a.588.588,0,0,1,.536.533.521.521,0,0,1-.15.376.527.527,0,0,1-.375.157Z" transform="translate(-50.666 -56.877)" fill="#0064ff"/>
      <path id="Path_1090" data-name="Path 1090" d="M132.667,108.212a.533.533,0,1,1,0-1.066h19.3a.534.534,0,0,1,.536.533.521.521,0,0,1-.15.376.527.527,0,0,1-.375.157h-19.3Z" transform="translate(-50.602 -56.877)" fill="#d1d3d4"/>
      <path id="Path_1091" data-name="Path 1091" d="M155.755,108.169a.533.533,0,1,1,0-1.066l37.522-.085h0a.533.533,0,1,1,0,1.066Z" transform="translate(-50.47 -56.877)" fill="#0064ff"/>
      <path id="Path_1092" data-name="Path 1092" d="M115.977,140.7a.57.57,0,0,1-.311-.107l-2.241-1.642a.537.537,0,0,1,.021-.874l1.876-1.258a.538.538,0,0,1,.74.149.52.52,0,0,1-.139.736l-1.254.842,1.63,1.183a.542.542,0,0,1,.118.746.526.526,0,0,1-.44.224Z" transform="translate(-50.711 -56.877)" fill="#d1d3d4"/>
      <path id="Path_1093" data-name="Path 1093" d="M118.526,140.7a.559.559,0,0,1-.386-.171.531.531,0,0,1,0-.746l1.072-1-1.554-1.066a.531.531,0,0,1-.129-.746.527.527,0,0,1,.74-.128l2.144,1.45a.522.522,0,0,1,.225.394.6.6,0,0,1-.161.426l-1.512,1.45A.56.56,0,0,1,118.526,140.7Z" transform="translate(-50.687 -56.877)" fill="#d1d3d4"/>
      <path id="Path_1094" data-name="Path 1094" d="M230.378,111.751a.559.559,0,0,1-.407-.181.541.541,0,0,1,.054-.757c1.362-1.173,3.559-3.518,2.905-6a7.466,7.466,0,0,0-2.541-3.358c-.472-.426-.965-.885-1.4-1.364a10.505,10.505,0,0,1-.943-12.557.538.538,0,0,1,.713-.11.531.531,0,0,1,.176.7,9.423,9.423,0,0,0,.858,11.256c.407.448.879.885,1.329,1.3a8.466,8.466,0,0,1,2.852,3.869c.793,3.038-1.694,5.735-3.216,7.078a.527.527,0,0,1-.375.128Z" transform="translate(-50.061 -56.877)" fill="#d1d3d4"/>
      <path id="Path_1095" data-name="Path 1095" d="M244.868,110.621a.537.537,0,0,1-.44-.235.52.52,0,0,1,.129-.735,3.091,3.091,0,0,0,1.008-3.944,5.966,5.966,0,0,0-.7-.81l-.3-.3a9.052,9.052,0,0,1-2.455-6.4,5.089,5.089,0,0,1,1.319-3.539.533.533,0,1,1,.75.757,4.068,4.068,0,0,0-1,2.793,8.032,8.032,0,0,0,2.144,5.66l.279.277a6.747,6.747,0,0,1,.836.97,4.132,4.132,0,0,1-1.286,5.394A.5.5,0,0,1,244.868,110.621Z" transform="translate(-49.97 -56.877)" fill="#d1d3d4"/>
      <path id="Path_1096" data-name="Path 1096" d="M237.941,111.762a.534.534,0,0,1-.3-.981,3.554,3.554,0,0,0,1.587-3.027,7.685,7.685,0,0,0-1.64-3.741c-.247-.373-.493-.746-.729-1.13a14.074,14.074,0,0,1-.279-13.644.538.538,0,0,1,.729-.224.542.542,0,0,1,.214.725,13,13,0,0,0,.257,12.588c.225.362.461.725.708,1.066a8.5,8.5,0,0,1,1.8,4.264,4.608,4.608,0,0,1-2.058,3.965.484.484,0,0,1-.289.139Z" transform="translate(-50.011 -56.877)" fill="#d1d3d4"/>
      <path id="Path_1097" data-name="Path 1097" d="M244.738,130.756a9.694,9.694,0,0,1-4.031-.938.521.521,0,0,1-.257-.7.537.537,0,0,1,.708-.266c3.924,1.791,7.215.426,8.748-1.705a3.7,3.7,0,0,0,0-4.775.531.531,0,0,1,0-.757.538.538,0,0,1,.761,0,4.723,4.723,0,0,1,.064,6.14,7.379,7.379,0,0,1-5.993,3.006Z" transform="translate(-49.98 -56.877)" fill="#231f20"/>
      <path id="Path_1098" data-name="Path 1098" d="M231.576,136.491c-15.695,0-13.99-21.318-13.99-21.318h27.98S247.271,136.491,231.576,136.491Z" transform="translate(-50.111 -56.877)" fill="#fff"/>
      <path id="Path_1099" data-name="Path 1099" d="M231.58,137.024a12.558,12.558,0,0,1-9.648-3.933c-5.778-6.214-4.953-17.5-4.91-17.982a.535.535,0,0,1,.536-.49h27.98a.535.535,0,0,1,.536.49c0,.48.868,11.725-4.91,17.982a12.557,12.557,0,0,1-9.584,3.933Zm-13.486-21.318c-.086,2.238-.139,11.523,4.663,16.692a12.648,12.648,0,0,0,17.646,0c4.813-5.17,4.749-14.454,4.663-16.682Z" transform="translate(-50.115 -56.877)" fill="#fff"/>
      <path id="Path_1100" data-name="Path 1100" d="M231.576,136.491c-15.695,0-13.99-21.318-13.99-21.318h27.98S247.271,136.491,231.576,136.491Z" transform="translate(-50.111 -56.877)" fill="#fff"/>
      <path id="Path_1101" data-name="Path 1101" d="M231.58,137.024a12.558,12.558,0,0,1-9.648-3.933c-5.778-6.214-4.953-17.5-4.91-17.982a.535.535,0,0,1,.536-.49h27.98a.535.535,0,0,1,.536.49c0,.48.868,11.725-4.91,17.982a12.557,12.557,0,0,1-9.584,3.933Zm-13.486-21.318c-.086,2.238-.139,11.523,4.663,16.692a12.648,12.648,0,0,0,17.646,0c4.813-5.17,4.749-14.454,4.663-16.682Z" transform="translate(-50.115 -56.877)" fill="#d1d3d4"/>
      <path id="Path_1102" data-name="Path 1102" d="M231.576,136.491c-15.695,0-13.99-21.318-13.99-21.318h27.98S247.271,136.491,231.576,136.491Z" transform="translate(-50.111 -56.877)" fill="none" stroke="#231f20" stroke-linecap="round" stroke-linejoin="round" stroke-width="1.066"/>
      <path id="Path_1103" data-name="Path 1103" d="M231.58,137.024a12.558,12.558,0,0,1-9.648-3.933c-5.778-6.214-4.953-17.5-4.91-17.982a.535.535,0,0,1,.536-.49h27.98a.535.535,0,0,1,.536.49c0,.48.868,11.725-4.91,17.982a12.557,12.557,0,0,1-9.584,3.933Zm-13.486-21.318c-.086,2.238-.139,11.523,4.663,16.692a12.648,12.648,0,0,0,17.646,0c4.813-5.17,4.749-14.454,4.663-16.682Z" transform="translate(-50.115 -56.877)" fill="none" stroke="#231f20" stroke-linecap="round" stroke-linejoin="round" stroke-width="1.066"/>
      <path id="Path_1104" data-name="Path 1104" d="M247.633,117.55c-.858,1.418-3.152,6.14-.407,6.8,1.694.416,2.412-1.173,3.077-2.356a9.785,9.785,0,0,0,.9-3.2c1.136,1.332.59,7.461,3.3,7.952" transform="translate(-49.948 -56.877)" fill="#fff"/>
      <path id="Path_1105" data-name="Path 1105" d="M254.508,127.239H254.4c-2.069-.405-2.53-3.2-2.905-5.479a5.039,5.039,0,0,0-.15-.9,5.781,5.781,0,0,1-.579,1.4l-.15.277c-.622,1.066-1.554,2.814-3.506,2.345a2.141,2.141,0,0,1-1.512-1.247c-.922-2.206,1.479-6.182,1.587-6.4a.537.537,0,0,1,.957,0,.53.53,0,0,1-.046.557c-.922,1.514-2,4.2-1.512,5.394a1.071,1.071,0,0,0,.772.618c1.072.256,1.619-.554,2.316-1.823l.161-.277a5.616,5.616,0,0,0,.654-2.047c.054-.32.107-.661.2-1.066a.513.513,0,0,1,.4-.405.538.538,0,0,1,.536.181,7.429,7.429,0,0,1,.933,3.2c.311,1.94.708,4.338,2.048,4.6a.526.526,0,0,1,.346.219.52.52,0,0,1,.083.4.546.546,0,0,1-.525.448Z" transform="translate(-49.951 -56.877)" fill="#231f20"/>
      <path id="Path_1106" data-name="Path 1106" d="M102.788,76.149l-.172-1.258,4.6-2.974,1.19,1.631-3.3,2.036,3.849,2.025-.761,1.578Z" transform="translate(-50.772 -56.877)" fill="#231f20"/>
      <path id="Path_1107" data-name="Path 1107" d="M108.8,80.807h1.136c.472,0,.654-.2.59-.64l-.943-6.939h2.23l.943,6.96c.257,1.9-.44,2.665-2.348,2.665h-1.329Zm.364-10.659h2.219l.279,2.068h-2.219Z" transform="translate(-50.736 -56.877)" fill="#231f20"/>
      <path id="Path_1108" data-name="Path 1108" d="M113.32,78.1c-.172-1.247.643-1.9,2.777-2.132,1.244-.181,1.6-.362,1.554-.693s-.525-.618-1.179-.618a1.281,1.281,0,0,0-.973.266,1.266,1.266,0,0,0-.474.885l-2.037-.405c.054-1.428,1.394-2.42,3.216-2.42,2.144,0,3.559,1.066,3.8,2.8l.568,4.264h-2.015l-.086-.672h0a2.667,2.667,0,0,1-2.208.863A2.614,2.614,0,0,1,113.32,78.1Zm4.749-.672-.1-.672h0c-.118.2-.418.33-1.222.5-1,.2-1.319.384-1.276.725s.375.512,1.072.512C117.426,78.494,118.144,78,118.069,77.428Z" transform="translate(-50.712 -56.877)" fill="#231f20"/>
      <path id="Path_1109" data-name="Path 1109" d="M119.468,73.229h2.487l2.476,4.264h0l1.329-4.264h2.487L125.815,80h-2.144Z" transform="translate(-50.675 -56.877)" fill="#231f20"/>
      <path id="Path_1110" data-name="Path 1110" d="M128.786,78.1c-.172-1.247.643-1.9,2.777-2.132,1.244-.181,1.6-.362,1.554-.693s-.525-.618-1.179-.618a1.281,1.281,0,0,0-.973.266,1.266,1.266,0,0,0-.474.885l-2.08-.352c0-1.428,1.394-2.42,3.216-2.42,2.144,0,3.57,1.066,3.806,2.8L136,80.1h-2.015l-.1-.672h0a2.688,2.688,0,0,1-2.208.863A2.613,2.613,0,0,1,128.786,78.1Zm4.738-.672-.086-.672h0c-.107.2-.418.33-1.211.5-1.008.2-1.329.384-1.276.725s.375.512,1.072.512C132.892,78.494,133.611,78,133.525,77.428Z" transform="translate(-50.624 -56.877)" fill="#231f20"/>
      <path id="Path_1111" data-name="Path 1111" d="M136.363,77.951l2-.586a2.147,2.147,0,0,0,2.144,1.183c.9,0,1.372-.171,1.34-.469s-.472-.49-1.844-.693c-2.444-.362-3.506-.991-3.677-2.217s1.072-2.132,3.055-2.132a4.392,4.392,0,0,1,4.009,2.047l-1.919.586a2.2,2.2,0,0,0-1.962-.959c-.718,0-1.072.181-1.072.469s.386.426,1.9.661c2.391.384,3.473.981,3.645,2.249s-1.072,2.206-3.345,2.206a4.487,4.487,0,0,1-4.277-2.345Z" transform="translate(-50.578 -56.877)" fill="#231f20"/>
      <path id="Path_1112" data-name="Path 1112" d="M144.251,76.618a3.111,3.111,0,0,1,.792-2.648,3.151,3.151,0,0,1,2.6-.987,4.291,4.291,0,0,1,3.988,2.43l-1.983.629a1.834,1.834,0,0,0-1.737-1.13,1.387,1.387,0,0,0-1.148.494,1.369,1.369,0,0,0-.278,1.212,1.883,1.883,0,0,0,1.887,1.695,1.307,1.307,0,0,0,1.426-1.066l2.144.618a3.064,3.064,0,0,1-3.323,2.43A4.281,4.281,0,0,1,144.251,76.618Z" transform="translate(-50.533 -56.877)" fill="#231f20"/>
      <path id="Path_1113" data-name="Path 1113" d="M152.117,73.229h2.144l.086.65h0a2.214,2.214,0,0,1,1.876-.789,4.883,4.883,0,0,1,1.244.16l-.118,1.972a4.021,4.021,0,0,0-1.072-.128c-1.072,0-1.608.64-1.437,1.951L155.248,80h-2.23Z" transform="translate(-50.487 -56.877)" fill="#231f20"/>
      <path id="Path_1114" data-name="Path 1114" d="M157.607,70.105h2.23l.279,2.068H157.9Zm.44,3.123h2.219L161.187,80h-2.219Z" transform="translate(-50.456 -56.877)" fill="#231f20"/>
      <path id="Path_1115" data-name="Path 1115" d="M161.412,73.229h2.144l.086.608h0a2.613,2.613,0,0,1,1.994-.767,4.141,4.141,0,0,1,4.042,3.56,2.93,2.93,0,0,1-.635,2.523,2.967,2.967,0,0,1-2.4,1.037,3.681,3.681,0,0,1-2.144-.661h0l.45,3.347h-2.219Zm6.025,3.368a1.873,1.873,0,0,0-1.93-1.6c-.911,0-1.554.576-1.458,1.268l.1.735a1.682,1.682,0,0,0,1.822,1.268,1.4,1.4,0,0,0,1.156-.471,1.38,1.38,0,0,0,.312-1.2Z" transform="translate(-50.434 -56.877)" fill="#231f20"/>
      <path id="Path_1116" data-name="Path 1116" d="M173.3,75l.332,2.441c0,.416.236.565.718.565h1.265L175.893,80h-1.608a2.487,2.487,0,0,1-1.955-.536,2.457,2.457,0,0,1-.9-1.809L171.069,75h-1.587l-.236-1.769h1.608l-.3-1.759h2.219l.236,1.759h2.144L175.389,75Z" transform="translate(-50.389 -56.877)" fill="#231f20"/>
      <path id="Path_1117" data-name="Path 1117" d="M176.551,77.556l3.3-2.025L176,73.548l.761-1.578,5.36,2.974L182.3,76.2l-4.6,2.985Z" transform="translate(-50.35 -56.877)" fill="#231f20"/>
    </g>
  </g>
</svg>
