<svg xmlns="http://www.w3.org/2000/svg" width="29.686" height="29.686" viewBox="0 0 29.686 29.686">
  <g id="Icons" transform="translate(8.672 25.975) rotate(-106)">
    <g id="Rounded" transform="translate(-749 -1263)">
      <g id="Communication" transform="translate(100 1162)">
        <g id="_-Round-_-Communication-_-phone" data-name="-Round-/-Communication-/-phone" transform="translate(646 98)">
          <g id="Group_164" data-name="Group 164">
            <path id="Path" d="M0,0H24V24H0Z" fill="none" fill-rule="evenodd"/>
            <path id="_Icon-Color" data-name="🔹Icon-Color" d="M19.23,15.26l-2.54-.29a1.991,1.991,0,0,0-1.64.57l-1.84,1.84a15.045,15.045,0,0,1-6.59-6.59L8.47,8.94A1.991,1.991,0,0,0,9.04,7.3L8.75,4.78A2,2,0,0,0,6.76,3.01H5.03a1.985,1.985,0,0,0-2,2.07A16.992,16.992,0,0,0,18.92,20.97a1.985,1.985,0,0,0,2.07-2V17.24A1.982,1.982,0,0,0,19.23,15.26Z" fill="#1d1d1d" fill-rule="evenodd"/>
          </g>
        </g>
      </g>
    </g>
  </g>
</svg>
