<?xml version="1.0" encoding="utf-8"?>
<!-- Generator: Adobe Illustrator 23.0.3, SVG Export Plug-In . SVG Version: 6.00 Build 0)  -->
<svg version="1.1" id="Layer_1" xmlns="http://www.w3.org/2000/svg" xmlns:xlink="http://www.w3.org/1999/xlink" x="0px" y="0px"
	 viewBox="0 0 11.71 14.44" style="enable-background:new 0 0 11.71 14.44;" xml:space="preserve">
<style type="text/css">
	.st0{display:none;}
	.st1{fill:#5256BC;}
</style>
<g id="Layer_1_copy_2" class="st0">
</g>
<g id="Layer_1_copy" class="st0">
</g>
<g>
	<g>
		<g>
			<path class="st1" d="M5.99,14.44c-0.08,0-0.16,0-0.24,0c-1.5-1.91-3.13-3.74-4.47-5.76c-1.53-2.3-0.91-5.29,1.18-7.01
				c2.02-1.66,5.09-1.59,7.03,0.17c2,1.81,2.46,4.83,0.88,7.07C9.02,10.83,7.45,12.6,5.99,14.44z M5.91,8.29
				c1.32-0.01,2.34-1.06,2.33-2.37c-0.02-1.3-1.1-2.36-2.39-2.34c-1.28,0.01-2.36,1.13-2.34,2.4C3.52,7.28,4.58,8.3,5.91,8.29z"/>
		</g>
	</g>
</g>
<g id="Layer_4">
</g>
</svg>
