<?xml version="1.0" encoding="utf-8"?>
<!-- Generator: Adobe Illustrator 23.0.3, SVG Export Plug-In . SVG Version: 6.00 Build 0)  -->
<svg version="1.1" id="Layer_1" xmlns="http://www.w3.org/2000/svg" xmlns:xlink="http://www.w3.org/1999/xlink" x="0px" y="0px"
	 viewBox="0 0 279.19 253.19" style="enable-background:new 0 0 279.19 253.19;" xml:space="preserve">
<style type="text/css">
	.st0{fill:#FED73E;}
	.st1{fill:#F7DCAE;}
	.st2{fill:#FEFDFB;}
	.st3{fill:#FDCE38;}
	.st4{fill:#FBE48A;}
	.st5{fill:#FDBA45;}
	.st6{fill:#F4B13E;}
	.st7{fill:#FDDA5F;}
	.st8{fill:#D98933;}
	.st9{fill:#FED255;}
	.st10{fill:#FEB63B;}
	.st11{fill:#FBC231;}
	.st12{fill:#FCF5E9;}
	.st13{fill:#FEBF4E;}
	.st14{fill:#FEDF69;}
</style>
<g>
	<g>
		<path class="st0" d="M0.11,119.09c0-4.67,0-9.33,0-14c2.89-5.16,4-11.07,7.09-16.2c6.44-10.68,12.56-21.54,18.84-32.32
			c1.74-2.99,5-3.31,7.76-0.75c1.09,1.01,1.97,2.25,2.93,3.4c0.99,1.17,2.03,2.34,3.75,1.99c2.05-0.42,2.31-2.2,2.54-3.85
			c0.43-2.98,0.76-5.81,3.61-7.83c1.75-1.23,4.56-2.35,3.86-5.21c-0.71-2.92-3.83-2.07-5.88-2.88c-0.76-0.3-1.67-0.18-2.45-0.45
			c-3.61-1.25-4.69-4.14-2.77-7.44c2.33-4.03,4.62-8.09,7.1-12.02c6.71-10.67,16.24-17.34,28.6-20c1.35-0.29,3.12,0.29,3.99-1.43
			c0.67,0,1.33,0,2,0c0.9,1.44,2.35,0.98,3.61,0.99c25.93,0.02,51.86,0.02,77.79,0c1.26,0,2.71,0.47,3.6-0.99c0.67,0,1.33,0,2,0
			c0.64,1.7,2.26,1.11,3.44,1.37c12.64,2.88,22.59,9.58,29.16,20.82c12.58,21.52,25,43.14,37.48,64.71
			c0.25,0.39,0.49,0.77,0.74,1.16l0.07,0.14c0.23,0.31,0.45,0.61,0.68,0.92c0.12,0.33,0.24,0.66,0.36,1
			c0.24,0.33,0.48,0.66,0.73,0.99c0.09,0.33,0.19,0.66,0.28,0.99c0.24,0.34,0.48,0.67,0.72,1.01c0.09,0.33,0.18,0.66,0.27,0.99
			c0.24,0.34,0.48,0.67,0.72,1.01c0.07,0.34,0.15,0.68,0.22,1.02c-0.51,2.85-2.8,1.85-4.4,1.86c-11.16,0.07-22.33,0.02-33.5,0
			c-9.56-18.26-20.09-35.97-30.38-53.81c-4.45-7.72-11.25-11.31-20.23-11.26c-20.31,0.13-40.62,0.2-60.92-0.04
			c-8.44-0.1-15.26,2.64-20.6,9.12c-4.87-0.72-6.1,3.49-7.91,6.32C54.27,65.21,45.1,82.92,35,100.08
			c-8.27,14.04-7.82,27.64,0.25,41.47c8.78,15.05,17.63,30.08,25.98,45.37c8.39,15.38,20.88,22.27,38.38,21.29
			c11.46-0.64,22.99-0.42,34.47-0.04c14.07,0.46,27.2,3.78,37.03,14.97c-1.13,0.93-2.5,0.8-3.82,0.8c-28.5,0.07-57,0.43-85.49,0.06
			c-15.87-0.21-28.27-7.97-35.9-21.72C30.56,174.61,11.76,148.81,0.11,119.09z"/>
		<path class="st1" d="M166.11,0.09c-0.89,1.46-2.35,0.99-3.6,0.99c-25.93,0.02-51.86,0.02-77.79,0c-1.26,0-2.71,0.45-3.61-0.99
			C109.44,0.09,137.78,0.09,166.11,0.09z"/>
		<path class="st1" d="M220.18,252.21c0,0.3-0.02,0.59-0.07,0.88c-18.67,0-37.33,0-56,0c-0.08-0.27-0.11-0.55-0.09-0.84
			C182.74,252.24,201.46,252.22,220.18,252.21z"/>
		<path class="st1" d="M279.11,131.09c-0.33,0-0.66,0.01-0.99,0.03c-0.07-0.99-0.15-1.98-0.22-2.97c0.02-5.34,0.04-10.68,0.06-16.03
			c-0.01-3.6-0.02-7.2-0.02-10.8c0.39-0.08,0.78-0.16,1.17-0.23C279.11,111.09,279.11,121.09,279.11,131.09z"/>
		<path class="st2" d="M72.96,42.1c5.35-6.48,12.16-9.22,20.6-9.12c20.3,0.24,40.61,0.17,60.92,0.04
			c8.98-0.06,15.78,3.53,20.23,11.26c10.29,17.84,20.82,35.56,30.38,53.81c-6.99-0.04-13.97-0.08-20.96-0.11
			c-0.03-0.5,0.11-1.11-0.12-1.48c-7.48-11.36-12.7-24.16-21.19-34.79c-3.05-3.82-7.43-8.04-13.73-6.56
			c-0.65-0.09-1.31-0.18-1.96-0.27c-0.43-2.1-2.11-1.78-3.56-1.78c-13.83-0.01-27.68-0.4-41.48,0.14
			c-8.96,0.35-16.82,4.04-21.58,12.24c-7.25,12.5-14.43,25.04-21.37,37.71c-4.82,8.81-4.47,18.07,0.05,26.78
			c6.12,11.79,12.65,23.38,19.43,34.81c6.04,10.18,15.16,15.49,27.24,15.32c7.5-0.1,15.02-0.43,22.49,0.08
			c10.86,0.74,12.24,3.12,13.74,11.62c-17.16,0.05-34.32,0.17-51.48,0.14c-8.1-0.01-14.19-3.82-18.37-10.66
			c-2.17-3.55-4.2-7.19-6.2-10.83c-9.59-17.51-20.33-34.38-29.11-52.34c-1.5-6.31-0.19-12.1,2.98-17.67
			C50.96,81.01,61.95,61.55,72.96,42.1z"/>
		<path class="st3" d="M72.96,42.1c-11.01,19.45-22,38.92-33.06,58.34c-3.17,5.57-4.48,11.36-2.98,17.67
			c-2.15,0.37-1.75,2.06-1.81,3.51c-0.29,6.26,2.36,11.67,5.27,16.88c8.02,14.32,16.51,28.38,24.25,42.84
			c7.62,14.23,18.41,21.65,35.16,20.96c13.05-0.54,26.18-0.82,39.3,0.64c11.67,1.29,22.58,4.25,32.81,10
			c3.05,1.71,4.37,5.6,8.21,6.16c-0.01,1.47-0.72,2.46-2.06,3.03c-2.31,0.34-4.61,0.68-6.92,1.02
			c-9.83-11.2-22.95-14.51-37.03-14.97c-11.48-0.38-23.01-0.59-34.47,0.04c-17.5,0.97-29.98-5.92-38.38-21.29
			c-8.35-15.29-17.19-30.32-25.98-45.37c-8.07-13.83-8.52-27.43-0.25-41.47C45.13,82.93,54.3,65.22,65.03,48.43
			C66.86,45.59,68.09,41.38,72.96,42.1z"/>
		<path class="st4" d="M184.14,97.97c6.99,0.04,13.97,0.08,20.96,0.11c11.17,0.01,22.33,0.07,33.5,0c1.59-0.01,3.89,0.99,4.4-1.86
			c1.35,1.75,3.16,2.05,5.27,2.02c7.99-0.11,15.99-0.06,23.98-0.09c2.22-0.01,4.45-0.12,5.12,2.74c-1.42-0.27-2.84-0.53-4.25-0.8
			c-4.11,0-8.27,0.41-12.31-0.09c-5.21-0.64-7.14,1.84-7.58,6.42c-0.11,1.14-0.09,2.3-0.13,3.44c-0.59,0.7-1.17,1.4-1.76,2.1
			c-3.95,0.66-5.64,5.82-10.26,5.14c0-1.82,0.02-3.64,0-5.46c-0.13-11.6-0.13-11.6-11.5-11.57c-1.49,0-2.98,0.03-4.47,0.05
			c-3.66,0-7.33,0-10.99,0c-8.33,0.01-16.66,0.01-24.99,0.02c-13.59-0.01-27.17,0.06-40.76-0.09c-3.21-0.04-4.36,0.94-4.3,4.23
			c0.17,10.6,0.06,21.21,0.06,31.81c-0.17,1.35,0.47,2.9-0.95,3.95c-0.03-2.31-0.05-4.62-0.08-6.94c0-5.67,0.01-11.34,0.01-17
			c0.01-3.76-0.25-7.54,0.09-11.26c0.38-4.09-1.39-5.28-5.06-4.73c-12.28-0.06-12.28-0.06-19.16,9.16c-0.7,0.97-1.39,1.93-2.09,2.9
			c-4.09-0.98-7.37,2.65-11.4,2.02c-0.13-2.7-0.25-5.4-0.38-8.1c0.33-6.79,1.52-7.94,8.38-7.95c12.57-0.02,25.14-0.03,37.71-0.05
			c9.66,0,19.31,0,28.97,0C181.48,98.05,182.81,98.01,184.14,97.97z"/>
		<path class="st4" d="M242.05,94.2c0.24,0.34,0.48,0.67,0.72,1.01C242.53,94.87,242.29,94.53,242.05,94.2z"/>
		<path class="st4" d="M241.05,92.19c0.24,0.34,0.48,0.67,0.72,1.01C241.53,92.87,241.29,92.53,241.05,92.19z"/>
		<path class="st4" d="M240.04,90.21c0.54,0.11,0.84,0.41,0.73,0.99C240.53,90.87,240.28,90.54,240.04,90.21z"/>
		<path class="st4" d="M239.01,88.3c0.23,0.31,0.45,0.61,0.68,0.92C239.46,88.91,239.23,88.6,239.01,88.3z"/>
		<path class="st4" d="M238.2,87c0.25,0.39,0.49,0.77,0.74,1.16C238.69,87.77,238.44,87.38,238.2,87z"/>
		<path class="st5" d="M178.06,222.12c1.34-0.56,2.05-1.56,2.06-3.03c1.36-1.51,0.55-3.43,0.9-5.13c0.71-3.42-0.11-5.6-4.27-6.72
			c-5.88-1.58-11.57-4.14-15.63-9.14c1.83-0.27,3.14,0.75,4.52,1.72c3.64,2.55,6.15,2.63,9.39-1.62c3.12-4.08,5.79-9.44,10.9-11.31
			c7.5-2.74,12.35-8.13,16.82-14.19c2.96-4,6.27-7.69,9.56-11.43c6.55-7.45,13.46-14.58,19.33-22.68c2.59-3.58,3.41-8.85,8.47-10.49
			c0.02,0.66,0.04,1.32,0.07,1.99c-0.02,1.43-0.03,2.86-0.05,4.28c0.01,10,0.01,20,0.02,29.99c-1.74,20.92-12.71,35.07-32.08,42.46
			c-4.86,1.86-6.78,3.95-5.22,8.89c0.24,0.77,0.19,1.64,0.27,2.46c0.01,1.47-1.17,2.26-1.86,3.34c-3.39,5.34-7.44,10.32-9.15,16.59
			c-0.66,0.92-1.66,1.15-2.64,0.94c-9.43-2-18.99-0.38-28.46-1.05c1.68-3.12,5.37-3.35,7.82-5.44
			C172.41,229.48,176.43,226.89,178.06,222.12z"/>
		<path class="st6" d="M161.01,237.99c9.47,0.67,19.03-0.95,28.46,1.05c0.97,0.21,1.97-0.03,2.64-0.94
			c9.99,0.02,19.99,0.04,29.98,0.05c0.29,0.31,0.59,0.62,0.88,0.92c0.07,2.96,0.15,5.92,0.22,8.88c0.07,2.18-0.93,3.6-3.01,4.25
			c-18.72,0.02-37.44,0.03-56.17,0.05c-1.62-0.51-2.82-1.39-2.92-3.26c-0.02-3.65-0.03-7.31-0.05-10.97L161.01,237.99z"/>
		<path class="st5" d="M161.04,238.03c0.02,3.66,0.03,7.31,0.05,10.97C159.87,245.34,159.94,241.69,161.04,238.03z"/>
		<path class="st7" d="M273.11,100.09c1.42,0.27,2.83,0.53,4.25,0.8c0.23,0.09,0.42,0.24,0.57,0.43c0.01,3.6,0.01,7.2,0.02,10.8
			c-2.31,0.26-2.2,2.58-3.32,3.85c-2.3,2.6-2.33,6.97-6.41,8.16c0.14-3.57-1.3-7.51,0.72-10.63
			C271.66,109.32,272.6,104.83,273.11,100.09z"/>
		<path class="st0" d="M277.9,128.15c0.07,0.99,0.15,1.98,0.22,2.97c-3.33,18.25-15.98,32.54-36.91,32.85
			c-0.03-3.95-0.05-7.9-0.08-11.85c4.8,0.09,9.08-1.49,13.04-4.09c1.76-0.27,3.46-0.62,4.1-2.63l0.14-0.19
			c0.27-0.27,0.54-0.54,0.82-0.81l0.19-0.19c0.27-0.28,0.54-0.55,0.82-0.83l0.16-0.18c0.25-0.35,0.51-0.69,0.76-1.04
			c0.93-1.04,1.85-2.07,2.78-3.11c2.69-0.12,4.49-1.78,6.27-3.54C272.73,133.02,275.33,130.6,277.9,128.15z"/>
		<path class="st3" d="M223.19,247.95c-0.07-2.96-0.15-5.92-0.22-8.88c-0.29-0.31-0.59-0.62-0.88-0.92
			c-9.99-0.02-19.99-0.04-29.98-0.05c1.71-6.26,5.76-11.25,9.15-16.58c0.69-1.09,1.87-1.87,1.86-3.34
			c3.88,8.03,9.86,14.06,17.93,17.75c3.17,1.45,2.67,3.79,2.62,6.18C223.62,244.05,224.14,246.07,223.19,247.95z"/>
		<path class="st8" d="M241.13,152.12c0.03,3.95,0.05,7.9,0.08,11.85c-0.35,0.13-0.7,0.26-1.06,0.39c-0.01-10-0.01-20-0.02-30
			c1.88,3.78,0.4,7.85,1,11.75C241.13,148.11,241.13,150.11,241.13,152.12z"/>
		<path class="st9" d="M277.9,128.15c-2.57,2.45-5.17,4.88-7.7,7.37c-1.78,1.76-3.58,3.42-6.27,3.54c0.83-3.5,3.22-6.45,3.61-10.12
			c1.06-1.49,0.36-3.22,0.68-4.81c4.08-1.18,4.11-5.56,6.41-8.16c1.12-1.27,1.02-3.59,3.32-3.85
			C277.94,117.46,277.92,122.8,277.9,128.15z"/>
		<path class="st10" d="M180.15,98.09c-9.66,0-19.31,0-28.97,0c-1.85-3.51-3.51-7.14-5.6-10.51c-3.09-4.99-7.53-7.74-13.65-7.58
			c-5.97,0.16-11.96,0.07-17.93,0.03c-5.06-0.04-9.24,1.96-11.81,6.16c-4.06,6.64-7.79,13.49-11.36,20.41
			c-1.66,3.23-2.66,7.03-0.96,10.47c2.4,4.88,5.41,9.46,8.17,14.17c1.09,2.58,2.19,5.15,3.28,7.73c-1.83,1.14-1,2.59-0.37,3.92
			c4.18,8.87,8.51,17.67,16.57,23.78c1.59,1.21,2.84,2.23,2.55,4.35c-12.13,0.06-24.58,1.37-34.01-8.89
			c-1.01-1.66-2.03-3.32-3.04-4.98c0.12-1.48-0.54-2.47-1.88-3.05c-2.37-4.32-4.74-8.64-7.11-12.95c0.12-1.48-0.54-2.47-1.89-3.05
			c-0.38-1.49-0.96-2.88-2.09-3.98c0.09-1.45-0.56-2.45-1.88-3.03c-3.47-6.68-7-13.34-6.76-21.21c0.76-2.89,1.46-5.79,2.96-8.43
			c6.48-11.42,13.08-22.77,19.36-34.3c4.71-8.63,11.83-12.45,21.49-12.36c13.97,0.12,27.94,0.05,41.91,0.06
			c0.65,0.09,1.31,0.18,1.96,0.27c4.98,2.34,9.79,4.91,12.62,9.96C167.87,76.09,174.01,87.09,180.15,98.09z"/>
		<path class="st11" d="M161.13,198.09c4.06,5,9.75,7.56,15.63,9.14c4.17,1.12,4.98,3.3,4.27,6.72c-0.35,1.71,0.46,3.63-0.9,5.13
			c-3.84-0.56-5.16-4.45-8.21-6.16c-10.23-5.75-21.14-8.7-32.81-10c-13.12-1.45-26.25-1.17-39.3-0.64
			c-16.75,0.69-27.54-6.73-35.16-20.96c-7.75-14.46-16.24-28.52-24.25-42.84c-2.92-5.21-5.56-10.62-5.27-16.88
			c0.07-1.45-0.34-3.14,1.81-3.51c8.78,17.96,19.51,34.84,29.11,52.34c2,3.65,4.03,7.29,6.2,10.83
			c4.18,6.84,10.27,10.65,18.37,10.66c17.16,0.03,34.32-0.08,51.48-0.14c0.34,0.12,0.68,0.23,1.02,0.35
			c2.52,4.61,9.87,7.29,16.07,5.87C159.82,198.05,160.47,198.07,161.13,198.09z"/>
		<path class="st12" d="M143.1,192.16c-0.34-0.12-0.68-0.23-1.02-0.35c-1.5-8.5-2.89-10.88-13.74-11.62
			c-7.46-0.51-14.99-0.19-22.49-0.08c-12.08,0.17-21.2-5.15-27.24-15.32c-6.78-11.42-13.32-23.02-19.43-34.81
			c-4.52-8.71-4.87-17.97-0.05-26.78c6.94-12.67,14.12-25.21,21.37-37.71c4.76-8.2,12.62-11.89,21.58-12.24
			c13.81-0.54,27.65-0.15,41.48-0.14c1.46,0,3.13-0.33,3.56,1.78c-13.97-0.01-27.94,0.06-41.91-0.06
			c-9.66-0.08-16.79,3.73-21.49,12.36c-6.28,11.53-12.89,22.88-19.36,34.3c-1.5,2.64-2.19,5.54-2.95,8.43
			c-2.69,5.99-2.02,11.99,0.9,17.5c6.45,12.15,13.07,24.22,20.09,36.05c4.13,6.96,10.52,12.37,18.72,12.4
			c14.76,0.05,29.48,1.68,44.24,1c2.66,5.08,5.03,10.33,8.49,14.96C150.27,191.93,146.68,192.04,143.1,192.16z"/>
		<path class="st12" d="M180.15,98.09c-6.14-11-12.28-22-18.44-32.98c-2.83-5.05-7.64-7.62-12.62-9.96
			c6.3-1.48,10.67,2.74,13.73,6.56c8.49,10.63,13.71,23.43,21.19,34.79c0.24,0.36,0.09,0.98,0.12,1.48
			C182.81,98.01,181.48,98.05,180.15,98.09z"/>
		<path class="st13" d="M161.13,198.09c-0.65-0.02-1.31-0.04-1.96-0.06c-0.79-1.78-3.13-2.61-3.02-4.94
			c5.86,2.07,8.74-2.72,11.91-5.78c2.67-2.58,5.44-5.98,3.21-10.53c-0.52-1.06,0.44-2.2,0.61-3.3c0.7-4.57,4.97-6.27,7.31-9.5
			c1.77,1.14,3.89,1.92,5.58,0.62c4.64-3.59,9-2.82,13.81-0.33c4.02,2.08,7.53-0.26,6.35-4.55c-1.68-6.1,0.34-10.11,4.77-13.83
			c2.41-2.02,1.31-4.2-0.79-5.77c-1.15-0.86-2.63-1.27-3.96-1.89c0.88-0.75,1.96-1.35,2.6-2.27c7.68-11.05,14.83-22.38,17.56-35.86
			c1.49-0.02,2.98-0.04,4.47-0.05c11.37-0.04,11.38-0.04,11.5,11.57c0.02,1.82,0,3.64,0,5.46c-2.03,3.52-0.42,7.35-0.95,10.99
			c-5.06,1.64-5.88,6.91-8.47,10.49c-5.87,8.1-12.78,15.23-19.33,22.68c-3.28,3.74-6.6,7.42-9.56,11.43
			c-4.47,6.05-9.32,11.44-16.82,14.19c-5.11,1.87-7.79,7.23-10.9,11.31c-3.24,4.25-5.75,4.17-9.39,1.62
			C164.26,198.84,162.95,197.82,161.13,198.09z"/>
		<path class="st7" d="M143.16,140.04c1.42-1.05,0.78-2.6,0.95-3.95c2.16,0,4.34-0.2,6.47,0.04c7.25,0.8,13.8-0.31,18.85-6.18
			c2.04-2.37,4.12-4.7,6.3-6.94c6.36-6.52,10.68-14.22,13.4-22.86c8.33-0.01,16.66-0.01,24.99-0.02
			c-1.35,8.67-5.59,16.07-10.65,22.97c-2.12,2.89-2.94,7.21-7.39,8.02c-4.24-4.2-6.32-4.05-8.65,1.38c-1.78,4.14-4.43,6.2-8.86,6.58
			c-5.49,0.47-6.47,2.4-4.41,7.94c-0.52,1.35-1.64,2.11-2.92,2.47c-7.72,2.21-15.52,4.43-23.63,3.16c-2.91-0.46-3.43,0.27-3.54,2.8
			c-0.1,2.21,0.91,4.64-0.92,6.62C143.15,154.72,143.16,147.38,143.16,140.04z"/>
		<path class="st14" d="M189.12,100.14c-2.72,8.64-7.04,16.34-13.4,22.86c-2.18,2.24-4.26,4.57-6.3,6.94
			c-5.05,5.87-11.6,6.98-18.85,6.18c-2.13-0.23-4.31-0.04-6.47-0.04c0-10.6,0.11-21.21-0.06-31.81c-0.05-3.29,1.09-4.27,4.3-4.23
			C161.95,100.2,175.54,100.13,189.12,100.14z"/>
		<path class="st2" d="M98.04,131.24c-2.75-4.71-5.76-9.29-8.17-14.17c-1.69-3.44-0.7-7.24,0.96-10.47
			c3.56-6.92,7.29-13.78,11.36-20.41c2.57-4.2,6.76-6.2,11.81-6.16c5.98,0.04,11.96,0.13,17.93-0.03
			c6.11-0.16,10.56,2.59,13.65,7.58c2.09,3.37,3.75,7,5.6,10.51c-12.57,0.01-25.14,0.02-37.71,0.05c-6.86,0.01-8.05,1.16-8.38,7.95
			c-4.72,1.41-4.05,5.72-4.99,9.2C98.69,120.51,100,126.09,98.04,131.24z"/>
		<path class="st0" d="M143.16,140.04c-0.01,7.34-0.02,14.68-0.03,22.02c-0.01,0.66-0.02,1.32-0.03,1.99
			c-14.51-0.19-25.54-6.4-32.92-18.97c4.55,0.48,8.6-2.12,13.07-2.11l-0.03-0.02c-0.04,3.15,2.4,4.14,4.69,4.88
			c1.98,0.64,2.99-0.73,3.22-2.65c0.91-1.57,1.02-3.32,1.13-5.07c3.81-2.02,5.79-6.86,10.81-7.01
			C143.11,135.41,143.14,137.73,143.16,140.04z"/>
		<path class="st12" d="M132.27,140.11c-0.12,1.75-0.23,3.5-1.13,5.07c-2.96,0.42-5.48-0.74-7.91-2.23c0,0,0.03,0.02,0.02,0.02
			c-2-4.36-5.75-7.84-6.5-12.84c-0.18-2.34-0.37-4.67-0.55-7.01c1.48-3.58,0.38-7.31,0.67-10.96c0.7-0.97,1.39-1.93,2.09-2.9
			c4.39,0.26,9.08-1.35,12.94,2.12c0.12,4.24,0.24,8.47,0.35,12.71C132.26,129.44,132.27,134.77,132.27,140.11z"/>
		<path class="st9" d="M196.07,131.11c4.45-0.81,5.27-5.14,7.39-8.02c5.06-6.89,9.3-14.3,10.65-22.97c3.66,0,7.33,0,10.99,0
			c-2.74,13.48-9.88,24.81-17.56,35.86c-0.64,0.91-1.72,1.52-2.59,2.26C199.65,138.78,197.28,135.67,196.07,131.11z"/>
		<path class="st14" d="M267.55,128.94c-0.08-4.28-0.2-8.56-0.25-12.84c-0.07-5.93-0.94-6.91-6.88-6.91c-2.45,0-4.89,0.43-7.34,0.67
			c0.04-1.15,0.02-2.3,0.13-3.45c0.44-4.58,2.37-7.06,7.58-6.42c4.05,0.5,8.2,0.09,12.31,0.09c-0.51,4.74-1.46,9.23-4.17,13.41
			c-2.02,3.12-0.57,7.06-0.72,10.63C267.92,125.72,268.61,127.45,267.55,128.94z"/>
		<path class="st12" d="M98.04,131.24c1.96-5.15,0.65-10.73,2.06-15.96c0.94-3.47,0.27-7.79,4.99-9.2c0.13,2.7,0.25,5.4,0.37,8.1
			c-0.28,3.65-0.46,7.29,0.09,10.93c-0.68,2.06,0.05,4,0.47,5.97c-0.67,4.67,1.77,8.61,3.02,12.83c-3.69,0.09-5.13-3.33-7.73-4.94
			C100.23,136.4,99.14,133.82,98.04,131.24z"/>
		<path class="st7" d="M132.26,124.1c-0.12-4.24-0.24-8.47-0.35-12.71c2.45-3.55,6.23-6.38,6.21-11.29
			c3.67-0.55,5.44,0.64,5.06,4.73c-0.34,3.73-0.08,7.51-0.09,11.26c-2.3,0.03-3.24,2.04-4.75,3.24
			C136.33,120.95,135.18,123.65,132.26,124.1z"/>
		<path class="st9" d="M132.26,124.1c2.92-0.45,4.08-3.15,6.09-4.76c1.5-1.2,2.45-3.21,4.75-3.24c0,5.67-0.01,11.34-0.01,17
			c-5.02,0.15-7,4.99-10.81,7.01C132.27,134.77,132.26,129.44,132.26,124.1z"/>
		<path class="st14" d="M251.33,111.96c0.08,0.3,0.06,0.59-0.04,0.88c-0.1,4.76-0.19,9.52-0.29,14.28
			c-3.94-0.25-6.72,3.77-10.81,2.96c-0.02-0.66-0.04-1.32-0.07-1.99c0.53-3.65-1.08-7.48,0.95-10.99
			C245.69,117.78,247.38,112.62,251.33,111.96z"/>
		<path class="st14" d="M105.57,125.11c-0.55-3.64-0.38-7.28-0.1-10.93c4.03,0.63,7.31-3,11.4-2.02c-0.29,3.65,0.82,7.38-0.67,10.96
			C112.51,123.01,109.35,125.72,105.57,125.11z"/>
		<path class="st14" d="M138.12,100.1c0.01,4.91-3.76,7.73-6.21,11.29c-3.86-3.48-8.55-1.86-12.94-2.12
			C125.84,100.04,125.84,100.04,138.12,100.1z"/>
		<path class="st7" d="M240.18,130.07c4.1,0.82,6.87-3.21,10.82-2.96c0.03,5.66,0.06,11.32,0.09,16.98c-3.56-0.51-6.49,2.06-9.96,2
			c-0.59-3.89,0.88-7.96-1-11.75C240.15,132.93,240.17,131.5,240.18,130.07z"/>
		<path class="st5" d="M222.09,238.15c0.29,0.31,0.59,0.62,0.88,0.92C222.68,238.77,222.38,238.46,222.09,238.15z"/>
		<path class="st9" d="M241.13,146.1c3.47,0.06,6.4-2.51,9.96-2c0.59,0.38,1.18,0.75,1.77,1.13c0,0,0.12,0.14,0.12,0.13
			c0.4,0.89,0.79,1.78,1.19,2.67c-3.96,2.6-8.24,4.17-13.04,4.09C241.13,150.11,241.13,148.11,241.13,146.1z"/>
		<path class="st4" d="M254.17,148.03c-0.4-0.89-0.79-1.78-1.19-2.67c1.76,0.01,3.53,0.02,5.3,0.04
			C257.63,147.41,255.93,147.76,254.17,148.03z"/>
		<path class="st4" d="M260.4,143.2c-0.12-0.62,0.18-0.93,0.76-1.04C260.91,142.51,260.65,142.86,260.4,143.2z"/>
		<path class="st4" d="M259.42,144.21c-0.1-0.64,0.18-0.91,0.82-0.83C259.96,143.66,259.69,143.93,259.42,144.21z"/>
		<path class="st4" d="M258.42,145.22c-0.09-0.63,0.18-0.91,0.82-0.82C258.96,144.67,258.69,144.94,258.42,145.22z"/>
		<path class="st9" d="M143.11,164.04c0.01-0.66,0.02-1.32,0.03-1.99c1.83-1.98,0.82-4.41,0.92-6.62c0.11-2.54,0.63-3.26,3.54-2.8
			c8.11,1.27,15.91-0.95,23.63-3.16c1.28-0.37,2.39-1.12,2.92-2.47c4.08,2.42,5.7,5.9,4.97,10.65c-0.32,2.06,0.03,4.22,0.07,6.33
			c-2.34,3.23-6.62,4.93-7.31,9.5c-0.17,1.09-1.13,2.24-0.61,3.3c2.23,4.55-0.54,7.95-3.21,10.53c-3.17,3.05-6.05,7.85-11.91,5.78
			c-0.76-0.42-1.53-0.85-2.29-1.27c-3.46-4.63-5.83-9.88-8.49-14.96c-0.11-2.86-2.07-2.88-4.2-2.83
			c-12.9,0.27-25.78-0.33-38.66-0.92c-7.96-0.36-14.88-4.8-16.43-10.97c9.43,10.26,21.88,8.95,34.01,8.89
			c7.1,0.56,14.27-0.8,21.34,0.89c2.35,0.56,2.87-1.13,2.63-3.03C143.84,167.27,143.43,165.66,143.11,164.04z"/>
		<path class="st6" d="M143.11,164.04c0.32,1.62,0.74,3.22,0.94,4.86c0.24,1.9-0.28,3.59-2.63,3.03
			c-7.07-1.69-14.24-0.33-21.34-0.89c0.28-2.13-0.96-3.15-2.56-4.35c-8.06-6.12-12.4-14.91-16.57-23.78
			c-0.63-1.33-1.46-2.78,0.37-3.92c2.6,1.61,4.04,5.03,7.73,4.94c0.38,0.39,0.75,0.77,1.13,1.16
			C117.56,157.64,128.6,163.86,143.11,164.04z"/>
		<path class="st1" d="M86.07,162.14c1.55,6.16,8.47,10.6,16.43,10.97c12.88,0.59,25.76,1.19,38.66,0.92
			c2.12-0.05,4.09-0.03,4.2,2.83c-14.76,0.68-29.48-0.95-44.24-1c-8.2-0.03-14.6-5.44-18.72-12.4
			c-7.02-11.83-13.64-23.9-20.09-36.05c-2.92-5.51-3.59-11.52-0.9-17.5c-0.24,7.86,3.29,14.52,6.76,21.21
			c-0.11,1.47-0.01,2.8,1.88,3.03c1.13,1.1,1.71,2.49,2.09,3.98c-0.09,1.46,0.03,2.79,1.89,3.05c2.37,4.32,4.74,8.64,7.11,12.95
			c-0.08,1.46,0.03,2.79,1.89,3.05C84.04,158.82,85.06,160.48,86.07,162.14z"/>
		<path class="st9" d="M70.05,134.14c-1.89-0.22-1.99-1.56-1.88-3.03C69.49,131.69,70.14,132.68,70.05,134.14z"/>
		<path class="st9" d="M74.03,141.16c-1.86-0.25-1.97-1.59-1.89-3.05C73.49,138.69,74.15,139.69,74.03,141.16z"/>
		<path class="st9" d="M83.03,157.16c-1.86-0.25-1.97-1.59-1.89-3.05C82.49,154.69,83.15,155.69,83.03,157.16z"/>
		<path class="st6" d="M153.85,191.82c0.76,0.42,1.53,0.85,2.29,1.27c-0.11,2.33,2.23,3.16,3.02,4.94
			c-6.19,1.43-13.54-1.26-16.07-5.87C146.68,192.04,150.27,191.93,153.85,191.82z"/>
		<path class="st8" d="M179.19,163.99c-0.04-2.11-0.39-4.27-0.07-6.33c0.73-4.76-0.89-8.23-4.97-10.65
			c-2.05-5.54-1.08-7.47,4.41-7.94c4.43-0.38,7.08-2.44,8.86-6.58c2.33-5.43,4.4-5.58,8.65-1.38c1.21,4.56,3.58,7.67,8.88,7.13
			c1.33,0.62,2.81,1.03,3.96,1.89c2.1,1.56,3.21,3.74,0.79,5.77c-4.44,3.72-6.45,7.72-4.77,13.83c1.18,4.29-2.33,6.64-6.35,4.55
			c-4.8-2.49-9.17-3.26-13.81,0.33C183.08,165.91,180.96,165.13,179.19,163.99z"/>
		<path class="st9" d="M110.19,145.07c-0.38-0.39-0.75-0.77-1.13-1.16c-1.25-4.22-3.69-8.16-3.02-12.83
			c3.66,0.63,7.09-1.32,10.72-0.96c0.75,5,4.5,8.47,6.5,12.84C118.79,142.95,114.74,145.55,110.19,145.07z"/>
		<path class="st9" d="M123.23,142.94c2.42,1.49,4.94,2.65,7.91,2.23c-0.22,1.92-1.24,3.29-3.22,2.65
			C125.63,147.08,123.2,146.1,123.23,142.94z"/>
		<path class="st7" d="M116.76,130.13c-3.63-0.37-7.06,1.59-10.72,0.96c-0.42-1.97-1.15-3.91-0.47-5.97
			c3.79,0.6,6.95-2.1,10.64-1.99C116.39,125.46,116.57,127.79,116.76,130.13z"/>
		<path class="st4" d="M252.86,145.23c-0.59-0.38-1.18-0.75-1.77-1.13c-0.03-5.66-0.06-11.32-0.09-16.98
			c0.1-4.76,0.19-9.52,0.29-14.28c1.65,7.82,0.36,15.74,0.77,23.6C252.21,139.38,251.7,142.38,252.86,145.23z"/>
	</g>
</g>
</svg>
