<?xml version="1.0" encoding="utf-8"?>
<!-- Generator: Adobe Illustrator 23.0.3, SVG Export Plug-In . SVG Version: 6.00 Build 0)  -->
<svg version="1.1" id="Layer_1" xmlns="http://www.w3.org/2000/svg" xmlns:xlink="http://www.w3.org/1999/xlink" x="0px" y="0px"
	 viewBox="0 0 271 241.73" style="enable-background:new 0 0 271 241.73;" xml:space="preserve">
<style type="text/css">
	.st0{display:none;}
	.st1{display:inline;}
	.st2{fill:#FDFDFE;}
	.st3{fill:#8232F9;}
	.st4{fill:#8436F9;}
	.st5{fill:#A266FB;}
	.st6{fill:#A76EFB;}
	.st7{fill:#FAF9FD;}
	.st8{fill:#C09AF8;}
	.st9{fill:#AD79FB;}
	.st10{fill:#8130FA;}
	.st11{fill:#8C43F9;}
	.st12{fill:#883CFA;}
	.st13{fill:#742BEA;}
	.st14{fill:#802DFA;}
	.st15{fill:#AA73FB;}
	.st16{fill:#A56BFB;}
	.st17{fill:#7B2EF2;}
	.st18{fill:#7F36F0;}
	.st19{fill:#9D5EFA;}
	.st20{fill:#9755FA;}
	.st21{fill:#914BFA;}
	.st22{fill:#7833EA;}
	.st23{fill:url(#SVGID_1_);}
	.st24{fill:url(#SVGID_2_);}
	.st25{fill:url(#SVGID_3_);}
	.st26{fill:url(#SVGID_4_);}
	.st27{fill:url(#SVGID_5_);}
	.st28{fill:url(#SVGID_6_);}
	.st29{fill:url(#SVGID_7_);}
	.st30{fill:url(#SVGID_8_);}
</style>
<g class="st0">
	<g class="st1">
		<path class="st2" d="M246,240.64c-80.22,0-160.43-0.02-240.65,0.07c-3.31,0-4.5-0.3-4.48-4.21C1.1,205.22,1,173.93,1,142.64
			c0.61,0.69,1.23,1.37,1.84,2.06c0.07,0.66,0.03,1.34,0.21,1.96c4.77,15.71,15.13,25.89,30.88,30.24c3.39,0.94,4.06,2.29,4,5.4
			c-0.18,8.31-0.07,16.63-0.06,24.95c0,3.54,0.92,6.84,4.47,8.18c3.36,1.27,6.84,0.84,9.59-1.82c12.33-11.88,24.62-23.8,36.93-35.71
			c1.98,0.07,3.96,0.17,5.94,0.21c11.06,0.2,22.12,0.39,33.19,0.58c0.01,0.65,0.02,1.3,0.03,1.95c0.17,3.34,0.34,6.68,0.51,10.02
			c0.56,6.15,2.69,11.48,7.92,15.2c1.8,1.68,3.59,3.35,5.39,5.03c3.43,1.24,6.86,2.49,10.29,3.73c0.84,0.07,1.67,0.13,2.51,0.19
			c1.97,0.15,3.93,0.44,5.9,0.44c14.9,0.04,29.79,0.05,44.69,0.01c5.62-0.01,11.23-0.19,16.85-0.29
			c5.11,5.41,10.23,10.8,15.31,16.23C240.3,234.33,243.13,237.5,246,240.64z"/>
		<path class="st2" d="M193,1.64c25.33,0,50.67,0.04,76-0.07c2.5-0.01,3.07,0.56,3.06,3.07c-0.09,42-0.06,84-0.06,126
			c-0.66-0.82-1.46-1.57-1.95-2.48c-1.48-2.79-2.84-5.64-4.24-8.47c-0.6-0.69-1.19-1.37-1.79-2.06c-0.67-0.67-1.34-1.34-2.01-2.01
			c-0.76-0.99-1.36-2.19-2.31-2.95c-5.43-4.35-11.94-5.46-18.62-5.77c-5.08-0.24-5.11-0.14-5.11-5.2
			c-0.01-18.43,0.03-36.87-0.05-55.3c-0.01-2.24-0.62-4.47-0.94-6.71c-0.06-0.49-0.1-0.98-0.17-1.47c-0.37-2.38-0.34-4.8-3.96-2.26
			c-2.71,1.9-4.47,0.53-4.75-2.88c-0.21-2.54,0-5.4-1.12-7.51c-1.45-2.75-3.77-4.93-1.31-8.22c0.15-0.2-0.61-1.08-0.95-1.64
			c-0.27-0.18-0.53-0.36-0.8-0.55c-0.48-0.47-0.96-0.94-1.44-1.41c-0.19-0.17-0.37-0.34-0.56-0.51c-0.11-0.2-0.29-0.32-0.51-0.36
			c-0.46-0.39-0.93-0.79-1.39-1.18c-0.39-0.33-0.77-0.65-1.16-0.98c-4.59-2.31-9.09-4.82-13.81-6.84c-1.76-0.75-4.01-0.34-6.04-0.46
			c-1.32-0.11-2.65-0.22-3.97-0.34C193,2.61,193,2.13,193,1.64z"/>
		<path class="st3" d="M265.81,119.69c1.41,2.83,2.76,5.68,4.24,8.47c0.49,0.91,1.29,1.66,1.95,2.48c0,0.33,0,0.67,0,1
			c-0.33,1.19-0.95,2.38-0.96,3.57c-0.06,16.44-0.05,32.88,0.02,49.32c0.01,1.37,0.61,2.74,0.94,4.11c0,1.33,0,2.67,0,4
			c-0.38,0.26-0.99,0.45-1.1,0.79c-2.65,8.7-7.79,15.21-16.1,19.25c-1.08,0.52-1.89,2.59-1.96,3.99c-0.24,4.81-0.32,9.65-0.03,14.45
			c0.24,3.92-0.77,7.06-3.81,9.52c-1,0-2,0-3,0c-2.87-3.14-5.7-6.31-8.61-9.42c-5.08-5.43-10.21-10.82-15.31-16.23
			c-1.44-0.45-2.88-1.27-4.33-1.3c-6.91-0.14-13.83-0.07-20.75-0.07c0.59-0.65,1.09-1.76,1.79-1.89c9.39-1.85,17.21-7.12,24.2-12.94
			c10.06-8.37,18.97-18.12,25.81-29.47c2.46-4.08,5.31-8.01,5.34-13.18c0.01-1.34,1.19-2.67,1.84-3.99
			c0.65-1.33,1.61-2.59,1.92-3.99c2.1-9.81,4.07-19.65,6.08-29.48C264.59,119.02,265.2,119.36,265.81,119.69z"/>
		<path class="st4" d="M2.84,144.7c-0.61-0.69-1.23-1.37-1.84-2.06c0-0.67,0-1.33,0-2c0.37-3.66,0.73-7.33,1.1-10.99
			c2.77,0.33,5.53,0.73,8.3,0.98c11.63,1.06,22.92-1.83,34.35-3.14c3.83-0.44,4.77-2.46,3.92-6.49c-0.3-1.44-0.45-2.91-0.67-4.36
			c1.61,0.76,3.27,1.42,4.82,2.29c3.83,2.14,7.69,3.36,12.22,2.25c7.89-1.93,12.41-6.83,14.14-14.62c0.45-2.01,1.21-3.95,1.83-5.92
			c0.34,0.34,0.68,0.69,1.02,1.03c1.29,1.31,2.59,2.61,3.88,3.92c1.23-1.37,2.53-2.68,3.66-4.12c1.22-1.55,2.3-3.22,3.44-4.84
			c0.33,2,0.67,4,1,6c0,1.33,0,2.67,0,4c-0.67,2.49-1.6,4.94-1.95,7.47c-0.78,5.57-1.91,10.67-7.97,13.12
			c-3.93,1.59-7.58,3.87-11.48,5.57c-5.57,2.42-11.12,5.02-16.92,6.74c-5.49,1.64-11.41,1.83-16.92,3.41
			c-7.6,2.18-15.33,2.43-23.07,2.61C11.42,145.67,7.13,145.02,2.84,144.7z"/>
		<path class="st5" d="M1,43.64c0-0.67,0-1.33,0-2c1.58,0.46,3.16,0.89,4.73,1.37c19.8,6.1,38.43-4.88,42.27-25.29
			C48.8,13.51,48.04,9,48,4.63c4.15-0.18,8.29-0.36,12.44-0.55c1.17,0.07,2.35,0.15,3.52,0.22c2.28,9.69,0.58,18.87-3.18,27.94
			c-3.68,8.9-9.82,15.66-17.76,20.64c-7.3,4.57-15.13,8.22-24.15,7.75c-5.6-0.29-11.19-0.65-16.78-0.98
			c-0.02-3.15,0.07-6.31-0.11-9.45C1.85,48.01,1.34,45.83,1,43.64z"/>
		<path class="st6" d="M48,4.63C48.04,9,48.8,13.51,48,17.72C44.16,38.13,25.53,49.12,5.73,43.01C4.16,42.53,2.58,42.1,1,41.64
			c0-1,0-2,0-3c0.94-1.94,1.87-3.87,2.81-5.81c0.08-0.38,0.15-0.75,0.23-1.13c0.15-0.67,0.3-1.35,0.45-2.02
			c0.27-0.17,0.47-0.41,0.6-0.7c0.12-0.43,0.25-0.86,0.37-1.3c0.28-0.18,0.49-0.42,0.63-0.72c0,0,0.24-0.2,0.24-0.2
			c0.92-1.67,1.84-3.34,2.75-5.01l0.05-0.04c1.68-1.27,3.41-2.47,5.02-3.81c2.65-2.21,5-4.89,7.89-6.71
			C29.93,6.22,38.61,3.91,48,4.63z"/>
		<path class="st2" d="M249,240.64c3.05-2.47,4.06-5.61,3.81-9.52c-0.3-4.8-0.21-9.64,0.03-14.45c0.07-1.4,0.89-3.47,1.96-3.99
			c8.31-4.04,13.45-10.55,16.1-19.25c0.1-0.34,0.72-0.53,1.1-0.79c0,15.17-0.06,30.33,0.06,45.5c0.02,2.15-0.41,2.62-2.57,2.57
			C262.67,240.53,255.83,240.64,249,240.64z"/>
		<path class="st2" d="M3.81,32.84C2.87,34.77,1.94,36.71,1,38.64c0-11.5,0.07-23-0.06-34.5C0.91,1.99,1.35,1.56,3.5,1.58
			C17,1.71,30.5,1.64,44,1.64c0,0.29,0,0.58-0.01,0.86C36.23,2.38,29.07,4.51,22.5,8.55c-5.45,3.35-10.58,7.09-13.36,13.18
			l-0.05,0.04c-0.92,1.67-1.84,3.34-2.75,5.01c0,0-0.24,0.2-0.24,0.2c-0.21,0.24-0.42,0.48-0.63,0.72c-0.12,0.43-0.25,0.86-0.37,1.3
			c-0.2,0.23-0.4,0.47-0.6,0.7c-0.15,0.67-0.3,1.35-0.45,2.02C3.96,32.08,3.89,32.46,3.81,32.84z"/>
		<path class="st7" d="M43.99,2.51c0-0.29,0-0.58,0.01-0.86c49.67,0,99.33,0,149,0c0,0.49,0,0.97,0,1.46
			c-0.43,0.22-0.95,0.71-1.29,0.61c-7.31-2.1-14.54,0.11-21.8,0.37c-6.67-1.57-13.35-2.33-20.02,0.02
			c-5.16-1.11-10.33-2.05-15.58-0.55c-1.19-0.32-2.38-0.91-3.58-0.91c-17.48-0.04-34.96-0.01-52.45,0.04
			c-1.13,0-2.26,0.33-3.38,0.51c-3.65,0.37-7.3,0.74-10.94,1.11c-1.17-0.07-2.35-0.15-3.52-0.22c-1.4-0.5-2.79-1.36-4.21-1.43
			C52.16,2.43,48.07,2.53,43.99,2.51z"/>
		<path class="st8" d="M1,43.64c0.34,2.19,0.85,4.37,0.98,6.57c0.18,3.14,0.09,6.3,0.11,9.45c0.01,3.67,0.01,7.33,0.02,11
			c-0.01,6.67-0.01,13.33-0.02,20c0,4,0,8,0.01,12c0,4.33,0,8.67,0,13c0,4.67,0,9.33,0,14c-0.37,3.66-0.73,7.33-1.1,10.99
			C1,108.31,1,75.98,1,43.64z"/>
		<path class="st9" d="M272,188.64c-0.33-1.37-0.94-2.74-0.94-4.11c-0.07-16.44-0.08-32.88-0.02-49.32c0-1.19,0.62-2.38,0.96-3.57
			C272,150.64,272,169.64,272,188.64z"/>
		<path class="st10" d="M2.84,144.7c4.28,0.31,8.57,0.97,12.84,0.86c7.74-0.18,15.48-0.43,23.07-2.61
			c5.51-1.58,11.43-1.78,16.92-3.41c5.8-1.73,11.35-4.32,16.92-6.74c3.9-1.69,7.55-3.98,11.48-5.57c6.06-2.44,7.19-7.55,7.97-13.12
			c0.35-2.53,1.28-4.98,1.95-7.47c0.33,3.36,0.76,6.71,0.98,10.08c0.89,13.17,11.15,21.59,23.57,18.17
			c2.83-0.78,5.68-1.49,8.52-2.23c0.03,2.32,0.05,4.64,0.08,6.96c-0.01,3.33-0.02,6.66-0.03,9.99c-0.01,3-0.03,6-0.04,9
			c-0.01,2.67-0.02,5.34-0.04,8c-0.01,2.34-0.02,4.67-0.03,7.01c-0.01,1-0.02,2-0.02,3.01c-11.06,0-22.12-0.05-33.17,0.06
			c-1.65,0.02-3.3,0.78-4.95,1.2c-12.31,11.91-24.6,23.83-36.93,35.71c-2.76,2.66-6.23,3.09-9.59,1.82
			c-3.56-1.34-4.47-4.64-4.47-8.18c-0.01-8.32-0.12-16.64,0.06-24.95c0.07-3.1-0.61-4.46-4-5.4c-15.75-4.35-26.11-14.53-30.88-30.24
			C2.87,146.05,2.91,145.36,2.84,144.7z"/>
		<path class="st10" d="M263.99,118.69c-2.01,9.83-3.98,19.67-6.08,29.48c-0.3,1.4-1.26,2.66-1.92,3.99
			c-0.65,1.33-1.83,2.66-1.84,3.99c-0.03,5.17-2.88,9.1-5.34,13.18c-6.85,11.35-15.75,21.1-25.81,29.47
			c-6.99,5.81-14.81,11.08-24.2,12.94c-0.69,0.14-1.2,1.24-1.79,1.89c-13.25,0-26.5,0.05-39.75-0.03c-2.11-0.01-4.22-0.47-6.31-0.85
			c-3.05-0.56-6.07-1.23-9.1-1.86c-1.8-1.68-3.59-3.35-5.39-5.03c1.66-0.06,3.35-0.35,4.97-0.14c13.57,1.8,26.99,1.44,40.34-1.87
			c12.1-3,22.7-8.83,32.81-15.91c3.79-2.66,5.92-5.66,5.42-10.31c1.52,0.6,3.08,1.13,4.56,1.81c7.72,3.57,16.13-1.34,16.39-9.79
			c0.19-6.4,0.68-12.89-1.95-19.02c5.46,0.84,5.43,0.83,7.58-4.12c3.85-8.86,4.45-18.36,5.43-27.78c0.25-2.42,0.69-4.82,1.04-7.23
			c2.98,1.37,5.97,2.75,8.95,4.12c0.67,0.67,1.34,1.34,2.01,2.01C264.01,117.99,264,118.34,263.99,118.69z"/>
		<path class="st4" d="M220,177.64c0.5,4.65-1.63,7.66-5.42,10.31c-10.11,7.08-20.72,12.91-32.81,15.91
			c-13.35,3.31-26.77,3.67-40.34,1.87c-1.62-0.22-3.31,0.08-4.97,0.14c-5.22-3.72-7.35-9.05-7.92-15.2
			c2.43,0.35,4.87,0.63,7.29,1.06c5.16,0.93,10.28,2.35,15.48,2.82c11.68,1.07,22.99-1.12,34.03-4.88c6.51-2.21,6.64-2.38,6.66-9.04
			c0.63,0.15,1.29,0.21,1.88,0.46c7.38,3.15,11.24,1.76,15.12-5.47c0.96-0.96,2.58-1.81,2.75-2.89c0.69-4.21,3.01-4.39,6.23-3.1
			c0.34,1,0.67,2,1.01,3C219.34,174.31,219.67,175.98,220,177.64z"/>
		<path class="st11" d="M126.99,176.64c0.01-1,0.02-2,0.02-3.01c2.17,0.75,4.38,1.38,6.49,2.26c7.21,2.99,14.77,4.37,22.49,4.68
			c3.94,0.16,5.34-1.91,4.67-5.61c-0.37-2.08-0.47-4.22-0.68-6.33c0-3,0-6,0-9c0-0.66,0.01-1.33,0.01-1.99c0.99,0,1.97,0,2.96,0
			c0.04,2.98,0.09,5.96,0.13,8.93c-1.39,3.43-0.37,6.37,3.41,8.99c2.54,1.76,5.36,1.75,7.91,0.06c3.7-2.45,4.96-6.35,3.52-10.03
			c0.02-3.65,0.03-7.31,0.05-10.96c0.67,0.75,1.76,1.42,1.93,2.27c0.56,2.73,0.57,5.59,1.23,8.29c0.36,1.49,1.6,2.77,2.44,4.14
			c1.04-0.71,2.08-1.41,3.12-2.12c0.77-0.52,1.53-1.05,2.29-1.58c0,3.33,0.01,6.67,0.01,10c-2.71,2.3-5.22,4.93-8.21,6.79
			c-1.85,1.15-4.41,1.25-6.68,1.63c-5.52,0.92-11.04,2.3-16.59,2.46c-10.19,0.29-19.84-2.97-29.49-5.87
			c-0.01-0.65-0.02-1.3-0.03-1.95C127.66,178.01,127.33,177.33,126.99,176.64z"/>
		<path class="st12" d="M128.03,180.65c9.65,2.91,19.29,6.16,29.49,5.87c5.55-0.16,11.07-1.54,16.59-2.46
			c2.27-0.38,4.83-0.48,6.68-1.63c2.99-1.86,5.5-4.49,8.21-6.79c1,1.67,2,3.33,3,5c-0.02,6.65-0.15,6.82-6.66,9.04
			c-11.04,3.76-22.35,5.95-34.03,4.88c-5.2-0.48-10.31-1.9-15.48-2.82c-2.42-0.43-4.86-0.71-7.29-1.06
			C128.37,187.33,128.2,183.99,128.03,180.65z"/>
		<path class="st13" d="M141.84,210.9c3.03,0.62,6.06,1.3,9.1,1.86c2.09,0.38,4.21,0.84,6.31,0.85c13.25,0.07,26.5,0.03,39.75,0.03
			c6.92,0,13.84-0.07,20.75,0.07c1.45,0.03,2.89,0.84,4.33,1.3c-5.62,0.1-11.23,0.27-16.85,0.29c-14.9,0.04-29.79,0.03-44.69-0.01
			c-1.97-0.01-3.94-0.29-5.9-0.44c-0.84-0.06-1.67-0.13-2.51-0.19C148.7,213.39,145.27,212.15,141.84,210.9z"/>
		<path class="st13" d="M126.99,176.64c0.33,0.68,0.67,1.37,1,2.05c-11.06-0.19-22.12-0.38-33.19-0.58
			c-1.98-0.04-3.96-0.14-5.94-0.21c1.65-0.42,3.29-1.19,4.95-1.2C104.88,176.59,115.94,176.64,126.99,176.64z"/>
		<path class="st3" d="M152.13,214.64c0.84,0.07,1.67,0.13,2.51,0.19C153.8,214.77,152.97,214.7,152.13,214.64z"/>
		<path class="st14" d="M169.9,4.08c7.26-0.26,14.49-2.47,21.8-0.37c0.34,0.1,0.86-0.39,1.29-0.61c1.32,0.11,2.65,0.22,3.97,0.34
			c1.25,0.65,2.45,1.44,3.76,1.92c4.26,1.56,8.55,3.02,12.84,4.49c1.06,0.36,2.17,0.6,3.25,0.89c0.39,0.33,0.77,0.65,1.16,0.98
			c0.46,0.39,0.93,0.79,1.39,1.18c0.23,0.04,0.4,0.16,0.51,0.36c0.14,0.22,0.33,0.39,0.56,0.51c0.48,0.47,0.96,0.94,1.44,1.41
			c0.2,0.28,0.47,0.46,0.8,0.55c0.34,0.56,1.1,1.44,0.95,1.64c-2.45,3.29-0.14,5.47,1.31,8.22c1.12,2.12,0.91,4.97,1.12,7.51
			c0.28,3.41,2.04,4.79,4.75,2.88c3.62-2.54,3.59-0.13,3.96,2.26c0.08,0.49,0.12,0.98,0.17,1.47c0,21.07,0.02,42.13,0.01,63.2
			c0,4.68-0.04,4.7-4.55,4.72c-6.47,0.02-12.94,0-19.41,0c-5.33,0-10.66,0.01-16,0.01c-4.67-0.11-9.34-0.21-14.01-0.32
			c0.5-1.56,0.91-3.14,1.5-4.67c3.46-8.95,3.24-17.74-1.19-26.31c-1.22-2.36-2.54-4.78-5.85-4.54c-5.95-8.2-12.71-7.34-21.24-2.08
			c-0.13-0.78-0.66-1.98-0.34-2.27c1.8-1.67,3.99-2.94,5.68-4.69c1.99-2.06,4.14-4.25,5.27-6.81c1.36-3.1,1.75-6.63,2.51-9.99
			c0.58-2.56,1.48-5.11,1.58-7.7C169.38,26.87,169.6,15.47,169.9,4.08z"/>
		<path class="st15" d="M211,107.62c6.47,0,12.94,0.02,19.41,0c4.51-0.02,4.55-0.04,4.55-4.72c0.01-21.07,0-42.13-0.01-63.2
			c0.33,2.24,0.94,4.47,0.94,6.71c0.08,18.43,0.04,36.86,0.05,55.3c0,5.07,0.03,4.97,5.11,5.2c6.69,0.31,13.19,1.42,18.62,5.77
			c0.95,0.76,1.55,1.96,2.31,2.95c-2.98-1.37-5.97-2.75-8.95-4.12c-3.36-0.64-6.71-1.27-10.07-1.91c-3,0-6,0-9,0.01
			c-3,0.01-6,0.01-9,0.02c-2.67,0-5.33,0.01-8,0.01c-2-0.32-3.99-0.65-5.99-0.97C211.01,108.32,211,107.97,211,107.62z"/>
		<path class="st16" d="M216.82,10.73c-1.08-0.29-2.19-0.53-3.25-0.89c-4.29-1.47-8.58-2.93-12.84-4.49
			c-1.31-0.48-2.51-1.27-3.76-1.92c2.03,0.12,4.28-0.29,6.04,0.46C207.73,5.91,212.23,8.42,216.82,10.73z"/>
		<path class="st15" d="M263.99,118.69c0.01-0.35,0.02-0.7,0.03-1.05c0.6,0.69,1.19,1.37,1.79,2.06
			C265.2,119.36,264.59,119.02,263.99,118.69z"/>
		<path class="st16" d="M219.37,12.89c-0.46-0.39-0.93-0.79-1.39-1.18C218.45,12.11,218.91,12.5,219.37,12.89z"/>
		<path class="st16" d="M220.45,13.77c-0.23-0.12-0.41-0.3-0.56-0.51C220.07,13.42,220.26,13.59,220.45,13.77z"/>
		<path class="st16" d="M222.69,15.72c-0.34-0.08-0.6-0.26-0.8-0.55C222.16,15.35,222.42,15.54,222.69,15.72z"/>
		<path class="st12" d="M2.1,129.65c0-4.67,0-9.33,0-14c3.27,0.33,6.54,0.98,9.8,0.92c6.09-0.1,12.22-0.31,18.25-1.06
			c4.24-0.53,9.43-0.58,10.69-6.15c0.95-4.19,1.92-2.45,3.42-0.48c0.33,0.44,1.14,0.52,1.73,0.76c0.67,2.33,1.34,4.67,2.01,7
			c0.22,1.46,0.36,2.93,0.67,4.36c0.85,4.03-0.09,6.05-3.92,6.49c-11.42,1.3-22.71,4.19-34.35,3.14
			C7.62,130.38,4.86,129.98,2.1,129.65z"/>
		<path class="st17" d="M127.08,132.67c-2.84,0.74-5.69,1.45-8.52,2.23c-12.42,3.42-22.69-5-23.57-18.17
			c-0.23-3.37-0.65-6.72-0.98-10.08c0-1.33,0-2.67,0-4c0.67,0,1.33,0,2,0c0.67,1.33,1.33,2.67,2,4c0.93,5.17,1.43,10.46,2.9,15.47
			c1.71,5.82,6.82,8.1,12.31,8.4c5.67,0.31,10.53-2.21,12.64-7.79c1.55-4.1,2.97-8.55,3-12.85c0.08-14.03-0.48-28.06-0.88-42.08
			c-0.07-2.36,0.14-5.06-2.86-6.15c-0.05-2.34-0.11-4.67-0.16-7.01c1.35,0.67,2.71,1.34,4.06,2.01c3.42,8.6,4.1,17.57,4.08,26.75
			c-0.03,9.94,0.56,19.88,0.96,29.81c0.04,1.11,0.61,2.2,0.93,3.29c-0.66,1.04-1.32,2.07-1.98,3.11c-0.39,0.68-0.78,1.36-1.17,2.03
			c-0.95,2-1.9,4-2.84,6.01C128.34,129.32,127.71,131,127.08,132.67z"/>
		<path class="st18" d="M48,116.64c-0.67-2.33-1.34-4.67-2.01-7c0.33-3.33,0.66-6.67,0.99-10c0.34,1.37,0.87,2.72,0.98,4.11
			c0.54,6.39,5.96,12.47,11.64,12.9c8.07,0.6,14.26-3.06,15.26-10.6c1.08-8.12,0.81-16.44,0.78-24.68
			c-0.01-1.58-1.64-3.15-2.52-4.72c0-2.33-0.01-4.66-0.01-7c4.46,1.36,5.25,5.13,5.88,8.99c0.67,7.33,1.33,14.66,2,22
			c-0.62,1.97-1.38,3.91-1.83,5.92c-1.73,7.79-6.25,12.69-14.14,14.62c-4.53,1.11-8.39-0.11-12.22-2.25
			C51.27,118.06,49.61,117.4,48,116.64z"/>
		<path class="st12" d="M81,100.64c-0.67-7.33-1.33-14.66-2-22c3.83,0.86,2.55,5.01,4.54,7.05c0.97,0.99,2.02,1.9,3.03,2.85
			c0.81-0.96,2.04-1.8,2.35-2.9c1.5-5.35,2.68-10.79,4.1-16.17c0.83-3.14,0.28-6.95,3.97-8.82c-2.95,11.82-3.17,23.94-4,36
			c-1.14,1.62-2.21,3.29-3.44,4.84c-1.14,1.44-2.43,2.75-3.66,4.12c-1.29-1.31-2.59-2.61-3.88-3.92
			C81.68,101.33,81.34,100.99,81,100.64z"/>
		<path class="st18" d="M93,96.64c0.82-12.06,1.04-24.18,4-36c0.34-1.33,0.67-2.67,1.01-4c1.02,0,2.05-0.01,3.07-0.01
			c0,2.67-0.01,5.34-0.01,8c-3.49,0.75-2.7,4.06-2.88,6.02c-1.01,10.63-1.5,21.32-2.17,31.98c-0.67,0-1.33,0-2,0
			C93.67,100.64,93.33,98.64,93,96.64z"/>
		<path class="st19" d="M2.1,70.66c-0.01-3.67-0.01-7.33-0.02-11c5.59,0.33,11.19,0.68,16.78,0.98c9.02,0.47,16.86-3.18,24.15-7.75
			c7.94-4.98,14.07-11.74,17.76-20.64c3.75-9.07,5.46-18.24,3.18-27.94c3.65-0.37,7.3-0.74,10.94-1.11
			c0.37,0.49,0.74,0.98,1.11,1.47c0.61,11.02-0.26,21.86-5.17,31.93c-3.76,7.72-7.75,15.28-16.68,18.7
			c-3.57,1.37-6.61,4.17-9.78,6.47c-2.53,1.83-4.62,4.6-7.4,5.7c-4.83,1.9-9.99,3.61-15.12,3.98C15.33,71.92,8.69,70.99,2.1,70.66z"
			/>
		<path class="st8" d="M43.99,2.51c4.08,0.03,8.16-0.07,12.23,0.15c1.43,0.08,2.81,0.93,4.21,1.43C56.29,4.27,52.14,4.45,48,4.63
			c-9.39-0.73-18.07,1.59-25.95,6.57c-2.89,1.82-5.23,4.5-7.89,6.71c-1.61,1.34-3.34,2.55-5.02,3.81
			c2.78-6.09,7.91-9.83,13.36-13.18C29.07,4.51,36.23,2.38,43.99,2.51z"/>
		<path class="st8" d="M6.34,26.78c0.92-1.67,1.84-3.34,2.75-5.01C8.17,23.44,7.25,25.11,6.34,26.78z"/>
		<path class="st8" d="M3.81,32.84c0.08-0.38,0.15-0.75,0.23-1.13C3.96,32.08,3.89,32.46,3.81,32.84z"/>
		<path class="st8" d="M4.49,29.69c0.2-0.23,0.4-0.47,0.6-0.7C4.96,29.28,4.76,29.52,4.49,29.69z"/>
		<path class="st8" d="M5.46,27.69c0.21-0.24,0.42-0.48,0.63-0.72C5.95,27.28,5.74,27.52,5.46,27.69z"/>
		<path class="st10" d="M134.97,116.5c-0.32-1.1-0.89-2.19-0.93-3.29c-0.4-9.94-0.98-19.87-0.96-29.81
			c0.02-9.18-0.66-18.15-4.08-26.75c3.7,0.32,4.17,3.88,6,6.05c2.25,2.67,4.01,2.76,5.56-0.27c1.34-2.63,2.61-5.39,3.31-8.23
			c1.45-5.86,2.5-11.82,3.71-17.73c0.81-3.99,2.1-7.96,2.32-11.98c0.36-6.77,0.03-13.58,0-20.37c6.67-2.35,13.34-1.59,20.02-0.02
			c-0.31,11.39-0.52,22.79-0.98,34.18c-0.1,2.58-1,5.14-1.58,7.7c-0.77,3.36-1.15,6.89-2.51,9.99c-1.12,2.56-3.27,4.75-5.27,6.81
			c-1.69,1.75-3.88,3.02-5.68,4.69c-0.32,0.29,0.21,1.49,0.34,2.27c-0.1,0.64-0.2,1.28-0.31,1.93c-3.13-0.42-3.86,2.27-4.9,4.13
			c-5.9,10.55-5.82,21.33-0.85,32.21c-3.1,1.89-6.21,3.77-9.31,5.66c-0.67,0.59-1.34,1.18-2.02,1.77
			C136.21,115.77,135.59,116.14,134.97,116.5z"/>
		<path class="st4" d="M149.89,4.1c0.04,6.79,0.36,13.6,0,20.37c-0.21,4.02-1.5,7.99-2.32,11.98c-1.21,5.92-2.26,11.87-3.71,17.73
			c-0.7,2.85-1.97,5.61-3.31,8.23c-1.55,3.03-3.31,2.94-5.56,0.27c-1.83-2.17-2.3-5.73-6-6.05c-1.35-0.67-2.71-1.34-4.06-2.01
			c-0.99-1.98-1.98-3.97-2.96-5.95c0.86-0.69,1.64-1.84,2.58-1.98c5.34-0.79,6.65-4.72,7.42-9.11c1.91-10.91,2.34-21.91,2.02-32.96
			c0.1-0.36,0.21-0.73,0.31-1.09C139.56,2.05,144.73,2.99,149.89,4.1z"/>
		<path class="st16" d="M76.01,4.67c-0.37-0.49-0.74-0.98-1.11-1.47c1.13-0.18,2.25-0.51,3.38-0.51
			c17.48-0.05,34.96-0.08,52.45-0.04c1.19,0,2.38,0.59,3.58,0.91c-0.1,0.36-0.21,0.73-0.31,1.09c-4.33,0-8.67,0-13,0.01
			c-4.67,0-9.33,0.01-14,0.01c-4,0-8,0-12,0C88.68,4.66,82.35,4.67,76.01,4.67z"/>
		<path class="st20" d="M76.01,4.67c6.33,0,12.66-0.01,18.99-0.01c0,2.98-0.06,5.96,0,8.94c0.29,15.33-4.46,29.07-12.82,41.76
			c-1.9,2.88-3.94,4.56-7.6,4.4c-1.5-0.06-3.06,1.22-4.59,1.89c-7.03-6.14-18.12-4.66-20.39,5.99c-1.28,0.81-3.07,1.33-3.73,2.5
			c-2.38,4.14-4.78,8.35-6.39,12.82c-1.52,4.24-4.11,6.73-8.33,7.44c-3.89,0.65-7.85,1.17-11.78,1.15
			c-5.76-0.02-11.52-0.58-17.29-0.91c0.01-6.67,0.01-13.33,0.02-20c6.59,0.33,13.22,1.26,19.76,0.79
			c5.13-0.37,10.29-2.08,15.12-3.98c2.78-1.1,4.87-3.86,7.4-5.7c3.17-2.3,6.22-5.11,9.78-6.47c8.94-3.42,12.92-10.98,16.68-18.7
			C75.75,26.53,76.63,15.69,76.01,4.67z"/>
		<path class="st11" d="M46.98,99.64c-0.33,3.33-0.66,6.67-0.99,10c-0.59-0.24-1.4-0.32-1.73-0.76c-1.5-1.97-2.48-3.71-3.42,0.48
			c-1.26,5.58-6.45,5.63-10.69,6.15c-6.04,0.75-12.16,0.96-18.25,1.06c-3.26,0.06-6.53-0.59-9.8-0.92c0-4.33,0-8.67,0-13
			c3.27,0.33,6.55,0.97,9.82,0.92c5.94-0.09,11.88-1.02,17.79-0.8c5.08,0.2,7.88-2.05,9.35-6.37c2.44-7.15,4.77-14.34,6.84-21.6
			c0.61-2.14,1.35-3.27,3.58-3.15c-0.08,5.34-0.16,10.67-0.24,16.01c-1.46,0.05-3.21-0.4-3.23,1.99
			C46.33,92.98,46.66,96.31,46.98,99.64z"/>
		<path class="st21" d="M49.48,71.65c-2.24-0.12-2.98,1.02-3.58,3.15c-2.07,7.26-4.4,14.46-6.84,21.6
			c-1.48,4.32-4.28,6.57-9.35,6.37c-5.91-0.23-11.86,0.7-17.79,0.8c-3.27,0.05-6.54-0.59-9.82-0.92c0-4,0-8-0.01-12
			c5.76,0.33,11.52,0.88,17.29,0.91c3.93,0.02,7.9-0.5,11.78-1.15c4.21-0.7,6.81-3.2,8.33-7.44c1.6-4.47,4.01-8.68,6.39-12.82
			c0.67-1.16,2.46-1.68,3.73-2.5C49.56,68.99,49.52,70.32,49.48,71.65z"/>
		<path class="st16" d="M127.08,132.67c0.63-1.67,1.27-3.35,1.9-5.02c2.41-0.38,3.34,1.25,4.64,2.91
			c6.1,7.78,13.61,13.11,24.13,12.03c2.59-0.27,5.08-1.55,7.68-1.82c7.9-0.81,12.5-5.82,16.58-11.97c4.13-6.24,4.33-13.07,4-20.1
			c3-0.01,5.99-0.03,8.99-0.04c0.33,0.33,0.67,0.66,1,0.99c0.43,6.5-0.41,12.94-3.18,18.73c-3.52,7.35-6.55,15.81-17.16,15.62
			c-0.22,0-0.45,0.44-0.67,0.67c-3.81-1.83-7.43-1.62-10.82,1.03c-1.82,0.92-3.91,1.52-5.4,2.82c-2.67,2.33-5.04,3.54-8.9,2.39
			c-5.78-1.72-11.15-3.9-15.94-7.63c-1.99-1.55-4.5-2.44-6.77-3.64C127.13,137.31,127.1,134.99,127.08,132.67z"/>
		<path class="st5" d="M127.16,139.63c2.27,1.19,4.78,2.09,6.77,3.64c4.79,3.73,10.16,5.91,15.94,7.63c3.86,1.15,6.23-0.06,8.9-2.39
			c1.49-1.3,3.58-1.9,5.4-2.82c-0.38,1.32-0.77,2.63-1.15,3.95c-2.33,0.88-4.22,1.99-5.38,4.55c-2.12,4.68-4.34,5.75-9.17,4.03
			c-5.56-1.99-10.86-4.71-16.31-7.03c-1.61-0.68-3.35-1.06-5.02-1.57C127.14,146.29,127.15,142.96,127.16,139.63z"/>
		<path class="st19" d="M127.13,149.62c1.68,0.52,3.42,0.89,5.02,1.57c5.45,2.32,10.75,5.04,16.31,7.03
			c4.83,1.73,7.06,0.65,9.17-4.03c1.16-2.57,3.05-3.67,5.38-4.55c-0.03,0.68-0.06,1.36-0.1,2.04c-0.65,1.32-1.29,2.64-1.94,3.96
			c-1.26,0.22-2.69,0.35-0.98,2.01c0,0.66-0.01,1.33-0.01,1.99c-0.83,0.68-2.05,1.18-2.43,2.06c-1.42,3.23-3.85,4.74-7.13,3.88
			c-5.69-1.5-11.26-3.44-16.9-5.16c-2.13-0.65-4.3-1.2-6.45-1.79C127.1,155.62,127.11,152.62,127.13,149.62z"/>
		<path class="st21" d="M159.99,168.64c0.22,2.11,0.31,4.25,0.68,6.33c0.66,3.7-0.73,5.77-4.67,5.61
			c-7.73-0.31-15.28-1.69-22.49-4.68c-2.11-0.88-4.33-1.51-6.49-2.26c0.01-2.34,0.02-4.67,0.03-7.01c1.6,0.32,3.24,0.5,4.79,0.98
			c4.87,1.5,9.61,3.5,14.57,4.58c4.54,0.99,9.77,2.78,12.65-3.35C159.13,168.66,159.67,168.7,159.99,168.64z"/>
		<path class="st20" d="M159.99,168.64c-0.33,0.06-0.86,0.02-0.95,0.19c-2.88,6.14-8.1,4.34-12.65,3.35
			c-4.95-1.08-9.7-3.08-14.57-4.58c-1.55-0.48-3.19-0.66-4.79-0.98c0.01-2.67,0.02-5.34,0.04-8c2.15,0.59,4.31,1.14,6.45,1.79
			c5.63,1.72,11.21,3.66,16.9,5.16c3.28,0.86,5.71-0.65,7.13-3.88c0.38-0.87,1.6-1.38,2.43-2.06
			C159.99,162.64,159.99,165.64,159.99,168.64z"/>
		<path class="st3" d="M242.99,109.6c3.36,0.64,6.71,1.27,10.07,1.91c-0.35,2.41-0.79,4.81-1.04,7.23
			c-0.98,9.42-1.58,18.91-5.43,27.78c-2.15,4.95-2.13,4.96-7.58,4.12c-0.02-2.18-1.6-2-3.04-2c-1.22-1.55-2.44-3.09-3.66-4.64
			c4.25-0.72,6.58-3.24,7.66-7.41C242.26,127.73,243.49,118.77,242.99,109.6z"/>
		<path class="st17" d="M235.96,148.64c1.45,0.01,3.03-0.18,3.04,2c2.63,6.14,2.14,12.62,1.95,19.02
			c-0.26,8.45-8.67,13.36-16.39,9.79c-1.48-0.69-3.04-1.21-4.56-1.81c-0.33-1.67-0.67-3.33-1-5c1.58,1.09,3.1,2.29,4.77,3.22
			c1.36,0.76,2.88,1.61,4.37,1.7c5.58,0.34,10.84-5.39,10.55-11.29c-0.18-3.59-0.34-7.2-0.78-10.76c-0.12-1.01-1.17-1.92-1.8-2.87
			C236.07,151.31,236.01,149.98,235.96,148.64z"/>
		<path class="st18" d="M192,180.64c-1-1.67-2-3.33-3-5c0-3.33-0.01-6.67-0.01-10c0.35-4.71,0.62-9.42,1.11-14.12
			c0.07-0.68,1.14-1.25,1.75-1.87c0.06,1.96,0.07,3.93,0.18,5.88c0.35,6.01,0.75,12.01,1.12,18.02c-0.25,0.2-0.74,0.44-0.72,0.6
			c0.34,2.49,4.39,6.23,6.67,6.24c2.93,0.01,7.61-3.87,7.7-6.55c0.02-0.45-0.77-0.93-1.18-1.4c0.36-5.87,0.67-11.75,1.12-17.61
			c0.14-1.86,0.69-3.69,1.05-5.53c0.4,1.77,0.8,3.55,1.2,5.32c0,7,0,14,0,21c-3.88,7.23-7.74,8.61-15.12,5.47
			C193.3,180.86,192.63,180.79,192,180.64z"/>
		<path class="st22" d="M236.12,152.64c0.62,0.95,1.67,1.85,1.8,2.87c0.43,3.57,0.6,7.17,0.78,10.76
			c0.29,5.9-4.97,11.64-10.55,11.29c-1.49-0.09-3.01-0.94-4.37-1.7c-1.67-0.93-3.19-2.14-4.77-3.22c-0.34-1-0.67-2-1.01-3
			c0-3.41-0.21-6.84,0.09-10.22c0.19-2.2-0.3-5.09,3.02-5.8c0.06,3.82,0.07,7.64,0.22,11.45c0.04,1.06,0.29,2.25,0.86,3.11
			c2.14,3.26,5.13,4.39,8.55,3.5c3.66-0.96,4.87-3.85,5.13-7.09C236.18,160.62,236.06,156.63,236.12,152.64z"/>
		<path class="st12" d="M221.1,153.62c-3.32,0.71-2.83,3.6-3.02,5.8c-0.3,3.38-0.08,6.81-0.09,10.22c-3.23-1.29-5.55-1.11-6.23,3.1
			c-0.18,1.09-1.8,1.94-2.75,2.89c0-7,0-14,0-21c0.66,0.75,1.58,1.4,1.92,2.28c0.46,1.19,0.26,2.63,0.74,3.8
			c0.3,0.74,1.33,1.18,2.03,1.76c0.47-0.59,1.16-1.12,1.36-1.79c0.75-2.51,1.25-5.09,2.03-7.59c0.62-2,1.02-4.32,3.86-4.45
			C220.99,150.3,221.05,151.96,221.1,153.62z"/>
		<path class="st7" d="M162.92,151.68c0.03-0.68,0.06-1.36,0.1-2.04c0.38-1.32,0.77-2.63,1.15-3.95c3.39-2.65,7.01-2.86,10.82-1.03
			c0.62,0.68,1.24,1.35,1.85,2.03c0.37,1.31,0.75,2.63,1.12,3.94c0.01,1.33,0.01,2.67,0.02,4c-0.02,3.65-0.03,7.31-0.05,10.96
			c-1.54,3.69-3.5,6.72-8.27,6.33c-3.51-0.29-5.02-2.78-6.57-5.34c-0.04-2.98-0.09-5.96-0.13-8.93c0-0.67-0.01-1.34-0.01-2.01
			C162.94,154.32,162.93,153,162.92,151.68z"/>
		<path class="st21" d="M177.98,154.64c-0.01-1.33-0.01-2.67-0.02-4c3.24,0.77,3.08,3.86,4.23,6.08c0.4,0.76,1.38,1.65,2.12,1.67
			c0.68,0.02,1.75-0.92,2.03-1.66c0.74-1.98,1.14-4.09,1.67-6.15c0.57-2.24,0.92-4.66,3.95-4.93c-0.04,1.34-0.08,2.67-0.11,4.01
			c-0.61,0.62-1.68,1.19-1.75,1.87c-0.49,4.69-0.77,9.41-1.11,14.12c-0.76,0.53-1.52,1.06-2.29,1.58c-1.04,0.71-2.08,1.41-3.12,2.12
			c-0.84-1.37-2.08-2.65-2.44-4.14c-0.66-2.7-0.67-5.56-1.23-8.29C179.74,156.06,178.65,155.39,177.98,154.64z"/>
		<path class="st18" d="M163.09,166.58c1.55,2.56,3.05,5.05,6.57,5.34c4.77,0.4,6.73-2.64,8.27-6.33c1.44,3.69,0.18,7.58-3.52,10.03
			c-2.55,1.69-5.37,1.69-7.91-0.06C162.73,172.95,161.7,170.01,163.09,166.58z"/>
		<path class="st20" d="M162.95,155.64c0,0.67,0.01,1.34,0.01,2.01c-0.99,0-1.97,0-2.96,0c-1.7-1.66-0.27-1.79,0.98-2.01
			C161.64,155.64,162.29,155.64,162.95,155.64z"/>
		<path class="st7" d="M153.91,71.65c0.1-0.64,0.2-1.28,0.31-1.93c8.53-5.26,15.29-6.12,21.24,2.08c0.52,4.95,1.04,9.89,1.56,14.84
			c-0.07,0.49-0.13,0.98-0.21,1.47c-1.28,7.36-6.4,12.21-12.63,11.26c-6.99-1.07-10.51-4.36-10.95-12.8
			c-0.12-2.31-0.15-4.62-0.22-6.93C153.31,76.98,153.61,74.31,153.91,71.65z"/>
		<path class="st17" d="M177.02,86.64c-0.52-4.95-1.04-9.89-1.56-14.84c3.31-0.24,4.62,2.17,5.85,4.54
			c4.43,8.57,4.65,17.36,1.19,26.31c-0.59,1.52-1,3.11-1.5,4.67c-2.67-0.02-5.34-0.04-8.01-0.05c0.69-1.4,1.17-2.97,2.11-4.17
			c3.3-4.23,4.26-9.05,3.81-14.21C178.84,88.09,177.68,87.39,177.02,86.64z"/>
		<path class="st8" d="M172.99,107.26c2.67,0.02,5.34,0.04,8.01,0.05c4.67,0.11,9.34,0.21,14.01,0.32c0,0.34,0,0.68,0,1.02
			c-3,0.01-5.99,0.03-8.99,0.04c-3.33,0-6.67,0-10,0c-6.21,0.31-12.43,0.93-18.64,0.84c-5.09-0.07-9.71,1.14-14.3,3.03
			c-1.33,0.55-2.81,0.72-4.22,1.07c3.1-1.89,6.21-3.77,9.31-5.66c1.62-0.2,3.24-0.4,4.85-0.6
			C159.67,107.34,166.33,107.3,172.99,107.26z"/>
		<path class="st9" d="M195,108.65c0-0.34,0-0.68,0-1.02c5.33,0,10.66-0.01,16-0.01c0,0.35,0,0.69,0,1.04
			c-0.33,0.01-0.66,0.03-0.99,0.05c-2.01,0.31-4.02,0.62-6.03,0.92c-2.66,0-5.33,0.01-7.99,0.01
			C195.67,109.31,195.34,108.98,195,108.65z"/>
		<path class="st11" d="M220.94,148.65c-2.84,0.13-3.25,2.46-3.86,4.45c-0.77,2.5-1.27,5.08-2.03,7.59c-0.2,0.67-0.89,1.2-1.36,1.79
			c-0.7-0.58-1.72-1.02-2.03-1.76c-0.48-1.17-0.29-2.62-0.74-3.8c-0.34-0.88-1.26-1.53-1.92-2.28c-0.4-1.77-0.8-3.55-1.2-5.32
			c-0.37-1.2-0.74-2.41-1.11-3.61c1.15,0.52,2.4,0.91,3.44,1.6c2.94,1.95,4.97,1.87,6.52-1.19c2.38-4.68,5.12-9.45,6.15-14.49
			c1.47-7.18,1.53-14.66,2.2-22.01c3-0.01,6-0.01,9-0.02c0.24,8.43,0.18,16.8-2.95,24.84c-1.12,2.88-2.03,5.85-3.03,8.78
			C225.65,145.03,223.3,146.84,220.94,148.65z"/>
		<path class="st21" d="M224.99,109.62c-0.66,7.35-0.73,14.82-2.2,22.01c-1.03,5.05-3.77,9.81-6.15,14.49
			c-1.55,3.06-3.57,3.14-6.52,1.19c-1.04-0.69-2.29-1.07-3.44-1.6c-0.6-1.28-1.21-2.56-1.81-3.84c5.45-2.34,8.27-6.73,9.22-12.34
			c1.11-6.61,1.94-13.26,2.89-19.9C219.66,109.63,222.33,109.63,224.99,109.62z"/>
		<path class="st12" d="M228.01,143.22c1-2.93,1.91-5.9,3.03-8.78c3.13-8.04,3.2-16.41,2.95-24.84c3,0,6,0,9-0.01
			c0.5,9.17-0.73,18.13-3.03,27c-1.08,4.16-3.41,6.69-7.66,7.41C230.86,143.74,229.44,143.48,228.01,143.22z"/>
		<path class="st20" d="M217,109.63c-0.95,6.63-1.78,13.29-2.89,19.9c-0.94,5.61-3.77,10-9.22,12.34c-1-0.66-1.99-1.33-2.99-1.99
			c0.26-0.77,0.27-1.83,0.8-2.27c3.7-3.08,5.05-7.32,5.65-11.77c0.76-5.68,1.13-11.42,1.67-17.13c0.33-0.02,0.66-0.04,0.99-0.05
			C213,108.99,215,109.31,217,109.63z"/>
		<path class="st7" d="M121.98,48.69c0.99,1.98,1.98,3.97,2.96,5.95c0.05,2.34,0.11,4.67,0.16,7.01c-0.07,3.16-0.18,6.32-0.19,9.49
			c-0.03,12.33,0.1,24.67-0.08,37c-0.1,7.08-5.46,12.24-12.01,12.08c-6.61-0.16-11.67-5.72-11.57-12.59
			c0.05-3.33-0.11-6.66-0.18-9.98c0-11-0.01-22-0.01-33c0-2.67,0.01-5.34,0.01-8c0.18-0.94,0.36-1.88,0.54-2.83
			c1.85-5.47,5.81-8.32,11.39-9.16C115.99,45.99,118.98,47.34,121.98,48.69z"/>
		<path class="st15" d="M176.01,108.69c3.33,0,6.67,0,10,0c0.33,7.03,0.13,13.86-4,20.1c-4.07,6.15-8.68,11.16-16.58,11.97
			c-2.59,0.27-5.08,1.55-7.68,1.82c-10.52,1.09-18.03-4.24-24.13-12.03c-1.31-1.66-2.23-3.29-4.64-2.91c0.95-2,1.9-4,2.84-6.01
			c0.39-0.68,0.78-1.36,1.17-2.03c0.66-1.04,1.32-2.07,1.98-3.11c0.62-0.36,1.24-0.73,1.86-1.09c1.27,2.5,2.39,5.1,3.85,7.49
			c4.19,6.85,9.93,10.67,18.44,9.82c7.1-0.7,11.75-4.22,15.07-10.34C176.6,117.94,177.27,113.5,176.01,108.69z"/>
		<path class="st13" d="M101.07,97.64c0.07,3.33,0.22,6.66,0.18,9.98c-0.1,6.87,4.96,12.43,11.57,12.59
			c6.54,0.16,11.9-5,12.01-12.08c0.18-12.33,0.05-24.66,0.08-37c0.01-3.16,0.12-6.32,0.19-9.49c3,1.09,2.8,3.79,2.86,6.15
			c0.41,14.03,0.96,28.06,0.88,42.08c-0.02,4.3-1.45,8.75-3,12.85c-2.11,5.58-6.97,8.1-12.64,7.79c-5.49-0.3-10.6-2.58-12.31-8.4
			c-1.47-5.01-1.97-10.3-2.9-15.47c0.33-1.98,0.5-4,1.06-5.91C99.4,99.6,100.38,98.66,101.07,97.64z"/>
		<path class="st22" d="M101.07,97.64c-0.69,1.03-1.67,1.96-2.01,3.1c-0.57,1.91-0.73,3.93-1.06,5.91c-0.67-1.33-1.33-2.67-2-4
			c0.67-10.67,1.17-21.35,2.17-31.98c0.19-1.96-0.6-5.27,2.88-6.02C101.07,75.64,101.07,86.64,101.07,97.64z"/>
		<path class="st8" d="M133,119.61c-0.39,0.68-0.78,1.36-1.17,2.03C132.21,120.96,132.6,120.29,133,119.61z"/>
		<path class="st2" d="M49.48,71.65c0.04-1.33,0.09-2.67,0.13-4C51.87,57,62.96,55.52,69.99,61.66c0.95,1.74,1.9,3.49,2.85,5.23
			c0.09,0.92,0.18,1.84,0.28,2.76c0,2.33,0.01,4.66,0.01,7c-0.06,1.96-0.1,3.93-0.2,5.89c-0.3,6.03-0.63,12.05-0.95,18.08
			c-4.28,7.62-15.02,8.53-19.71,2.88c-0.87-2.69-1.89-5.33-2.56-8.07c-0.45-1.85-0.39-3.82-0.55-5.74c0.02-0.67,0.05-1.35,0.07-2.02
			C49.32,82.32,49.4,76.99,49.48,71.65z"/>
		<path class="st11" d="M73.12,69.65c-0.09-0.92-0.18-1.84-0.28-2.76c1.11-0.17,2.39-0.78,3.29-0.42c2.14,0.85,4.14,2.09,6.11,3.3
			c2.75,1.68,4.45,0.39,5.58-2c1.2-2.54,1.94-5.31,3.25-7.78c2.47-4.66,5.2-9.19,7.85-13.77c1.8-3.11,4.32-6.01,5.31-9.35
			c3.1-10.49,4.77-21.22,2.76-32.21c4.67,0,9.33-0.01,14-0.01c-0.33,5.72-0.55,11.46-1.01,17.17c-0.63,7.79-0.87,15.73-6.86,21.86
			c-0.18,0.19-0.1,0.64-0.13,0.96c-5.57,0.84-9.54,3.69-11.39,9.16c-2.18-0.29-3.5,0.5-3.61,2.84c-0.34,1.33-0.67,2.67-1.01,4
			c-3.69,1.87-3.14,5.68-3.97,8.82c-1.42,5.38-2.61,10.82-4.1,16.17c-0.31,1.1-1.54,1.94-2.35,2.9c-1.01-0.95-2.06-1.86-3.03-2.85
			c-1.99-2.03-0.71-6.18-4.54-7.05C78.37,74.78,77.58,71.02,73.12,69.65z"/>
		<path class="st22" d="M49.17,89.68c0.17,1.92,0.11,3.89,0.55,5.74c0.66,2.74,1.69,5.38,2.56,8.07c-0.3,0.96-1.15,2.31-0.79,2.83
			c1.46,2.15,3.03,4.37,5.04,5.96c2.87,2.27,7.69,1.84,10.67-0.4c4.19-3.15,6.02-7.46,4.79-11.27c0.32-6.03,0.64-12.05,0.95-18.08
			c0.1-1.96,0.13-3.93,0.2-5.89c0.88,1.57,2.51,3.14,2.52,4.72c0.03,8.23,0.3,16.55-0.78,24.68c-1,7.54-7.19,11.2-15.26,10.6
			c-5.67-0.42-11.1-6.51-11.64-12.9c-0.12-1.39-0.65-2.74-0.98-4.11c-0.33-3.33-0.65-6.66-0.98-9.99
			C47.06,89.66,48.11,89.67,49.17,89.68z"/>
		<path class="st12" d="M98,56.64c0.11-2.33,1.43-3.13,3.61-2.84c-0.18,0.94-0.36,1.88-0.54,2.83C100.05,56.64,99.03,56.64,98,56.64
			z"/>
		<path class="st9" d="M176.01,108.69c1.26,4.81,0.59,9.24-1.82,13.68c-3.32,6.12-7.98,9.64-15.07,10.34
			c-8.51,0.84-14.24-2.97-18.44-9.82c-1.46-2.39-2.58-4.99-3.85-7.49c0.67-0.59,1.34-1.18,2.02-1.77c1.41-0.35,2.89-0.52,4.22-1.07
			c4.59-1.89,9.21-3.1,14.3-3.03C163.58,109.63,169.8,109.01,176.01,108.69z"/>
		<path class="st17" d="M153.02,107.38c-1.62,0.2-3.24,0.4-4.85,0.6c-4.96-10.88-5.05-21.66,0.85-32.21
			c1.04-1.86,1.77-4.55,4.9-4.13c-0.3,2.67-0.6,5.33-0.9,8c-1,1.13-2.46,2.1-2.92,3.42c-2.35,6.72-1.14,13.26,1.45,19.67
			C152.15,104.24,152.53,105.83,153.02,107.38z"/>
		<path class="st12" d="M113,44.65c0.04-0.33-0.05-0.78,0.13-0.96c5.99-6.13,6.23-14.08,6.86-21.86c0.46-5.71,0.68-11.45,1.01-17.17
			c4.33,0,8.67,0,13-0.01c0.32,11.05-0.11,22.05-2.02,32.96c-0.77,4.39-2.07,8.32-7.42,9.11c-0.94,0.14-1.72,1.29-2.58,1.98
			C118.98,47.34,115.99,45.99,113,44.65z"/>
		<path class="st21" d="M107,4.66c2.01,10.98,0.34,21.72-2.76,32.21c-0.99,3.35-3.52,6.24-5.31,9.35c-2.64,4.57-5.37,9.1-7.85,13.77
			c-1.31,2.47-2.05,5.24-3.25,7.78c-1.13,2.39-2.83,3.68-5.58,2c-1.98-1.21-3.98-2.45-6.11-3.3c-0.9-0.36-2.18,0.25-3.29,0.42
			c-0.95-1.74-1.9-3.49-2.85-5.23c1.53-0.67,3.09-1.96,4.59-1.89c3.66,0.16,5.7-1.52,7.6-4.4C90.55,42.67,95.3,28.93,95.01,13.6
			c-0.06-2.98,0-5.96,0-8.94C99.01,4.66,103.01,4.66,107,4.66z"/>
		<path class="st18" d="M49.17,89.68c-1.05-0.01-2.11-0.02-3.16-0.04c0.02-2.39,1.78-1.94,3.23-1.99
			C49.22,88.33,49.19,89.01,49.17,89.68z"/>
		<path class="st5" d="M196,109.64c2.66,0,5.33-0.01,7.99-0.01c0.24,7.8,0.05,15.54-3.83,22.62c-0.9,1.63-2.12,3.16-3.46,4.47
			c-2.46,2.39-5.56,4.24-7.59,6.93c-4.73,6.25-4.54,6.39-11.29,3.12c-0.27-0.13-0.65-0.05-0.98-0.07c-0.62-0.68-1.24-1.35-1.85-2.03
			c0.22-0.23,0.45-0.68,0.67-0.67c10.61,0.19,13.64-8.27,17.16-15.62C195.59,122.58,196.43,116.14,196,109.64z"/>
		<path class="st11" d="M162.95,155.64c-0.66,0-1.31,0-1.97,0c0.65-1.32,1.29-2.64,1.94-3.96
			C162.93,153,162.94,154.32,162.95,155.64z"/>
		<path class="st7" d="M228.01,143.22c1.43,0.26,2.86,0.52,4.28,0.78c1.22,1.55,2.44,3.09,3.66,4.64c0.06,1.33,0.11,2.67,0.17,4
			c-0.07,3.98,0.05,7.98-0.26,11.94c-0.26,3.25-1.46,6.14-5.13,7.09c-3.42,0.89-6.41-0.24-8.55-3.5c-0.57-0.86-0.81-2.05-0.86-3.11
			c-0.16-3.81-0.16-7.63-0.22-11.45c-0.05-1.66-0.11-3.32-0.16-4.98C223.3,146.84,225.65,145.03,228.01,143.22z"/>
		<path class="st7" d="M201.9,139.88c1,0.66,1.99,1.33,2.99,1.99c0.6,1.28,1.21,2.56,1.81,3.84c0.37,1.2,0.74,2.41,1.11,3.61
			c-0.36,1.84-0.91,3.67-1.05,5.53c-0.45,5.86-0.76,11.74-1.12,17.61c-3.8,4.42-8.05,3.73-12.48,1.1
			c-0.38-6.01-0.77-12.01-1.12-18.02c-0.11-1.96-0.12-3.92-0.18-5.88c0.04-1.34,0.08-2.67,0.11-4.01
			C194.17,139.8,194.81,139.43,201.9,139.88z"/>
		<path class="st22" d="M193.16,173.56c4.42,2.63,8.68,3.32,12.48-1.1c0.41,0.47,1.19,0.95,1.18,1.4c-0.09,2.67-4.77,6.56-7.7,6.55
			c-2.29-0.01-6.33-3.75-6.67-6.24C192.42,173.99,192.9,173.76,193.16,173.56z"/>
		<path class="st19" d="M201.9,139.88c-7.09-0.45-7.73-0.08-9.94,5.77c-3.03,0.27-3.38,2.69-3.95,4.93
			c-0.53,2.06-0.93,4.17-1.67,6.15c-0.28,0.75-1.34,1.68-2.03,1.66c-0.74-0.02-1.72-0.91-2.12-1.67c-1.16-2.22-0.99-5.31-4.23-6.08
			c-0.37-1.31-0.75-2.63-1.12-3.94c0.33,0.02,0.71-0.06,0.98,0.07c6.75,3.27,6.55,3.13,11.29-3.12c2.03-2.68,5.14-4.53,7.59-6.93
			c1.34-1.3,2.56-2.83,3.46-4.47c3.88-7.07,4.06-14.82,3.83-22.62c2.01-0.31,4.02-0.62,6.03-0.92c-0.54,5.71-0.91,11.45-1.67,17.13
			c-0.6,4.45-1.95,8.69-5.65,11.77C202.17,138.05,202.16,139.11,201.9,139.88z"/>
		<path class="st13" d="M153.02,107.38c-0.48-1.55-0.86-3.14-1.47-4.64c-2.6-6.41-3.8-12.95-1.45-19.67
			c0.46-1.32,1.92-2.29,2.92-3.42c0.07,2.31,0.1,4.62,0.22,6.93c0.44,8.43,3.96,11.73,10.95,12.8c6.23,0.95,11.35-3.9,12.63-11.26
			c0.09-0.49,0.14-0.98,0.21-1.47c0.66,0.74,1.82,1.44,1.89,2.24c0.45,5.16-0.51,9.98-3.81,14.21c-0.94,1.21-1.42,2.77-2.11,4.17
			C166.33,107.3,159.67,107.34,153.02,107.38z"/>
		<path class="st13" d="M71.99,100.61c1.23,3.81-0.61,8.12-4.79,11.27c-2.97,2.24-7.8,2.67-10.67,0.4
			c-2.01-1.59-3.58-3.81-5.04-5.96c-0.35-0.52,0.5-1.86,0.79-2.83C56.97,109.14,67.71,108.23,71.99,100.61z"/>
	</g>
</g>
<g id="Layer_2">
	<radialGradient id="SVGID_1_" cx="7.0043" cy="5.6802" r="157.6948" gradientUnits="userSpaceOnUse">
		<stop  offset="0" style="stop-color:#A76EFB"/>
		<stop  offset="1" style="stop-color:#8130FA"/>
	</radialGradient>
	<path class="st23" d="M128.26,177.02l-38.82,0.02L52,212.68c0,0-10.44,7.2-13.68-3.96V182.8c0,0,1.08-7.56-7.56-7.2
		C22.12,175.96,0,163,0,143.2S0,35.56,0,35.56S-1.28,0,40.48,0s162.36,0,162.36,0s30.96-0.44,31.68,40.24s0,137.16,0,137.16
		L128.26,177.02z"/>
</g>
<g id="Layer_3">
	<radialGradient id="SVGID_2_" cx="132.9188" cy="111.0302" r="96.9148" gradientUnits="userSpaceOnUse">
		<stop  offset="0" style="stop-color:#A76EFB"/>
		<stop  offset="1" style="stop-color:#8130FA"/>
	</radialGradient>
	<path class="st24" d="M221.92,215.48h-63.36c0,0-29.88-0.36-29.88-25.56s0-60.71,0-60.71s-1.08-21.73,25.56-21.73s86.4,0,86.4,0
		S271,107.01,271,129.21s0,62.87,0,62.87s-2.28,14.4-13.44,18.36c0,0-4.68,3.6-4.68,8.28c0,4.68,0,12.96,0,12.96
		s-0.36,15.56-7.56,7.96C238.12,232.04,221.92,215.48,221.92,215.48z"/>
</g>
<g id="Layer_4">
	<linearGradient id="SVGID_3_" gradientUnits="userSpaceOnUse" x1="99.88" y1="81.7735" x2="124.72" y2="81.7735">
		<stop  offset="0" style="stop-color:#FFFFFF"/>
		<stop  offset="1" style="stop-color:#FFFFFF"/>
	</linearGradient>
	<path class="st25" d="M112.3,120.14L112.3,120.14c-6.86,0-12.42-5.56-12.42-12.42v-51.9c0-6.86,5.56-12.42,12.42-12.42h0
		c6.86,0,12.42,5.56,12.42,12.42v51.9C124.72,114.58,119.16,120.14,112.3,120.14z"/>
	<linearGradient id="SVGID_4_" gradientUnits="userSpaceOnUse" x1="152.2" y1="83.3485" x2="177.04" y2="83.3485">
		<stop  offset="0" style="stop-color:#FFFFFF"/>
		<stop  offset="1" style="stop-color:#FFFFFF"/>
	</linearGradient>
	<path class="st26" d="M164.62,102.53L164.62,102.53c-6.86,0-12.42-5.56-12.42-12.42V76.58c0-6.86,5.56-12.42,12.42-12.42h0
		c6.86,0,12.42,5.56,12.42,12.42v13.53C177.04,96.97,171.48,102.53,164.62,102.53z"/>
	<linearGradient id="SVGID_5_" gradientUnits="userSpaceOnUse" x1="48.48" y1="82.6381" x2="73.32" y2="82.6381">
		<stop  offset="0" style="stop-color:#FFFFFF"/>
		<stop  offset="1" style="stop-color:#FFFFFF"/>
	</linearGradient>
	<path class="st27" d="M60.9,107.48L60.9,107.48c-6.86,0-12.42-5.56-12.42-12.42V70.21c0-6.86,5.56-12.42,12.42-12.42h0
		c6.86,0,12.42,5.56,12.42,12.42v24.85C73.32,101.92,67.76,107.48,60.9,107.48z"/>
	<linearGradient id="SVGID_6_" gradientUnits="userSpaceOnUse" x1="162.94" y1="157.7635" x2="177.94" y2="157.7635">
		<stop  offset="0" style="stop-color:#FFFFFF"/>
		<stop  offset="1" style="stop-color:#FFFFFF"/>
	</linearGradient>
	<path class="st28" d="M170.44,171.98L170.44,171.98c-4.14,0-7.5-3.36-7.5-7.5v-13.44c0-4.14,3.36-7.5,7.5-7.5h0
		c4.14,0,7.5,3.36,7.5,7.5v13.44C177.94,168.63,174.58,171.98,170.44,171.98z"/>
	<linearGradient id="SVGID_7_" gradientUnits="userSpaceOnUse" x1="191.82" y1="157.9535" x2="206.82" y2="157.9535">
		<stop  offset="0" style="stop-color:#FFFFFF"/>
		<stop  offset="1" style="stop-color:#FFFFFF"/>
	</linearGradient>
	<path class="st29" d="M199.32,176.96L199.32,176.96c-4.14,0-7.5-3.36-7.5-7.5l0-23.02c0-4.14,3.36-7.5,7.5-7.5h0
		c4.14,0,7.5,3.36,7.5,7.5v23.02C206.82,173.61,203.46,176.96,199.32,176.96z"/>
	<linearGradient id="SVGID_8_" gradientUnits="userSpaceOnUse" x1="221.22" y1="157.7635" x2="236.22" y2="157.7635">
		<stop  offset="0" style="stop-color:#FFFFFF"/>
		<stop  offset="1" style="stop-color:#FFFFFF"/>
	</linearGradient>
	<path class="st30" d="M228.72,171.98L228.72,171.98c-4.14,0-7.5-3.36-7.5-7.5v-13.44c0-4.14,3.36-7.5,7.5-7.5h0
		c4.14,0,7.5,3.36,7.5,7.5v13.44C236.22,168.63,232.86,171.98,228.72,171.98z"/>
</g>
</svg>
