<?xml version="1.0" encoding="UTF-8"?>
<svg xmlns="http://www.w3.org/2000/svg" xmlns:xlink="http://www.w3.org/1999/xlink" viewBox="0 0 48 48" width="48px" height="48px">
<g id="surface47295675">
<path style=" stroke:none;fill-rule:nonzero;fill:rgb(62.7451%,40.000001%,94.901961%);fill-opacity:1;" d="M 24 4 C 12.953125 4 4 12.953125 4 24 C 4 35.046875 12.953125 44 24 44 C 35.046875 44 44 35.046875 44 24 C 44 12.953125 35.046875 4 24 4 Z M 24 4 "/>
<path style=" stroke:none;fill-rule:nonzero;fill:rgb(100%,100%,100%);fill-opacity:1;" d="M 29.367188 24 L 26 24 L 26 36 L 21 36 L 21 24 L 18 24 L 18 20 L 21 20 L 21 17.589844 C 21.003906 14.082031 22.460938 12 26.59375 12 L 30 12 L 30 16 L 27.714844 16 C 26.105469 16 26 16.601562 26 17.722656 L 26 20 L 30 20 Z M 29.367188 24 "/>
</g>
</svg>
