<svg width="705" height="531" viewBox="0 0 705 531" fill="none" xmlns="http://www.w3.org/2000/svg">
<path opacity="0.42" d="M266.041 487.27C264.119 489.374 267.27 492.301 269.964 493.32C287.536 500.039 306.19 503.493 325.005 503.511L321.802 508.959C351.294 517.142 382.437 517.305 412.013 509.429L407.463 502.374L433.886 501.067C438.082 500.871 452.804 502.596 455.589 498.872C463.603 488.146 430.983 487.728 427.479 487.584C392.676 486.129 357.852 485.568 323.005 485.899C313.504 485.986 304.004 486.138 294.503 486.356C290.006 486.513 268.839 484.292 266.041 487.27Z" fill="#0064FF"/>
<path d="M414.589 390.6C413.883 404.537 413.041 418.499 412.065 432.488C411.775 439.558 410.856 446.589 409.32 453.497C408.289 457.603 406.834 461.592 404.979 465.399C404.182 467.032 403.044 468.809 401.253 468.992C398.991 469.227 397.422 466.81 396.612 464.681C392.572 454.228 392.572 442.783 392.31 431.599C392.162 425.816 391.931 420.028 391.617 414.235C391.238 407.245 390.48 399.681 385.747 394.507C384.309 392.939 382.557 391.659 381.145 390.052C375.379 383.519 377.105 372.505 383.315 366.351C388.14 361.582 402.142 355.285 408.901 359.231C416.929 363.908 414.968 383.062 414.589 390.6Z" fill="#606161"/>
<path d="M374.111 366.678C376.133 369.879 377.081 373.641 376.818 377.417C376.491 388.771 369.745 398.818 366.359 409.676C361.286 426.073 364.11 443.645 364.62 460.852C364.856 463.222 364.561 465.614 363.757 467.855C363.33 468.967 362.575 469.922 361.591 470.594C360.608 471.266 359.444 471.623 358.253 471.618C356.527 471.298 354.974 470.371 353.873 469.005C345.558 460.121 345.832 446.572 344.46 434.5C342.917 421.055 338.746 408.069 335.19 395.016C333.582 389.124 332.079 383.088 332.458 376.999C332.837 370.911 335.399 364.653 340.433 361.203C349.572 354.958 367.588 357.336 374.111 366.678Z" fill="#606161"/>
<path opacity="0.52" d="M157.606 244.256L300.452 244.256C309.218 244.256 316.324 237.155 316.324 228.395V67.7436C316.324 58.9837 309.218 51.8824 300.452 51.8824L157.606 51.8824C148.84 51.8824 141.734 58.9837 141.734 67.7436L141.734 228.395C141.734 237.155 148.84 244.256 157.606 244.256Z" fill="#0064FF"/>
<path d="M157.606 244.256L300.452 244.256C309.218 244.256 316.324 237.155 316.324 228.395V67.7436C316.324 58.9837 309.218 51.8824 300.452 51.8824L157.606 51.8824C148.84 51.8824 141.734 58.9837 141.734 67.7436L141.734 228.395C141.734 237.155 148.84 244.256 157.606 244.256Z" fill="url(#paint0_linear)"/>
<path opacity="0.52" d="M432.225 207.15L596.016 207.15C604.363 207.15 611.13 200.388 611.13 192.047V103.347C611.13 95.0051 604.363 88.2431 596.016 88.2431L432.225 88.2431C423.878 88.2431 417.111 95.0051 417.111 103.347V192.047C417.111 200.388 423.878 207.15 432.225 207.15Z" fill="#0064FF"/>
<path d="M432.225 207.15L596.016 207.15C604.363 207.15 611.13 200.388 611.13 192.047V103.347C611.13 95.0051 604.363 88.2431 596.016 88.2431L432.225 88.2431C423.878 88.2431 417.111 95.0051 417.111 103.347V192.047C417.111 200.388 423.878 207.15 432.225 207.15Z" fill="url(#paint1_linear)"/>
<path opacity="0.52" d="M382.139 120.292L485.044 120.292C490.287 120.292 494.536 116.045 494.536 110.807V55.0703C494.536 49.8316 490.287 45.5848 485.044 45.5848L382.139 45.5848C376.897 45.5848 372.647 49.8316 372.647 55.0703V110.807C372.647 116.045 376.897 120.292 382.139 120.292Z" fill="#0064FF"/>
<path d="M382.139 120.292L485.044 120.292C490.287 120.292 494.536 116.045 494.536 110.807V55.0703C494.536 49.8316 490.287 45.5848 485.044 45.5848L382.139 45.5848C376.897 45.5848 372.647 49.8316 372.647 55.0703V110.807C372.647 116.045 376.897 120.292 382.139 120.292Z" fill="url(#paint2_linear)"/>
<path opacity="0.52" d="M218.308 347.772L513.376 347.772V333.636L218.308 333.636V347.772Z" fill="#0064FF"/>
<path d="M275.899 315.449H468.911C477.98 315.449 485.332 308.102 485.332 299.039V165.237C485.332 156.174 477.98 148.827 468.911 148.827L275.899 148.827C266.83 148.827 259.478 156.174 259.478 165.237V299.039C259.478 308.102 266.83 315.449 275.899 315.449Z" fill="#0064FF"/>
<path d="M275.899 315.449H468.911C477.98 315.449 485.332 308.102 485.332 299.039V165.237C485.332 156.174 477.98 148.827 468.911 148.827L275.899 148.827C266.83 148.827 259.478 156.174 259.478 165.237V299.039C259.478 308.102 266.83 315.449 275.899 315.449Z" fill="url(#paint3_linear)"/>
<path d="M332.287 174.918H287.247V178.224H332.287V174.918Z" fill="url(#paint4_linear)"/>
<path d="M314.742 181.307H287.247V184.404H314.742V181.307Z" fill="url(#paint5_linear)"/>
<path d="M412.34 181.307H325.829V184.43H412.34V181.307Z" fill="url(#paint6_linear)"/>
<path d="M469.12 181.307H420.433V184.43H469.12V181.307Z" fill="url(#paint7_linear)"/>
<path d="M339.348 187.722H301.551V190.989H339.348V187.722Z" fill="url(#paint8_linear)"/>
<path d="M358.723 194.098H313.683V197.404H358.723V194.098Z" fill="url(#paint9_linear)"/>
<path d="M399.423 194.098H361.665V197.769H399.423V194.098Z" fill="url(#paint10_linear)"/>
<path d="M348.395 200.487H313.618V203.584H348.395V200.487Z" fill="url(#paint11_linear)"/>
<path d="M423.505 200.487H351.729V203.923H423.505V200.487Z" fill="url(#paint12_linear)"/>
<path d="M332.287 209.136H287.247V212.442H332.287V209.136Z" fill="url(#paint13_linear)"/>
<path d="M314.742 215.525H287.247V218.622H314.742V215.525Z" fill="url(#paint14_linear)"/>
<path d="M412.34 215.525H325.829V218.648H412.34V215.525Z" fill="url(#paint15_linear)"/>
<path d="M469.12 215.525H420.433V218.648H469.12V215.525Z" fill="url(#paint16_linear)"/>
<path d="M339.348 221.914H301.551V225.181H339.348V221.914Z" fill="url(#paint17_linear)"/>
<path d="M358.723 228.316H313.683V231.622H358.723V228.316Z" fill="url(#paint18_linear)"/>
<path d="M399.423 228.316H361.665V231.988H399.423V228.316Z" fill="url(#paint19_linear)"/>
<path d="M348.395 234.705H313.618V237.802H348.395V234.705Z" fill="url(#paint20_linear)"/>
<path d="M423.505 234.705H351.729V238.141H423.505V234.705Z" fill="url(#paint21_linear)"/>
<path d="M332.287 243.341H287.247V246.647H332.287V243.341Z" fill="url(#paint22_linear)"/>
<path d="M314.742 249.73H287.247V252.827H314.742V249.73Z" fill="url(#paint23_linear)"/>
<path d="M412.34 249.73H325.829V252.853H412.34V249.73Z" fill="url(#paint24_linear)"/>
<path d="M469.12 249.73H420.433V252.853H469.12V249.73Z" fill="url(#paint25_linear)"/>
<path d="M339.348 256.119H301.551V259.385H339.348V256.119Z" fill="url(#paint26_linear)"/>
<path d="M358.723 262.508H313.683V265.814H358.723V262.508Z" fill="url(#paint27_linear)"/>
<path d="M399.423 262.508H361.665V266.179H399.423V262.508Z" fill="url(#paint28_linear)"/>
<path d="M348.395 268.91H313.618V272.007H348.395V268.91Z" fill="url(#paint29_linear)"/>
<path d="M423.505 268.91H351.729V272.346H423.505V268.91Z" fill="url(#paint30_linear)"/>
<g opacity="0.52">
<path opacity="0.52" d="M410.523 55.8019H388.114V57.4481H410.523V55.8019Z" fill="#0064FF"/>
<path opacity="0.52" d="M401.79 58.9898H388.114V60.5315H401.79V58.9898Z" fill="#0064FF"/>
<path opacity="0.52" d="M450.346 58.9898H407.307V60.5446H450.346V58.9898Z" fill="#0064FF"/>
<path opacity="0.52" d="M478.587 58.9898H454.36V60.5446H478.587V58.9898Z" fill="#0064FF"/>
<path opacity="0.52" d="M414.027 62.1647H395.227V63.7848H414.027V62.1647Z" fill="#0064FF"/>
<path opacity="0.52" d="M423.675 65.3526H401.267V66.9988H423.675V65.3526Z" fill="#0064FF"/>
<path opacity="0.52" d="M443.901 65.3526H425.127V67.1817H443.901V65.3526Z" fill="#0064FF"/>
<path opacity="0.52" d="M418.524 68.5275H401.228V70.0692H418.524V68.5275Z" fill="#0064FF"/>
<path opacity="0.52" d="M455.903 68.5275H420.198V70.239H455.903V68.5275Z" fill="#0064FF"/>
<path opacity="0.52" d="M410.523 72.826H388.114V74.4722H410.523V72.826Z" fill="#0064FF"/>
<path opacity="0.52" d="M401.79 76.0009H388.114V77.5426H401.79V76.0009Z" fill="#0064FF"/>
<path opacity="0.52" d="M450.346 76.0009H407.307V77.5556H450.346V76.0009Z" fill="#0064FF"/>
<path opacity="0.52" d="M478.587 76.0009H454.36V77.5556H478.587V76.0009Z" fill="#0064FF"/>
<path opacity="0.52" d="M414.027 79.1757H395.227V80.7958H414.027V79.1757Z" fill="#0064FF"/>
<path opacity="0.52" d="M423.675 82.3636H401.267V84.0099H423.675V82.3636Z" fill="#0064FF"/>
<path opacity="0.52" d="M443.901 82.3636H425.127V84.1928H443.901V82.3636Z" fill="#0064FF"/>
<path opacity="0.52" d="M418.524 85.5385H401.228V87.0802H418.524V85.5385Z" fill="#0064FF"/>
<path opacity="0.52" d="M455.903 85.5385H420.198V87.2501H455.903V85.5385Z" fill="#0064FF"/>
<path opacity="0.52" d="M410.523 89.837H388.114V91.4832H410.523V89.837Z" fill="#0064FF"/>
<path opacity="0.52" d="M401.79 93.0249H388.114V94.5666H401.79V93.0249Z" fill="#0064FF"/>
<path opacity="0.52" d="M450.346 93.0249H407.307V94.5797H450.346V93.0249Z" fill="#0064FF"/>
<path opacity="0.52" d="M478.587 93.0249H454.36V94.5797H478.587V93.0249Z" fill="#0064FF"/>
<path opacity="0.52" d="M414.027 96.1998H395.227V97.8199H414.027V96.1998Z" fill="#0064FF"/>
<path opacity="0.52" d="M423.675 99.3746H401.267V101.021H423.675V99.3746Z" fill="#0064FF"/>
<path opacity="0.52" d="M443.901 99.3746H425.127V101.204H443.901V99.3746Z" fill="#0064FF"/>
<path opacity="0.52" d="M418.524 102.563H401.228V104.104H418.524V102.563Z" fill="#0064FF"/>
<path opacity="0.52" d="M455.903 102.563H420.198V104.274H455.903V102.563Z" fill="#0064FF"/>
</g>
<path d="M426.761 324.477C427.689 327.09 428.565 329.834 427.99 332.525C427.782 333.456 427.405 334.342 426.878 335.138C424.264 339.188 418.067 339.815 413.804 337.385C409.542 334.955 407.137 330.304 405.96 325.627C405.496 324.06 405.341 322.418 405.502 320.792C405.882 317.957 407.764 315.566 409.725 313.476C412.34 310.758 417.138 307.204 420.655 310.471C423.819 313.397 425.362 320.57 426.761 324.477Z" fill="url(#paint31_linear)"/>
<path d="M319.828 323.693C319.255 324.772 318.989 325.988 319.056 327.207C319.215 327.992 319.526 328.737 319.971 329.402C321.071 331.375 322.541 333.118 324.299 334.537C326.073 335.958 328.32 336.654 330.587 336.484C333.934 336.118 336.588 333.466 338.367 330.604C340.215 327.886 341.186 324.667 341.151 321.38C341.049 319.649 340.565 317.961 339.733 316.439C338.901 314.916 337.742 313.597 336.34 312.574C333.817 310.745 328.561 309.086 325.711 311.176C322.861 313.267 321.253 320.322 319.828 323.693Z" fill="url(#paint32_linear)"/>
<path d="M397.044 227.728C397.508 227.594 397.997 227.568 398.473 227.651C398.949 227.735 399.399 227.927 399.79 228.212C400.335 228.833 400.653 229.62 400.692 230.446C401.025 232.11 401.091 233.817 400.888 235.502C400.669 237.177 399.846 238.715 398.574 239.827C397.583 240.556 396.466 241.096 395.279 241.421C394.388 241.825 393.374 241.862 392.455 241.525C392.054 241.253 391.72 240.894 391.476 240.476C391.231 240.058 391.084 239.591 391.043 239.108C390.01 234.052 391.592 228.721 397.044 227.728Z" fill="url(#paint33_linear)"/>
<path d="M349.441 225.977C348.922 225.847 348.378 225.847 347.859 225.977C347.292 226.244 346.813 226.668 346.48 227.198C346.146 227.729 345.971 228.343 345.976 228.969C345.892 230.198 345.971 231.433 346.212 232.641C346.437 234.663 347.266 236.57 348.591 238.115C349.258 238.858 350.156 239.356 351.141 239.526C352.125 239.697 353.138 239.531 354.017 239.056C359.573 235.215 354.344 227.049 349.441 225.977Z" fill="url(#paint34_linear)"/>
<path d="M384.637 262.495C384.894 263.679 384.965 264.895 384.846 266.101C384.362 269.446 381.028 271.784 377.681 272.202C374.334 272.621 370.987 271.497 367.863 270.256C366.903 269.933 366.015 269.427 365.248 268.766C364.482 267.967 363.96 266.965 363.744 265.879C363.369 263.996 363.255 262.07 363.404 260.156L363.614 253.415C363.549 252.096 363.81 250.781 364.372 249.586C365.679 247.352 368.673 246.973 371.275 246.804C374.687 246.66 379.825 246.804 382.074 249.913C384.323 253.023 384.061 258.876 384.637 262.495Z" fill="url(#paint35_linear)"/>
<path d="M395.148 207.464C396.164 210.308 396.522 213.346 396.194 216.348C395.903 223.281 395.178 230.189 394.024 237.031C393.161 242.165 391.801 247.679 387.735 250.919C386.572 251.7 385.475 252.574 384.453 253.532C383.747 254.29 383.251 255.231 382.597 256.054C379.289 260.195 372.621 260.195 368.072 257.439C363.522 254.682 360.606 249.952 357.939 245.353C354.998 240.284 352.082 234.979 351.559 229.139C351.128 224.514 352.213 219.641 350.448 215.342C349.14 212.181 346.434 209.646 345.833 206.288C345.6 204.026 345.877 201.74 346.643 199.599C347.702 195.797 349.323 191.407 353.18 190.375C355.991 189.617 358.894 191.054 361.809 191.145C365.522 191.276 369.301 189.199 372.831 190.375C377.367 191.89 379.368 197.116 383.891 198.815C388.415 200.513 393.043 202.656 395.148 207.464Z" fill="#606161"/>
<path d="M410.157 274.424C396.9 263.436 377.772 263.71 360.711 266.036C353.664 266.989 346.486 268.257 340.289 271.758C329.908 277.638 323.764 289.004 320.534 300.502C318.822 306.603 317.92 313.567 321.345 318.924C324.94 324.464 332.105 326.371 338.668 327.103C339.673 327.125 340.656 327.409 341.518 327.926C342.422 328.763 342.989 329.901 343.113 331.127C344.944 340.665 341.231 351.378 346.133 359.753C350.879 367.841 361.482 369.97 370.83 370.689C382.924 371.616 396.037 371.277 405.855 364.156C407.484 363.062 408.869 361.643 409.921 359.988C411.543 357.218 411.634 353.848 411.673 350.647C411.778 343.67 409.229 329.638 412.628 323.484C415.478 318.362 423.597 318.336 426.447 312.483C431.847 301.351 418.276 281.139 410.157 274.424Z" fill="white"/>
<path d="M362.175 363.333L362.267 378.188C362.331 378.76 362.222 379.339 361.953 379.848C361.518 380.384 360.888 380.727 360.201 380.801C356.174 381.742 351.964 381.206 347.833 381.219C343.701 381.232 339.243 381.964 336.275 384.852C340.786 388.183 346.604 389.098 352.186 389.751C360.449 390.735 368.729 391.389 377.027 391.711C382.406 392.107 387.813 391.826 393.121 390.875C397.788 389.938 402.163 387.9 405.882 384.93C402.234 381.01 396.194 381.089 390.859 381.089C385.669 381.087 380.484 380.79 375.328 380.2C374.745 380.208 374.167 380.096 373.629 379.872C373.092 379.647 372.606 379.314 372.203 378.894C371.768 378.12 371.594 377.227 371.706 376.346C371.805 373.048 372.221 369.766 372.948 366.547C373.103 365.485 373.531 364.481 374.19 363.634C375.355 362.639 376.817 362.06 378.348 361.987C384.401 360.979 390.337 359.359 396.063 357.153C398.421 356.372 400.615 355.163 402.535 353.586C407.686 348.909 407.463 340.848 406.274 333.988C396.794 339.488 386.089 342.533 375.131 342.847C367.64 343.056 351.389 339.842 346.12 347.054C343.505 350.699 346.29 354.07 349.179 356.591C350.435 357.663 362.175 363.189 362.175 363.333Z" fill="url(#paint36_linear)"/>
<path d="M389.016 295.825H357.9C345.776 295.825 335.948 305.646 335.948 317.761V327.025C335.948 339.14 345.776 348.961 357.9 348.961H389.016C401.139 348.961 410.967 339.14 410.967 327.025V317.761C410.967 305.646 401.139 295.825 389.016 295.825Z" fill="#0064FF"/>
<path d="M389.016 295.825H357.9C345.776 295.825 335.948 305.646 335.948 317.761V327.025C335.948 339.14 345.776 348.961 357.9 348.961H389.016C401.139 348.961 410.967 339.14 410.967 327.025V317.761C410.967 305.646 401.139 295.825 389.016 295.825Z" fill="url(#paint37_linear)"/>
<path d="M389.016 300.711H357.9C345.776 300.711 335.948 310.532 335.948 322.648V331.911C335.948 344.026 345.776 353.848 357.9 353.848H389.016C401.139 353.848 410.967 344.026 410.967 331.911V322.648C410.967 310.532 401.139 300.711 389.016 300.711Z" fill="#0064FF"/>
<path d="M385.002 330.043C382.757 331.038 380.393 331.74 377.968 332.133C371.431 333.335 363.796 333.074 359.089 328.331C358.352 327.61 357.753 326.76 357.324 325.823C356.017 322.648 357.73 318.819 360.54 316.807C363.351 314.795 366.921 314.26 370.359 314.09C374.569 313.881 382.57 313.162 386.244 315.997C390.637 319.394 389.957 327.717 385.002 330.043Z" fill="url(#paint38_linear)"/>
<path d="M372.202 406.344H372.215C375.038 406.344 377.327 404.057 377.327 401.235V326.998C377.327 324.177 375.038 321.89 372.215 321.89H372.202C369.379 321.89 367.09 324.177 367.09 326.998V401.235C367.09 404.057 369.379 406.344 372.202 406.344Z" fill="white"/>
<path d="M403.698 465.19C406.313 467.346 406.967 471.082 408.117 474.336C409.712 478.778 412.667 482.815 413.059 487.519C413.231 488.913 412.999 490.328 412.393 491.595C411.808 492.575 410.976 493.386 409.981 493.945C408.985 494.504 407.861 494.793 406.718 494.783C404.43 494.736 402.2 494.057 400.273 492.823C396.866 490.795 394.052 487.907 392.115 484.448C391.126 482.756 390.495 480.88 390.258 478.935C389.722 473.042 395.841 458.919 403.698 465.19Z" fill="#0064FF"/>
<path d="M408.575 490.119C408.759 490.462 408.856 490.846 408.856 491.236C408.856 491.626 408.759 492.009 408.575 492.353C408.273 492.676 407.874 492.892 407.438 492.967C405.636 493.315 403.77 492.975 402.208 492.013C400.666 491.069 399.252 489.931 397.998 488.629C396.057 486.927 394.34 484.987 392.886 482.854C391.43 480.687 390.837 478.054 391.226 475.472C392.612 468.391 398.861 474.741 401.162 477.354C404.446 481.082 406.965 485.419 408.575 490.119Z" fill="#606161"/>
<path d="M352.513 465.334C349.899 467.49 349.245 471.226 348.094 474.479C346.499 478.922 343.545 482.972 343.152 487.662C342.982 489.061 343.213 490.48 343.819 491.752C344.405 492.73 345.238 493.537 346.233 494.094C347.228 494.651 348.352 494.938 349.493 494.927C351.782 494.886 354.015 494.207 355.939 492.967C359.349 490.943 362.164 488.053 364.097 484.592C365.087 482.901 365.719 481.024 365.953 479.078C366.476 473.186 360.358 459.01 352.513 465.334Z" fill="#0064FF"/>
<path d="M346.97 490.628C346.789 490.973 346.694 491.356 346.694 491.745C346.694 492.134 346.789 492.518 346.97 492.862C347.277 493.186 347.681 493.401 348.12 493.476C349.922 493.811 351.783 493.471 353.35 492.523C354.884 491.573 356.294 490.436 357.547 489.139C359.495 487.436 361.217 485.491 362.672 483.351C364.125 481.187 364.717 478.559 364.332 475.982C362.933 468.888 356.697 475.237 354.383 477.863C351.102 481.594 348.583 485.93 346.97 490.628Z" fill="#606161"/>
<path d="M380.531 434.095C378.425 435.095 376.099 435.544 373.771 435.401C371.195 435.549 368.611 435.36 366.084 434.839C365.232 434.671 364.433 434.299 363.757 433.755C363.192 433.238 362.746 432.605 362.449 431.9C360.318 427.196 357.913 417.449 361.22 413.491C364.999 408.944 379.995 408.147 384.754 412.916C389.369 417.384 386.022 430.868 380.531 434.095Z" fill="#0064FF"/>
<path d="M380.531 434.095C378.425 435.095 376.099 435.544 373.771 435.401C371.195 435.549 368.611 435.36 366.084 434.839C365.232 434.671 364.433 434.299 363.757 433.755C363.192 433.238 362.746 432.605 362.449 431.9C360.318 427.196 357.913 417.449 361.22 413.491C364.999 408.944 379.995 408.147 384.754 412.916C389.369 417.384 386.022 430.868 380.531 434.095Z" fill="url(#paint39_linear)"/>
<path d="M370.124 478.295H376.948V434.291H370.124V478.295Z" fill="white"/>
<path d="M400.52 481.953C402.037 483.194 403.514 484.749 405.462 484.984C406.874 485.141 408.286 484.54 409.725 484.54C411.618 484.673 413.401 485.474 414.758 486.8C416.039 487.814 417.002 489.174 417.53 490.72C418.589 494.326 415.373 498.271 411.62 498.637C407.868 499.003 404.26 496.442 402.612 493.071C402.257 492.148 401.792 491.27 401.226 490.458C400.684 489.876 400.053 489.382 399.357 488.995C393.805 485.554 387.681 483.133 381.275 481.848C380.164 481.626 378.804 481.522 378.098 482.397C377.757 482.898 377.57 483.489 377.562 484.096C377.273 486.698 377.155 489.317 377.209 491.935C377.175 492.438 377.269 492.942 377.484 493.398C377.823 493.868 378.239 494.279 378.713 494.613C379.469 495.416 379.943 496.442 380.066 497.538C380.188 498.633 379.952 499.739 379.393 500.688C378.21 502.561 376.397 503.951 374.281 504.608C371.771 505.536 368.607 505.692 366.737 503.772C366.077 503.029 365.636 502.119 365.463 501.141C365.29 500.163 365.391 499.156 365.757 498.232C366.51 496.388 367.902 494.876 369.679 493.973C370.296 493.739 370.833 493.33 371.222 492.797C371.438 492.305 371.519 491.763 371.457 491.229L371.274 485.402C371.329 484.958 371.277 484.506 371.123 484.086C370.968 483.665 370.715 483.288 370.385 482.985C369.862 482.713 369.264 482.626 368.685 482.737C359.076 483.478 349.874 486.925 342.145 492.679C343.557 493.777 343.308 496.155 342.04 497.409C340.643 498.56 338.849 499.114 337.046 498.951C335.064 498.971 333.121 498.403 331.463 497.318C330.634 496.776 329.957 496.03 329.499 495.151C329.041 494.272 328.817 493.291 328.849 492.301C328.982 491.297 329.374 490.346 329.986 489.54C330.598 488.734 331.409 488.1 332.339 487.702C334.21 486.919 336.267 486.697 338.262 487.061C339.288 487.28 340.339 487.363 341.387 487.31C342.562 487.066 343.68 486.6 344.681 485.938C353.736 480.828 363.779 477.71 374.137 476.792C382.818 476.021 393.5 476.204 400.52 481.953Z" fill="white"/>
<path d="M483.541 306.055H566.13C574.087 306.055 580.537 299.608 580.537 291.657V237.893C580.537 229.941 574.087 223.495 566.13 223.495H483.541C475.584 223.495 469.133 229.941 469.133 237.893V291.657C469.133 299.608 475.584 306.055 483.541 306.055Z" fill="white"/>
<path d="M160.416 312.888H260.603C268.307 312.888 274.553 306.646 274.553 298.947V279.872C274.553 272.173 268.307 265.931 260.603 265.931H160.416C152.712 265.931 146.466 272.173 146.466 279.872V298.947C146.466 306.646 152.712 312.888 160.416 312.888Z" fill="white"/>
<path d="M168.98 105.829L201.574 89.0531V93.9134L174.119 107.593V107.75L201.574 121.494V126.355L168.98 109.579V105.829Z" fill="#0064FF"/>
<path d="M206.084 129.229L225.695 78.2742H230.467L210.856 129.229H206.084Z" fill="#0064FF"/>
<path d="M267.531 109.827L234.925 126.537V121.56L262.589 107.815V107.593L234.925 93.8481V89.0531L267.531 105.764V109.827Z" fill="#0064FF"/>
<path d="M332.718 417.959H409.032C418.093 417.959 425.439 410.618 425.439 401.562V400.53C425.439 391.474 418.093 384.133 409.032 384.133H332.718C323.657 384.133 316.311 391.474 316.311 400.53V401.562C316.311 410.618 323.657 417.959 332.718 417.959Z" fill="#0064FF"/>
<path d="M332.718 417.959H409.032C418.093 417.959 425.439 410.618 425.439 401.562V400.53C425.439 391.474 418.093 384.133 409.032 384.133H332.718C323.657 384.133 316.311 391.474 316.311 400.53V401.562C316.311 410.618 323.657 417.959 332.718 417.959Z" fill="url(#paint40_linear)"/>
<g opacity="0.52">
<path opacity="0.52" d="M511.31 244.857H481.501V247.039H511.31V244.857Z" fill="#0064FF"/>
<path opacity="0.52" d="M499.7 249.077H481.501V251.128H499.7V249.077Z" fill="#0064FF"/>
<path opacity="0.52" d="M564.285 249.077H507.034V251.141H564.285V249.077Z" fill="#0064FF"/>
<path opacity="0.52" d="M515.991 253.323H490.967V255.492H515.991V253.323Z" fill="#0064FF"/>
<path opacity="0.52" d="M528.803 257.543H498.994V259.725H528.803V257.543Z" fill="#0064FF"/>
<path opacity="0.52" d="M555.722 257.543H530.737V259.973H555.722V257.543Z" fill="#0064FF"/>
<path opacity="0.52" d="M521.965 261.776H498.941V263.828H521.965V261.776Z" fill="#0064FF"/>
<path opacity="0.52" d="M571.673 261.776H524.175V264.05H571.673V261.776Z" fill="#0064FF"/>
<path opacity="0.52" d="M511.31 267.499H481.501V269.681H511.31V267.499Z" fill="#0064FF"/>
<path opacity="0.52" d="M499.7 271.719H481.501V273.77H499.7V271.719Z" fill="#0064FF"/>
<path opacity="0.52" d="M564.285 271.719H507.034V273.783H564.285V271.719Z" fill="#0064FF"/>
<path opacity="0.52" d="M515.991 275.952H490.967V278.121H515.991V275.952Z" fill="#0064FF"/>
<path opacity="0.52" d="M528.803 280.185H498.994V282.367H528.803V280.185Z" fill="#0064FF"/>
<path opacity="0.52" d="M555.722 280.185H530.737V282.616H555.722V280.185Z" fill="#0064FF"/>
<path opacity="0.52" d="M521.965 284.419H498.941V286.47H521.965V284.419Z" fill="#0064FF"/>
<path opacity="0.52" d="M571.673 284.419H524.175V286.692H571.673V284.419Z" fill="#0064FF"/>
</g>
<g opacity="0.52">
<path opacity="0.52" d="M196.043 276.279H166.234V278.461H196.043V276.279Z" fill="#0064FF"/>
<path opacity="0.52" d="M184.433 280.512H166.234V282.563H184.433V280.512Z" fill="#0064FF"/>
<path opacity="0.52" d="M249.019 280.512H191.768V282.576H249.019V280.512Z" fill="#0064FF"/>
<path opacity="0.52" d="M200.724 284.745H175.7V286.914H200.724V284.745Z" fill="#0064FF"/>
<path opacity="0.52" d="M213.536 288.978H183.728V291.16H213.536V288.978Z" fill="#0064FF"/>
<path opacity="0.52" d="M240.469 288.978H215.484V291.408H240.469V288.978Z" fill="#0064FF"/>
<path opacity="0.52" d="M206.712 293.198H183.688V295.25H206.712V293.198Z" fill="#0064FF"/>
<path opacity="0.52" d="M256.406 293.198H208.908V295.472H256.406V293.198Z" fill="#0064FF"/>
<path opacity="0.52" d="M196.043 298.921H166.234V301.103H196.043V298.921Z" fill="#0064FF"/>
<path opacity="0.52" d="M184.433 303.154H166.234V305.205H184.433V303.154Z" fill="#0064FF"/>
<path opacity="0.52" d="M249.019 303.154H191.768V305.219H249.019V303.154Z" fill="#0064FF"/>
</g>
<path d="M224.78 427.366C220.453 418.821 215.158 409.95 216.177 400.425C216.792 394.664 219.707 389.437 222.558 384.381L235.396 361.635C239.318 366.73 245.777 369.826 248.366 375.706C252.523 385.152 244.443 395.604 244.875 405.913C245.163 413.843 250.431 421.069 250.105 428.999C249.895 434.761 240.77 453.64 233.383 452.922C229.474 452.543 227.238 432.2 224.78 427.366Z" fill="#0064FF"/>
<path d="M224.78 427.366C220.453 418.821 215.158 409.95 216.177 400.425C216.792 394.664 219.707 389.437 222.558 384.381L235.396 361.635C239.318 366.73 245.777 369.826 248.366 375.706C252.523 385.152 244.443 395.604 244.875 405.913C245.163 413.843 250.431 421.069 250.105 428.999C249.895 434.761 240.77 453.64 233.383 452.922C229.474 452.543 227.238 432.2 224.78 427.366Z" fill="url(#paint41_linear)"/>
<path d="M268.983 423.721C271.899 423.721 275.52 424.309 276.357 427.118C277.037 429.574 274.88 431.834 272.827 433.35C265.676 438.576 256.72 442.587 253.216 450.727C247.398 464.236 230.925 455.574 239.449 443.881C242.979 439.046 245.986 432.553 250.379 428.516C255.425 423.851 262.485 423.642 268.983 423.721Z" fill="#0064FF"/>
<path d="M268.983 423.721C271.899 423.721 275.52 424.309 276.357 427.118C277.037 429.574 274.88 431.834 272.827 433.35C265.676 438.576 256.72 442.587 253.216 450.727C247.398 464.236 230.925 455.574 239.449 443.881C242.979 439.046 245.986 432.553 250.379 428.516C255.425 423.851 262.485 423.642 268.983 423.721Z" fill="url(#paint42_linear)"/>
<path d="M226.27 429.966C222.988 426.229 218.112 424.387 213.457 422.662C211.248 421.852 208.411 421.186 206.92 422.963C206.429 423.656 206.165 424.485 206.165 425.334C206.165 426.184 206.429 427.012 206.92 427.706C207.946 429.063 209.197 430.235 210.62 431.168C213.484 433.264 215.831 435.986 217.484 439.125C219.145 442.509 219.589 446.363 221.066 449.838C222.544 453.314 225.629 456.593 229.395 456.436C230.87 456.288 232.268 455.706 233.413 454.765C234.558 453.823 235.398 452.563 235.827 451.145C237.291 446.637 235.343 444.612 232.925 441.424C230.244 437.884 229.264 433.35 226.27 429.966Z" fill="#0064FF"/>
<path d="M226.27 429.966C222.988 426.229 218.112 424.387 213.457 422.662C211.248 421.852 208.411 421.186 206.92 422.963C206.429 423.656 206.165 424.485 206.165 425.334C206.165 426.184 206.429 427.012 206.92 427.706C207.946 429.063 209.197 430.235 210.62 431.168C213.484 433.264 215.831 435.986 217.484 439.125C219.145 442.509 219.589 446.363 221.066 449.838C222.544 453.314 225.629 456.593 229.395 456.436C230.87 456.288 232.268 455.706 233.413 454.765C234.558 453.823 235.398 452.563 235.827 451.145C237.291 446.637 235.343 444.612 232.925 441.424C230.244 437.884 229.264 433.35 226.27 429.966Z" fill="url(#paint43_linear)"/>
<path d="M254.654 450.844L250.248 492.039H245.581C241.985 490.001 238.351 488.002 234.716 485.964L224.126 480.032L220.374 450.844H254.654Z" fill="#0064FF"/>
<path d="M254.654 450.844L250.248 492.039H245.581C241.985 490.001 238.351 488.002 234.716 485.964L224.126 480.032L220.374 450.844H254.654Z" fill="url(#paint44_linear)"/>
<defs>
<linearGradient id="paint0_linear" x1="231.448" y1="201.65" x2="222.256" y2="-1.86885" gradientUnits="userSpaceOnUse">
<stop stop-color="white" stop-opacity="0"/>
<stop offset="0.95" stop-color="white"/>
</linearGradient>
<linearGradient id="paint1_linear" x1="82058.2" y1="13812.5" x2="100282" y2="18291.5" gradientUnits="userSpaceOnUse">
<stop stop-color="white" stop-opacity="0"/>
<stop offset="0.95" stop-color="white"/>
</linearGradient>
<linearGradient id="paint2_linear" x1="43521.4" y1="-1355.17" x2="43602" y2="9384.28" gradientUnits="userSpaceOnUse">
<stop stop-color="white" stop-opacity="0"/>
<stop offset="0.95" stop-color="white"/>
</linearGradient>
<linearGradient id="paint3_linear" x1="70707.8" y1="43493.8" x2="69552.5" y2="9343.68" gradientUnits="userSpaceOnUse">
<stop stop-color="white" stop-opacity="0"/>
<stop offset="0.95" stop-color="white"/>
</linearGradient>
<linearGradient id="paint4_linear" x1="311.486" y1="85.3951" x2="309.006" y2="217.772" gradientUnits="userSpaceOnUse">
<stop stop-color="white" stop-opacity="0"/>
<stop offset="0.99" stop-color="white"/>
</linearGradient>
<linearGradient id="paint5_linear" x1="7298.39" y1="1367.81" x2="7297.72" y2="1054" gradientUnits="userSpaceOnUse">
<stop stop-color="white" stop-opacity="0"/>
<stop offset="0.99" stop-color="white"/>
</linearGradient>
<linearGradient id="paint6_linear" x1="26890.7" y1="1374.83" x2="26890.5" y2="1058.34" gradientUnits="userSpaceOnUse">
<stop stop-color="white" stop-opacity="0"/>
<stop offset="0.99" stop-color="white"/>
</linearGradient>
<linearGradient id="paint7_linear" x1="18188" y1="1371.39" x2="18187.6" y2="1054.96" gradientUnits="userSpaceOnUse">
<stop stop-color="white" stop-opacity="0"/>
<stop offset="0.99" stop-color="white"/>
</linearGradient>
<linearGradient id="paint8_linear" x1="10505.6" y1="1438.39" x2="10505.1" y2="1107.37" gradientUnits="userSpaceOnUse">
<stop stop-color="white" stop-opacity="0"/>
<stop offset="0.99" stop-color="white"/>
</linearGradient>
<linearGradient id="paint9_linear" x1="13019.9" y1="1459.08" x2="13019.5" y2="1124.05" gradientUnits="userSpaceOnUse">
<stop stop-color="white" stop-opacity="0"/>
<stop offset="0.99" stop-color="white"/>
</linearGradient>
<linearGradient id="paint10_linear" x1="12293.1" y1="1596.73" x2="12292.5" y2="1224.63" gradientUnits="userSpaceOnUse">
<stop stop-color="white" stop-opacity="0"/>
<stop offset="0.99" stop-color="white"/>
</linearGradient>
<linearGradient id="paint11_linear" x1="9989.25" y1="1385.67" x2="9988.73" y2="1071.85" gradientUnits="userSpaceOnUse">
<stop stop-color="white" stop-opacity="0"/>
<stop offset="0.99" stop-color="white"/>
</linearGradient>
<linearGradient id="paint12_linear" x1="23427.8" y1="1512.9" x2="23427.5" y2="1164.66" gradientUnits="userSpaceOnUse">
<stop stop-color="white" stop-opacity="0"/>
<stop offset="0.99" stop-color="white"/>
</linearGradient>
<linearGradient id="paint13_linear" x1="12070.6" y1="1388.82" x2="12070.2" y2="1053.78" gradientUnits="userSpaceOnUse">
<stop stop-color="white" stop-opacity="0"/>
<stop offset="0.99" stop-color="white"/>
</linearGradient>
<linearGradient id="paint14_linear" x1="7298.39" y1="1321" x2="7297.72" y2="1007.16" gradientUnits="userSpaceOnUse">
<stop stop-color="white" stop-opacity="0"/>
<stop offset="0.99" stop-color="white"/>
</linearGradient>
<linearGradient id="paint15_linear" x1="26890.7" y1="1327.27" x2="26890.5" y2="1010.78" gradientUnits="userSpaceOnUse">
<stop stop-color="white" stop-opacity="0"/>
<stop offset="0.99" stop-color="white"/>
</linearGradient>
<linearGradient id="paint16_linear" x1="18188" y1="1323.9" x2="18187.6" y2="1007.41" gradientUnits="userSpaceOnUse">
<stop stop-color="white" stop-opacity="0"/>
<stop offset="0.99" stop-color="white"/>
</linearGradient>
<linearGradient id="paint17_linear" x1="10505.6" y1="1387.12" x2="10505.1" y2="1056.06" gradientUnits="userSpaceOnUse">
<stop stop-color="white" stop-opacity="0"/>
<stop offset="0.99" stop-color="white"/>
</linearGradient>
<linearGradient id="paint18_linear" x1="13019.9" y1="1406.73" x2="13019.5" y2="1071.7" gradientUnits="userSpaceOnUse">
<stop stop-color="white" stop-opacity="0"/>
<stop offset="0.99" stop-color="white"/>
</linearGradient>
<linearGradient id="paint19_linear" x1="12293.1" y1="1534.84" x2="12292.5" y2="1162.73" gradientUnits="userSpaceOnUse">
<stop stop-color="white" stop-opacity="0"/>
<stop offset="0.99" stop-color="white"/>
</linearGradient>
<linearGradient id="paint20_linear" x1="9989.25" y1="1338.81" x2="9988.73" y2="1025" gradientUnits="userSpaceOnUse">
<stop stop-color="white" stop-opacity="0"/>
<stop offset="0.99" stop-color="white"/>
</linearGradient>
<linearGradient id="paint21_linear" x1="23427.8" y1="1457.19" x2="23427.5" y2="1108.92" gradientUnits="userSpaceOnUse">
<stop stop-color="white" stop-opacity="0"/>
<stop offset="0.99" stop-color="white"/>
</linearGradient>
<linearGradient id="paint22_linear" x1="12070.6" y1="1336.48" x2="12070.2" y2="1001.48" gradientUnits="userSpaceOnUse">
<stop stop-color="white" stop-opacity="0"/>
<stop offset="0.99" stop-color="white"/>
</linearGradient>
<linearGradient id="paint23_linear" x1="7298.39" y1="1274.13" x2="7297.72" y2="960.291" gradientUnits="userSpaceOnUse">
<stop stop-color="white" stop-opacity="0"/>
<stop offset="0.99" stop-color="white"/>
</linearGradient>
<linearGradient id="paint24_linear" x1="26890.7" y1="1279.73" x2="26890.5" y2="963.263" gradientUnits="userSpaceOnUse">
<stop stop-color="white" stop-opacity="0"/>
<stop offset="0.99" stop-color="white"/>
</linearGradient>
<linearGradient id="paint25_linear" x1="18188" y1="1276.35" x2="18187.6" y2="959.86" gradientUnits="userSpaceOnUse">
<stop stop-color="white" stop-opacity="0"/>
<stop offset="0.99" stop-color="white"/>
</linearGradient>
<linearGradient id="paint26_linear" x1="10505.6" y1="1335.79" x2="10505.1" y2="1004.74" gradientUnits="userSpaceOnUse">
<stop stop-color="white" stop-opacity="0"/>
<stop offset="0.99" stop-color="white"/>
</linearGradient>
<linearGradient id="paint27_linear" x1="13019.9" y1="1354.39" x2="13019.5" y2="1019.36" gradientUnits="userSpaceOnUse">
<stop stop-color="white" stop-opacity="0"/>
<stop offset="0.99" stop-color="white"/>
</linearGradient>
<linearGradient id="paint28_linear" x1="12293.1" y1="1472.88" x2="12292.5" y2="1100.77" gradientUnits="userSpaceOnUse">
<stop stop-color="white" stop-opacity="0"/>
<stop offset="0.99" stop-color="white"/>
</linearGradient>
<linearGradient id="paint29_linear" x1="9989.25" y1="1291.96" x2="9988.73" y2="978.115" gradientUnits="userSpaceOnUse">
<stop stop-color="white" stop-opacity="0"/>
<stop offset="0.99" stop-color="white"/>
</linearGradient>
<linearGradient id="paint30_linear" x1="23427.8" y1="1401.41" x2="23427.5" y2="1053.13" gradientUnits="userSpaceOnUse">
<stop stop-color="white" stop-opacity="0"/>
<stop offset="0.99" stop-color="white"/>
</linearGradient>
<linearGradient id="paint31_linear" x1="405.476" y1="324.006" x2="428.173" y2="324.006" gradientUnits="userSpaceOnUse">
<stop stop-color="#E5C6D6"/>
<stop offset="0.42" stop-color="#EAD4D0"/>
<stop offset="1" stop-color="#F0E9CB"/>
</linearGradient>
<linearGradient id="paint32_linear" x1="6229.83" y1="6866.92" x2="6604.32" y2="6866.92" gradientUnits="userSpaceOnUse">
<stop stop-color="#E5C6D6"/>
<stop offset="0.42" stop-color="#EAD4D0"/>
<stop offset="1" stop-color="#F0E9CB"/>
</linearGradient>
<linearGradient id="paint33_linear" x1="3695.71" y1="2793.83" x2="3776.23" y2="2793.83" gradientUnits="userSpaceOnUse">
<stop stop-color="#E5C6D6"/>
<stop offset="0.42" stop-color="#EAD4D0"/>
<stop offset="1" stop-color="#F0E9CB"/>
</linearGradient>
<linearGradient id="paint34_linear" x1="3358.58" y1="2692.12" x2="3442.5" y2="2692.12" gradientUnits="userSpaceOnUse">
<stop stop-color="#E5C6D6"/>
<stop offset="0.42" stop-color="#EAD4D0"/>
<stop offset="1" stop-color="#F0E9CB"/>
</linearGradient>
<linearGradient id="paint35_linear" x1="6859.31" y1="5361.55" x2="7215.29" y2="5361.55" gradientUnits="userSpaceOnUse">
<stop stop-color="#E5C6D6"/>
<stop offset="0.42" stop-color="#EAD4D0"/>
<stop offset="1" stop-color="#F0E9CB"/>
</linearGradient>
<linearGradient id="paint36_linear" x1="336.275" y1="362.941" x2="407.032" y2="362.941" gradientUnits="userSpaceOnUse">
<stop stop-color="#010101" stop-opacity="0"/>
<stop offset="0.95" stop-color="#010101"/>
</linearGradient>
<linearGradient id="paint37_linear" x1="15148.4" y1="13407.3" x2="19453" y2="13407.3" gradientUnits="userSpaceOnUse">
<stop stop-color="#010101" stop-opacity="0"/>
<stop offset="0.95" stop-color="#010101"/>
</linearGradient>
<linearGradient id="paint38_linear" x1="10331.1" y1="4779.32" x2="10319" y2="5880.59" gradientUnits="userSpaceOnUse">
<stop stop-color="#010101" stop-opacity="0"/>
<stop offset="0.95" stop-color="#010101"/>
</linearGradient>
<linearGradient id="paint39_linear" x1="8771.76" y1="8995.12" x2="8846.62" y2="8314.05" gradientUnits="userSpaceOnUse">
<stop stop-color="#010101" stop-opacity="0"/>
<stop offset="0.95" stop-color="#010101"/>
</linearGradient>
<linearGradient id="paint40_linear" x1="33777.4" y1="10231.9" x2="33786.7" y2="11438.2" gradientUnits="userSpaceOnUse">
<stop stop-color="#010101" stop-opacity="0"/>
<stop offset="0.95" stop-color="#010101"/>
</linearGradient>
<linearGradient id="paint41_linear" x1="7086.81" y1="29766.2" x2="7157.77" y2="36488.5" gradientUnits="userSpaceOnUse">
<stop stop-color="#010101" stop-opacity="0"/>
<stop offset="0.95" stop-color="#010101"/>
</linearGradient>
<linearGradient id="paint42_linear" x1="8850.65" y1="11702.7" x2="9128.27" y2="12946.1" gradientUnits="userSpaceOnUse">
<stop stop-color="#010101" stop-opacity="0"/>
<stop offset="0.95" stop-color="#010101"/>
</linearGradient>
<linearGradient id="paint43_linear" x1="6083.35" y1="11873.3" x2="5482.2" y2="13144.4" gradientUnits="userSpaceOnUse">
<stop stop-color="#010101" stop-opacity="0"/>
<stop offset="0.95" stop-color="#010101"/>
</linearGradient>
<linearGradient id="paint44_linear" x1="7341.38" y1="14863.3" x2="6467.66" y2="16975.3" gradientUnits="userSpaceOnUse">
<stop stop-color="#010101" stop-opacity="0"/>
<stop offset="0.95" stop-color="#010101"/>
</linearGradient>
</defs>
</svg>
