<?xml version="1.0" encoding="UTF-8"?>
<svg xmlns="http://www.w3.org/2000/svg" xmlns:xlink="http://www.w3.org/1999/xlink" viewBox="0 0 96 96" width="96px" height="96px">
<g id="surface47283057">
<path style=" stroke:none;fill-rule:nonzero;fill:rgb(62.7451%,40.000001%,94.901961%);fill-opacity:1;" d="M 48 8 C 25.910156 8 8 25.910156 8 48 C 8 70.089844 25.910156 88 48 88 C 70.089844 88 88 70.089844 88 48 C 88 25.910156 70.089844 8 48 8 Z M 48 8 "/>
<path style=" stroke:none;fill-rule:nonzero;fill:rgb(100%,100%,100%);fill-opacity:1;" d="M 58.734375 48 L 52 48 L 52 72 L 42 72 L 42 48 L 36 48 L 36 40 L 42 40 L 42 35.179688 C 42.003906 28.164062 44.917969 24 53.183594 24 L 60 24 L 60 32 L 55.425781 32 C 52.207031 32 52 33.199219 52 35.445312 L 52 40 L 60 40 Z M 58.734375 48 "/>
</g>
</svg>
