<svg xmlns="http://www.w3.org/2000/svg" xmlns:xlink="http://www.w3.org/1999/xlink" width="150" height="150" viewBox="0 0 150 150">
  <defs>
    <clipPath id="clip-path">
      <rect id="Rectangle_182" data-name="Rectangle 182" width="150" height="150" transform="translate(1067 2396)" fill="#fff"/>
    </clipPath>
  </defs>
  <g id="Mask_Group_15" data-name="Mask Group 15" transform="translate(-1067 -2396)" clip-path="url(#clip-path)">
    <g id="computerIcon" transform="translate(1067 2398.231)">
      <path id="Path_873" data-name="Path 873" d="M95.4,107.354c.361,3.427.657,6.676,1.056,9.915.431,3.513-.738,4.909-4.257,4.914q-15.923.008-31.84,0c-3.508,0-4.645-1.3-4.257-4.736.372-3.3.684-6.606,1.04-10.093H55.091q-21.168,0-42.342-.005c-6.261-.011-10.9-3.454-12.366-9.209A15.217,15.217,0,0,1,.022,94.4Q-.011,53.7.005,12.991C.011,4.974,5,.005,13.024.005Q74.977,0,136.931.005c6.5,0,11.035,3.244,12.6,9.1a15.953,15.953,0,0,1,.447,4.052q.04,40.534.011,81.074c-.005,8.088-5.054,13.11-13.11,13.115q-19.778.016-39.551,0C96.738,107.354,96.146,107.354,95.4,107.354ZM6.423,85.223H143.467c.022-.4.054-.674.054-.943q0-35.863-.005-71.731a7.467,7.467,0,0,0-.145-1.627C142.734,8.007,140.562,6.5,137,6.493q-62.05-.008-124.1,0a3.373,3.373,0,0,0-1.3.059A15.888,15.888,0,0,0,7.8,8.519c-1.39,1.169-1.385,3-1.385,4.726q.008,35.127,0,70.254C6.423,84.038,6.423,84.577,6.423,85.223ZM143.494,91.97H6.073c.42,2.2.474,4.343,1.266,6.159,1,2.29,3.282,2.732,5.685,2.727q61.945-.04,123.9-.022c.383,0,.765.005,1.148-.011a5.483,5.483,0,0,0,5.41-5.13C143.574,94.508,143.494,93.3,143.494,91.97ZM89.755,115.652c-.307-2.861-.6-5.545-.889-8.223h-25.2c-.291,2.748-.571,5.432-.868,8.223Z" fill="#f280df"/>
      <path id="Path_874" data-name="Path 874" d="M75.018,145.466H16.44c-.49,0-.986.016-1.476-.005-2.6-.119-4.1-2.371-2.953-4.7,2.026-4.117,4.2-8.153,6.342-12.216a3.248,3.248,0,0,1,3.088-1.8c.436,0,.873-.005,1.315-.005q52.262,0,104.519-.043c2.463-.005,3.971.814,5.022,3.044a103.465,103.465,0,0,0,5.07,9.731c2.161,3.556.172,6.1-3.6,6.067C114.175,145.385,94.6,145.466,75.018,145.466ZM20.25,138.881H129.678c-.722-1.423-1.455-2.635-1.972-3.939-.544-1.374-1.385-1.757-2.861-1.757q-49.878.073-99.75.038a4.74,4.74,0,0,0-1.142.022,1.776,1.776,0,0,0-1.04.571C22.006,135.411,21.187,137.06,20.25,138.881Z" fill="#f280df"/>
    </g>
  </g>
</svg>
