<?xml version="1.0" encoding="iso-8859-1"?>
<!-- Generator: Adobe Illustrator 19.0.0, SVG Export Plug-In . SVG Version: 6.00 Build 0)  -->
<svg xmlns="http://www.w3.org/2000/svg" xmlns:xlink="http://www.w3.org/1999/xlink" version="1.1" id="Capa_1" x="0px" y="0px" viewBox="0 0 453.741 453.741" style="enable-background:new 0 0 453.741 453.741;" xml:space="preserve" width="512" height="512">
<g>
	<path style="fill:#F2EBD9;" d="M423.741,25.496H30.001c-16.5,0-30,13.5-30,30v228.14l226.87,20l226.87-20V55.496   C453.741,38.996,440.241,25.496,423.741,25.496z"/>
	<path style="fill:#FFFFFF;" d="M342.811,213.636c-0.01,0.01-40.94,30-40.94,30h-30V65.496h141.87v178.14h-30L342.811,213.636z"/>
	<polygon style="fill:#98D9D5;" points="301.871,193.795 301.871,243.635 342.806,243.635 352.806,175.552  "/>
	<polygon style="fill:#6DA8D6;" points="342.806,175.552 342.806,243.635 383.741,243.635 383.741,193.795  "/>
	<path style="fill:#FFCC75;" d="M359.861,136.426c0,0.01-34.11,0.01-34.11,0.01C325.751,136.426,359.861,136.426,359.861,136.426z"/>
	<path style="fill:#98D9D5;" d="M342.811,95.496l17.05,40.93C359.861,136.426,342.801,95.506,342.811,95.496z"/>
	<rect x="181.872" y="348.842" style="fill:#F2EBD9;" width="90" height="71.904"/>
	<path style="fill:#98D9D5;" d="M311.872,428.246h-170c-4.143,0-7.5-3.358-7.5-7.5s3.357-7.5,7.5-7.5h170c4.143,0,7.5,3.358,7.5,7.5   S316.015,428.246,311.872,428.246z"/>
	<path style="fill:#98D9D5;" d="M0,283.631v35.21c0,16.5,13.5,30,30,30h393.74c16.5,0,30-13.5,30-30v-35.21H0z"/>
	<path style="fill:#6DA8D6;" d="M232.501,72.996h-192.5c-4.143,0-7.5-3.358-7.5-7.5s3.357-7.5,7.5-7.5h192.5   c4.143,0,7.5,3.358,7.5,7.5S236.644,72.996,232.501,72.996z"/>
	<path style="fill:#6DA8D6;" d="M232.501,108.623h-192.5c-4.143,0-7.5-3.358-7.5-7.5s3.357-7.5,7.5-7.5h192.5   c4.143,0,7.5,3.358,7.5,7.5S236.644,108.623,232.501,108.623z"/>
	<path style="fill:#6DA8D6;" d="M136.251,144.251h-96.25c-4.143,0-7.5-3.358-7.5-7.5s3.357-7.5,7.5-7.5h96.25   c4.143,0,7.5,3.358,7.5,7.5S140.394,144.251,136.251,144.251z"/>
	<path style="fill:#6DA8D6;" d="M232.501,179.879h-192.5c-4.143,0-7.5-3.358-7.5-7.5s3.357-7.5,7.5-7.5h192.5   c4.143,0,7.5,3.358,7.5,7.5S236.644,179.879,232.501,179.879z"/>
	<path style="fill:#6DA8D6;" d="M232.501,215.507h-192.5c-4.143,0-7.5-3.358-7.5-7.5s3.357-7.5,7.5-7.5h192.5   c4.143,0,7.5,3.358,7.5,7.5S236.644,215.507,232.501,215.507z"/>
	<path style="fill:#6DA8D6;" d="M136.251,251.135h-96.25c-4.143,0-7.5-3.358-7.5-7.5s3.357-7.5,7.5-7.5h96.25   c4.143,0,7.5,3.358,7.5,7.5S140.394,251.135,136.251,251.135z"/>
	<polygon style="fill:#98D9D5;" points="342.806,95.496 325.75,136.431 342.806,146.431 359.863,136.431  "/>
	<path style="fill:#FFCC75;" d="M301.871,193.795c4.596,2.65,10.056,4.192,15.919,4.192c10.537,0,19.78-4.966,25.016-12.434   c5.235,7.468,14.479,12.434,25.016,12.434c5.863,0,11.323-1.542,15.919-4.192v-0.055l-23.879-57.309H325.75l-23.879,57.309V193.795   z"/>
</g>















</svg>
